%FSTAX23Y23*%
%MOIN*%
%SFA1B1*%

%IPPOS*%
%ADD53C,0.010000*%
%ADD54C,0.008000*%
%ADD56C,0.020000*%
%ADD57C,0.015000*%
%ADD58C,0.035000*%
%ADD59C,0.040000*%
%ADD64C,0.059060*%
%ADD65R,0.059060X0.059060*%
%ADD66C,0.078740*%
%ADD67C,0.066930*%
%ADD68C,0.043310*%
%ADD69R,0.059060X0.059060*%
%ADD70O,0.120000X0.060000*%
%ADD71C,0.100000*%
%ADD72C,0.025000*%
%ADD73C,0.030000*%
%ADD74C,0.050000*%
%ADD75C,0.040000*%
%LNhammerhead_pcb_r1.0-1*%
%LPD*%
G36*
X04598Y01679D02*
Y00671D01*
X04594Y00669*
X04564Y00699*
X04562Y00703*
X04558Y00708*
X04553Y00712*
X04546Y00715*
X0454Y00716*
X04533Y00715*
X04526Y00712*
X04523Y0071*
X04518Y00712*
Y00725*
X04517Y00734*
X04511Y00741*
X04484Y00768*
Y0087*
X04511Y00897*
X04517Y00904*
X04518Y00914*
Y01504*
X0453*
Y01575*
X04518*
Y01605*
X04591Y01678*
X04594Y01681*
X04598Y01679*
G37*
G36*
X01635Y01D02*
X01635Y00275D01*
X0163Y00274*
X01627Y0028*
X0162Y00284*
X01612Y00286*
X01603Y00284*
X01596Y0028*
X01595Y00277*
X0102*
X00818Y00479*
X00814Y00482*
X00809Y00483*
X00662*
X00662Y00485*
X00661Y00486*
Y00557*
X00728Y00624*
X00922*
X00923Y00623*
X0093Y0062*
X00939Y00619*
X00947Y0062*
X00954Y00623*
X00961Y00628*
X00966Y00635*
X00969Y00642*
X0097Y00651*
X00969Y00659*
X00966Y00666*
X00961Y00673*
X00954Y00678*
X00947Y00681*
X00939Y00682*
X0093Y00681*
X00923Y00678*
X00922Y00677*
X00718*
X00711Y00676*
X00704Y00673*
X00699Y00669*
X00616Y00586*
X00612Y00581*
X00609Y00574*
X00608Y00568*
Y00486*
X00607Y00485*
X00604Y00478*
X00603Y0047*
X00604Y00461*
X00607Y00454*
X00612Y00447*
X00619Y00442*
X00626Y00439*
X00635Y00438*
X00643Y00439*
X0065Y00442*
X00657Y00447*
X00662Y00454*
X00662Y00456*
X00803*
X01005Y00254*
X01009Y00251*
X01015Y0025*
X01596*
X01596Y00249*
X01603Y00245*
X01612Y00243*
X0162Y00245*
X01627Y00249*
X0163Y00255*
X01635Y00254*
X01636Y00029*
X01632Y00026*
X01299*
X01297Y0003*
X01298Y00031*
X01302Y00036*
X01305Y00043*
X01306Y0005*
X01305Y00056*
X01304Y00059*
X01322Y00077*
X01508*
X01512Y00078*
X01515Y0008*
X01542Y00107*
X01544Y0011*
X01545Y00114*
Y00127*
X01549Y0013*
X01552Y00129*
X0156Y00131*
X01567Y00135*
X01571Y00142*
X01573Y00151*
X01571Y00159*
X01567Y00166*
X0156Y0017*
X01552Y00172*
X01543Y0017*
X01536Y00166*
X01532Y00159*
X0153Y00151*
X01531Y00145*
X01527Y00141*
X01525Y00137*
X01524Y00134*
Y00118*
X01504Y00098*
X01318*
X01314Y00097*
X0131Y00095*
X01289Y00074*
X01265Y00098*
X01257Y00103*
X01248Y00105*
X00843*
X00788Y00159*
Y00175*
X0079Y00176*
X00795*
X00797Y00172*
X00804Y00167*
X00811Y00164*
X0082Y00163*
X00828Y00164*
X00835Y00167*
X00842Y00172*
X00845Y00176*
X0085*
X00852Y00172*
X00859Y00167*
X00866Y00164*
X00875Y00163*
X00883Y00164*
X0089Y00167*
X00897Y00172*
X009Y00176*
X00905*
X00907Y00172*
X00914Y00167*
X00921Y00164*
X0093Y00163*
X00938Y00164*
X00945Y00167*
X00952Y00172*
X00955Y00176*
X0096*
X00962Y00172*
X00969Y00167*
X00976Y00164*
X00985Y00163*
X00993Y00164*
X01Y00167*
X01007Y00172*
X01012Y00179*
X01015Y00186*
X01016Y00195*
X01015Y00203*
X01012Y0021*
X01007Y00217*
X01Y00222*
X00993Y00225*
X00985Y00226*
X00976Y00225*
X00969Y00222*
X00962Y00217*
X0096Y00213*
X00955*
X00952Y00217*
X00945Y00222*
X00938Y00225*
X0093Y00226*
X00921Y00225*
X00914Y00222*
X00907Y00217*
X00905Y00213*
X009*
X00897Y00217*
X0089Y00222*
X00883Y00225*
X00875Y00226*
X00866Y00225*
X00859Y00222*
X00852Y00217*
X0085Y00213*
X00845*
X00842Y00217*
X00835Y00222*
X00828Y00225*
X0082Y00226*
X00811Y00225*
X00804Y00222*
X00797Y00217*
X00795Y00213*
X0079*
X00787Y00217*
X0078Y00222*
X00773Y00225*
X00765Y00226*
X00756Y00225*
X00749Y00222*
X00742Y00217*
X00737Y0021*
X00734Y00203*
X00733Y00195*
X00734Y00186*
X00737Y00179*
X00741Y00175*
Y0015*
X00742Y0014*
X00748Y00133*
X00816Y00064*
X00824Y00059*
X00833Y00057*
X01238*
X01255Y0004*
X01257Y00036*
X01261Y00031*
X01262Y0003*
X0126Y00026*
X00567*
Y00218*
X00572Y00222*
X00579Y00232*
X00584Y00243*
X00585Y00255*
X00584Y00266*
X00579Y00277*
X00572Y00287*
X00567Y00291*
Y01035*
X01635*
Y01*
G37*
G36*
X04598Y02084D02*
X04594Y02082D01*
X04593Y02083*
X04588Y02087*
X04581Y0209*
X04575Y02091*
X04568Y0209*
X04561Y02087*
X04556Y02083*
X04552Y02078*
X04549Y02071*
X04548Y02065*
X04549Y02058*
X04551Y02054*
Y01704*
X04478Y01631*
X04472Y01624*
X04471Y01615*
Y01575*
X04459*
Y01504*
X04471*
Y00923*
X04444Y00896*
X04438Y00889*
X04437Y0088*
Y00759*
X04438Y00749*
X04444Y00742*
X04471Y00715*
Y0064*
X04459*
Y00569*
X0453*
Y0064*
X04518*
Y00667*
X04523Y00669*
X04526Y00667*
X0453Y00665*
X04557Y00638*
Y00086*
X04555Y00084*
X04551Y00082*
X04546Y00078*
X04542Y00073*
X04539Y00066*
X04538Y0006*
X04539Y00053*
X04542Y00046*
X04546Y00041*
X04551Y00037*
X04558Y00034*
X04565Y00033*
X04571Y00034*
X04578Y00037*
X04583Y00041*
X04587Y00046*
X04589Y0005*
X04594Y00055*
X04598Y00053*
Y00026*
X04374*
X04372Y0003*
X04373Y00031*
X04377Y00036*
X04379Y0004*
X04446Y00108*
X0445Y00112*
X04452Y00115*
X04453Y00125*
Y0047*
X04452Y00479*
X0445Y00482*
X04446Y00486*
X0433Y00603*
X0433Y00605*
X04329Y00614*
X04326Y00622*
X0432Y0063*
X04312Y00636*
X04304Y00639*
X04295Y0064*
X04293Y0064*
X04281Y00651*
Y01306*
X04282Y01309*
Y0134*
X04281Y01343*
Y01493*
X04293Y01504*
X04295Y01504*
X04304Y01505*
X04312Y01508*
X0432Y01514*
X04326Y01522*
X04329Y0153*
X0433Y0154*
X04329Y01549*
X04326Y01557*
X0432Y01565*
X04312Y01571*
X04304Y01574*
X04295Y01575*
X04285Y01574*
X04277Y01571*
X04269Y01565*
X04263Y01557*
X0426Y01549*
X04259Y0154*
X04259Y01538*
X04241Y01519*
X04235Y01512*
X04234Y01503*
Y01341*
X04234Y01338*
Y01311*
X04234Y01308*
Y00642*
X04235Y00632*
X04241Y00625*
X04259Y00606*
X04259Y00605*
X0426Y00595*
X04263Y00587*
X04269Y00579*
X04277Y00573*
X04285Y0057*
X04295Y00569*
X04296Y00569*
X04406Y0046*
Y00134*
X04389Y00118*
X04385Y0012*
X04385Y00125*
X04384Y00134*
X04381Y00142*
X04375Y0015*
X04367Y00156*
X04359Y00159*
X0435Y0016*
X0434Y00159*
X04332Y00156*
X04324Y0015*
X04318Y00142*
X04315Y00134*
X04314Y00125*
X04315Y00115*
X04318Y00107*
X04324Y00099*
X04332Y00093*
X0434Y0009*
X0435Y00089*
X04354Y00089*
X04356Y00085*
X04345Y00074*
X04341Y00072*
X04336Y00068*
X04332Y00063*
X04329Y00056*
X04328Y0005*
X04329Y00043*
X04332Y00036*
X04336Y00031*
X04337Y0003*
X04335Y00026*
X03365*
Y0072*
Y0073*
X033Y00795*
Y0083*
Y00922*
X03372Y00994*
X03386Y01008*
X03499*
X035Y01009*
X03519Y01028*
Y01534*
X03366Y01687*
Y02123*
X04598*
Y02084*
G37*
%LNhammerhead_pcb_r1.0-2*%
%LPC*%
G36*
X0405Y0036D02*
X0404Y00359D01*
X04032Y00356*
X04024Y0035*
X04018Y00342*
X04015Y00334*
X04014Y00325*
X04015Y00315*
X04018Y00307*
X04024Y00299*
X04032Y00293*
X0404Y0029*
X0405Y00289*
X04059Y0029*
X04067Y00293*
X04075Y00299*
X04081Y00307*
X04084Y00315*
X04085Y00325*
X04084Y00334*
X04081Y00342*
X04075Y0035*
X04067Y00356*
X04059Y00359*
X0405Y0036*
G37*
G36*
X0415D02*
X0414Y00359D01*
X04132Y00356*
X04124Y0035*
X04118Y00342*
X04115Y00334*
X04114Y00325*
X04115Y00315*
X04118Y00307*
X04124Y00299*
X04132Y00293*
X0414Y0029*
X0415Y00289*
X04159Y0029*
X04167Y00293*
X04175Y00299*
X04181Y00307*
X04184Y00315*
X04185Y00325*
X04184Y00334*
X04181Y00342*
X04175Y0035*
X04167Y00356*
X04159Y00359*
X0415Y0036*
G37*
G36*
X0425D02*
X0424Y00359D01*
X04232Y00356*
X04224Y0035*
X04218Y00342*
X04215Y00334*
X04214Y00325*
X04215Y00315*
X04218Y00307*
X04224Y00299*
X04232Y00293*
X0424Y0029*
X0425Y00289*
X04259Y0029*
X04267Y00293*
X04275Y00299*
X04281Y00307*
X04284Y00315*
X04285Y00325*
X04284Y00334*
X04281Y00342*
X04275Y0035*
X04267Y00356*
X04259Y00359*
X0425Y0036*
G37*
G36*
X0395D02*
X0394Y00359D01*
X03932Y00356*
X03924Y0035*
X03918Y00342*
X03915Y00334*
X03914Y00325*
X03915Y00315*
X03918Y00307*
X03924Y00299*
X03932Y00293*
X0394Y0029*
X0395Y00289*
X03959Y0029*
X03967Y00293*
X03975Y00299*
X03981Y00307*
X03984Y00315*
X03985Y00325*
X03984Y00334*
X03981Y00342*
X03975Y0035*
X03967Y00356*
X03959Y00359*
X0395Y0036*
G37*
G36*
X0365D02*
X0364Y00359D01*
X03632Y00356*
X03624Y0035*
X03618Y00342*
X03615Y00334*
X03614Y00325*
X03615Y00315*
X03618Y00307*
X03624Y00299*
X03632Y00293*
X0364Y0029*
X0365Y00289*
X03659Y0029*
X03667Y00293*
X03675Y00299*
X03681Y00307*
X03684Y00315*
X03685Y00325*
X03684Y00334*
X03681Y00342*
X03675Y0035*
X03667Y00356*
X03659Y00359*
X0365Y0036*
G37*
G36*
X0355D02*
X0354Y00359D01*
X03532Y00356*
X03524Y0035*
X03518Y00342*
X03515Y00334*
X03514Y00325*
X03515Y00315*
X03518Y00307*
X03524Y00299*
X03532Y00293*
X0354Y0029*
X0355Y00289*
X03559Y0029*
X03567Y00293*
X03575Y00299*
X03581Y00307*
X03584Y00315*
X03585Y00325*
X03584Y00334*
X03581Y00342*
X03575Y0035*
X03567Y00356*
X03559Y00359*
X0355Y0036*
G37*
G36*
X0385D02*
X0384Y00359D01*
X03832Y00356*
X03824Y0035*
X03818Y00342*
X03815Y00334*
X03814Y00325*
X03815Y00315*
X03818Y00307*
X03824Y00299*
X03832Y00293*
X0384Y0029*
X0385Y00289*
X03859Y0029*
X03867Y00293*
X03875Y00299*
X03881Y00307*
X03884Y00315*
X03885Y00325*
X03884Y00334*
X03881Y00342*
X03875Y0035*
X03867Y00356*
X03859Y00359*
X0385Y0036*
G37*
G36*
X0375D02*
X0374Y00359D01*
X03732Y00356*
X03724Y0035*
X03718Y00342*
X03715Y00334*
X03714Y00325*
X03715Y00315*
X03718Y00307*
X03724Y00299*
X03732Y00293*
X0374Y0029*
X0375Y00289*
X03759Y0029*
X03767Y00293*
X03775Y00299*
X03781Y00307*
X03784Y00315*
X03785Y00325*
X03784Y00334*
X03781Y00342*
X03775Y0035*
X03767Y00356*
X03759Y00359*
X0375Y0036*
G37*
G36*
X04385Y0036D02*
X04314D01*
Y00289*
X04385*
Y0036*
G37*
G36*
X01095Y00896D02*
X01086Y00895D01*
X01079Y00892*
X01072Y00887*
X01067Y0088*
X01064Y00873*
X01063Y00865*
X01064Y00856*
X01067Y00849*
X01072Y00842*
X01079Y00837*
X01086Y00834*
X01095Y00833*
X01103Y00834*
X0111Y00837*
X01117Y00842*
X01122Y00849*
X01125Y00856*
X01126Y00865*
X01125Y00873*
X01122Y0088*
X01117Y00887*
X0111Y00892*
X01103Y00895*
X01095Y00896*
G37*
G36*
X0103Y0081D02*
X0102Y00809D01*
X01012Y00806*
X01004Y008*
X00998Y00792*
X00995Y00784*
X00994Y00775*
X00995Y00765*
X00998Y00757*
X01004Y00749*
X01012Y00743*
X0102Y0074*
X0103Y00739*
X01039Y0074*
X01047Y00743*
X01055Y00749*
X01061Y00757*
X01064Y00765*
X01065Y00775*
X01064Y00784*
X01061Y00792*
X01055Y008*
X01047Y00806*
X01039Y00809*
X0103Y0081*
G37*
G36*
X0155Y01001D02*
X01541Y01D01*
X01534Y00997*
X01527Y00992*
X01522Y00985*
X01519Y00978*
X01518Y0097*
X01519Y00961*
X01522Y00954*
X01527Y00947*
X01534Y00942*
X01541Y00939*
X0155Y00938*
X01558Y00939*
X01565Y00942*
X01572Y00947*
X01577Y00954*
X0158Y00961*
X01581Y0097*
X0158Y00978*
X01577Y00985*
X01572Y00992*
X01565Y00997*
X01558Y01*
X0155Y01001*
G37*
G36*
X01165Y00896D02*
X01156Y00895D01*
X01149Y00892*
X01142Y00887*
X01137Y0088*
X01134Y00873*
X01133Y00865*
X01134Y00856*
X01137Y00849*
X01142Y00842*
X01149Y00837*
X01156Y00834*
X01165Y00833*
X01173Y00834*
X0118Y00837*
X01187Y00842*
X01192Y00849*
X01195Y00856*
X01196Y00865*
X01195Y00873*
X01192Y0088*
X01187Y00887*
X0118Y00892*
X01173Y00895*
X01165Y00896*
G37*
G36*
X03907Y00668D02*
X03899Y00667D01*
X03892Y00662*
X03887Y00655*
X03886Y00647*
X03887Y00639*
X03892Y00632*
X03899Y00627*
X03907Y00626*
X03915Y00627*
X03922Y00632*
X03927Y00639*
X03928Y00647*
X03927Y00655*
X03922Y00662*
X03915Y00667*
X03907Y00668*
G37*
G36*
X04395Y0064D02*
X04385Y00639D01*
X04377Y00636*
X04369Y0063*
X04363Y00622*
X0436Y00614*
X04359Y00605*
X0436Y00595*
X04363Y00587*
X04369Y00579*
X04377Y00573*
X04385Y0057*
X04395Y00569*
X04404Y0057*
X04412Y00573*
X0442Y00579*
X04426Y00587*
X04429Y00595*
X0443Y00605*
X04429Y00614*
X04426Y00622*
X0442Y0063*
X04412Y00636*
X04404Y00639*
X04395Y0064*
G37*
G36*
X03427Y00763D02*
X03419Y00762D01*
X03412Y00757*
X03407Y0075*
X03406Y00742*
X03407Y00734*
X03412Y00727*
X03419Y00722*
X03427Y00721*
X03435Y00722*
X03442Y00727*
X03447Y00734*
X03448Y00742*
X03447Y0075*
X03442Y00757*
X03435Y00762*
X03427Y00763*
G37*
G36*
X01065Y0071D02*
X00994D01*
Y00639*
X01065*
Y0071*
G37*
G36*
X0345Y0036D02*
X0344Y00359D01*
X03432Y00356*
X03424Y0035*
X03418Y00342*
X03415Y00334*
X03414Y00325*
X03415Y00315*
X03418Y00307*
X03424Y00299*
X03432Y00293*
X0344Y0029*
X0345Y00289*
X03459Y0029*
X03467Y00293*
X03475Y00299*
X03481Y00307*
X03484Y00315*
X03485Y00325*
X03484Y00334*
X03481Y00342*
X03475Y0035*
X03467Y00356*
X03459Y00359*
X0345Y0036*
G37*
G36*
X0405Y0016D02*
X0404Y00159D01*
X04032Y00156*
X04024Y0015*
X04018Y00142*
X04015Y00134*
X04014Y00125*
X04015Y00115*
X04018Y00107*
X04024Y00099*
X04032Y00093*
X0404Y0009*
X0405Y00089*
X04059Y0009*
X04067Y00093*
X04075Y00099*
X04081Y00107*
X04084Y00115*
X04085Y00125*
X04084Y00134*
X04081Y00142*
X04075Y0015*
X04067Y00156*
X04059Y00159*
X0405Y0016*
G37*
G36*
X0395D02*
X0394Y00159D01*
X03932Y00156*
X03924Y0015*
X03918Y00142*
X03915Y00134*
X03914Y00125*
X03915Y00115*
X03918Y00107*
X03924Y00099*
X03932Y00093*
X0394Y0009*
X0395Y00089*
X03959Y0009*
X03967Y00093*
X03975Y00099*
X03981Y00107*
X03984Y00115*
X03985Y00125*
X03984Y00134*
X03981Y00142*
X03975Y0015*
X03967Y00156*
X03959Y00159*
X0395Y0016*
G37*
G36*
X0425D02*
X0424Y00159D01*
X04232Y00156*
X04224Y0015*
X04218Y00142*
X04215Y00134*
X04214Y00125*
X04215Y00115*
X04218Y00107*
X04224Y00099*
X04232Y00093*
X0424Y0009*
X0425Y00089*
X04259Y0009*
X04267Y00093*
X04275Y00099*
X04281Y00107*
X04284Y00115*
X04285Y00125*
X04284Y00134*
X04281Y00142*
X04275Y0015*
X04267Y00156*
X04259Y00159*
X0425Y0016*
G37*
G36*
X0415D02*
X0414Y00159D01*
X04132Y00156*
X04124Y0015*
X04118Y00142*
X04115Y00134*
X04114Y00125*
X04115Y00115*
X04118Y00107*
X04124Y00099*
X04132Y00093*
X0414Y0009*
X0415Y00089*
X04159Y0009*
X04167Y00093*
X04175Y00099*
X04181Y00107*
X04184Y00115*
X04185Y00125*
X04184Y00134*
X04181Y00142*
X04175Y0015*
X04167Y00156*
X04159Y00159*
X0415Y0016*
G37*
G36*
X0385D02*
X0384Y00159D01*
X03832Y00156*
X03824Y0015*
X03818Y00142*
X03815Y00134*
X03814Y00125*
X03815Y00115*
X03818Y00107*
X03824Y00099*
X03832Y00093*
X0384Y0009*
X0385Y00089*
X03859Y0009*
X03867Y00093*
X03875Y00099*
X03881Y00107*
X03884Y00115*
X03885Y00125*
X03884Y00134*
X03881Y00142*
X03875Y0015*
X03867Y00156*
X03859Y00159*
X0385Y0016*
G37*
G36*
X0355D02*
X0354Y00159D01*
X03532Y00156*
X03524Y0015*
X03518Y00142*
X03515Y00134*
X03514Y00125*
X03515Y00115*
X03518Y00107*
X03524Y00099*
X03532Y00093*
X0354Y0009*
X0355Y00089*
X03559Y0009*
X03567Y00093*
X03575Y00099*
X03581Y00107*
X03584Y00115*
X03585Y00125*
X03584Y00134*
X03581Y00142*
X03575Y0015*
X03567Y00156*
X03559Y00159*
X0355Y0016*
G37*
G36*
X0345D02*
X0344Y00159D01*
X03432Y00156*
X03424Y0015*
X03418Y00142*
X03415Y00134*
X03414Y00125*
X03415Y00115*
X03418Y00107*
X03424Y00099*
X03432Y00093*
X0344Y0009*
X0345Y00089*
X03459Y0009*
X03467Y00093*
X03475Y00099*
X03481Y00107*
X03484Y00115*
X03485Y00125*
X03484Y00134*
X03481Y00142*
X03475Y0015*
X03467Y00156*
X03459Y00159*
X0345Y0016*
G37*
G36*
X0375D02*
X0374Y00159D01*
X03732Y00156*
X03724Y0015*
X03718Y00142*
X03715Y00134*
X03714Y00125*
X03715Y00115*
X03718Y00107*
X03724Y00099*
X03732Y00093*
X0374Y0009*
X0375Y00089*
X03759Y0009*
X03767Y00093*
X03775Y00099*
X03781Y00107*
X03784Y00115*
X03785Y00125*
X03784Y00134*
X03781Y00142*
X03775Y0015*
X03767Y00156*
X03759Y00159*
X0375Y0016*
G37*
G36*
X0365D02*
X0364Y00159D01*
X03632Y00156*
X03624Y0015*
X03618Y00142*
X03615Y00134*
X03614Y00125*
X03615Y00115*
X03618Y00107*
X03624Y00099*
X03632Y00093*
X0364Y0009*
X0365Y00089*
X03659Y0009*
X03667Y00093*
X03675Y00099*
X03681Y00107*
X03684Y00115*
X03685Y00125*
X03684Y00134*
X03681Y00142*
X03675Y0015*
X03667Y00156*
X03659Y00159*
X0365Y0016*
G37*
G36*
X0345Y0026D02*
X0344Y00259D01*
X03432Y00256*
X03424Y0025*
X03418Y00242*
X03415Y00234*
X03414Y00225*
X03415Y00215*
X03418Y00207*
X03424Y00199*
X03432Y00193*
X0344Y0019*
X0345Y00189*
X03459Y0019*
X03467Y00193*
X03475Y00199*
X03481Y00207*
X03484Y00215*
X03485Y00225*
X03484Y00234*
X03481Y00242*
X03475Y0025*
X03467Y00256*
X03459Y00259*
X0345Y0026*
G37*
G36*
X0415D02*
X0414Y00259D01*
X04132Y00256*
X04124Y0025*
X04118Y00242*
X04115Y00234*
X04114Y00225*
X04115Y00215*
X04118Y00207*
X04124Y00199*
X04132Y00193*
X0414Y0019*
X0415Y00189*
X04159Y0019*
X04167Y00193*
X04175Y00199*
X04181Y00207*
X04184Y00215*
X04185Y00225*
X04184Y00234*
X04181Y00242*
X04175Y0025*
X04167Y00256*
X04159Y00259*
X0415Y0026*
G37*
G36*
X0405D02*
X0404Y00259D01*
X04032Y00256*
X04024Y0025*
X04018Y00242*
X04015Y00234*
X04014Y00225*
X04015Y00215*
X04018Y00207*
X04024Y00199*
X04032Y00193*
X0404Y0019*
X0405Y00189*
X04059Y0019*
X04067Y00193*
X04075Y00199*
X04081Y00207*
X04084Y00215*
X04085Y00225*
X04084Y00234*
X04081Y00242*
X04075Y0025*
X04067Y00256*
X04059Y00259*
X0405Y0026*
G37*
G36*
X0435D02*
X0434Y00259D01*
X04332Y00256*
X04324Y0025*
X04318Y00242*
X04315Y00234*
X04314Y00225*
X04315Y00215*
X04318Y00207*
X04324Y00199*
X04332Y00193*
X0434Y0019*
X0435Y00189*
X04359Y0019*
X04367Y00193*
X04375Y00199*
X04381Y00207*
X04384Y00215*
X04385Y00225*
X04384Y00234*
X04381Y00242*
X04375Y0025*
X04367Y00256*
X04359Y00259*
X0435Y0026*
G37*
G36*
X0425D02*
X0424Y00259D01*
X04232Y00256*
X04224Y0025*
X04218Y00242*
X04215Y00234*
X04214Y00225*
X04215Y00215*
X04218Y00207*
X04224Y00199*
X04232Y00193*
X0424Y0019*
X0425Y00189*
X04259Y0019*
X04267Y00193*
X04275Y00199*
X04281Y00207*
X04284Y00215*
X04285Y00225*
X04284Y00234*
X04281Y00242*
X04275Y0025*
X04267Y00256*
X04259Y00259*
X0425Y0026*
G37*
G36*
X0395D02*
X0394Y00259D01*
X03932Y00256*
X03924Y0025*
X03918Y00242*
X03915Y00234*
X03914Y00225*
X03915Y00215*
X03918Y00207*
X03924Y00199*
X03932Y00193*
X0394Y0019*
X0395Y00189*
X03959Y0019*
X03967Y00193*
X03975Y00199*
X03981Y00207*
X03984Y00215*
X03985Y00225*
X03984Y00234*
X03981Y00242*
X03975Y0025*
X03967Y00256*
X03959Y00259*
X0395Y0026*
G37*
G36*
X0365D02*
X0364Y00259D01*
X03632Y00256*
X03624Y0025*
X03618Y00242*
X03615Y00234*
X03614Y00225*
X03615Y00215*
X03618Y00207*
X03624Y00199*
X03632Y00193*
X0364Y0019*
X0365Y00189*
X03659Y0019*
X03667Y00193*
X03675Y00199*
X03681Y00207*
X03684Y00215*
X03685Y00225*
X03684Y00234*
X03681Y00242*
X03675Y0025*
X03667Y00256*
X03659Y00259*
X0365Y0026*
G37*
G36*
X0355D02*
X0354Y00259D01*
X03532Y00256*
X03524Y0025*
X03518Y00242*
X03515Y00234*
X03514Y00225*
X03515Y00215*
X03518Y00207*
X03524Y00199*
X03532Y00193*
X0354Y0019*
X0355Y00189*
X03559Y0019*
X03567Y00193*
X03575Y00199*
X03581Y00207*
X03584Y00215*
X03585Y00225*
X03584Y00234*
X03581Y00242*
X03575Y0025*
X03567Y00256*
X03559Y00259*
X0355Y0026*
G37*
G36*
X0385D02*
X0384Y00259D01*
X03832Y00256*
X03824Y0025*
X03818Y00242*
X03815Y00234*
X03814Y00225*
X03815Y00215*
X03818Y00207*
X03824Y00199*
X03832Y00193*
X0384Y0019*
X0385Y00189*
X03859Y0019*
X03867Y00193*
X03875Y00199*
X03881Y00207*
X03884Y00215*
X03885Y00225*
X03884Y00234*
X03881Y00242*
X03875Y0025*
X03867Y00256*
X03859Y00259*
X0385Y0026*
G37*
G36*
X0375D02*
X0374Y00259D01*
X03732Y00256*
X03724Y0025*
X03718Y00242*
X03715Y00234*
X03714Y00225*
X03715Y00215*
X03718Y00207*
X03724Y00199*
X03732Y00193*
X0374Y0019*
X0375Y00189*
X03759Y0019*
X03767Y00193*
X03775Y00199*
X03781Y00207*
X03784Y00215*
X03785Y00225*
X03784Y00234*
X03781Y00242*
X03775Y0025*
X03767Y00256*
X03759Y00259*
X0375Y0026*
G37*
G36*
X0415Y0196D02*
X0414Y01959D01*
X04132Y01956*
X04124Y0195*
X04118Y01942*
X04115Y01934*
X04114Y01925*
X04115Y01915*
X04118Y01907*
X04124Y01899*
X04132Y01893*
X0414Y0189*
X0415Y01889*
X04159Y0189*
X04167Y01893*
X04175Y01899*
X04181Y01907*
X04184Y01915*
X04185Y01925*
X04184Y01934*
X04181Y01942*
X04175Y0195*
X04167Y01956*
X04159Y01959*
X0415Y0196*
G37*
G36*
X0405D02*
X0404Y01959D01*
X04032Y01956*
X04024Y0195*
X04018Y01942*
X04015Y01934*
X04014Y01925*
X04015Y01915*
X04018Y01907*
X04024Y01899*
X04032Y01893*
X0404Y0189*
X0405Y01889*
X04059Y0189*
X04067Y01893*
X04075Y01899*
X04081Y01907*
X04084Y01915*
X04085Y01925*
X04084Y01934*
X04081Y01942*
X04075Y0195*
X04067Y01956*
X04059Y01959*
X0405Y0196*
G37*
G36*
X0435D02*
X0434Y01959D01*
X04332Y01956*
X04324Y0195*
X04318Y01942*
X04315Y01934*
X04314Y01925*
X04315Y01915*
X04318Y01907*
X04324Y01899*
X04332Y01893*
X0434Y0189*
X0435Y01889*
X04359Y0189*
X04367Y01893*
X04375Y01899*
X04381Y01907*
X04384Y01915*
X04385Y01925*
X04384Y01934*
X04381Y01942*
X04375Y0195*
X04367Y01956*
X04359Y01959*
X0435Y0196*
G37*
G36*
X0425D02*
X0424Y01959D01*
X04232Y01956*
X04224Y0195*
X04218Y01942*
X04215Y01934*
X04214Y01925*
X04215Y01915*
X04218Y01907*
X04224Y01899*
X04232Y01893*
X0424Y0189*
X0425Y01889*
X04259Y0189*
X04267Y01893*
X04275Y01899*
X04281Y01907*
X04284Y01915*
X04285Y01925*
X04284Y01934*
X04281Y01942*
X04275Y0195*
X04267Y01956*
X04259Y01959*
X0425Y0196*
G37*
G36*
X0395D02*
X0394Y01959D01*
X03932Y01956*
X03924Y0195*
X03918Y01942*
X03915Y01934*
X03914Y01925*
X03915Y01915*
X03918Y01907*
X03924Y01899*
X03932Y01893*
X0394Y0189*
X0395Y01889*
X03959Y0189*
X03967Y01893*
X03975Y01899*
X03981Y01907*
X03984Y01915*
X03985Y01925*
X03984Y01934*
X03981Y01942*
X03975Y0195*
X03967Y01956*
X03959Y01959*
X0395Y0196*
G37*
G36*
X0365D02*
X0364Y01959D01*
X03632Y01956*
X03624Y0195*
X03618Y01942*
X03615Y01934*
X03614Y01925*
X03615Y01915*
X03618Y01907*
X03624Y01899*
X03632Y01893*
X0364Y0189*
X0365Y01889*
X03659Y0189*
X03667Y01893*
X03675Y01899*
X03681Y01907*
X03684Y01915*
X03685Y01925*
X03684Y01934*
X03681Y01942*
X03675Y0195*
X03667Y01956*
X03659Y01959*
X0365Y0196*
G37*
G36*
X0355D02*
X0354Y01959D01*
X03532Y01956*
X03524Y0195*
X03518Y01942*
X03515Y01934*
X03514Y01925*
X03515Y01915*
X03518Y01907*
X03524Y01899*
X03532Y01893*
X0354Y0189*
X0355Y01889*
X03559Y0189*
X03567Y01893*
X03575Y01899*
X03581Y01907*
X03584Y01915*
X03585Y01925*
X03584Y01934*
X03581Y01942*
X03575Y0195*
X03567Y01956*
X03559Y01959*
X0355Y0196*
G37*
G36*
X0385D02*
X0384Y01959D01*
X03832Y01956*
X03824Y0195*
X03818Y01942*
X03815Y01934*
X03814Y01925*
X03815Y01915*
X03818Y01907*
X03824Y01899*
X03832Y01893*
X0384Y0189*
X0385Y01889*
X03859Y0189*
X03867Y01893*
X03875Y01899*
X03881Y01907*
X03884Y01915*
X03885Y01925*
X03884Y01934*
X03881Y01942*
X03875Y0195*
X03867Y01956*
X03859Y01959*
X0385Y0196*
G37*
G36*
X0375D02*
X0374Y01959D01*
X03732Y01956*
X03724Y0195*
X03718Y01942*
X03715Y01934*
X03714Y01925*
X03715Y01915*
X03718Y01907*
X03724Y01899*
X03732Y01893*
X0374Y0189*
X0375Y01889*
X03759Y0189*
X03767Y01893*
X03775Y01899*
X03781Y01907*
X03784Y01915*
X03785Y01925*
X03784Y01934*
X03781Y01942*
X03775Y0195*
X03767Y01956*
X03759Y01959*
X0375Y0196*
G37*
G36*
X0345Y0206D02*
X0344Y02059D01*
X03432Y02056*
X03424Y0205*
X03418Y02042*
X03415Y02034*
X03414Y02025*
X03415Y02015*
X03418Y02007*
X03424Y01999*
X03432Y01993*
X0344Y0199*
X0345Y01989*
X03459Y0199*
X03467Y01993*
X03475Y01999*
X03481Y02007*
X03484Y02015*
X03485Y02025*
X03484Y02034*
X03481Y02042*
X03475Y0205*
X03467Y02056*
X03459Y02059*
X0345Y0206*
G37*
G36*
X0415D02*
X0414Y02059D01*
X04132Y02056*
X04124Y0205*
X04118Y02042*
X04115Y02034*
X04114Y02025*
X04115Y02015*
X04118Y02007*
X04124Y01999*
X04132Y01993*
X0414Y0199*
X0415Y01989*
X04159Y0199*
X04167Y01993*
X04175Y01999*
X04181Y02007*
X04184Y02015*
X04185Y02025*
X04184Y02034*
X04181Y02042*
X04175Y0205*
X04167Y02056*
X04159Y02059*
X0415Y0206*
G37*
G36*
X0405D02*
X0404Y02059D01*
X04032Y02056*
X04024Y0205*
X04018Y02042*
X04015Y02034*
X04014Y02025*
X04015Y02015*
X04018Y02007*
X04024Y01999*
X04032Y01993*
X0404Y0199*
X0405Y01989*
X04059Y0199*
X04067Y01993*
X04075Y01999*
X04081Y02007*
X04084Y02015*
X04085Y02025*
X04084Y02034*
X04081Y02042*
X04075Y0205*
X04067Y02056*
X04059Y02059*
X0405Y0206*
G37*
G36*
X0435D02*
X0434Y02059D01*
X04332Y02056*
X04324Y0205*
X04318Y02042*
X04315Y02034*
X04314Y02025*
X04315Y02015*
X04318Y02007*
X04324Y01999*
X04332Y01993*
X0434Y0199*
X0435Y01989*
X04359Y0199*
X04367Y01993*
X04375Y01999*
X04381Y02007*
X04384Y02015*
X04385Y02025*
X04384Y02034*
X04381Y02042*
X04375Y0205*
X04367Y02056*
X04359Y02059*
X0435Y0206*
G37*
G36*
X0425D02*
X0424Y02059D01*
X04232Y02056*
X04224Y0205*
X04218Y02042*
X04215Y02034*
X04214Y02025*
X04215Y02015*
X04218Y02007*
X04224Y01999*
X04232Y01993*
X0424Y0199*
X0425Y01989*
X04259Y0199*
X04267Y01993*
X04275Y01999*
X04281Y02007*
X04284Y02015*
X04285Y02025*
X04284Y02034*
X04281Y02042*
X04275Y0205*
X04267Y02056*
X04259Y02059*
X0425Y0206*
G37*
G36*
X0395D02*
X0394Y02059D01*
X03932Y02056*
X03924Y0205*
X03918Y02042*
X03915Y02034*
X03914Y02025*
X03915Y02015*
X03918Y02007*
X03924Y01999*
X03932Y01993*
X0394Y0199*
X0395Y01989*
X03959Y0199*
X03967Y01993*
X03975Y01999*
X03981Y02007*
X03984Y02015*
X03985Y02025*
X03984Y02034*
X03981Y02042*
X03975Y0205*
X03967Y02056*
X03959Y02059*
X0395Y0206*
G37*
G36*
X0365D02*
X0364Y02059D01*
X03632Y02056*
X03624Y0205*
X03618Y02042*
X03615Y02034*
X03614Y02025*
X03615Y02015*
X03618Y02007*
X03624Y01999*
X03632Y01993*
X0364Y0199*
X0365Y01989*
X03659Y0199*
X03667Y01993*
X03675Y01999*
X03681Y02007*
X03684Y02015*
X03685Y02025*
X03684Y02034*
X03681Y02042*
X03675Y0205*
X03667Y02056*
X03659Y02059*
X0365Y0206*
G37*
G36*
X0355D02*
X0354Y02059D01*
X03532Y02056*
X03524Y0205*
X03518Y02042*
X03515Y02034*
X03514Y02025*
X03515Y02015*
X03518Y02007*
X03524Y01999*
X03532Y01993*
X0354Y0199*
X0355Y01989*
X03559Y0199*
X03567Y01993*
X03575Y01999*
X03581Y02007*
X03584Y02015*
X03585Y02025*
X03584Y02034*
X03581Y02042*
X03575Y0205*
X03567Y02056*
X03559Y02059*
X0355Y0206*
G37*
G36*
X0385D02*
X0384Y02059D01*
X03832Y02056*
X03824Y0205*
X03818Y02042*
X03815Y02034*
X03814Y02025*
X03815Y02015*
X03818Y02007*
X03824Y01999*
X03832Y01993*
X0384Y0199*
X0385Y01989*
X03859Y0199*
X03867Y01993*
X03875Y01999*
X03881Y02007*
X03884Y02015*
X03885Y02025*
X03884Y02034*
X03881Y02042*
X03875Y0205*
X03867Y02056*
X03859Y02059*
X0385Y0206*
G37*
G36*
X0375D02*
X0374Y02059D01*
X03732Y02056*
X03724Y0205*
X03718Y02042*
X03715Y02034*
X03714Y02025*
X03715Y02015*
X03718Y02007*
X03724Y01999*
X03732Y01993*
X0374Y0199*
X0375Y01989*
X03759Y0199*
X03767Y01993*
X03775Y01999*
X03781Y02007*
X03784Y02015*
X03785Y02025*
X03784Y02034*
X03781Y02042*
X03775Y0205*
X03767Y02056*
X03759Y02059*
X0375Y0206*
G37*
G36*
X0345Y0196D02*
X0344Y01959D01*
X03432Y01956*
X03424Y0195*
X03418Y01942*
X03415Y01934*
X03414Y01925*
X03415Y01915*
X03418Y01907*
X03424Y01899*
X03432Y01893*
X0344Y0189*
X0345Y01889*
X03459Y0189*
X03467Y01893*
X03475Y01899*
X03481Y01907*
X03484Y01915*
X03485Y01925*
X03484Y01934*
X03481Y01942*
X03475Y0195*
X03467Y01956*
X03459Y01959*
X0345Y0196*
G37*
G36*
X04395Y01575D02*
X04385Y01574D01*
X04377Y01571*
X04369Y01565*
X04363Y01557*
X0436Y01549*
X04359Y0154*
X0436Y0153*
X04363Y01522*
X04369Y01514*
X04377Y01508*
X04385Y01505*
X04395Y01504*
X04404Y01505*
X04412Y01508*
X0442Y01514*
X04426Y01522*
X04429Y0153*
X0443Y0154*
X04429Y01549*
X04426Y01557*
X0442Y01565*
X04412Y01571*
X04404Y01574*
X04395Y01575*
G37*
G36*
X0362Y01501D02*
X03611Y01499D01*
X03604Y01495*
X036Y01488*
X03598Y0148*
X036Y01471*
X03604Y01464*
X03611Y0146*
X0362Y01458*
X03628Y0146*
X03635Y01464*
X03639Y01471*
X03641Y0148*
X03639Y01488*
X03635Y01495*
X03628Y01499*
X0362Y01501*
G37*
G36*
X0355Y0186D02*
X0354Y01859D01*
X03532Y01856*
X03524Y0185*
X03518Y01842*
X03515Y01834*
X03514Y01825*
X03515Y01815*
X03518Y01807*
X03524Y01799*
X03532Y01793*
X0354Y0179*
X0355Y01789*
X03559Y0179*
X03567Y01793*
X03575Y01799*
X03581Y01807*
X03584Y01815*
X03585Y01825*
X03584Y01834*
X03581Y01842*
X03575Y0185*
X03567Y01856*
X03559Y01859*
X0355Y0186*
G37*
G36*
X03922Y01588D02*
X03914Y01587D01*
X03907Y01582*
X03902Y01575*
X03901Y01567*
X03902Y01559*
X03907Y01552*
X03914Y01547*
X03922Y01546*
X0393Y01547*
X03937Y01552*
X03942Y01559*
X03943Y01567*
X03942Y01575*
X03937Y01582*
X0393Y01587*
X03922Y01588*
G37*
G36*
X04145Y01425D02*
X04074D01*
Y01354*
X04145*
Y01425*
G37*
G36*
X04025Y01161D02*
X03715D01*
X0371Y01159*
X03708Y01155*
Y00985*
X0371Y0098*
X03715Y00978*
X03885*
X03889Y0098*
X03891Y00985*
Y01108*
X04025*
X04029Y0111*
X04031Y01115*
Y01155*
X04029Y01159*
X04025Y01161*
G37*
G36*
X00944Y00945D02*
X00936Y00944D01*
X00931Y0094*
X0091*
Y0094*
X00904Y00939*
X009Y00936*
X00839Y00875*
X00697*
X00685Y00887*
X00684Y00894*
X0068Y009*
X00674Y00904*
X00667Y00905*
X00659Y00904*
X00653Y009*
X00649Y00894*
X00648Y00887*
X00649Y00879*
X00653Y00873*
X00659Y00869*
X00666Y00868*
X00682Y00852*
X00686Y00849*
X00692Y00848*
X00845*
X0085Y00849*
X00854Y00852*
X00915Y00913*
X00931*
X00936Y00909*
X00944Y00908*
X00951Y00909*
X00957Y00913*
X00961Y00919*
X00962Y00927*
X00961Y00934*
X00957Y0094*
X00951Y00944*
X00944Y00945*
G37*
G36*
X04144Y01177D02*
X04137Y01176D01*
X0413Y01173*
X04125Y01169*
X04121Y01163*
X04118Y01157*
X04117Y0115*
X04118Y01144*
X04121Y01137*
X04125Y01132*
X0413Y01128*
X04137Y01125*
X04144Y01124*
X0415Y01125*
X04157Y01128*
X04162Y01132*
X04166Y01137*
X04169Y01144*
X0417Y0115*
X04169Y01157*
X04166Y01163*
X04162Y01169*
X04157Y01173*
X0415Y01176*
X04144Y01177*
G37*
G36*
X04325Y01071D02*
X04318Y0107D01*
X04311Y01067*
X04306Y01063*
X04302Y01058*
X04299Y01051*
X04298Y01045*
X04299Y01038*
X04302Y01031*
X04306Y01026*
X04311Y01022*
X04318Y01019*
X04325Y01018*
X04331Y01019*
X04338Y01022*
X04343Y01026*
X04347Y01031*
X0435Y01038*
X04351Y01045*
X0435Y01051*
X04347Y01058*
X04343Y01063*
X04338Y01067*
X04331Y0107*
X04325Y01071*
G37*
G36*
X0425Y0186D02*
X0424Y01859D01*
X04232Y01856*
X04224Y0185*
X04218Y01842*
X04215Y01834*
X04214Y01825*
X04215Y01815*
X04218Y01807*
X04224Y01799*
X04232Y01793*
X0424Y0179*
X0425Y01789*
X04259Y0179*
X04267Y01793*
X04275Y01799*
X04281Y01807*
X04284Y01815*
X04285Y01825*
X04284Y01834*
X04281Y01842*
X04275Y0185*
X04267Y01856*
X04259Y01859*
X0425Y0186*
G37*
G36*
X0415D02*
X0414Y01859D01*
X04132Y01856*
X04124Y0185*
X04118Y01842*
X04115Y01834*
X04114Y01825*
X04115Y01815*
X04118Y01807*
X04124Y01799*
X04132Y01793*
X0414Y0179*
X0415Y01789*
X04159Y0179*
X04167Y01793*
X04175Y01799*
X04181Y01807*
X04184Y01815*
X04185Y01825*
X04184Y01834*
X04181Y01842*
X04175Y0185*
X04167Y01856*
X04159Y01859*
X0415Y0186*
G37*
G36*
X03485Y0186D02*
X03414D01*
Y01789*
X03485*
Y0186*
G37*
G36*
X0435Y0186D02*
X0434Y01859D01*
X04332Y01856*
X04324Y0185*
X04318Y01842*
X04315Y01834*
X04314Y01825*
X04315Y01815*
X04318Y01807*
X04324Y01799*
X04332Y01793*
X0434Y0179*
X0435Y01789*
X04359Y0179*
X04367Y01793*
X04375Y01799*
X04381Y01807*
X04384Y01815*
X04385Y01825*
X04384Y01834*
X04381Y01842*
X04375Y0185*
X04367Y01856*
X04359Y01859*
X0435Y0186*
G37*
G36*
X0405D02*
X0404Y01859D01*
X04032Y01856*
X04024Y0185*
X04018Y01842*
X04015Y01834*
X04014Y01825*
X04015Y01815*
X04018Y01807*
X04024Y01799*
X04032Y01793*
X0404Y0179*
X0405Y01789*
X04059Y0179*
X04067Y01793*
X04075Y01799*
X04081Y01807*
X04084Y01815*
X04085Y01825*
X04084Y01834*
X04081Y01842*
X04075Y0185*
X04067Y01856*
X04059Y01859*
X0405Y0186*
G37*
G36*
X0365D02*
X0364Y01859D01*
X03632Y01856*
X03624Y0185*
X03618Y01842*
X03615Y01834*
X03614Y01825*
X03615Y01815*
X03618Y01807*
X03624Y01799*
X03632Y01793*
X0364Y0179*
X0365Y01789*
X03659Y0179*
X03667Y01793*
X03675Y01799*
X03681Y01807*
X03684Y01815*
X03685Y01825*
X03684Y01834*
X03681Y01842*
X03675Y0185*
X03667Y01856*
X03659Y01859*
X0365Y0186*
G37*
G36*
X0375D02*
X0374Y01859D01*
X03732Y01856*
X03724Y0185*
X03718Y01842*
X03715Y01834*
X03714Y01825*
X03715Y01815*
X03718Y01807*
X03724Y01799*
X03732Y01793*
X0374Y0179*
X0375Y01789*
X03759Y0179*
X03767Y01793*
X03775Y01799*
X03781Y01807*
X03784Y01815*
X03785Y01825*
X03784Y01834*
X03781Y01842*
X03775Y0185*
X03767Y01856*
X03759Y01859*
X0375Y0186*
G37*
G36*
X0395D02*
X0394Y01859D01*
X03932Y01856*
X03924Y0185*
X03918Y01842*
X03915Y01834*
X03914Y01825*
X03915Y01815*
X03918Y01807*
X03924Y01799*
X03932Y01793*
X0394Y0179*
X0395Y01789*
X03959Y0179*
X03967Y01793*
X03975Y01799*
X03981Y01807*
X03984Y01815*
X03985Y01825*
X03984Y01834*
X03981Y01842*
X03975Y0185*
X03967Y01856*
X03959Y01859*
X0395Y0186*
G37*
G36*
X0385D02*
X0384Y01859D01*
X03832Y01856*
X03824Y0185*
X03818Y01842*
X03815Y01834*
X03814Y01825*
X03815Y01815*
X03818Y01807*
X03824Y01799*
X03832Y01793*
X0384Y0179*
X0385Y01789*
X03859Y0179*
X03867Y01793*
X03875Y01799*
X03881Y01807*
X03884Y01815*
X03885Y01825*
X03884Y01834*
X03881Y01842*
X03875Y0185*
X03867Y01856*
X03859Y01859*
X0385Y0186*
G37*
%LNhammerhead_pcb_r1.0-3*%
%LPD*%
G36*
X04025Y01115D02*
X03885D01*
Y00985*
X03715*
Y01155*
X04025*
Y01115*
G37*
G54D53*
X0183Y01135D02*
X019Y01065D01*
Y0102D02*
Y01065D01*
Y0102D02*
X0194Y0106D01*
X019Y00175D02*
Y0102D01*
X02206Y0145D02*
Y01541D01*
X02425Y0134D02*
Y0144D01*
X02405Y0132D02*
X02425Y0134D01*
X02206Y01541D02*
X0226Y01595D01*
X019Y00175D02*
X0195Y00125D01*
X031Y00175D02*
X0315Y00125D01*
X031Y00175D02*
Y00375D01*
X03025Y0045D02*
X031Y00375D01*
X0295Y01925D02*
X0303Y01845D01*
X0179Y0176D02*
Y01925D01*
X02609Y019D02*
Y01984D01*
X0265Y02025*
X02312Y01342D02*
X02347D01*
X02365Y0136*
X0229Y0132D02*
X02312Y01342D01*
X01156Y01238D02*
Y01828D01*
X01075Y01909D02*
X01156Y01828D01*
X0239Y01475D02*
X02425Y0144D01*
X02365Y0136D02*
Y0146D01*
X0235Y01475D02*
X02365Y0146D01*
X0179Y0115D02*
Y0117D01*
Y0115D02*
X01805Y01135D01*
X0183*
X02609Y019D02*
X02705Y01805D01*
X0203Y01965D02*
X0209Y02025D01*
X0203Y01709D02*
Y01965D01*
G54D54*
X028Y00685D02*
Y00874D01*
X0288Y0071D02*
Y00866D01*
X02875Y00871D02*
X0288Y00866D01*
X0285Y0068D02*
X0288Y0071D01*
X02165Y0079D02*
X0218Y00805D01*
X0189Y02025D02*
X0193Y01985D01*
X01767Y01659D02*
X0179Y01682D01*
Y01684*
X01865Y0164D02*
X01915D01*
X0176Y0182D02*
X01762Y01817D01*
X0169Y0188D02*
Y01925D01*
X018Y0097D02*
Y01119D01*
X01962Y01052D02*
X01965Y01055D01*
X01962Y0105D02*
Y01052D01*
X0194Y01028D02*
X01962Y0105D01*
X01965Y01055D02*
Y01115D01*
X0194Y00985D02*
Y01028D01*
X01721Y0108D02*
X01751Y0105D01*
Y00886D02*
Y0105D01*
X017Y0108D02*
X01721D01*
X0178Y0092D02*
Y0095D01*
X018Y0097*
X01737Y00842D02*
Y01032D01*
X0172Y0105D02*
X01737Y01032D01*
X02585Y01205D02*
Y0121D01*
X01985Y00705D02*
Y01115D01*
X01751Y00886D02*
X01786Y00851D01*
X01737Y00842D02*
X01755Y00825D01*
X0212Y01655D02*
Y0168D01*
X02055Y01475D02*
X02068Y01461D01*
X02425Y007D02*
Y01225D01*
X02485Y0041D02*
Y0114D01*
X02472Y01152D02*
X02485Y0114D01*
X0268Y0163D02*
Y01795D01*
X02425Y007D02*
X02455Y0067D01*
X0285Y01925D02*
X02897Y01877D01*
X0285Y00405D02*
Y0068D01*
X0258Y01075D02*
Y011D01*
Y0134D02*
X0259Y0133D01*
X03005Y0017D02*
X0305Y00125D01*
Y0188D02*
X03065Y01865D01*
X0305Y0188D02*
Y01925D01*
X0295Y00805D02*
X03067Y00922D01*
X03005Y01891D02*
X03045Y01851D01*
X02945Y0017D02*
X03005D01*
X02905Y0021D02*
X02945Y0017D01*
X02905Y0021D02*
Y0035D01*
X0283Y0017D02*
X02905D01*
X0295Y00125*
X0285Y00405D02*
X02905Y0035D01*
X02805Y00195D02*
X0283Y0017D01*
X02795Y0018D02*
X0285Y00125D01*
X02597Y01452D02*
X02612D01*
X0258Y01435D02*
X02597Y01452D01*
X0258Y0134D02*
Y01435D01*
X0271Y00165D02*
X0275Y00125D01*
X02829Y00706D02*
X0283Y00705D01*
X0255Y01925D02*
X0268Y01795D01*
X028Y01975D02*
X0285Y02025D01*
X03005Y01891D02*
Y0198D01*
X0197Y0126D02*
X0201Y013D01*
Y01335*
X03005Y0198D02*
X0305Y02025D01*
X01535Y00114D02*
Y00134D01*
X01508Y00088D02*
X01535Y00114D01*
Y00134D02*
X01552Y00151D01*
X01318Y00088D02*
X01508D01*
X0105Y01125D02*
Y01215D01*
X0103Y01235D02*
X0105Y01215D01*
X0128Y0005D02*
X01318Y00088D01*
X01745Y01105D02*
Y01135D01*
X01775Y00985D02*
Y01124D01*
X02325Y0123D02*
X0237D01*
X02395Y01205*
X0235Y0126D02*
X02445D01*
X0246Y01245*
X02225Y01462D02*
X02228Y01459D01*
X02225Y0131D02*
X02228Y01313D01*
X02245Y0189D02*
X02305Y0183D01*
X02245Y0189D02*
Y0203D01*
X0221Y02065D02*
X02245Y0203D01*
X0203Y02065D02*
X0221D01*
X0199Y02025D02*
X0203Y02065D01*
X02255Y00815D02*
X0227Y0083D01*
X02228Y01313D02*
Y01459D01*
X0227Y0083D02*
Y0124D01*
X0226Y0125D02*
X0227Y0124D01*
X02225Y01462D02*
Y0152D01*
X02305Y016*
Y0183*
X02505Y0198D02*
X0255Y02025D01*
X02355Y0157D02*
X02425D01*
X0266Y0161D02*
X0268Y0163D01*
X0247Y01325D02*
X0249Y01305D01*
X02472Y01152D02*
Y01207D01*
X0249Y01225*
Y01305*
X0245Y00225D02*
Y0023D01*
X02166Y00431D02*
X02181Y00417D01*
X0214Y00335D02*
Y0046D01*
Y00335D02*
X0225Y00225D01*
X02181Y00319D02*
Y00417D01*
Y00319D02*
X02235Y00264D01*
X02195Y00325D02*
Y0046D01*
Y00325D02*
X02241Y00278D01*
X02235Y00264D02*
X0231D01*
X0235Y00225*
X02241Y00278D02*
X02401D01*
X0245Y0023*
X02985Y01255D02*
Y01725D01*
X0251Y0129D02*
Y0132D01*
Y0129D02*
X02535Y01265D01*
X02565*
X0259Y01246D02*
Y0133D01*
X0263Y0104D02*
Y01085D01*
X0262Y01095D02*
X0263Y01085D01*
X02585Y0121D02*
X02625D01*
X02615Y01235D02*
X02655D01*
X02625Y0121D02*
X02636Y01221D01*
X0266*
X02655Y01235D02*
X02685Y01265D01*
X0266Y01221D02*
X02699Y01259D01*
X02666Y01207D02*
X02713Y01253D01*
X02672Y01193D02*
X02727Y01247D01*
X02678Y01179D02*
X02741Y01241D01*
X02713Y01253D02*
Y01278D01*
X0264Y0126D02*
X02671Y01291D01*
Y0131*
X02705Y01344D02*
Y01355D01*
X02671Y0131D02*
X02705Y01344D01*
X02713Y01278D02*
X02775Y0134D01*
X02772Y01232D02*
X02795Y01255D01*
X02699Y01294D02*
X0275Y01345D01*
Y0137*
X02795Y0122D02*
X02815Y012D01*
X02772Y01197D02*
Y01232D01*
Y01197D02*
X028Y0117D01*
Y00935D02*
Y0117D01*
X02815Y0093D02*
Y012D01*
X02829Y00706D02*
Y00884D01*
X0286Y00915D02*
Y0134D01*
X02845Y00919D02*
Y01345D01*
X02829Y00884D02*
X0286Y00915D01*
X028Y00874D02*
X02845Y00919D01*
X0283Y00924D02*
Y0135D01*
X02685Y01265D02*
Y01303D01*
X02699Y01259D02*
Y01294D01*
X0281Y0134D02*
Y01355D01*
X0284Y01385*
Y01445*
X02903Y00733D02*
X02925Y00755D01*
X0304Y00765D02*
X0311Y00835D01*
X02975Y00735D02*
Y00755D01*
X03081Y00861*
X0301Y0077D02*
X03095Y00855D01*
X0226Y01475D02*
X02355Y0157D01*
X02247Y013D02*
Y01319D01*
X02319Y01594D02*
Y01759D01*
X0226Y0125D02*
Y01293D01*
X02261Y01294*
Y01325*
X0226Y01326D02*
X02261Y01325D01*
X0226Y01326D02*
Y01475D01*
X0222Y01165D02*
Y01273D01*
X02247Y013*
X02246Y0132D02*
X02247Y01319D01*
X02246Y0132D02*
Y01521D01*
X02319Y01594*
Y01759D02*
X0237Y0181D01*
Y0183*
X0239Y0185*
X0283Y0135D02*
X02865Y01385D01*
X02845Y01345D02*
X0288Y0138D01*
X0286Y0134D02*
X02897Y01377D01*
Y01877*
X02875Y00871D02*
Y0101D01*
X0292Y01055*
Y01735*
X02945Y01445D02*
X0296Y0143D01*
X02741Y01241D02*
Y01261D01*
X0277Y0129*
X02805*
X02727Y01247D02*
Y0127D01*
X02766Y0131*
X0278*
X0281Y0134*
X02685Y01303D02*
X02727Y01345D01*
Y01387*
X02735Y01395*
X028*
X0245Y01875D02*
Y01925D01*
Y01875D02*
X0248Y01845D01*
X02425Y0157D02*
X02463Y01608D01*
Y01831*
X0247Y01455D02*
Y01595D01*
X0248Y01605*
Y01845*
X0251Y0151D02*
Y0152D01*
X02525Y01535*
X02545Y0161D02*
X0266D01*
X02495Y01545D02*
Y0156D01*
X02545Y0161*
X02525Y01535D02*
Y01565D01*
X02555Y01595*
X02675*
X02705Y01625*
Y01805*
X0274Y00875D02*
X028Y00935D01*
X0274Y00375D02*
X0277Y00345D01*
X02755Y0087D02*
X02815Y0093D01*
X0274Y00375D02*
Y00875D01*
X0277Y00595D02*
X02815Y0055D01*
X0277Y00595D02*
Y00864D01*
X0283Y00924*
X02755Y0057D02*
Y0087D01*
Y0057D02*
X02805Y0052D01*
Y00195D02*
Y0052D01*
X0301Y0062D02*
Y0077D01*
X0295Y00655D02*
Y00805D01*
X02925Y00755D02*
Y00815D01*
X03053Y00943*
X03095Y0197D02*
X0315Y02025D01*
X0311Y01885D02*
X0315Y01925D01*
X03155Y00655D02*
Y00969D01*
X03115Y01008D02*
X03155Y00969D01*
X0311Y00835D02*
Y00994D01*
X03101Y01002D02*
X0311Y00994D01*
X03095Y00855D02*
Y00989D01*
X03087Y00997D02*
X03095Y00989D01*
X03081Y00861D02*
Y00983D01*
X03073Y00991D02*
X03081Y00983D01*
X03067Y00922D02*
Y00977D01*
X03059Y00985D02*
X03067Y00977D01*
X03053Y00943D02*
Y00972D01*
X03045Y00979D02*
X03053Y00972D01*
X03125Y01815D02*
X0319Y0188D01*
Y0195*
X03165Y01975D02*
X0319Y0195D01*
X0303Y01365D02*
Y01845D01*
Y01365D02*
X03045Y01349D01*
Y00979D02*
Y01349D01*
X03045Y01369D02*
X03059Y01355D01*
X03045Y01369D02*
Y01851D01*
X03065Y01369D02*
Y01865D01*
Y01369D02*
X03073Y01361D01*
X03059Y00985D02*
Y01355D01*
X03073Y00991D02*
Y01361D01*
X03087Y00997D02*
Y01317D01*
X03095Y01325*
Y0197*
X03101Y01002D02*
Y01311D01*
X03115Y01008D02*
Y01305D01*
X03125Y01315*
X03101Y01311D02*
X0311Y0132D01*
Y01885*
X03125Y01315D02*
Y01815D01*
X02715Y02025D02*
X0275D01*
X027Y0201D02*
X02715Y02025D01*
X0243Y0198D02*
X02505D01*
X02405Y0189D02*
X02463Y01831D01*
X02405Y0189D02*
Y01955D01*
X0243Y0198*
X0149Y02025D02*
X0155Y01965D01*
Y0173D02*
Y01965D01*
X0139Y01925D02*
X01515Y018D01*
X01735Y01835D02*
X01745Y01845D01*
X01735Y01805D02*
Y01835D01*
X0172Y018D02*
X01733Y01786D01*
X01735Y01805D02*
X01738Y01801D01*
X01739*
X01748Y01792*
X0172Y018D02*
Y0184D01*
X01729Y01849*
Y01964*
X0179Y02025*
X01745Y01845D02*
Y0196D01*
X01765Y0198*
X01835*
X0189Y01925*
X01625Y0181D02*
X0165Y01785D01*
X02208Y0067D02*
X02225D01*
X01865Y0159D02*
X01897D01*
X0189Y0156D02*
X01892D01*
X02035Y01519D02*
X02049Y01505D01*
X02035Y01519D02*
Y01546D01*
X01895Y01613D02*
Y01615D01*
X02Y0153D02*
X0201D01*
X02033Y01475D02*
X02055D01*
X02135Y013D02*
X02145Y0129D01*
X02149Y01461D02*
X0218Y0143D01*
X02149Y01461D02*
Y01866D01*
X0212Y01655D02*
X02135Y0164D01*
X0209Y01925D02*
X02149Y01866D01*
X02044Y00726D02*
Y01346D01*
Y00726D02*
X0217Y006D01*
X0216Y0063D02*
X0219D01*
X02058Y00732D02*
Y01352D01*
Y00732D02*
X0216Y0063D01*
X0209Y00788D02*
X02208Y0067D01*
X02072Y00781D02*
X02213Y0064D01*
X0225*
X0224Y007D02*
X023Y0064D01*
Y00615D02*
Y0064D01*
X02105Y00795D02*
X022Y007D01*
X0224*
X0212Y00801D02*
X02206Y00715D01*
X0226*
X023Y00675*
X02049Y01505D02*
X02075D01*
X02105Y01475*
X01995Y01775D02*
Y0182D01*
X0203Y01709D02*
X0212Y0162D01*
X02015Y01566D02*
X02035Y01546D01*
X01915Y0164D02*
X01935Y0162D01*
Y01595D02*
Y0162D01*
Y01595D02*
X02Y0153D01*
X01895Y01613D02*
X02033Y01475D01*
X0159Y018D02*
Y01925D01*
X01666Y01856D02*
X0169Y0188D01*
X0168Y0181D02*
X01695Y01825D01*
X01695Y01715D02*
X0171Y0173D01*
X0159Y018D02*
X01635Y01755D01*
X01515Y01725D02*
Y018D01*
Y01725D02*
X0162Y0162D01*
X01767Y01601D02*
Y01659D01*
X01917Y01163D02*
X01965Y01115D01*
X01931Y01169D02*
X01985Y01115D01*
X01945Y0136D02*
X0197Y01335D01*
X0203Y0136D02*
X02044Y01346D01*
X0218Y00805D02*
Y0143D01*
X01897Y0159D02*
X0209Y01397D01*
X02135Y013D02*
Y0164D01*
X0212Y00801D02*
Y0162D01*
X02105Y00795D02*
Y01475D01*
X0209Y00788D02*
Y01397D01*
X01892Y0156D02*
X02072Y0138D01*
Y00781D02*
Y0138D01*
X02035Y01375D02*
X02058Y01352D01*
X0157Y0128D02*
X01595Y01305D01*
Y0135*
X0158Y01365D02*
X01595Y0135D01*
X01901Y01424D02*
X01965Y0136D01*
X0203*
X01887Y01418D02*
X01945Y0136D01*
Y0136D02*
Y0136D01*
X01873Y01412D02*
X01931Y01354D01*
X01859Y01406D02*
X01917Y01348D01*
X01931Y01169D02*
Y01354D01*
X01917Y01163D02*
Y01348D01*
X01915Y0143D02*
X0197Y01375D01*
X02035*
X01753Y01146D02*
X01775Y01124D01*
X01753Y01146D02*
Y01203D01*
X01767Y01152D02*
Y01197D01*
Y01152D02*
X018Y01119D01*
X01705Y01125D02*
Y0117D01*
X01675Y01155D02*
Y0118D01*
X01725Y01155D02*
X01745Y01135D01*
X01753Y01203D02*
X01775Y01225D01*
X01739Y01311D02*
X0176Y0129D01*
X0176*
X01775Y01275*
Y01225D02*
Y01275D01*
X01753Y01332D02*
X01775Y0131D01*
X01767Y01197D02*
X01807Y01237D01*
X0179Y01599D02*
Y0165D01*
X01915Y0143D02*
Y01474D01*
X01807Y01237D02*
Y01462D01*
X01753Y01332D02*
Y01497D01*
X01739Y01311D02*
Y01491D01*
X01725Y01155D02*
Y01485D01*
X0162Y01565D02*
Y0162D01*
X01621Y01234D02*
X01675Y0118D01*
X01635Y0124D02*
X01705Y0117D01*
X0165Y0156D02*
X01725Y01485D01*
X01666Y01564D02*
X01739Y01491D01*
X0168Y0157D02*
X01753Y01497D01*
X01695Y01574D02*
X01807Y01462D01*
X01621Y01234D02*
Y01564D01*
X0162Y01565D02*
X01621Y01564D01*
X01635Y0124D02*
Y01755D01*
X0165Y0156D02*
Y01785D01*
X01666Y01564D02*
Y01856D01*
X0168Y0157D02*
Y0181D01*
X01695Y01574D02*
Y01715D01*
X0171Y01579D02*
X01835Y01455D01*
Y0142D02*
Y01455D01*
X01725Y01584D02*
X01859Y0145D01*
Y01406D02*
Y0145D01*
X01739Y0159D02*
X01873Y01456D01*
Y01412D02*
Y01456D01*
X01753Y01595D02*
X01887Y01462D01*
Y01418D02*
Y01462D01*
X01767Y01601D02*
X01901Y01468D01*
Y01424D02*
Y01468D01*
X0179Y01599D02*
X01915Y01474D01*
X0182Y01595D02*
X01955Y0146D01*
X01995Y01775D02*
X02015Y01755D01*
Y01566D02*
Y01755D01*
X01748Y01716D02*
Y01792D01*
X01733Y01721D02*
Y01786D01*
X01753Y01595D02*
Y01682D01*
X0171Y01579D02*
Y01698D01*
X01725Y01584D02*
Y01693D01*
X01739Y0159D02*
Y01688D01*
X01753Y01682D02*
X01846Y01775D01*
X0171Y01698D02*
X01733Y01721D01*
X01762Y01711D02*
Y01817D01*
X01725Y01693D02*
X01748Y01716D01*
X01739Y01688D02*
X01762Y01711D01*
X0182Y01595D02*
Y0171D01*
X01846Y01775D02*
X01865D01*
X0193Y0184*
Y01985*
X02566Y01061D02*
X0258Y01075D01*
X0255Y01206D02*
X0259Y01246D01*
X02538Y01123D02*
X0255Y01135D01*
Y01206*
X02495Y01165D02*
X02509Y01151D01*
X02523Y01128D02*
X0253Y01135D01*
X02522Y01157D02*
Y01187D01*
Y01157D02*
X0253Y0115D01*
Y01135D02*
Y0115D01*
X0262Y01095D02*
Y01145D01*
X02654Y01179*
X02678*
X02605Y0107D02*
Y0115D01*
X02648Y01193*
X02672*
X02552Y01117D02*
X02642Y01207D01*
X02666*
X02815Y01595D02*
X0288Y0153D01*
Y0138D02*
Y0153D01*
X02801Y01589D02*
X02865Y01525D01*
Y01385D02*
Y01525D01*
X0275Y0184D02*
Y01925D01*
X027Y0187D02*
Y0201D01*
Y0187D02*
X02801Y01769D01*
Y01589D02*
Y01769D01*
X028Y0181D02*
Y01975D01*
Y0181D02*
X02845Y01765D01*
Y0161D02*
Y01765D01*
X02815Y01595D02*
Y01775D01*
X0275Y0184D02*
X02815Y01775D01*
X0293Y01855D02*
X02945Y0184D01*
Y01445D02*
Y0184D01*
X02885Y0059D02*
X0295Y00655D01*
X0291Y00565D02*
X02935Y0059D01*
X0298*
X0301Y0062*
X02552Y00323D02*
Y01117D01*
Y00323D02*
X0265Y00225D01*
X02566Y00329D02*
Y01061D01*
Y00329D02*
X0263Y00265D01*
X0271*
X0275Y00225*
X02509Y00266D02*
Y01151D01*
Y00266D02*
X0265Y00125D01*
X02523Y00271D02*
Y01128D01*
Y00271D02*
X02629Y00165D01*
X0271*
X02538Y00276D02*
Y01123D01*
Y00276D02*
X02634Y0018D01*
X02795*
G54D56*
X0095Y01075D02*
Y01375D01*
X00889Y01435D02*
X0095Y01375D01*
X00799Y01435D02*
X00889D01*
X0057Y0148D02*
X00615Y01435D01*
X00405Y0148D02*
X0057D01*
X00385Y0146D02*
X00405Y0148D01*
G54D57*
X01665Y00215D02*
Y00255D01*
X01653Y00267D02*
X01665Y00255D01*
X0167Y00855D02*
Y0098D01*
X01653Y00838D02*
X0167Y00855D01*
X01653Y00267D02*
Y00838D01*
X01156Y01238D02*
X0116Y01235D01*
X00809Y0047D02*
X01015Y00264D01*
X01612*
X00635Y0047D02*
X00809D01*
X00845Y00862D02*
X0091Y00927D01*
X00692Y00862D02*
X00845D01*
X00669Y00884D02*
X00692Y00862D01*
X0091Y00927D02*
X00944D01*
X00285Y01815D02*
Y01865D01*
X00175Y01705D02*
X00285Y01815D01*
X00175Y01415D02*
Y01705D01*
X00345Y01425D02*
Y01465D01*
X0031Y0139D02*
X00345Y01425D01*
X002Y0139D02*
X0031D01*
X00175Y01415D02*
X002Y0139D01*
X00453Y01238D02*
Y0143D01*
G54D58*
X00043Y01036D02*
X002Y0088D01*
X00465*
X04355Y0005D02*
X0443Y00125D01*
Y0047*
X0047Y02045D02*
X00526Y01988D01*
X0017Y02045D02*
X0047D01*
X00043Y01918D02*
X0017Y02045D01*
X00043Y01036D02*
Y01918D01*
X01248Y00081D02*
X0128Y0005D01*
X00833Y00081D02*
X01248D01*
X04295Y00605D02*
X0443Y0047D01*
X00765Y0015D02*
X00833Y00081D01*
X00765Y0015D02*
Y00195D01*
X04258Y01341D02*
Y01503D01*
Y01341D02*
X04258Y0134D01*
Y01309D02*
Y0134D01*
X04258Y01308D02*
X04258Y01309D01*
X04258Y00642D02*
Y01308D01*
Y00642D02*
X04295Y00605D01*
X04495D02*
Y00725D01*
X04461Y00759D02*
X04495Y00725D01*
X04461Y00759D02*
Y0088D01*
X04495Y00914*
Y0155*
X04575Y01695D02*
Y02065D01*
X04495Y01615D02*
X04575Y01695D01*
X04495Y0155D02*
Y01615D01*
X04565Y0006D02*
X04581Y00076D01*
X0454Y0069D02*
X04581Y00648D01*
Y00076D02*
Y00648D01*
X00526Y01988D02*
X01056D01*
X01132Y02065*
X04258Y01503D02*
X04295Y0154D01*
G54D59*
X00635Y0047D02*
Y00568D01*
X00718Y00651*
X00939*
G54D64*
X0435Y00125D03*
X0405D03*
X0395D03*
X0385D03*
X0375D03*
X0365D03*
X0355D03*
X0345D03*
X0415D03*
X0425D03*
Y00225D03*
X0415D03*
X0345D03*
X0355D03*
X0365D03*
X0375D03*
X0385D03*
X0395D03*
X0405D03*
X0435D03*
X0425Y00325D03*
X0405D03*
X0395D03*
X0385D03*
X0375D03*
X0365D03*
X0355D03*
X0345D03*
X0415D03*
X0345Y02025D03*
X0375D03*
X0385D03*
X0395D03*
X0405D03*
X0415D03*
X0425D03*
X0435D03*
X0365D03*
X0355D03*
Y01925D03*
X0365D03*
X0435D03*
X0425D03*
X0415D03*
X0405D03*
X0395D03*
X0385D03*
X0375D03*
X0345D03*
X0355Y01825D03*
X0375D03*
X0385D03*
X0395D03*
X0405D03*
X0415D03*
X0425D03*
X0435D03*
X0365D03*
X0175Y00225D03*
X0185Y00125D03*
Y00225D03*
X0195Y00125D03*
Y00225D03*
X0205Y00125D03*
Y00225D03*
X0215Y00125D03*
Y00225D03*
X0225Y00125D03*
Y00225D03*
X0235Y00125D03*
Y00225D03*
X0245Y00125D03*
Y00225D03*
X03255Y01225D03*
X03155Y01125D03*
X03255D03*
X03155Y01025D03*
X03255D03*
X0139Y02025D03*
X0149Y01925D03*
Y02025D03*
X0159Y01925D03*
Y02025D03*
X0169Y01925D03*
Y02025D03*
X0179Y01925D03*
Y02025D03*
X0189Y01925D03*
Y02025D03*
X0199Y01925D03*
Y02025D03*
X0209Y01925D03*
Y02025D03*
X0219Y01925D03*
Y02025D03*
X0229Y01925D03*
Y02025D03*
X0245D03*
X0255Y01925D03*
Y02025D03*
X0265Y01925D03*
Y02025D03*
X0275Y01925D03*
Y02025D03*
X0285Y01925D03*
Y02025D03*
X0295Y01925D03*
Y02025D03*
X0305Y01925D03*
Y02025D03*
X0315Y01925D03*
Y02025D03*
Y00225D03*
Y00125D03*
X0305Y00225D03*
Y00125D03*
X0295Y00225D03*
Y00125D03*
X0285Y00225D03*
Y00125D03*
X0275Y00225D03*
Y00125D03*
X0265Y00225D03*
X03025Y0045D03*
X02925D03*
X0103Y00775D03*
X0411Y0149D03*
X04395Y0154D03*
X04295D03*
X04395Y00605D03*
X04295D03*
X03205Y01618D03*
X012Y01725D03*
X00775D03*
G54D65*
X0435Y00325D03*
X0345Y01825D03*
X0175Y00125D03*
X0139Y01925D03*
X0245D03*
X0265Y00125D03*
X03125Y0045D03*
X04495Y0154D03*
Y00605D03*
X03305Y01618D03*
X013Y01725D03*
X00875D03*
G54D66*
X00421Y00069D03*
X00303Y00255D03*
X0054D03*
G54D67*
X00104Y01414D03*
Y01667D03*
Y01824D03*
Y02077D03*
G54D68*
X01435Y0144D03*
X01385D03*
Y0139D03*
X01435D03*
Y0134D03*
X01385D03*
X01435Y0129D03*
Y0124D03*
X01385Y0129D03*
Y0124D03*
G54D69*
X03155Y01225D03*
X0103Y00675D03*
X0411Y0139D03*
G54D70*
X00465Y0118D03*
Y0108D03*
Y0058D03*
Y0068D03*
Y0098D03*
Y0088D03*
Y0078D03*
G54D71*
X0325Y01425D03*
Y00325D03*
X0125Y02025D03*
G54D72*
X02857Y00857D03*
X0179Y01684D03*
X0179Y0165D03*
X0171Y0173D03*
X0179Y0176D03*
X01865Y0164D03*
X01895Y01615D03*
X0176Y0182D03*
X01695Y01825D03*
X01835Y0142D03*
X0178Y01305D03*
X01775Y00985D03*
X0194D03*
X0178Y0092D03*
X01745Y01105D03*
X01705Y01125D03*
X0179Y0117D03*
X01675Y01155D03*
X02082Y01777D03*
X02165Y0079D03*
X01985Y00705D03*
X02495Y01545D03*
X0246Y01245D03*
X02495Y01165D03*
X02425Y01225D03*
X02395Y01205D03*
X02645Y0164D03*
X0235Y0126D03*
X0229Y0132D03*
X02325Y0123D03*
X02255Y00815D03*
X00305Y01455D03*
X00345Y01465D03*
X0263Y0104D03*
X02605Y0107D03*
X00796Y01158D03*
Y01201D03*
X00839Y01158D03*
Y01201D03*
X00396Y01375D03*
X00353D03*
X0136Y00429D03*
Y00385D03*
X01395Y00731D03*
Y00688D03*
X03735Y01134D03*
X03778D03*
X03821D03*
X03864D03*
X03735Y01091D03*
X03778D03*
X03821D03*
X03864D03*
X03735Y01048D03*
X03778D03*
X03821D03*
X03864D03*
X03735Y01005D03*
X03778D03*
X03821D03*
X03864D03*
X0155Y0173D03*
X02068Y01461D03*
X0217Y006D03*
X02522Y01187D03*
X0277Y00345D03*
X02485Y0041D03*
X0264Y0126D03*
X0194Y0106D03*
X0292Y01735D03*
X02885Y0059D03*
X0258Y011D03*
X028Y00685D03*
X0283Y00705D03*
X03155Y00655D03*
X02815Y0055D03*
X02845Y0161D03*
X0304Y00765D03*
X02903Y00733D03*
X02975Y00735D03*
X0291Y00565D03*
X02985Y01255D03*
Y01725D03*
X0302Y01156D03*
X02983Y01065D03*
X02455Y00674D03*
X01559Y01444D03*
X0152Y0124D03*
X0158Y01365D03*
X0157Y0128D03*
X02405Y0132D03*
X0239Y01475D03*
X0235D03*
X02225Y0067D03*
X0212Y0168D03*
X02145Y0129D03*
X02206Y0145D03*
X0226Y01595D03*
X00615Y01435D03*
X00385Y0146D03*
X00798Y01071D03*
X00838D03*
X017Y0108D03*
X0172Y0105D03*
X00554Y01363D03*
X00585Y01395D03*
X00453Y0143D03*
Y01238D03*
X00758Y00772D03*
X00722D03*
X00758Y00808D03*
X00722D03*
X00627Y00759D03*
X00667Y00887D03*
X00944Y00927D03*
X00775Y00889D03*
X04335Y00775D03*
X04305D03*
X04335Y00805D03*
X04305D03*
Y00835D03*
X04335D03*
X0295Y01045D03*
X02225Y0131D03*
X0235Y01595D03*
X02415D03*
X02382Y01602D03*
X0247Y01455D03*
Y01325D03*
X0214Y0046D03*
X02166Y00431D03*
X02195Y0046D03*
X0222Y01165D03*
X02585Y01205D03*
X02615Y01235D03*
X0251Y0132D03*
X02565Y01265D03*
X02795Y01255D03*
X02612Y01452D03*
X02805Y0129D03*
X02795Y0122D03*
X028Y01395D03*
X0284Y01445D03*
X0239Y0185D03*
X0296Y0143D03*
X02775Y0134D03*
X02705Y01355D03*
X0275Y0137D03*
X0251Y0151D03*
X03165Y01975D03*
X01625Y0181D03*
X01865Y0159D03*
X0189Y0156D03*
X0201Y0153D03*
X0219Y0063D03*
X023Y00675D03*
X0225Y0064D03*
X023Y00615D03*
X0182Y0171D03*
X01995Y0182D03*
X0197Y01335D03*
Y0126D03*
X0201Y01335D03*
X01955Y0146D03*
X0293Y01855D03*
G54D73*
X02895Y01252D03*
X01782Y01447D03*
X0168Y01285D03*
X0175Y01265D03*
X02175Y0148D03*
X01665Y00215D03*
X0167Y0098D03*
X0339Y00975D03*
X03455Y00985D03*
X0354Y0101D03*
X03335Y00925D03*
X03385Y019D03*
Y0183D03*
Y02065D03*
Y0176D03*
X03505Y016D03*
X0355Y0149D03*
Y01565D03*
X0143Y01722D03*
X02885Y01107D03*
Y01065D03*
X02895Y01307D03*
X0263Y0066D03*
X0292Y007D03*
X00895Y01327D03*
Y01382D03*
X01075Y01332D03*
X01075Y01909D03*
X01245Y0144D03*
X02567Y01557D03*
X01385Y01625D03*
X01125Y0164D03*
X01079Y0209D03*
X0116Y01235D03*
X01007Y02032D03*
X00652Y02027D03*
X0058Y0209D03*
X007Y0164D03*
X01007Y01722D03*
X0101Y01667D03*
X00782Y0189D03*
X00625Y01805D03*
X00382Y01807D03*
X00285Y01592D03*
X0222Y01825D03*
X02345Y0183D03*
X01535Y0005D03*
X01605D03*
X01465D03*
X0151Y0013D03*
X01475D03*
X01215Y00043D03*
X0355Y01415D03*
X035Y01975D03*
X036D03*
X037D03*
X038D03*
X039D03*
X04D03*
X041D03*
X042D03*
X043D03*
X04575Y0163D03*
Y0156D03*
Y0149D03*
Y0142D03*
Y0135D03*
X04375Y00695D03*
X0432D03*
X04475Y002D03*
X043Y00175D03*
X042D03*
X041D03*
X04D03*
X039D03*
X038D03*
X037D03*
X03605D03*
X035D03*
X03385Y0017D03*
Y00335D03*
Y00265D03*
Y00475D03*
Y00545D03*
Y00615D03*
Y00405D03*
Y00685D03*
X0335Y0078D03*
X00637Y00974D03*
X00656Y00703D03*
X02012Y00334D03*
X00258Y01305D03*
X00112Y01745D03*
X00334Y02098D03*
X00285Y02002D03*
X01575Y0124D03*
X03622Y0129D03*
X0362Y0148D03*
X03681Y01233D03*
X0103Y01235D03*
X0105Y01125D03*
X01786Y00851D03*
X01755Y00825D03*
X0095Y01075D03*
X00799Y01435D03*
X01305Y0081D03*
Y0088D03*
X013Y00645D03*
X0145Y00605D03*
X00915Y00295D03*
X0113Y00305D03*
X0101Y0032D03*
Y0039D03*
Y0046D03*
X00595Y0035D03*
X0144Y0013D03*
X0137D03*
X01405D03*
X01395Y0005D03*
X01605Y00145D03*
Y00215D03*
Y005D03*
Y0057D03*
Y0064D03*
Y0071D03*
Y0078D03*
Y0085D03*
Y00375D03*
Y0092D03*
Y0099D03*
X01305Y01015D03*
X0125Y01005D03*
X01215D03*
X00745D03*
X00675D03*
X0116Y00925D03*
X00605Y01005D03*
X0134Y0052D03*
X01305D03*
X0127D03*
X01235D03*
X012D03*
X0134Y00555D03*
X01305D03*
X0127D03*
X01235D03*
X012D03*
X01165D03*
Y0059D03*
X0113Y00555D03*
Y0059D03*
X0092D03*
X00955D03*
X0099D03*
X01025D03*
X0106D03*
X01095D03*
X01025Y00555D03*
X0099D03*
X0092D03*
X00885D03*
X0085D03*
X00815D03*
X0078D03*
X00745D03*
X01495Y00509D03*
X0148Y0079D03*
X0151Y002D03*
X01552Y00151D03*
X00362Y0124D03*
X00104Y01312D03*
X01095Y00555D03*
X0106D03*
X00955D03*
X0071D03*
X0151Y00165D03*
X01475D03*
X0144D03*
X04382Y01175D03*
X02665Y0041D03*
X01544Y00511D03*
X01612Y00265D03*
X01075Y01277D03*
X00818Y00707D03*
X0328Y01936D03*
X00285Y01865D03*
X04467Y0206D03*
X03285Y00938D03*
X03275Y00213D03*
X03922Y01567D03*
X03427Y00742D03*
X03907Y00647D03*
X04465Y0005D03*
X042Y01369D03*
X04111Y00875D03*
X0078Y00048D03*
X0408Y01096D03*
X0422Y01325D03*
X0452Y0087D03*
X04577Y00792D03*
X04535Y0104D03*
X04575Y00935D03*
X04157Y00812D03*
X04555Y01245D03*
X0386Y00845D03*
X0373Y00755D03*
X03867Y01567D03*
X03965Y0142D03*
Y0137D03*
X03923Y01303D03*
X01679Y01405D03*
X0298Y00655D03*
X02712Y00455D03*
X023Y00422D03*
X0239Y00367D03*
X02005Y0061D03*
X0197Y00434D03*
X01745Y00525D03*
X01695Y00635D03*
X01712Y00917D03*
X01684Y00826D03*
X03962Y00652D03*
X03432Y00797D03*
X0367Y00745D03*
X03332Y00847D03*
X03667D03*
X02665Y01515D03*
X02772Y01022D03*
X0032Y01688D03*
X0206Y0153D03*
G54D74*
X0155Y0097D03*
X00635Y01075D03*
X01132Y02065D03*
X01095Y00865D03*
X00985Y00195D03*
X0093D03*
X00875D03*
X0082D03*
X00765D03*
X00635Y0016D03*
X00693D03*
X01165Y00865D03*
X0069Y01278D03*
X00939Y00651D03*
X00635Y0047D03*
G54D75*
X04144Y0115D03*
X04325Y01045D03*
X0128Y0005D03*
X04355D03*
X04575Y02065D03*
X04565Y0006D03*
X04Y01135D03*
X0454Y0069D03*
M02*