%FSTAX23Y23*%
%MOIN*%
%SFA1B1*%

%IPPOS*%
%ADD15R,0.019690X0.023620*%
%ADD19R,0.035430X0.027560*%
%ADD22R,0.027560X0.035430*%
%ADD36R,0.023620X0.031500*%
%ADD57C,0.015000*%
%ADD58C,0.025000*%
%ADD59C,0.008000*%
%ADD61C,0.020000*%
%ADD62C,0.010000*%
%ADD63C,0.125100*%
%ADD64C,0.059060*%
%ADD65R,0.059060X0.059060*%
%ADD66C,0.070000*%
%ADD67C,0.043310*%
%ADD68R,0.059060X0.059060*%
%ADD69C,0.049210*%
%ADD70R,0.049210X0.049210*%
%ADD71C,0.078740*%
%ADD72C,0.066930*%
%ADD73C,0.050000*%
%ADD74C,0.025000*%
%ADD75C,0.030000*%
%ADD76C,0.019690*%
%ADD77C,0.045000*%
%LNmako_dsp_r1.6-1*%
%LPD*%
G36*
X00475Y00526D02*
X0016D01*
Y00649*
X0022*
Y00601*
X0041*
Y00676*
X00475*
Y00526*
G37*
G36*
X0043Y00711D02*
X0023D01*
Y00791*
X0043*
Y00711*
G37*
G54D15*
X02385Y01329D03*
Y0129D03*
X0248Y01329D03*
Y0129D03*
G54D19*
X02175Y01329D03*
Y0127D03*
G54D22*
X02129Y0185D03*
X0207D03*
X01945D03*
X02004D03*
G54D36*
X02285Y01276D03*
Y01323D03*
X0223Y01276D03*
Y01323D03*
X02435D03*
Y01276D03*
X0234Y01323D03*
Y01276D03*
G54D57*
X00105Y0089D02*
Y01392D01*
G54D58*
X00967Y00757D02*
X00997Y00727D01*
X02891Y00148D02*
X0294Y001D01*
X0334D02*
X0344D01*
X03336D02*
X0334D01*
X03288Y00148D02*
X03336Y001D01*
X03241Y00148D02*
X03288D01*
X03179Y0021D02*
X03241Y00148D01*
X0316Y00179D02*
X0324Y001D01*
X03091Y00148D02*
X0314Y001D01*
X02891Y00148D02*
X03091D01*
X02796Y0021D02*
X03179D01*
X02781Y00179D02*
X0316D01*
X02768Y00148D02*
X02891D01*
X02668Y00248D02*
X02768Y00148D01*
X02681Y00279D02*
X02781Y00179D01*
X02694Y00312D02*
X02796Y0021D01*
X03488Y00048D02*
X0354Y001D01*
X01606Y00048D02*
X03488D01*
X01577Y00077D02*
X01606Y00048D01*
X01535Y00199D02*
X01577Y00157D01*
Y00077D02*
Y00157D01*
X00349Y01079D02*
X00418Y0101D01*
X00967Y00537D02*
X00997Y00567D01*
Y00727*
X00268Y01081D02*
X00375Y00974D01*
X0044Y00256D02*
X00516Y0018D01*
X0075Y00273D02*
X00781Y00242D01*
X00158Y00847D02*
X00176Y00865D01*
X00067Y00353D02*
Y00426D01*
X00089Y00828D02*
X00107Y00847D01*
X00158*
X0135Y01645D02*
X0142Y01575D01*
X00048Y00444D02*
X00067Y00426D01*
X00048Y00444D02*
Y00833D01*
X00105Y0089*
X00505Y00387D02*
X00681Y00211D01*
X00089Y005D02*
Y00828D01*
Y005D02*
X00203Y00387D01*
X00505*
X00206Y01528D02*
Y01552D01*
X00367Y01714*
X00508*
X00374Y0149D02*
Y0157D01*
X00449Y01645*
X0135*
X00516Y0018D02*
X01228D01*
X01296Y00248*
X02668*
X00681Y00211D02*
X01215D01*
X01283Y00279*
X00781Y00242D02*
X01202D01*
X01272Y00312*
X01283Y00279D02*
X02681D01*
X01272Y00312D02*
X02694D01*
X01144Y00622D02*
Y00762D01*
X01008Y00898D02*
X01144Y00762D01*
X00418Y0101D02*
X00606D01*
X00718Y00898*
X01008*
X00375Y00974D02*
X00583D01*
X00636Y00625D02*
X0069Y00571D01*
X00636Y00625D02*
Y00921D01*
X00583Y00974D02*
X00636Y00921D01*
G54D59*
X02005Y01655D02*
Y0174D01*
X01977Y01627D02*
X02005Y01655D01*
X01977Y01597D02*
Y01627D01*
X0202Y01635D02*
Y01745D01*
X02Y01615D02*
X0202Y01635D01*
X0198Y01765D02*
X02005Y0174D01*
X01805Y01765D02*
X0198D01*
X02853Y0043D02*
X02879Y00456D01*
X02859Y00416D02*
X02885Y00442D01*
X02865Y00402D02*
X02891Y00428D01*
X02871Y00388D02*
X02897Y00414D01*
X02879Y00456D02*
X03031D01*
X02885Y00442D02*
X03036D01*
X03043Y00428D02*
X03165Y0055D01*
X02891Y00428D02*
X03043D01*
X03048Y00414D02*
X0317Y00536D01*
X02897Y00414D02*
X03048D01*
X03054Y004D02*
X03176Y00522D01*
X02903Y004D02*
X03054D01*
X02877Y00374D02*
X02903Y004D01*
X0358Y0032D02*
X036Y0034D01*
X03485Y0032D02*
X0358D01*
X0345Y00285D02*
X03485Y0032D01*
X0284Y00285D02*
X0345D01*
X03426Y00301D02*
X03465Y0034D01*
X03375Y00315D02*
X034Y0034D01*
X02825Y0027D02*
X0284Y00285D01*
X0276Y0029D02*
X02781D01*
X02755Y0032D02*
X0278D01*
X02035Y01615D02*
Y0175D01*
X0202Y016D02*
X02035Y01615D01*
X0202Y01555D02*
Y016D01*
X0198Y01784D02*
X0202Y01745D01*
X0201Y01775D02*
X02035Y0175D01*
X0201Y01775D02*
Y01875D01*
X02095Y01775D02*
Y01885D01*
X02065Y01745D02*
X02095Y01775D01*
X02065Y01608D02*
Y01745D01*
X0207Y0177D02*
Y0191D01*
X0205Y0175D02*
X0207Y0177D01*
X0205Y01592D02*
Y0175D01*
X0198Y01784D02*
Y01871D01*
X01977Y01597D02*
X01995Y0158D01*
X01785Y01785D02*
X01805Y01765D01*
X01985Y01876D02*
Y01895D01*
X0198Y01871D02*
X01985Y01876D01*
X0197Y0191D02*
X01985Y01895D01*
X0201Y01875D02*
X0202Y01885D01*
Y0191*
X02065Y01608D02*
X02085Y01588D01*
Y0153D02*
Y01588D01*
X0317Y00985D02*
Y01005D01*
X0316Y00975D02*
X0317Y00985D01*
X03159Y01049D02*
Y01049D01*
X03132Y01021D02*
X03159Y01049D01*
X03146Y00551D02*
Y01016D01*
X021Y00716D02*
Y00785D01*
X01725Y0116D02*
X021Y00785D01*
X0154Y0116D02*
X01725D01*
X02114Y00718D02*
Y00791D01*
X01731Y01174D02*
X02114Y00791D01*
X01546Y01174D02*
X01731D01*
X02068Y00685D02*
X021Y00716D01*
X03663Y00536D02*
Y00607D01*
X0363Y00641D02*
X03663Y00607D01*
X03677Y00555D02*
Y00613D01*
X03644Y00646D02*
X03677Y00613D01*
X03644Y00646D02*
Y00711D01*
X03692Y00591D02*
Y00618D01*
X03658Y00652D02*
X03692Y00618D01*
X03658Y00652D02*
Y00717D01*
X03706Y00597D02*
Y00624D01*
X03672Y00658D02*
X03706Y00624D01*
X0372Y00615D02*
Y0063D01*
X03686Y00664D02*
X0372Y0063D01*
X037Y0067D02*
X03775Y00595D01*
X037Y0067D02*
Y00734D01*
X03605Y0073D02*
X0363Y00705D01*
X03576Y0073D02*
X03605D01*
X03611Y00744D02*
X03644Y00711D01*
X03581Y00744D02*
X03611D01*
X03617Y00758D02*
X03658Y00717D01*
X03587Y00758D02*
X03617D01*
X03623Y00772D02*
X03672Y00723D01*
X03593Y00772D02*
X03623D01*
X03628Y00786D02*
X03686Y00728D01*
X03599Y00786D02*
X03628D01*
X03634Y008D02*
X037Y00734D01*
X03605Y008D02*
X03634D01*
X0363Y00641D02*
Y00705D01*
X03672Y00658D02*
Y00723D01*
X03686Y00664D02*
Y00728D01*
X03706Y00597D02*
X0374Y00563D01*
X03692Y00591D02*
X037Y00583D01*
Y00565D02*
Y00583D01*
X0374Y0056D02*
Y00563D01*
X02682Y01452D02*
X02965Y01735D01*
X03227Y01721D02*
X03466Y0196D01*
X03233Y01707D02*
X03472Y01946D01*
X03238Y01693D02*
X03477Y01932D01*
X03244Y01679D02*
X03483Y01918D01*
X0325Y01665D02*
X03489Y01904D01*
X03256Y01651D02*
X03495Y0189D01*
X03262Y01637D02*
X03501Y01876D01*
X03005Y01637D02*
X03034D01*
X0278Y01411D02*
X03005Y01637D01*
X02999Y01651D02*
X0304D01*
X02766Y01417D02*
X02999Y01651D01*
X02994Y01665D02*
X03045D01*
X02752Y01423D02*
X02994Y01665D01*
X02988Y01679D02*
X03051D01*
X02738Y01429D02*
X02988Y01679D01*
X02982Y01693D02*
X03057D01*
X02724Y01435D02*
X02982Y01693D01*
X02976Y01707D02*
X03063D01*
X0271Y0144D02*
X02976Y01707D01*
X0297Y01721D02*
X03069D01*
X02696Y01446D02*
X0297Y01721D01*
X02965Y01735D02*
X03074D01*
X03075Y01735D02*
X03221D01*
X03074Y01735D02*
X03075Y01735D01*
X03069Y01721D02*
X03227D01*
X03069Y01721D02*
X03069Y01721D01*
X03063Y01707D02*
X03233D01*
X03063Y01707D02*
X03063Y01707D01*
X03058Y01693D02*
X03238D01*
X03057Y01693D02*
X03058Y01693D01*
X03052Y01679D02*
X03244D01*
X03051Y01679D02*
X03052Y01679D01*
X03046Y01665D02*
X0325D01*
X03045Y01665D02*
X03046Y01665D01*
X0304Y01651D02*
X03256D01*
X0304Y01651D02*
X0304Y01651D01*
X03034Y01637D02*
X03262D01*
X03034Y01637D02*
X03034Y01637D01*
X03221Y01735D02*
X03485Y01998D01*
X0354*
X03466Y0196D02*
X036D01*
X03472Y01946D02*
X03686D01*
X03477Y01932D02*
X03772D01*
X03483Y01918D02*
X03858D01*
X03489Y01904D02*
X03944D01*
X03495Y0189D02*
X0403D01*
X03501Y01876D02*
X04116D01*
X0118Y01815D02*
X01209D01*
X0116Y01835D02*
X0118Y01815D01*
X01105Y018D02*
X01204D01*
X01049Y01786D02*
X01199D01*
X0109Y01815D02*
X01105Y018D01*
X0102Y01815D02*
X01049Y01786D01*
X0116Y01835D02*
Y0189D01*
X02744Y0035D02*
X0276D01*
X0222Y00405D02*
X02223D01*
X0315Y0109D02*
X03165D01*
X0307Y0101D02*
X0315Y0109D01*
X02645Y0101D02*
X0307D01*
X0102Y0181D02*
Y0182D01*
X03459Y00522D02*
X03497Y0056D01*
X03176Y00522D02*
X03459D01*
X03441Y00536D02*
X03505Y006D01*
X0317Y00536D02*
X03441D01*
X03422Y0055D02*
X03467Y00595D01*
X03165Y0055D02*
X03422D01*
X03025Y01584D02*
Y01615D01*
X02696Y01249D02*
Y01446D01*
X02682Y01255D02*
Y01452D01*
X02795Y0121D02*
Y01401D01*
X02775Y0119D02*
X02795Y0121D01*
X02775Y01095D02*
Y0119D01*
X0278Y01215D02*
Y01411D01*
X02617Y01052D02*
X0278Y01215D01*
X02766Y0122D02*
Y01417D01*
X02611Y01066D02*
X02766Y0122D01*
X02752Y01226D02*
Y01423D01*
X02615Y0109D02*
X02752Y01226D01*
X02738Y01232D02*
Y01429D01*
X0262Y01115D02*
X02738Y01232D01*
X02724Y01238D02*
Y01435D01*
X02625Y0114D02*
X02724Y01238D01*
X0271Y01243D02*
Y0144D01*
X02631Y01165D02*
X0271Y01243D01*
X02636Y0119D02*
X02696Y01249D01*
X02641Y01215D02*
X02682Y01255D01*
X02602Y01052D02*
X02617D01*
X0259Y0104D02*
X02602Y01052D01*
X0255Y0104D02*
X0259D01*
X02576Y01066D02*
X02611D01*
X02575Y01065D02*
X02576Y01066D01*
X0255Y0109D02*
X02615D01*
X02575Y01115D02*
X0262D01*
X0255Y0114D02*
X02625D01*
X02575Y01165D02*
X02631D01*
X0255Y0119D02*
X02636D01*
X02575Y01215D02*
X02641D01*
X02947Y0154D02*
X02967Y0156D01*
X02933Y0154D02*
X02947D01*
X02795Y01401D02*
X02933Y0154D01*
X04116Y01876D02*
X0424Y02D01*
X0403Y0189D02*
X0414Y02D01*
X03944Y01904D02*
X0404Y02D01*
X03858Y01918D02*
X0394Y02D01*
X03772Y01932D02*
X0384Y02D01*
X03686Y01946D02*
X0374Y02D01*
X036Y0196D02*
X0364Y02D01*
X0354Y01998D02*
Y02D01*
X02285Y01325D02*
Y01372D01*
X03505Y006D02*
X03507D01*
X032Y01255D02*
X03201D01*
X03275Y01285D02*
X03285Y01275D01*
X03708Y00525D02*
X0371D01*
X0372Y00615D02*
X03735Y006D01*
X03677Y00555D02*
X03708Y00525D01*
X03663Y00536D02*
X03665Y00535D01*
X00829Y01536D02*
X00864D01*
X00899Y01501*
Y01446D02*
Y01501D01*
X00889Y01276D02*
X00934D01*
X00979Y01231*
X00889Y01361D02*
X00949D01*
X00979Y01331*
X01855Y01465D02*
Y0148D01*
X0109Y01815D02*
Y01825D01*
X03205Y00965D02*
Y0102D01*
X0226Y004D02*
X02261Y00398D01*
X03165Y01225D02*
X03168D01*
X0324Y0125D02*
X03257Y01233D01*
X03201Y01255D02*
X03243Y01213D01*
X0321Y01215D02*
X03229Y01196D01*
X03235Y0129D02*
X03271Y01254D01*
X03229Y01186D02*
Y01196D01*
X03243Y01192D02*
Y01213D01*
X03257Y01198D02*
Y01233D01*
X03271Y01204D02*
Y01254D01*
X03285Y0121D02*
Y01275D01*
X0316Y00945D02*
Y00975D01*
Y00945D02*
X0318Y00925D01*
Y00905D02*
Y00925D01*
X01889Y01465D02*
X0189D01*
X02095Y01885D02*
X0212Y0191D01*
X01887Y01487D02*
X01899D01*
X01981Y01405*
X02065*
X02114Y00718D02*
X02147Y00685D01*
X02205Y01585D02*
Y0172D01*
X01515Y01205D02*
Y0124D01*
X01465Y01235D02*
Y0124D01*
Y01235D02*
X0154Y0116D01*
X01515Y01205D02*
X01546Y01174D01*
X02625Y0103D02*
X02645Y0101D01*
X0229Y00475D02*
X023Y00465D01*
X02305*
X0323Y01076D02*
X03576Y0073D01*
X03159Y01049D02*
X03201Y01091D01*
Y01152*
X03172Y01181D02*
X03201Y01152D01*
X03146Y01016D02*
X03215Y01085D01*
Y01158*
X03178Y01195D02*
X03215Y01158D01*
X0323Y01076D02*
Y01163D01*
X03168Y01225D02*
X0323Y01163D01*
X033Y01105D02*
X03605Y008D01*
X033Y01105D02*
Y01195D01*
X03285Y0121D02*
X033Y01195D01*
X03286Y01099D02*
Y01189D01*
X03271Y01204D02*
X03286Y01189D01*
X03272Y01093D02*
Y01183D01*
X03257Y01198D02*
X03272Y01183D01*
X03258Y01087D02*
Y01177D01*
X03243Y01192D02*
X03258Y01177D01*
X03244Y01081D02*
Y01171D01*
X03229Y01186D02*
X03244Y01171D01*
X03286Y01099D02*
X03599Y00786D01*
X03272Y01093D02*
X03593Y00772D01*
X03258Y01087D02*
X03587Y00758D01*
X03244Y01081D02*
X03581Y00744D01*
X0324Y00875D02*
Y01005D01*
X03205Y00865D02*
X03235Y00835D01*
X03205Y00865D02*
Y0093D01*
X03139Y01181D02*
X03172D01*
X03144Y01195D02*
X03178D01*
X03095Y01225D02*
X03139Y01181D01*
X03109Y0123D02*
X03144Y01195D01*
X02995Y01595D02*
X03095Y01495D01*
Y01225D02*
Y01495D01*
X03025Y01584D02*
X03109Y015D01*
Y0123D02*
Y015D01*
X03036Y00442D02*
X03146Y00551D01*
X03031Y00456D02*
X03132Y00557D01*
Y01021*
X0149Y01785D02*
X01573Y01702D01*
X01732*
X01828Y01457D02*
X01855Y0143D01*
X01835Y01539D02*
X01887Y01487D01*
X01835Y01539D02*
Y01599D01*
X01732Y01702D02*
X01835Y01599D01*
X01821Y01533D02*
Y01593D01*
X01726Y01688D02*
X01821Y01593D01*
X01807Y01528D02*
Y01587D01*
X0172Y01674D02*
X01807Y01587D01*
X01828Y01457D02*
Y01487D01*
X01793Y01522D02*
X01828Y01487D01*
X01793Y01522D02*
Y01582D01*
X01715Y0166D02*
X01793Y01582D01*
X01821Y01533D02*
X01889Y01465D01*
X01807Y01528D02*
X01855Y0148D01*
X02261Y00398D02*
X02291D01*
X0172Y00545D02*
X0178D01*
X0185Y00395D02*
X01854Y00391D01*
X0178Y00545D02*
X0192Y00405D01*
X02188*
X01854Y00391D02*
X02182D01*
X02255Y0044D02*
X02282Y00412D01*
X02297*
X02188Y00405D02*
X02213Y0038D01*
X02228*
X02182Y00391D02*
X02207Y00366D01*
X02222*
X02305Y00465D02*
X0234Y0043D01*
X02295Y00435D02*
X02314Y00416D01*
X02297Y00412D02*
X02308Y00402D01*
X02291Y00398D02*
X02302Y00388D01*
X02228Y0038D02*
X02249Y00359D01*
X02222Y00366D02*
X02243Y00345D01*
X02249Y00359D02*
X02735D01*
X02243Y00345D02*
X0273D01*
X02785Y00265D02*
X02821Y00301D01*
X03426*
X02781Y0029D02*
X02806Y00315D01*
X03375*
X0234Y0043D02*
X02569D01*
X02314Y00416D02*
X02575D01*
X02569Y0043D02*
X02853D01*
X02575Y00416D02*
X02859D01*
X02308Y00402D02*
X02865D01*
X02302Y00388D02*
X02871D01*
X0273Y00345D02*
X02755Y0032D01*
X02735Y00359D02*
X02744Y0035D01*
X02254Y00374D02*
X02877D01*
X02223Y00405D02*
X02254Y00374D01*
X01199Y01786D02*
X01317Y01667D01*
X01359*
X01366Y0166*
X01715*
X01323Y01681D02*
X01365D01*
X01372Y01674*
X0172*
X01329Y01695D02*
X0137D01*
X01378Y01688*
X01726*
X01204Y018D02*
X01323Y01681D01*
X01209Y01815D02*
X01329Y01695D01*
G54D61*
X03525Y01235D02*
X0355D01*
X03499Y0126D02*
X03525Y01235D01*
X03344Y0126D02*
X03499D01*
X03515Y01305D02*
X0355D01*
X035Y0129D02*
X03515Y01305D01*
X03405Y0129D02*
X035D01*
X0313Y01775D02*
X03145Y0176D01*
X0313Y01775D02*
Y02025D01*
X03145Y01475D02*
Y016D01*
X03275Y01345D02*
X0335D01*
X03145Y01475D02*
X03275Y01345D01*
X0335D02*
X03405Y0129D01*
X02734Y02054D02*
X03101D01*
X0268Y02D02*
X02734Y02054D01*
X03101D02*
X0313Y02025D01*
X03285Y0132D02*
X03344Y0126D01*
X0317Y0132D02*
X03285D01*
X03135Y01285D02*
X0317Y0132D01*
G54D62*
X0344Y007D02*
X036D01*
X02346Y01331D02*
X02385D01*
X0234Y01325D02*
Y01372D01*
X02165Y01334D02*
Y0137D01*
X02175Y0123D02*
Y0127D01*
X033Y0077D02*
Y00795D01*
Y0077D02*
X03369Y007D01*
X0344*
X00908Y0113D02*
X00929Y01151D01*
X0079Y0115D02*
X0081Y0113D01*
X00908*
X0213Y0181D02*
Y01849D01*
X0194Y0181D02*
Y01844D01*
X0223Y0123D02*
Y01277D01*
Y01323D02*
Y0137D01*
X02285Y0123D02*
Y01276D01*
X02283Y01277D02*
X02285Y01278D01*
X0234Y0123D02*
Y01276D01*
X02385Y01255D02*
Y01292D01*
X02435Y0123D02*
Y01276D01*
X0248Y0125D02*
Y0129D01*
X02441Y01329D02*
X0248D01*
X02435Y01323D02*
X02441Y01329D01*
X02435Y01323D02*
Y0137D01*
X005Y00521D02*
Y00876D01*
X00485Y00891D02*
X005Y00876D01*
X00485Y00891D02*
Y00941D01*
G54D63*
X0149Y001D03*
X0085Y02D03*
X0434Y003D03*
X0234Y02D03*
G54D64*
X0424Y02D03*
X0414D03*
X0404D03*
X0394D03*
X0384D03*
X0374D03*
X0364D03*
X0268D03*
X0338D03*
X0328D03*
X0318D03*
X0308D03*
X0298D03*
X0288D03*
X0278D03*
X0258D03*
X0354Y001D03*
X0344D03*
X0334D03*
X0324D03*
X0314D03*
X0304D03*
X0294D03*
X0384D03*
X0394D03*
X0404D03*
X0414D03*
X0424D03*
X0224Y002D03*
X0234Y001D03*
Y002D03*
X0244Y001D03*
Y002D03*
X0254Y001D03*
Y002D03*
X0264Y001D03*
Y002D03*
X0143Y0196D03*
X01725D03*
X0204Y002D03*
Y001D03*
X0194Y002D03*
Y001D03*
X0184Y002D03*
Y001D03*
X0174Y002D03*
Y001D03*
X0164Y002D03*
G54D65*
X0354Y02D03*
X0248D03*
X0284Y001D03*
X0374D03*
X0172Y00545D03*
X0224Y001D03*
X0133Y0196D03*
X01625D03*
X0164Y001D03*
G54D66*
X04006Y00767D03*
X04325Y00516D03*
Y00882D03*
X04128Y00846D03*
X04006Y00642D03*
Y01272D03*
X04325Y01021D03*
Y01387D03*
X04128Y01351D03*
X04006Y01147D03*
G54D67*
X04325Y00705D03*
X04128D03*
X04325Y0121D03*
X04128D03*
X0192Y0196D03*
X0197D03*
X0192Y0191D03*
X0197D03*
X0202Y0196D03*
Y0191D03*
X0207D03*
Y0196D03*
X0212D03*
Y0191D03*
G54D68*
X0185Y00395D03*
G54D69*
X0088Y00398D03*
X0114D03*
G54D70*
X0088Y003D03*
X0114D03*
G54D71*
X0054Y00265D03*
X00303D03*
X00421Y00079D03*
G54D72*
X00099Y01723D03*
Y01976D03*
G54D73*
X00808Y00122D03*
X01535Y00199D03*
X00185Y01038D03*
X01226Y00779D03*
X00723Y00848D03*
X01098Y00928D03*
X00176Y00865D03*
X01344Y00861D03*
X00268Y01081D03*
X0069Y00571D03*
X00349Y01079D03*
X01144Y00622D03*
X01215Y00061D03*
X00383Y01422D03*
X00067Y00353D03*
X00062Y01028D03*
X00374Y0149D03*
X01651Y00774D03*
X01564Y00775D03*
X01566Y00357D03*
X01653D03*
X00857Y00997D03*
X00658Y01049D03*
G54D74*
X00929Y01151D03*
X0349Y00455D03*
X036Y0034D03*
X034D03*
X03465D03*
X01995Y0158D03*
X03205Y0102D03*
X01057Y00522D03*
X00742Y00757D03*
Y00787D03*
X00772D03*
Y00757D03*
X02825Y0079D03*
X02905Y0075D03*
X01027Y00492D03*
Y00522D03*
X01057Y00492D03*
X02195Y0155D03*
X03165Y0109D03*
X0226Y004D03*
X02255Y0044D03*
X03507Y006D03*
X03467Y00595D03*
X03497Y0056D03*
X0324Y0125D03*
X03235Y0129D03*
X03275Y01285D03*
X03775Y00595D03*
X03735Y006D03*
X0374Y0056D03*
X0371Y00525D03*
X03665Y00535D03*
X037Y00565D03*
X0324Y01005D03*
X0079Y0115D03*
X00899Y01446D03*
X00829Y01536D03*
X00889Y01361D03*
Y01276D03*
X00979Y01231D03*
Y01331D03*
X0222Y00405D03*
X03205Y0093D03*
X0318Y00905D03*
X03235Y00835D03*
X0324Y00875D03*
X03165Y01225D03*
X0321Y01215D03*
X032Y01255D03*
X0229Y00475D03*
X02295Y00435D03*
X02575Y01115D03*
X028Y00682D03*
X02625Y0103D03*
X0149Y01785D03*
X02065Y01405D03*
X0109Y0182D03*
X0102Y01815D03*
X0116Y0189D03*
X0098Y02D03*
X02775Y01095D03*
X03025Y01615D03*
X02967Y0156D03*
X0293Y0068D03*
X0322Y0073D03*
X0295Y00375D03*
X02935Y0048D03*
X02995Y01595D03*
X03205Y00965D03*
X0317Y01005D03*
X02105Y01655D03*
X01855Y01465D03*
X02205Y01585D03*
X01785Y01785D03*
X02575Y01215D03*
X0255Y0119D03*
X02575Y01165D03*
X0255Y0104D03*
X02575Y01065D03*
X0255Y0114D03*
Y0109D03*
X0189Y01465D03*
X01855Y0143D03*
X02147Y00685D03*
X02068D03*
X02Y01615D03*
X0213Y0181D03*
X02205Y0172D03*
X01465Y0124D03*
X01515D03*
X0194Y0181D03*
X0043Y0066D03*
X0046Y00661D03*
X00175Y00631D03*
X00205D03*
X00175Y00601D03*
X00205D03*
X00175Y00571D03*
X00205D03*
Y00541D03*
X00175D03*
X0028Y00741D03*
X0025D03*
X0028Y00771D03*
X0025D03*
X0038D03*
X0041D03*
X0038Y00741D03*
X0041D03*
X003Y00816D03*
X0033D03*
X0024D03*
X0027D03*
X0021D03*
X0015D03*
X005Y00521D03*
X00485Y00941D03*
X0278Y0032D03*
X0276Y0029D03*
X02825Y0027D03*
X0276Y0035D03*
X02785Y00265D03*
X0012Y00816D03*
X0018D03*
X02085Y0153D03*
X0202Y01555D03*
X0205Y01592D03*
X0031Y00671D03*
X0035D03*
X0031Y00631D03*
X0035D03*
G54D75*
X02325Y00515D03*
X02415Y0046D03*
X00315Y01988D03*
X0142Y01575D03*
X03145Y0176D03*
Y016D03*
X0355Y01305D03*
X02025Y00685D03*
X00967Y00537D03*
Y00757D03*
X0406Y00385D03*
X0419Y0042D03*
X04265Y00385D03*
X04075Y00245D03*
X04065Y00315D03*
X03865D03*
X03875Y00245D03*
X0399Y0042D03*
X03865Y00385D03*
X0379Y0042D03*
X03665Y00315D03*
X03675Y00245D03*
X03655Y0157D03*
X03395Y015D03*
X0344Y007D03*
X00529Y01495D03*
Y01575D03*
X00519Y01125D03*
X00569Y0124D03*
X01284Y01555D03*
X00704Y01465D03*
X00699Y0121D03*
X0418Y0155D03*
X0335Y013D03*
X03445Y01335D03*
X0197Y00525D03*
X0175Y0072D03*
X01795Y0062D03*
X018Y0099D03*
X017Y00945D03*
X0179Y0126D03*
X01695Y01305D03*
X02015Y0043D03*
X0388Y0095D03*
X03305Y0066D03*
X03805Y0062D03*
X03395Y0065D03*
X036Y007D03*
X0378Y0116D03*
X03885Y01215D03*
X03895Y01125D03*
X02685Y00555D03*
X0264Y00455D03*
X0254Y01555D03*
X015Y0192D03*
X0138Y01885D03*
X01795Y0192D03*
X01245Y0182D03*
X01545Y01915D03*
X0222Y02005D03*
X0227Y01907D03*
X02635Y017D03*
X0223Y0137D03*
X02285Y01372D03*
X0234D03*
Y0123D03*
X02285D03*
X00305Y02044D03*
X02165Y0137D03*
X031Y011D03*
Y0094D03*
X0355Y01235D03*
X02495Y0166D03*
X024Y0171D03*
X01542Y01822D03*
X03827Y00813D03*
X01283Y0127D03*
X00889Y01405D03*
X00569Y01435D03*
X00433Y01295D03*
X00629Y01296D03*
X03785Y0091D03*
X002Y01634D03*
X03083Y01173D03*
X03135Y01285D03*
X02385Y01255D03*
X02435Y0137D03*
X0258Y01405D03*
X0248Y0125D03*
X02435Y0123D03*
X033Y00795D03*
X00568Y0106D03*
X01885Y0159D03*
X02175Y0123D03*
X0223D03*
X01935Y0132D03*
X0198Y01545D03*
X02245Y018D03*
X0264Y0161D03*
X0282Y01175D03*
X02925Y0113D03*
X02885Y0133D03*
X0282Y0137D03*
X0159Y01235D03*
X0142Y01135D03*
X0156D03*
X0142Y01635D03*
X01665Y0151D03*
X0039Y00821D03*
X0022Y00496D03*
X00265Y00481D03*
X0024Y00866D03*
X00142Y01249D03*
X00454Y01234D03*
X00206Y01528D03*
X0024Y01422D03*
X00063Y01228D03*
X00105Y01392D03*
X0036Y01759D03*
X00415Y01754D03*
X00508Y01714D03*
G54D76*
X00887Y00592D03*
Y00561D03*
G54D77*
X0075Y0008D03*
X01471Y00422D03*
X01551Y00951D03*
X01198Y00865D03*
X01542Y00672D03*
X01116Y00488D03*
X0075Y00273D03*
X0044Y00256D03*
X00686Y00491D03*
X00621Y00527D03*
M02*