%FSTAX23Y23*%
%MOIN*%
%SFA1B1*%

%IPPOS*%
%AMD44*
4,1,4,0.001400,0.023600,-0.023600,-0.001400,-0.001400,-0.023600,0.023600,0.001400,0.001400,0.023600,0.0*
%
%ADD10R,0.106300X0.100390*%
%ADD11R,0.094490X0.039370*%
%ADD12R,0.094490X0.129920*%
%ADD13R,0.043310X0.066930*%
%ADD14R,0.066930X0.043310*%
%ADD15R,0.019690X0.023620*%
%ADD16R,0.023620X0.019690*%
%ADD17R,0.094490X0.039370*%
%ADD18R,0.033470X0.013780*%
%ADD19R,0.035430X0.027560*%
%ADD20R,0.039370X0.059060*%
%ADD21R,0.035430X0.031500*%
%ADD22R,0.027560X0.035430*%
%ADD23R,0.031500X0.035430*%
%ADD24O,0.082680X0.017720*%
%ADD25R,0.031500X0.023620*%
%ADD26R,0.074800X0.043310*%
%ADD27R,0.070870X0.047240*%
%ADD28R,0.082680X0.055120*%
%ADD29R,0.070870X0.031500*%
%ADD30R,0.047240X0.070870*%
%ADD31R,0.055120X0.070870*%
%ADD32R,0.059060X0.015750*%
%ADD33R,0.059060X0.011020*%
%ADD34R,0.015750X0.059060*%
%ADD35R,0.011020X0.059060*%
%ADD36R,0.023620X0.031500*%
%ADD37R,0.035430X0.062990*%
%ADD38R,0.019690X0.011020*%
%ADD39R,0.039370X0.051180*%
%ADD40R,0.082680X0.064960*%
%ADD41R,0.072840X0.092520*%
%ADD42O,0.023620X0.080710*%
%ADD43R,0.031500X0.019690*%
G04~CAMADD=44~9~0.0~0.0~354.3~315.0~0.0~0.0~0~0.0~0.0~0.0~0.0~0~0.0~0.0~0.0~0.0~0~0.0~0.0~0.0~45.0~472.0~471.0*
%ADD44D44*%
%ADD45R,0.118110X0.055120*%
%ADD46O,0.062990X0.017720*%
%ADD47R,0.053150X0.015750*%
%ADD48R,0.090550X0.157480*%
%ADD49R,0.062990X0.094490*%
%ADD50O,0.031500X0.009840*%
%ADD51O,0.009840X0.031500*%
%ADD52R,0.068110X0.068110*%
%ADD53R,0.055120X0.118110*%
%ADD54R,0.023620X0.059060*%
%ADD55R,0.025590X0.051180*%
%ADD56R,0.059060X0.039370*%
%ADD57C,0.015000*%
%ADD58C,0.025000*%
%ADD59C,0.008000*%
%ADD60C,0.030000*%
%ADD61C,0.020000*%
%ADD62C,0.010000*%
%ADD63C,0.125100*%
%ADD64C,0.059060*%
%ADD65R,0.059060X0.059060*%
%ADD66C,0.070000*%
%ADD67C,0.043310*%
%ADD68R,0.059060X0.059060*%
%ADD69C,0.049210*%
%ADD70R,0.049210X0.049210*%
%ADD71C,0.078740*%
%ADD72C,0.066930*%
%ADD73C,0.050000*%
%ADD74C,0.025000*%
%ADD75C,0.030000*%
%ADD76C,0.019690*%
%ADD77C,0.045000*%
%LNmako_dsp_r1.6-1*%
%LPD*%
G36*
X01063Y00552D02*
X00982D01*
X00982Y00552*
X00975Y00556*
X00967Y00558*
X00962Y00557*
X00944Y00575*
X00941Y00577*
X0094Y00577*
Y00578*
X00915*
Y00591*
X0094*
X00942*
X00946Y00593*
X00948Y00598*
Y00635*
X01063*
Y00552*
G37*
G36*
X00884Y00718D02*
X00889Y00716D01*
X0089*
Y00657*
X00892Y00652*
X00897Y0065*
X00942*
Y00598*
X0094*
X00915*
Y00613*
X00913Y00617*
X00908Y00619*
X00867*
Y00627*
X00841*
Y00655*
X00841Y00655*
Y00718*
X00841Y00718*
Y00722*
X00882*
X00884Y00718*
G37*
G36*
X0062Y00817D02*
X0062Y00713D01*
X00651*
Y00652*
X00621*
Y00666*
X00481*
Y00681*
X0048Y00684*
Y00686*
X00478*
X00475Y00687*
X00419*
X00419Y00687*
X00418Y00687*
X00416Y00686*
X00415Y00686*
X00415Y00685*
X00415Y00685*
X00414Y00685*
X00414Y00685*
X00414Y00685*
X00414Y00684*
X00413Y00683*
X00412Y00681*
X00412Y00678*
X00411Y00677*
X00409Y00676*
X00407Y00676*
X00386*
X00384Y00676*
X00384Y00676*
X00382Y00676*
X0038Y00677*
X00375*
X00374Y00677*
X0037Y00679*
Y00691*
X00355*
Y00736*
X00365*
Y00791*
X0051*
Y00821*
X00616*
X0062Y00817*
G37*
G36*
X00836Y00733D02*
X00835Y00732D01*
Y00718*
X00834*
Y00655*
X00835*
Y00616*
X00838Y00613*
X00908*
Y00595*
Y00575*
Y00555*
X0091*
Y00542*
X00942*
X00945Y00538*
X00945Y00537*
X00947Y00528*
X00951Y00521*
X00958Y00517*
X00967Y00515*
X00975Y00517*
X00982Y00521*
X00986Y00528*
X00988Y00537*
X00988Y00538*
X00991Y00542*
X01077*
Y00474*
X00838*
Y00555*
X00865*
Y00557*
X00866Y00558*
X00868Y00563*
Y00594*
X00866Y00598*
X00862Y006*
X00858*
Y00601*
X00857Y00601*
X00819*
Y00622*
X00742*
Y00725*
X00722Y00745*
Y00807*
X00836*
Y00733*
G37*
G36*
X00862Y00563D02*
X00831D01*
Y005*
X00739*
Y00519*
X00777*
X00784Y00521*
X0079Y00525*
X00794Y00531*
X00795Y00538*
X00794Y00546*
X0079Y00552*
X00784Y00556*
X00777Y00557*
X00739*
Y00569*
X00812*
X00819Y00576*
Y00594*
X00862*
Y00563*
G37*
G36*
X0016Y00681D02*
X00225D01*
Y00666*
X00285*
Y00636*
X00225*
Y00526*
X00075*
Y00691*
X0016*
Y00681*
G37*
G36*
X00682Y00891D02*
X00452D01*
Y00936*
X00447Y00941*
X00262*
Y00949*
X00275*
X00282Y0095*
X00288Y00954*
X00292Y0096*
X00293Y00968*
X00292Y00975*
X00288Y00981*
X00282Y00985*
X00275Y00987*
X00262*
Y01011*
X00682*
Y00891*
G37*
G36*
X01063Y00946D02*
X01005D01*
X01002Y00946*
X00999Y00946*
X00992Y00945*
X00986Y00941*
X00985Y0094*
X00981Y00934*
X00979Y00927*
X00981Y00919*
X00985Y00913*
X00991Y00909*
X00998Y00908*
X01004Y00909*
X01005Y00909*
X01063*
Y00646*
X00972*
Y00657*
X00897*
Y00723*
X00889*
Y00811*
X00943*
Y00959*
X01063*
Y00946*
G37*
G36*
X00244Y01915D02*
X00186D01*
Y01887*
Y01861*
Y01836*
Y0181*
Y01784*
X00244*
Y01675*
X00118*
Y01721*
X00117Y01727*
X00113Y01732*
X00108Y01736*
X00101Y01737*
X00095Y01736*
X0009Y01732*
X00086Y01727*
X00085Y01721*
Y01675*
X00059*
Y01765*
X00062*
X00062*
X00165*
Y01934*
X00062*
X00062*
X00059Y01938*
Y02025*
X00244*
Y01915*
G37*
G36*
X00474Y0068D02*
X00475Y00679D01*
Y00666*
Y00641*
X00432*
X00424Y00648*
X00421Y00651*
X00416Y00652*
X00408*
X00408Y00652*
X00386*
X00382Y00651*
X00381Y00651*
X00375*
Y0067*
X00375Y0067*
X00376Y00671*
X00379*
X0038Y0067*
X0038*
X00381Y0067*
X00382Y0067*
X00382Y0067*
X00386Y00669*
X00408*
X00409Y00669*
X0041Y00669*
X00412Y0067*
X00414Y00671*
X00414Y00671*
X00415Y00672*
X00416Y00673*
X00417Y00674*
X00418Y00676*
X00418Y00677*
X00418Y00679*
X00419Y00679*
X00419Y0068*
X00419Y0068*
X00419Y0068*
X0042Y0068*
X0042Y00681*
X00473*
X00474Y0068*
G37*
G36*
X00305Y00691D02*
X0029D01*
Y00676*
X00231*
Y00681*
X0023Y00684*
Y00791*
X00305*
Y00691*
G37*
G36*
X00345Y00691D02*
X00315D01*
Y00796*
X00308*
X00305Y00797*
X0023*
X00226Y00796*
X00225*
Y00794*
X00223Y00791*
Y00701*
X0016*
Y00736*
X0007*
Y00827*
X00076Y00829*
X00078Y00831*
X00345*
Y00691*
G37*
G54D10*
X00565Y00941D03*
Y0077D03*
G54D11*
X01454Y00581D03*
Y00672D03*
Y00762D03*
G54D12*
X01225Y00672D03*
G54D13*
X0138Y00487D03*
X01487D03*
X00813Y00772D03*
X0092D03*
X01116Y00552D03*
X01222D03*
G54D14*
X01484Y00844D03*
Y00951D03*
X00777Y00645D03*
Y00538D03*
X00965Y00061D03*
Y00168D03*
X01045Y00061D03*
Y00168D03*
X01125Y00061D03*
Y00168D03*
X00885Y00061D03*
Y00168D03*
X0011Y00759D03*
Y00652D03*
X0039Y00974D03*
Y00867D03*
X003Y00974D03*
Y00867D03*
G54D15*
X037Y00275D03*
Y00314D03*
X041Y00275D03*
Y00314D03*
X039Y00275D03*
Y00314D03*
X0424Y00219D03*
Y0018D03*
X0414Y00219D03*
Y0018D03*
X0404Y00219D03*
Y0018D03*
X0394Y00219D03*
Y0018D03*
X0384Y00219D03*
Y0018D03*
X0374Y00219D03*
Y0018D03*
G54D16*
X04229Y00385D03*
X0419D03*
X04029D03*
X0399D03*
X03829D03*
X0379D03*
G54D17*
X03626Y0139D03*
X03493D03*
X03243D03*
X03376D03*
X00595Y0134D03*
X00462D03*
G54D18*
X04148Y00335D03*
Y0031D03*
Y00284D03*
X04221D03*
Y0031D03*
Y00335D03*
X03948D03*
Y0031D03*
Y00284D03*
X04021D03*
Y0031D03*
Y00335D03*
X03748D03*
Y0031D03*
Y00284D03*
X03821D03*
Y0031D03*
Y00335D03*
G54D19*
X0339Y0124D03*
Y01299D03*
X03445Y0124D03*
Y01299D03*
X03785Y00948D03*
Y01007D03*
X00315Y01943D03*
Y01884D03*
Y01759D03*
Y01818D03*
X00365Y01714D03*
Y01655D03*
X00465Y01714D03*
Y01655D03*
X01515Y01194D03*
Y01135D03*
X01465D03*
Y01194D03*
X0102Y01855D03*
Y01914D03*
X0109D03*
Y01855D03*
X0116Y01994D03*
Y01935D03*
X00063Y01267D03*
Y01326D03*
Y01367D03*
Y01426D03*
X0055Y00521D03*
Y0058D03*
X03595Y00405D03*
Y00464D03*
X034Y00434D03*
Y00375D03*
G54D20*
X03521Y0157D03*
X03608D03*
Y015D03*
X03521D03*
X03266D03*
X03353D03*
Y0157D03*
X03266D03*
X04181Y01495D03*
X04268D03*
X03851Y0056D03*
X03938D03*
X00611Y0008D03*
X00698D03*
X01565Y0042D03*
X01652D03*
X01564Y0084D03*
X01651D03*
G54D21*
X03835Y0106D03*
Y01115D03*
Y01005D03*
Y0095D03*
X03736Y00868D03*
Y00813D03*
X03785Y00868D03*
Y00813D03*
X03685Y01115D03*
Y0106D03*
X03735Y01115D03*
Y0106D03*
X03685Y01005D03*
Y0095D03*
X03735Y01005D03*
Y0095D03*
X03685Y0116D03*
Y01215D03*
X03735Y0116D03*
Y01215D03*
X03055Y00997D03*
Y00942D03*
Y01047D03*
Y01102D03*
X02225Y01907D03*
Y01962D03*
X0259Y01757D03*
Y01702D03*
X02245Y01757D03*
Y01702D03*
X01585Y01877D03*
Y01822D03*
X0129Y01877D03*
Y01822D03*
X00415Y01657D03*
Y01712D03*
X01465Y01577D03*
Y01632D03*
X01515Y01577D03*
Y01632D03*
X02925Y01259D03*
Y01204D03*
X0298Y01259D03*
Y01204D03*
X0264Y00552D03*
Y00497D03*
X0237Y00517D03*
Y00462D03*
X02015Y00527D03*
Y00472D03*
X01795Y00717D03*
Y00662D03*
X0019Y00663D03*
Y00718D03*
X00505Y00683D03*
Y00628D03*
G54D22*
X0344Y00745D03*
X03499D03*
X03599D03*
X0354D03*
X01725Y01875D03*
X01784D03*
X01725Y01825D03*
X01784D03*
X0143Y01875D03*
X01489D03*
X0143Y01825D03*
X01489D03*
X02914Y0039D03*
X02855D03*
X00569Y01525D03*
X00628D03*
X00569Y01575D03*
X00628D03*
X00569Y01475D03*
X00628D03*
X00569Y012D03*
X00628D03*
X00569Y011D03*
X00628D03*
X00569Y0115D03*
X00628D03*
X00265Y00526D03*
X00324D03*
X0037D03*
X00429D03*
X03465Y0039D03*
X03524D03*
G54D23*
X0334Y00745D03*
X03395D03*
X0334Y00695D03*
X03395D03*
X02857Y0044D03*
X02912D03*
X01567Y0158D03*
X01622D03*
X02812Y00755D03*
X02867D03*
X01797Y00945D03*
X01742D03*
X01792Y01305D03*
X01737D03*
X01937Y01545D03*
X01882D03*
X02587Y01565D03*
X02642D03*
X02792Y01325D03*
X02847D03*
X02817Y0113D03*
X02872D03*
X02817Y01075D03*
X02872D03*
X00333Y01422D03*
X00278D03*
G54D24*
X03575Y00828D03*
Y00854D03*
Y00879D03*
Y00905D03*
Y00931D03*
Y00956D03*
Y00982D03*
Y01007D03*
Y01033D03*
Y01058D03*
Y01084D03*
Y0111D03*
Y01135D03*
Y01161D03*
X03304Y00828D03*
Y00854D03*
Y00879D03*
Y00905D03*
Y00931D03*
Y00956D03*
Y00982D03*
Y01007D03*
Y01033D03*
Y01058D03*
Y01084D03*
Y0111D03*
Y01135D03*
Y01161D03*
G54D25*
X03036Y01207D03*
X03083D03*
X03036Y01257D03*
X03083D03*
X00149Y01634D03*
X00101D03*
X01618Y0163D03*
X01571D03*
X03838Y01215D03*
X03791D03*
G54D26*
X02965Y01061D03*
Y00985D03*
G54D27*
X02495Y01615D03*
X02337D03*
Y0171D03*
X02495D03*
G54D28*
X03222Y0068D03*
X02867D03*
X03222Y00499D03*
X02867D03*
G54D29*
X00829Y01188D03*
Y01232D03*
Y01275D03*
Y01318D03*
Y01362D03*
Y01405D03*
Y01448D03*
Y01492D03*
G54D30*
X01284Y0121D03*
Y01499D03*
G54D31*
X0075Y01468D03*
Y01212D03*
G54D32*
X02724Y01393D03*
Y007D03*
X01865D03*
Y01393D03*
G54D33*
X02724Y01371D03*
Y01352D03*
Y01332D03*
Y01312D03*
Y01293D03*
Y01273D03*
Y01253D03*
Y01234D03*
Y01214D03*
Y01194D03*
Y01175D03*
Y01155D03*
Y01135D03*
Y01115D03*
Y01096D03*
Y01076D03*
Y01056D03*
Y01037D03*
Y01017D03*
Y00997D03*
Y00978D03*
Y00958D03*
Y00938D03*
Y00919D03*
Y00899D03*
Y00879D03*
Y0086D03*
Y0084D03*
Y0082D03*
Y008D03*
Y00781D03*
Y00761D03*
Y00741D03*
Y00722D03*
X01865D03*
Y00741D03*
Y00761D03*
Y00781D03*
Y008D03*
Y0082D03*
Y0084D03*
Y0086D03*
Y00879D03*
Y00899D03*
Y00919D03*
Y00938D03*
Y00958D03*
Y00978D03*
Y00997D03*
Y01017D03*
Y01037D03*
Y01056D03*
Y01076D03*
Y01096D03*
Y01115D03*
Y01135D03*
Y01155D03*
Y01175D03*
Y01194D03*
Y01214D03*
Y01234D03*
Y01253D03*
Y01273D03*
Y01293D03*
Y01312D03*
Y01332D03*
Y01352D03*
Y01371D03*
G54D34*
X02641Y00617D03*
X01948D03*
Y01476D03*
X02641D03*
G54D35*
X02619Y00617D03*
X026D03*
X0258D03*
X0256D03*
X02541D03*
X02521D03*
X02501D03*
X02482D03*
X02462D03*
X02442D03*
X02422D03*
X02403D03*
X02383D03*
X02363D03*
X02344D03*
X02324D03*
X02304D03*
X02285D03*
X02265D03*
X02245D03*
X02226D03*
X02206D03*
X02186D03*
X02167D03*
X02147D03*
X02127D03*
X02107D03*
X02088D03*
X02068D03*
X02048D03*
X02029D03*
X02009D03*
X01989D03*
X0197D03*
Y01476D03*
X01989D03*
X02009D03*
X02029D03*
X02048D03*
X02068D03*
X02088D03*
X02107D03*
X02127D03*
X02147D03*
X02167D03*
X02186D03*
X02206D03*
X02226D03*
X02245D03*
X02265D03*
X02285D03*
X02304D03*
X02324D03*
X02344D03*
X02363D03*
X02383D03*
X02403D03*
X02422D03*
X02442D03*
X02462D03*
X02482D03*
X02501D03*
X02521D03*
X02541D03*
X0256D03*
X0258D03*
X026D03*
X02619D03*
G54D36*
X00315Y01708D03*
Y01661D03*
X03785Y01111D03*
Y01063D03*
G54D37*
X00887Y00577D03*
G54D38*
X00924Y00606D03*
Y00586D03*
Y00567D03*
Y00547D03*
X00849D03*
Y00567D03*
Y00586D03*
Y00606D03*
G54D39*
X00923Y00687D03*
X0086D03*
G54D40*
X01017Y00682D03*
Y00601D03*
G54D41*
X0066Y00381D03*
Y00238D03*
G54D42*
X01465Y01302D03*
X01515D03*
X01565D03*
X01615D03*
X01465Y01487D03*
X01515D03*
X01565D03*
X01615D03*
G54D43*
X0109Y0196D03*
X01019D03*
X0109Y02D03*
X01019D03*
X03454Y00475D03*
X03525D03*
X03454Y00435D03*
X03525D03*
G54D44*
X02154Y01575D03*
X02115Y01614D03*
G54D45*
X01378Y00928D03*
X01197D03*
X01005D03*
X00824D03*
G54D46*
X00306Y01283D03*
Y01309D03*
Y01334D03*
Y0136D03*
X00139Y01283D03*
Y01309D03*
Y01334D03*
Y0136D03*
G54D47*
X00219Y01824D03*
Y01901D03*
Y01875D03*
Y0185D03*
Y01798D03*
G54D48*
X00113Y0185D03*
G54D49*
X00208Y01974D03*
Y01725D03*
G54D50*
X00263Y0068D03*
Y0066D03*
Y00641D03*
Y00621D03*
X00397D03*
Y00641D03*
Y0066D03*
Y0068D03*
G54D51*
X003Y00584D03*
X0032D03*
X0034D03*
X00359D03*
Y00717D03*
X0034D03*
X0032D03*
X003D03*
G54D52*
X0033Y00651D03*
G54D53*
X00131Y01119D03*
Y00938D03*
G54D54*
X0013Y01439D03*
X00205D03*
X00168Y01514D03*
G54D55*
X00621Y00683D03*
Y00586D03*
G54D56*
X00723Y00994D03*
Y00907D03*
G54D57*
X0047Y0178D02*
X00495Y01805D01*
X0089*
X0098Y01714*
X00269Y0173D02*
Y0178D01*
X0369Y0162D02*
X0396Y0135D01*
X0339Y0162D02*
X0369D01*
X0154Y01415D02*
X01565Y0144D01*
X01485Y01415D02*
X0154D01*
X01465Y01435D02*
X01485Y01415D01*
X0418Y01496D02*
Y0155D01*
X03614Y01499D02*
X03781D01*
X03835Y0056D02*
X03851D01*
X03805Y0059D02*
X03835Y0056D01*
X03805Y0059D02*
Y0062D01*
X03578Y01164D02*
Y01341D01*
X03575Y01161D02*
X03578Y01164D01*
X0353Y0139D02*
X03578Y01341D01*
X0358Y0139D02*
X03626D01*
X03521Y01448D02*
X0358Y0139D01*
X03521Y01448D02*
Y0157D01*
X03613Y015D02*
X03614Y01499D01*
X03353Y01583D02*
X0339Y0162D01*
X03353Y0157D02*
Y01583D01*
Y015D02*
X03395D01*
X0335Y013D02*
X03389D01*
X03266Y015D02*
Y0157D01*
Y015D02*
D01*
X03263Y0139D02*
X03266Y01393D01*
Y015*
X03445Y01299D02*
Y01335D01*
X0032Y01655D02*
X00365D01*
X03345Y0139D02*
X03376D01*
X03304Y01349D02*
X03345Y0139D01*
X03493D02*
X0353D01*
X03608Y015D02*
X03613D01*
Y01486D02*
Y015D01*
X03575Y00931D02*
X03576Y0093D01*
X03304Y01161D02*
Y01349D01*
X00415Y01712D02*
Y01754D01*
X00365Y01714D02*
X00413D01*
X00365Y01655D02*
X00465D01*
X01565Y0144D02*
Y01487D01*
X01465Y01435D02*
Y01487D01*
X01515Y01577D02*
X01517Y0158D01*
X01565*
X01567*
X01565Y01487D02*
Y0158D01*
Y01623*
X01465Y01632D02*
X01515D01*
X00219Y01798D02*
X0025D01*
X00269Y0178*
Y0173D02*
X0029Y01708D01*
X00315*
X01622Y01552D02*
Y0158D01*
Y01552D02*
X01665Y0151D01*
X03978Y00516D02*
X04345D01*
X03944Y0055D02*
X03978Y00516D01*
X03938Y00545D02*
X03944Y0055D01*
X04268Y01077D02*
Y01495D01*
Y01077D02*
X04315Y01031D01*
X04325*
X03996Y01157D02*
X04006D01*
X0396Y0135D02*
X04116D01*
X04128Y01361*
X0395Y01203D02*
X03996Y01157D01*
X0395Y01203D02*
Y0133D01*
X03781Y01499D02*
X0395Y0133D01*
X0142Y01635D02*
X01462D01*
X02115Y01714D02*
X02225Y01605D01*
X0098Y01714D02*
X01664D01*
X02115*
X00306Y01309D02*
Y01334D01*
X00275Y01234D02*
X00454D01*
X00139Y01334D02*
X00174D01*
X00275Y01234*
X00139Y0136D02*
X00184D01*
X00261Y01283D02*
X00306D01*
X00184Y0136D02*
X00261Y01283D01*
X00256Y01334D02*
X00306D01*
X00202Y01389D02*
X00256Y01334D01*
X00147Y01389D02*
X00202D01*
X00507Y01714D02*
X00508Y01714D01*
X00465Y01714D02*
X0047D01*
X00507*
X0047D02*
Y0178D01*
X0013Y01405D02*
Y01439D01*
Y01405D02*
X00147Y01389D01*
X0007Y01426D02*
X00105Y01392D01*
G54D58*
X01125Y00168D02*
X01158D01*
X01045D02*
X01125D01*
X00965D02*
X01045D01*
X00885D02*
X00965D01*
X01158D02*
X0118Y0019D01*
Y0026*
X0114Y003D02*
X0118Y0026D01*
X0088Y003D02*
X0114D01*
X0082D02*
X0088D01*
X00738Y00381D02*
X0082Y003D01*
X0066Y00381D02*
X00738D01*
X002Y01634D02*
D01*
X00611Y00079D02*
X00611Y0008D01*
X00421Y00079D02*
X00611D01*
X00698Y0008D02*
X0075D01*
X0036Y00079D02*
X00421D01*
X00303Y00136D02*
X0036Y00079D01*
X00303Y00136D02*
Y00265D01*
X0142Y01575D02*
X01462D01*
X0039Y00821D02*
Y00867D01*
X0024Y00866D02*
X00298D01*
X003Y00867*
X00265Y00481D02*
Y00526D01*
X00265Y00481D02*
X00265Y00481D01*
X00207Y00968D02*
X00275D01*
X00177Y00938D02*
X00207Y00968D01*
X01225Y00778D02*
X01226Y00779D01*
X00788Y00927D02*
X00817D01*
X00998D02*
X00999Y00928D01*
X01005D02*
X01098D01*
X01484Y00951D02*
X0155D01*
X01551Y00951*
X01198Y00865D02*
Y00924D01*
X01197Y00925D02*
X01198Y00924D01*
X01235Y00552D02*
X01271D01*
X01336Y00487*
X0138*
Y00566*
X01395Y00581*
X01454*
Y00672D02*
X01542D01*
X01116Y00488D02*
Y00552D01*
X00838Y00122D02*
X00885Y00168D01*
X00808Y00122D02*
X00838D01*
X00745D02*
X00808D01*
X00719Y00148D02*
X00745Y00122D01*
X00885Y00061D02*
X00965D01*
X01045*
X01125*
X01215*
X00063Y01326D02*
Y01367D01*
Y01228D02*
Y01267D01*
X00141Y01249D02*
Y01278D01*
X00063Y01326D02*
X0008Y01309D01*
X00103*
X0031Y01468D02*
X0033Y01447D01*
X00307Y01372D02*
X0033Y01395D01*
X00307Y01362D02*
Y01372D01*
X00171Y01528D02*
X00206D01*
X00205Y01439D02*
Y01448D01*
X00225Y01468*
X0031*
X0024Y01422D02*
X00278D01*
X00063Y01426D02*
X0007D01*
X00333Y01422D02*
X00383D01*
X0033Y01395D02*
Y01447D01*
X00131Y00938D02*
X00177D01*
X00119Y0095D02*
X00131Y00938D01*
X00119Y00972D02*
X00185Y01038D01*
X00119Y0095D02*
Y00972D01*
X00062Y01028D02*
X00119Y01085D01*
Y01119*
X00651Y00456D02*
X00686Y00491D01*
X00621Y00527D02*
Y00586D01*
X00048Y00632D02*
X00068Y00652D01*
X0011*
X0044Y00256D02*
Y00371D01*
X00525Y00456*
X00651*
X00373Y00211D02*
Y00307D01*
Y00211D02*
X00436Y00148D01*
X00719*
X00326Y00354D02*
X00373Y00307D01*
X00048Y00495D02*
Y00632D01*
Y00495D02*
X0019Y00354D01*
X00326*
X00731Y00538D02*
X00777D01*
X0069Y00571D02*
X00722Y00538D01*
X01651Y00774D02*
Y0084D01*
X01564Y00775D02*
Y0084D01*
Y00775D02*
D01*
X01566Y00357D02*
Y00419D01*
X01653Y00357D02*
Y00419D01*
X01652Y0042D02*
X01653Y00419D01*
X01471Y00422D02*
Y00486D01*
X0147Y00487D02*
X01471Y00486D01*
X01207Y00552D02*
X01222D01*
X01144Y00615D02*
X01207Y00552D01*
X01144Y00615D02*
Y00622D01*
X00824Y00964D02*
X00857Y00997D01*
X00824Y00928D02*
Y00964D01*
X00723Y00848D02*
Y00907D01*
Y00848D02*
D01*
X00658Y01049D02*
X007D01*
X00723Y01026*
Y00994D02*
Y01026D01*
G54D59*
X00646Y0023D02*
X0066Y00243D01*
X02205Y01585D02*
X0222Y0157D01*
Y0152D02*
Y0157D01*
Y0152D02*
X02226Y01513D01*
X0224Y01535D02*
Y0159D01*
X02225Y01605D02*
X0224Y0159D01*
X02255Y01541D02*
Y016D01*
X02273Y01548D02*
Y01607D01*
X02125Y01729D02*
X02255Y016D01*
X02133Y01747D02*
X02273Y01607D01*
X01003Y01747D02*
X02133D01*
X01008Y01761D02*
X02163D01*
X02205Y0172*
X0224Y01535D02*
X02245Y01529D01*
Y01476D02*
Y01529D01*
X02255Y01541D02*
X02265Y0153D01*
X02273Y01548D02*
X02304Y01516D01*
X00855Y01915D02*
X01008Y01761D01*
X00479Y01915D02*
X00855D01*
X00315Y01884D02*
X00865D01*
X00893Y01832D02*
D01*
X00352D02*
X00893D01*
X00865Y01884D02*
X01003Y01747D01*
X00479Y01915D02*
D01*
X01774Y01059D02*
X01811Y01096D01*
X00934Y01195D02*
Y01411D01*
X01811Y01096D02*
X01865D01*
X00929Y01151D02*
X01048Y01031D01*
X01001Y01197D02*
Y0124D01*
X00979Y01262D02*
X01001Y0124D01*
X00979Y012D02*
Y01231D01*
X02855Y00284D02*
Y0039D01*
Y00284D02*
X0304Y001D01*
X02835Y00555D02*
X02855Y00534D01*
X02809Y00555D02*
X02835D01*
X02684Y00679D02*
X02809Y00555D01*
X02855Y0039D02*
Y00534D01*
X02079Y00139D02*
Y00219D01*
X0204Y001D02*
X02079Y00139D01*
X01948Y00289D02*
X02009D01*
X01895Y00235D02*
X01948Y00289D01*
X02009D02*
X02062Y00342D01*
X02015Y00275D02*
X02076Y00336D01*
X0197Y00275D02*
X02015D01*
X0194Y00245D02*
X0197Y00275D01*
X02005Y00305D02*
X02048Y00348D01*
X01944Y00305D02*
X02005D01*
X0184Y002D02*
X01944Y00305D01*
X0264Y002D02*
Y00275D01*
X0257Y00345D02*
X0264Y00275D01*
X0257Y00345D02*
Y00548D01*
X02586Y00349D02*
Y00551D01*
Y00349D02*
X02674Y00261D01*
X026Y00354D02*
X0268Y00275D01*
X026Y00354D02*
Y00617D01*
X02595Y00145D02*
Y003D01*
X02555Y0034D02*
X02595Y003D01*
X02555Y0034D02*
Y00543D01*
X02383Y00556D02*
X02442Y00498D01*
Y00376D02*
Y00498D01*
X02333Y00267D02*
X02442Y00376D01*
X02403Y00556D02*
X02456Y00503D01*
Y0037D02*
Y00503D01*
X02339Y00253D02*
X02456Y0037D01*
X02423Y00556D02*
X0247Y00509D01*
Y00364D02*
Y00509D01*
X02345Y00239D02*
X0247Y00364D01*
X02442Y00556D02*
X02484Y00515D01*
Y00358D02*
Y00515D01*
X0234Y00214D02*
X02484Y00358D01*
X02462Y00556D02*
X02498Y00521D01*
Y00352D02*
Y00521D01*
X0239Y00244D02*
X02498Y00352D01*
X02482Y00556D02*
X02512Y00527D01*
Y00347D02*
Y00527D01*
X0244Y00275D02*
X02512Y00347D01*
X025Y00558D02*
X02526Y00532D01*
Y00341D02*
Y00532D01*
X025Y00315D02*
X02526Y00341D01*
X02521Y00557D02*
X0254Y00538D01*
Y002D02*
Y00538D01*
X02541Y00557D02*
X02555Y00543D01*
X0256Y00557D02*
X0257Y00548D01*
X0258Y00557D02*
X02586Y00551D01*
X0258Y00557D02*
Y00617D01*
X02245Y00449D02*
Y00617D01*
X02186Y00551D02*
Y00617D01*
X02118Y00484D02*
X02186Y00551D01*
X02118Y00319D02*
Y00484D01*
X02167Y00552D02*
Y00617D01*
X02104Y00489D02*
X02167Y00552D01*
X02104Y00324D02*
Y00489D01*
X02062Y00342D02*
Y00527D01*
X02076Y00336D02*
Y00521D01*
X0209Y0033D02*
Y00515D01*
X02088Y00552D02*
Y00617D01*
X02062Y00527D02*
X02088Y00552D01*
X02107Y00552D02*
Y00617D01*
X02076Y00521D02*
X02107Y00552D01*
X02127Y00552D02*
Y00617D01*
X0209Y00515D02*
X02127Y00552D01*
X0208Y0028D02*
X02118Y00319D01*
X0204Y0026D02*
X02104Y00324D01*
X01985Y00224D02*
X0209Y0033D01*
X02048Y00348D02*
Y00617D01*
X02798Y00338D02*
Y00546D01*
X02684Y00679D02*
Y01066D01*
X02666Y00678D02*
X02798Y00546D01*
X02666Y00678D02*
Y01067D01*
X02784Y00374D02*
Y00541D01*
X02652Y00673D02*
X02784Y00541D01*
X02652Y00673D02*
Y01073D01*
X03219Y00502D02*
X03222Y00499D01*
X0287Y00502D02*
X03219D01*
X02867Y00499D02*
X0287Y00502D01*
X02195Y00145D02*
X0224Y001D01*
X02195Y00145D02*
Y0023D01*
X03862Y00423D02*
X03922D01*
X03868Y00437D02*
X03928D01*
X03874Y00451D02*
X04059D01*
X03761Y00544D02*
X03868Y00437D01*
X03756Y00544D02*
X03761D01*
X03755Y0053D02*
X03862Y00423D01*
X03738Y0053D02*
X03755D01*
X03784Y00541D02*
X03874Y00451D01*
X03784Y00541D02*
Y00554D01*
X03738Y006D02*
X03784Y00554D01*
X0388Y00465D02*
X04065D01*
X03798Y00547D02*
X0388Y00465D01*
X03798Y00547D02*
Y00572D01*
X03922Y00423D02*
X03948Y00396D01*
X03928Y00437D02*
X03965Y004D01*
X04059Y00451D02*
X04148Y00361D01*
X04065Y00465D02*
X04175Y00354D01*
X037Y0044D02*
X03748Y00391D01*
X03745Y0043D02*
Y0049D01*
X0372Y00515D02*
X03745Y0049D01*
X037Y0044D02*
Y00503D01*
X0424Y001D02*
D01*
Y0018D01*
X0414Y001D02*
D01*
Y0018D01*
X0404Y001D02*
D01*
Y0018D01*
X0394D02*
D01*
Y001D02*
Y0018D01*
X0384Y001D02*
D01*
Y0018D01*
X0374Y001D02*
D01*
Y0018D01*
X02344Y00574D02*
Y00617D01*
X0229Y0052D02*
X02344Y00574D01*
X02324Y00574D02*
Y00617D01*
X03595Y00405D02*
X036Y004D01*
Y0034D02*
Y004D01*
X03565Y00464D02*
X03595D01*
X03555Y00475D02*
X03565Y00464D01*
X03525Y00475D02*
X03555D01*
X03524Y00435D02*
X03525Y00435D01*
X03524Y0039D02*
Y00435D01*
X03465Y0034D02*
X03465Y0034D01*
Y0039*
X034Y0034D02*
D01*
Y00375*
Y00434D02*
X03401Y00435D01*
X03454*
X02737Y00312D02*
Y00359D01*
Y00312D02*
X0276Y0029D01*
X0277Y00391D02*
Y00515D01*
X0278Y0032D02*
X02798Y00338D01*
X0276Y0035D02*
X02784Y00374D01*
X02667Y00617D02*
X0277Y00515D01*
X02641Y00617D02*
X02667D01*
X0256Y00557D02*
Y00617D01*
X02541Y00557D02*
Y00617D01*
X02521Y00557D02*
Y00617D01*
X025Y00558D02*
Y00617D01*
X02482Y00556D02*
Y00617D01*
X02462Y00556D02*
Y00617D01*
X02442Y00556D02*
Y00617D01*
X02423Y00556D02*
Y00617D01*
X02403Y00556D02*
Y00617D01*
X02383Y00556D02*
Y00617D01*
X0202Y01555D02*
X02048Y01526D01*
Y01476D02*
Y01526D01*
X02068Y01476D02*
X0207Y01477D01*
Y01515*
X02085Y0153*
X02147Y01476D02*
Y01539D01*
X02127Y01476D02*
Y01538D01*
X0189Y0033D02*
Y0065D01*
X01865Y00674D02*
X0189Y0065D01*
X01865Y00674D02*
Y007D01*
X01989Y0058D02*
Y00617D01*
X0197Y0058D02*
Y00617D01*
X01918Y00528D02*
X0197Y0058D01*
X01932Y00522D02*
X01989Y0058D01*
X01932Y00312D02*
Y00522D01*
X01918Y00318D02*
Y00528D01*
X01948Y00578D02*
Y00617D01*
X01904Y00534D02*
X01948Y00578D01*
X01904Y00324D02*
Y00534D01*
X03135Y01225D02*
X03165D01*
X03126Y01233D02*
X03135Y01225D01*
X02724Y01233D02*
X03126D01*
X03217Y00852D02*
X0324Y00875D01*
X03196Y00866D02*
X03235Y00905D01*
X0319Y0088D02*
X03241Y00931D01*
X03198Y0099D02*
X03223D01*
X03175Y00955D02*
Y00966D01*
X03198Y0099*
X0323Y00982D02*
X03304D01*
X03223Y0099D02*
X0323Y00982D01*
X03257Y01007D02*
X03304D01*
X03255Y01005D02*
X03257Y01007D01*
X0324Y01005D02*
X03255D01*
X03235Y00905D02*
X03304D01*
X03241Y00931D02*
X03304D01*
X03231Y00956D02*
X03304D01*
X03205Y0093D02*
X03231Y00956D01*
X03205Y0102D02*
X03218Y01033D01*
X03304*
X03192Y01058D02*
X03304D01*
X0317Y01005D02*
Y01036D01*
X03192Y01058*
X0318Y01075D02*
X0325D01*
X03165Y0109D02*
X0318Y01075D01*
X0374Y0056D02*
X03756Y00544D01*
X03703Y00565D02*
X03738Y0053D01*
X03775Y00595D02*
X03798Y00572D01*
X02618Y01338D02*
X02684Y01404D01*
X02445Y01429D02*
X02536Y01338D01*
X02597Y0138D02*
X02702Y01485D01*
X02554Y0138D02*
X02597D01*
X02521Y01412D02*
X02554Y0138D01*
X02603Y01366D02*
X02707Y0147D01*
X02548Y01366D02*
X02603D01*
X02482Y01432D02*
X02548Y01366D01*
X02608Y01352D02*
X02711Y01455D01*
X02542Y01352D02*
X02608D01*
X02462Y01432D02*
X02542Y01352D01*
X02536Y01338D02*
X02618D01*
X02718Y0144D02*
X0298D01*
X02684Y01405D02*
X02718Y0144D01*
X02684Y01404D02*
Y01405D01*
X02702Y01485D02*
X02966D01*
X02707Y0147D02*
X02971D01*
X02711Y01455D02*
X02976D01*
X02615Y0153D02*
X02675D01*
X026Y01515D02*
X02615Y0153D01*
X026Y01476D02*
Y01515D01*
X01865Y01155D02*
X01949D01*
X01865Y01175D02*
X01949D01*
X01865Y01194D02*
X01949D01*
X01865Y01214D02*
X01949D01*
X01865Y01253D02*
X0193D01*
X01865Y01273D02*
X0193D01*
X01865Y01293D02*
X01931D01*
X02525Y01215D02*
X02575D01*
X0249Y0118D02*
X02525Y01215D01*
X02518Y01188D02*
X02548D01*
X02496Y01166D02*
X02518Y01188D01*
X02515Y01165D02*
X02575D01*
X02502Y01152D02*
X02515Y01165D01*
X0251Y01115D02*
X02575D01*
X02501Y01124D02*
X0251Y01115D01*
X02525Y0104D02*
X0255D01*
X0252Y01065D02*
X02575D01*
X02489Y01096D02*
X0252Y01065D01*
X02483Y01082D02*
X02525Y0104D01*
X02515Y0109D02*
X0255D01*
X02495Y0111D02*
X02515Y0109D01*
X02548Y01138D02*
X0255Y0114D01*
X02548Y01188D02*
X0255Y0119D01*
X01784Y01825D02*
X01785Y01824D01*
Y01785D02*
Y01824D01*
X02694Y01096D02*
X02724D01*
X02666Y01067D02*
X02694Y01096D01*
X02694Y01115D02*
X02724D01*
X02652Y01073D02*
X02694Y01115D01*
X01753Y00289D02*
X01849D01*
X01664Y002D02*
X01753Y00289D01*
X01849D02*
X0189Y0033D01*
X01695Y0021D02*
X01759Y00275D01*
X01854*
X0174Y002D02*
X01801Y00261D01*
X0186*
X01795Y0021D02*
X01831Y00247D01*
X01866*
X01932Y00312*
X0186Y00261D02*
X01918Y00318D01*
X01854Y00275D02*
X01904Y00324D01*
X01795Y00155D02*
Y0021D01*
X0184Y002D02*
Y002D01*
X01895Y00155D02*
Y00235D01*
X01695Y00155D02*
Y0021D01*
X0164Y002D02*
X01664D01*
X0164Y001D02*
X01695Y00155D01*
X0208Y0022D02*
Y0028D01*
X01985Y00145D02*
Y00224D01*
X0204Y002D02*
Y0026D01*
X02079Y00219D02*
X0208Y0022D01*
X0174Y001D02*
X01795Y00155D01*
X0184Y001D02*
X01895Y00155D01*
X0194Y002D02*
Y00245D01*
Y001D02*
X01985Y00145D01*
X02206Y00418D02*
Y00617D01*
X02195Y0023D02*
X02232Y00267D01*
X0312Y01579D02*
Y0182D01*
X03106Y01584D02*
Y01826D01*
X03092Y0159D02*
Y01831D01*
X03078Y01596D02*
Y01998D01*
X03064Y01602D02*
Y01835D01*
X0305Y01608D02*
Y0183D01*
X0298Y01919D02*
X03064Y01835D01*
X0298Y01919D02*
Y02D01*
X03092Y01831D02*
X0318Y01919D01*
Y02*
X00099Y01723D02*
X00101Y01721D01*
X02363Y00612D02*
D01*
X02724Y0084D02*
X02724Y00841D01*
X03515Y00784D02*
X03535Y00765D01*
X03515Y00784D02*
Y0084D01*
X03535Y00755D02*
Y00765D01*
X03515Y0084D02*
X03529Y00854D01*
X03575*
X03499Y00745D02*
Y00849D01*
X03529Y00879*
X03575*
X02724Y00919D02*
X02787D01*
X02724Y00899D02*
X02787D01*
X02724Y00879D02*
X02787D01*
X01725Y01825D02*
Y0196D01*
X0143Y01825D02*
Y0196D01*
X02285Y01476D02*
X02285Y01476D01*
X02186Y01391D02*
Y01476D01*
X03507Y006D02*
X0354Y00632D01*
Y00745*
X03497Y0056D02*
X03515D01*
X03575Y0062*
Y00827*
X03575Y00828*
X03499Y00626D02*
Y00745D01*
X03467Y00595D02*
X03499Y00626D01*
X02724Y01234D02*
X02724Y01233D01*
X0374Y00219D02*
X03775Y00255D01*
X03761Y0031D02*
X03775Y00295D01*
Y00255D02*
Y00295D01*
X03748Y0031D02*
Y00335D01*
Y0031D02*
X03761D01*
X03165Y01258D02*
Y013D01*
X03208Y01215D02*
X0321D01*
X03821Y00258D02*
Y00284D01*
Y0031*
Y00258D02*
X0384Y0024D01*
Y00219D02*
Y0024D01*
X0378Y0033D02*
Y0035D01*
X038Y0031D02*
X03821D01*
X03765Y00365D02*
X0378Y0035D01*
Y0033D02*
X038Y0031D01*
X0318Y01275D02*
X032Y01255D01*
X0318Y01275D02*
Y01305D01*
X0394Y00219D02*
Y0022D01*
X03948Y0031D02*
X03965D01*
X0394Y0022D02*
X03985Y00265D01*
Y0029*
X03965Y0031D02*
X03985Y0029D01*
X03948Y0031D02*
Y00335D01*
X03195Y01295D02*
X0324Y0125D01*
X03195Y01295D02*
Y0131D01*
X03108Y01397D02*
X03195Y0131D01*
X04021Y00258D02*
Y00284D01*
Y0031*
Y00258D02*
X0404Y0024D01*
Y00219D02*
Y0024D01*
X04Y0031D02*
X04021D01*
X03985Y00325D02*
X04Y0031D01*
X0321Y01315D02*
X03235Y0129D01*
X0321Y01315D02*
Y01315D01*
X03114Y01411D02*
X0321Y01315D01*
X04221Y00258D02*
Y00284D01*
Y0031*
Y00258D02*
X0424Y0024D01*
Y00219D02*
Y0024D01*
X04175Y00343D02*
Y00354D01*
X04209Y0031D02*
X04221D01*
X04175Y00343D02*
X04209Y0031D01*
X0323Y0133D02*
X03275Y01285D01*
X03215Y0133D02*
X0323D01*
X0312Y01425D02*
X03215Y0133D01*
X0414Y00219D02*
Y00225D01*
X04175Y0026*
X0417Y0031D02*
X04175Y00304D01*
Y0026D02*
Y00304D01*
X04148Y0031D02*
Y00335D01*
Y0031D02*
X0417D01*
X04148Y00335D02*
Y00361D01*
X03735Y006D02*
X03738D01*
X03985Y00325D02*
Y00342D01*
X03965Y00362D02*
X03985Y00342D01*
X03965Y00362D02*
Y004D01*
X03948Y00335D02*
Y00396D01*
X037Y00565D02*
X03703D01*
X03745Y0043D02*
X03765Y0041D01*
Y00365D02*
Y0041D01*
X03748Y00335D02*
Y00391D01*
X03668Y00535D02*
X037Y00503D01*
X03665Y00535D02*
X03668D01*
X02595Y00145D02*
X0264Y001D01*
X025Y0014D02*
X0254Y001D01*
X02226Y00433D02*
Y00617D01*
X00829Y01492D02*
Y01536D01*
X0083Y01361D02*
X00889D01*
X00979Y01262D02*
Y01331D01*
X00906Y01438D02*
X00934Y01411D01*
X00879Y0147D02*
X00909D01*
X00949Y01431*
X0224Y002D02*
X02293Y00253D01*
X0229Y0015D02*
X0234Y001D01*
X0229Y0015D02*
Y0022D01*
X02309Y00239*
X0244Y002D02*
Y00275D01*
X0234Y002D02*
Y00214D01*
X02309Y00239D02*
X02345D01*
X02293Y00253D02*
X02339D01*
X02232Y00267D02*
X02333D01*
X0239Y0015D02*
Y00244D01*
Y0015D02*
X0244Y001D01*
X02724Y01352D02*
X02762D01*
X02724Y01371D02*
X02762D01*
X02724Y01393D02*
X02764D01*
X02762Y01352D02*
X02807Y01397D01*
X03108*
X02762Y01371D02*
X02801Y01411D01*
X03114*
X02764Y01393D02*
X02795Y01425D01*
X0312*
X02641Y01476D02*
X02666D01*
X0269Y015*
X02422Y00617D02*
X02423Y00617D01*
X02226Y00433D02*
X0226Y004D01*
X02206Y00418D02*
X0222Y00405D01*
X03165Y01258D02*
X03208Y01215D01*
X02724Y00841D02*
X02784D01*
X02724Y008D02*
X02764D01*
X02724Y00781D02*
X02764D01*
X02724Y00761D02*
X02764D01*
X02088Y01428D02*
Y01476D01*
X02065Y01405D02*
X02088Y01428D01*
X0149Y01785D02*
Y01825D01*
X02029Y01444D02*
Y01476D01*
X02009Y01444D02*
Y01476D01*
X01989Y01444D02*
Y01476D01*
X01855Y01465D02*
X01858D01*
X01993Y01408D02*
X02029Y01444D01*
X01911Y01408D02*
X01993D01*
X01987Y01422D02*
X02009Y01444D01*
X01981Y01436D02*
X01989Y01444D01*
X0189Y01465D02*
X01894D01*
X01922Y01436*
X01981*
X01917Y01422D02*
X01987D01*
X01897Y01442D02*
X01917Y01422D01*
X01891Y01428D02*
X01911Y01408D01*
X01856Y01428D02*
X01891D01*
X01855Y0143D02*
X01856Y01428D01*
X0116Y0189D02*
Y01935D01*
Y0189D02*
D01*
X01095Y01994D02*
X0116D01*
X0109Y02D02*
X01095Y01994D01*
X0109Y01914D02*
Y0196D01*
Y01914D02*
D01*
X01019Y01915D02*
Y0196D01*
Y01915D02*
X0102Y01914D01*
Y01815D02*
Y01855D01*
X0109Y0182D02*
Y01855D01*
X02724Y01076D02*
X02756D01*
X02775Y01095*
X02719Y01072D02*
X02724Y01076D01*
X0269Y01072D02*
X02719D01*
X02684Y01066D02*
X0269Y01072D01*
X02995Y01645D02*
X03025Y01615D01*
X0288Y02D02*
X0305Y0183D01*
X03078Y01998D02*
X0308Y02D01*
X03106Y01826D02*
X0328Y02D01*
X0312Y0182D02*
X03254Y01955D01*
X03335*
X0338Y02*
X0183Y01235D02*
X01865D01*
X0181Y01215D02*
X0183Y01235D01*
X00829Y01276D02*
X00889D01*
X00219Y01875D02*
X00254D01*
X00294Y01915*
X0325Y01075D02*
X03259Y01084D01*
X03304*
X0315Y01335D02*
X0318Y01305D01*
X03144Y01321D02*
X03165Y013D01*
X02839Y01966D02*
Y02016D01*
Y01966D02*
X02995Y0181D01*
Y01645D02*
Y0181D01*
X02825Y0196D02*
X02981Y01804D01*
X02825Y0196D02*
Y0201D01*
X02981Y01639D02*
Y01804D01*
Y01639D02*
X02995Y01625D01*
Y01595D02*
Y01625D01*
X00949Y01205D02*
Y01431D01*
X0183Y01135D02*
X01865D01*
X0181Y01135D02*
Y01215D01*
X02795Y0204D02*
X02825Y0201D01*
X02801Y02054D02*
X02839Y02016D01*
X0258Y02D02*
X0262Y0204D01*
X02795*
X02534Y02054D02*
X02801D01*
X0248Y02D02*
X02534Y02054D01*
X01858Y01465D02*
X0188Y01442D01*
X01897*
X02147Y00617D02*
Y00685D01*
X02068Y00617D02*
Y00685D01*
X02715Y00722D02*
X02917D01*
X02994Y00799*
X02784Y00841D02*
X02798Y00855D01*
X02764Y008D02*
X02804Y00841D01*
X02764Y00781D02*
X0281Y00827D01*
X03117Y00897D02*
X03175Y00955D01*
X0281Y00897D02*
X03117D01*
X02787Y00919D02*
X0281Y00897D01*
X03123Y00883D02*
X03205Y00965D01*
X02804Y00883D02*
X03123D01*
X02787Y00899D02*
X02804Y00883D01*
X02787Y00879D02*
X02798Y00869D01*
X02764Y00761D02*
X02816Y00813D01*
X025Y0014D02*
Y00315D01*
X0192Y0191D02*
X01965Y01865D01*
X029*
X02967Y01798*
Y0156D02*
Y01798D01*
X00339Y01818D02*
X00352Y01832D01*
X00315Y01818D02*
X00339D01*
X00309Y01824D02*
X00315Y01818D01*
X00219Y01824D02*
X00309D01*
X00288Y01884D02*
X00315D01*
X00254Y0185D02*
X00288Y01884D01*
X00219Y0185D02*
X00254D01*
X02931Y01321D02*
X03144D01*
X0291Y01319D02*
Y01319D01*
X02925Y01335*
X02924Y01313D02*
Y01314D01*
X02931Y01321*
X02883Y01273D02*
X02924Y01313D01*
X02724Y01293D02*
X02883D01*
X0291Y01319*
X02925Y01335D02*
X0315D01*
X02724Y01273D02*
X02883D01*
X01515Y0124D02*
Y01302D01*
X01465Y0124D02*
Y01302D01*
Y01194D02*
Y0124D01*
X01515Y01194D02*
Y0124D01*
X01565Y01623D02*
X01571Y0163D01*
X02625Y0103D02*
Y0123D01*
X02265Y01476D02*
Y0153D01*
X02304Y01476D02*
Y01516D01*
X02226Y01476D02*
Y01513D01*
X0298Y0144D02*
X0312Y01579D01*
X02976Y01455D02*
X03106Y01584D01*
X02971Y0147D02*
X03092Y0159D01*
X02966Y01485D02*
X03078Y01596D01*
X0269Y015D02*
X02961D01*
X03064Y01602*
X02956Y01515D02*
X0305Y01608D01*
X02675Y0153D02*
X0269Y01515D01*
X02956*
X02165Y0137D02*
X02186Y01391D01*
X02383Y01436D02*
Y01476D01*
Y01436D02*
X02405Y01415D01*
X0244*
X02625Y0123*
X02442Y01429D02*
Y01476D01*
Y01429D02*
X02445D01*
X02462Y01432D02*
Y01476D01*
X02482Y01432D02*
Y01476D01*
X02521Y01412D02*
Y01476D01*
X00294Y01915D02*
X00479D01*
X02265Y00465D02*
X02295Y00435D01*
X02265Y00465D02*
Y00515D01*
X02324Y00574*
X0229Y00475D02*
Y0052D01*
X02245Y00449D02*
X02255Y0044D01*
X0326Y00828D02*
X03304D01*
X03244Y00812D02*
X0326Y00828D01*
X02994Y00799D02*
X03169D01*
X03182Y00812*
X03244*
X02804Y00841D02*
X03151D01*
X02798Y00855D02*
X03145D01*
X02798Y00869D02*
X0314D01*
X02816Y00813D02*
X03163D01*
X0281Y00827D02*
X03157D01*
X03176Y00905D02*
X0318D01*
X0314Y00869D02*
X03176Y00905D01*
X03145Y00855D02*
X03171Y0088D01*
X03151Y00841D02*
X03177Y00866D01*
X03157Y00827D02*
X03182Y00852D01*
X03163Y00813D02*
X03185Y00835D01*
X03235*
X03182Y00852D02*
X03217D01*
X03177Y00866D02*
X03196D01*
X03171Y0088D02*
X0319D01*
X00893Y01832D02*
X00993Y01731D01*
X02122*
X02125Y01729*
X02125*
X0268Y00275D02*
X02743D01*
X02753Y00265*
X02785*
X02674Y00261D02*
X02737D01*
X02755Y00242*
X02737Y00359D02*
X0277Y00391D01*
X02755Y00242D02*
X02797D01*
X02825Y0027*
X02107Y01476D02*
Y01538D01*
X0205Y01592D02*
X02074D01*
X02127Y01538*
X01995Y0158D02*
X0203D01*
X0204Y01569*
X02077*
X02107Y01538*
X02Y01614D02*
X02071D01*
X02147Y01539*
X01618Y0163D02*
Y01668D01*
X01664Y01714*
X00883Y01115D02*
X00901Y01097D01*
X02097Y01115D02*
X02131Y01082D01*
X02483*
X01949Y01155D02*
X01974Y01129D01*
X02102*
X02136Y01096*
X02489*
X0198Y01143D02*
X02108D01*
X02142Y0111*
X02495*
X01986Y01157D02*
X02114D01*
X02148Y01124*
X01992Y01171D02*
X0212D01*
X02154Y01138*
X01998Y01185D02*
X02126D01*
X02159Y01152*
X02502*
X02003Y01199D02*
X02131D01*
X02165Y01166*
X02496*
X01931Y01293D02*
X02011Y01213D01*
X02137*
X02171Y0118*
X0249*
X01949Y01175D02*
X0198Y01143D01*
X01949Y01194D02*
X01986Y01157D01*
X02148Y01124D02*
X02501D01*
X01949Y01214D02*
X01992Y01171D01*
X02154Y01138D02*
X02548D01*
X0193Y01253D02*
X01998Y01185D01*
X0193Y01273D02*
X02003Y01199D01*
X01785Y01031D02*
X01791Y01037D01*
X01865*
Y01115D02*
X02097D01*
X0178Y01045D02*
X01811Y01076D01*
X01865*
X01768Y01073D02*
X0183Y01135D01*
X00949Y01205D02*
X01094Y01059D01*
X01762Y01087D02*
X0181Y01135D01*
X00934Y01195D02*
X01083Y01045D01*
X01001Y01197D02*
X01111Y01087D01*
X01762*
X00979Y012D02*
X01105Y01073D01*
X01768*
X01094Y01059D02*
X01774D01*
X01083Y01045D02*
X0178D01*
X00982Y01017D02*
X01865D01*
X00901Y01098D02*
X00982Y01017D01*
X01048Y01031D02*
X01785D01*
G54D60*
X00575Y0023D02*
X00646D01*
X0054Y00265D02*
X00575Y0023D01*
X01225Y00679D02*
Y00778D01*
X01344Y00861D02*
Y00925D01*
G54D61*
X00101Y01634D02*
Y01721D01*
X00149Y01634D02*
X002D01*
X03145Y016D02*
Y0176D01*
X01465Y01555D02*
X01476Y01543D01*
X01496*
X01515Y01525*
Y01487D02*
Y01525D01*
X01465Y01555D02*
Y01577D01*
X00325Y00526D02*
X0037D01*
X00385Y00584D02*
X00553D01*
X01389Y00922D02*
X01432D01*
X01464Y00759D02*
Y0089D01*
X01432Y00922D02*
X01464Y0089D01*
X01344Y00925D02*
X01378D01*
G54D62*
X00883Y01115D02*
Y01206D01*
X02914Y0039D02*
X02935D01*
X0295Y00375*
X02912Y0044D02*
X02935Y00462D01*
Y0048*
X0418Y01496D02*
X04181Y01495D01*
X0349Y00455D02*
Y00465D01*
X0348Y00475D02*
X0349Y00465D01*
X03454Y00475D02*
X0348D01*
X02619Y0058D02*
Y00617D01*
Y0058D02*
X0264Y0056D01*
Y00552D02*
Y0056D01*
X02167Y01476D02*
Y01547D01*
X02157Y01557D02*
X02167Y01547D01*
X03012Y01207D02*
X03036D01*
X03005Y01214D02*
X03012Y01207D01*
X02724Y01214D02*
X03005D01*
X0264Y01567D02*
Y0161D01*
X02577Y01555D02*
X02587Y01565D01*
X0254Y01555D02*
X02577D01*
X02587Y01534D02*
Y01565D01*
X00315Y01943D02*
Y01988D01*
X02337Y01615D02*
Y01637D01*
X02305Y0167D02*
X02337Y01637D01*
X02277Y0167D02*
X02305D01*
X02448Y01548D02*
Y0165D01*
X02422Y01522D02*
X02448Y01548D01*
X02422Y01476D02*
Y01522D01*
X02403Y01476D02*
Y01521D01*
X02341Y01583D02*
X02403Y01521D01*
X02341Y01583D02*
Y01615D01*
X02448Y0165D02*
X02495Y01696D01*
Y0171*
X02029Y00559D02*
Y00612D01*
X02012Y00525D02*
X02015Y00527D01*
X0197Y00525D02*
X02012D01*
X0202Y0055D02*
X02029Y00559D01*
X0202Y0054D02*
Y0055D01*
X02009Y00617D02*
Y00669D01*
X02025Y00685*
X00924Y00567D02*
X00936D01*
X00967Y00537*
X04029Y00385D02*
X0406D01*
X0379Y00385D02*
X0379Y00385D01*
X0379Y00385D02*
Y0042D01*
X03865Y00385D02*
D01*
X03829D02*
X03865D01*
X0399Y00385D02*
X0399Y00385D01*
X0399Y00385D02*
Y0042D01*
X04029Y00385D02*
D01*
X0419Y00385D02*
X0419Y00385D01*
X0419Y00385D02*
Y0042D01*
X04229Y00385D02*
D01*
X04265*
X041Y0027D02*
Y00275D01*
X04075Y00245D02*
X041Y0027D01*
X04099Y00315D02*
X041Y00314D01*
X04065Y00315D02*
X04099D01*
X039Y0027D02*
Y00275D01*
X03875Y00245D02*
X039Y0027D01*
X03899Y00315D02*
X039Y00314D01*
X03865Y00315D02*
X03899D01*
X03699D02*
X037Y00314D01*
X03665Y00315D02*
X03699D01*
X03675Y00245D02*
X03705Y00275D01*
X0371*
X03719Y00284D02*
X03748D01*
X0371Y00275D02*
X03719Y00284D01*
X04229Y00364D02*
Y00385D01*
X04221Y00356D02*
X04229Y00364D01*
X04221Y00335D02*
Y00356D01*
X041Y00275D02*
X04125D01*
X04134Y00284*
X04148*
X04021Y00335D02*
Y00346D01*
X04029Y00354*
Y00385*
X039Y00275D02*
X03925D01*
X03934Y00284*
X03948*
X03821Y00335D02*
X03829Y00343D01*
Y00385*
X03372Y01137D02*
Y01167D01*
X03356Y01146D02*
Y01174D01*
X03345Y01135D02*
X03356Y01146D01*
X03304Y01135D02*
X03345D01*
X03345Y0111D02*
X03372Y01137D01*
X03304Y0111D02*
X03345D01*
X01284Y015D02*
Y01555D01*
Y0121D02*
Y01271D01*
X00747Y01465D02*
X0075Y01468D01*
X00704Y01465D02*
X00747D01*
X00699Y0121D02*
X00701Y01212D01*
X0075*
X00829Y01405D02*
X00829Y01405D01*
X00529Y01575D02*
D01*
X00569*
X00569Y01435D02*
X00569Y01436D01*
Y01475*
X00529Y01495D02*
X00559Y01525D01*
X00569*
X00569Y0124D02*
X00569Y0124D01*
Y012D02*
Y0124D01*
X00519Y01125D02*
X00544Y0115D01*
X00569*
X00569Y011D02*
X00569Y011D01*
X00829Y01232D02*
X00857D01*
X00682Y01362D02*
X00829D01*
X00628Y01416D02*
X00682Y01362D01*
X00628Y01416D02*
Y01475D01*
X00664Y01275D02*
X00829D01*
X00628Y0124D02*
X00664Y01275D01*
X00628Y012D02*
Y0124D01*
Y0115D02*
X0079D01*
X00829Y01189*
X03613Y0157D02*
X03655D01*
X03356Y01174D02*
X0339Y01208D01*
Y0124*
X03372Y01167D02*
X03445Y0124D01*
X03575Y01084D02*
X03627D01*
X03575Y01058D02*
X03785D01*
X03685Y0116D02*
X03735D01*
X03575Y0111D02*
X03617D01*
X03665Y01157*
X03695*
X03575Y01135D02*
X0362D01*
X0364Y01155*
Y01187*
X03627Y01084D02*
X03657Y01115D01*
X03735*
X03575Y01033D02*
X03576Y01032D01*
X03575Y00982D02*
X03642D01*
X03576Y01032D02*
X03807D01*
X03835Y0106*
Y01005D02*
Y0106D01*
Y01005D02*
D01*
X03642Y00982D02*
X03677Y00947D01*
X03735Y0095D02*
X03757Y00972D01*
X03812*
X03727Y00947D02*
X03735Y0094D01*
X03677Y00947D02*
X03727D01*
X03812Y00972D02*
X03835Y0095D01*
X0388*
X03831Y01111D02*
X03835Y01115D01*
X03785Y01111D02*
X03831D01*
X0364Y01187D02*
X03675Y01222D01*
X01792Y00722D02*
X01865D01*
X03385Y00755D02*
X03395Y00745D01*
X0334D02*
X03369Y00774D01*
X0334Y00695D02*
Y00695D01*
X03305Y0066D02*
X0334Y00695D01*
Y00695D02*
Y00745D01*
X03395Y0065D02*
Y00695D01*
Y00745*
X03304Y00854D02*
X03351D01*
X03369Y00836*
Y00774D02*
Y00836D01*
X03304Y00879D02*
X0335D01*
X03385Y00755D02*
Y00845D01*
X0335Y00879D02*
X03385Y00845D01*
X0344Y007D02*
Y00745D01*
X03599Y007D02*
Y00745D01*
X03685Y01215D02*
X03685Y01215D01*
X03791*
X03735Y0116D02*
X0378D01*
X03735Y0116D02*
X03735Y0116D01*
X03838Y01215D02*
X03885D01*
X03845Y01125D02*
X03895D01*
X03835Y01115D02*
X03845Y01125D01*
X02869Y0075D02*
X02905D01*
X0264Y00555D02*
X02685D01*
X0264Y00455D02*
Y00507D01*
X03083Y01173D02*
Y01207D01*
X03033Y01253D02*
X03036Y01257D01*
X0129Y0192D02*
X0133Y0196D01*
X015Y0191D02*
Y0192D01*
X01489Y01899D02*
X015Y0191D01*
X01489Y01875D02*
Y01899D01*
X0129Y01885D02*
X0138D01*
X0129D02*
Y0192D01*
X01795Y01905D02*
Y0192D01*
X01784Y01894D02*
X01795Y01905D01*
X01784Y01875D02*
Y01894D01*
X01245Y0182D02*
X01287D01*
X01545Y01915D02*
X01582Y01877D01*
X0212Y01959D02*
X0222D01*
X0212Y0196D02*
X0212Y01959D01*
X02225Y01907D02*
X0227D01*
X0222Y01959D02*
Y02005D01*
X02592Y017D02*
X02635D01*
X02206Y01393D02*
Y01476D01*
X02285Y01372D02*
Y01476D01*
X02324Y01387D02*
Y01476D01*
Y01387D02*
X0234Y01372D01*
X00315Y01661D02*
X0032Y01655D01*
X00415Y01754D02*
D01*
X00315Y01759D02*
X0036D01*
X02495Y01615D02*
Y0166D01*
X01865Y01332D02*
X01897D01*
X0191Y0132*
X01935*
X02337Y0171D02*
X024D01*
X01542Y01822D02*
X01585D01*
X03575Y00956D02*
X03628D01*
X03687Y00898*
X00829Y01405D02*
X00889D01*
X00628Y01525D02*
X00779D01*
X00857Y01449D02*
X00879Y0147D01*
X00829Y01449D02*
X00857D01*
X00628Y01575D02*
X00859D01*
X00879Y01555*
Y0147D02*
Y01555D01*
X00779Y01525D02*
X00814Y01491D01*
X00629Y01296D02*
Y01346D01*
X03785Y0091D02*
Y00948D01*
Y00813D02*
X03827D01*
X03735D02*
X03785D01*
X03784Y01007D02*
X03785Y01007D01*
X03575Y01007D02*
X03784D01*
X0258Y01405D02*
Y01476D01*
X02724Y01253D02*
X03033D01*
X02781Y007D02*
X028Y00682D01*
X02724Y007D02*
X02781D01*
X02724Y00741D02*
X02771D01*
X00413Y01714D02*
X00415Y01712D01*
X02344Y0142D02*
Y01476D01*
X0098Y02D02*
X01019D01*
X0322Y00682D02*
Y0073D01*
X02868Y0068D02*
X0293D01*
X00219Y01901D02*
X0025D01*
X03083Y01257D02*
X03127D01*
X03135Y01265*
Y01285*
X02724Y01017D02*
X02892D01*
X02925Y00985*
X0297*
X02724Y01037D02*
X02892D01*
X02918Y01063*
X0297*
X02984Y01047D02*
X0306D01*
X02982Y00997D02*
X0306D01*
X0297Y00985D02*
X02982Y00997D01*
X03055Y0094D02*
X031D01*
X00568Y0106D02*
Y01099D01*
X00433Y01295D02*
Y0132D01*
X00857Y01232D02*
X00883Y01206D01*
X00595Y0134D02*
X00753D01*
X00775Y01319*
X00829*
X02147Y00685D02*
D01*
X02068D02*
D01*
X02029Y00612D02*
D01*
X02015Y0043D02*
Y00472D01*
Y0043D02*
D01*
X02771Y00741D02*
X02785Y00755D01*
X02812*
Y00777*
X02825Y0079*
X02372Y0046D02*
X02415D01*
X02325Y00515D02*
X02363D01*
Y00612*
X0179Y0072D02*
X01792Y00722D01*
X0175Y0072D02*
X0179D01*
X01795Y0062D02*
Y00662D01*
X018Y00947D02*
Y0099D01*
X017Y00945D02*
X01742D01*
X01823Y00958D02*
X01865D01*
X0182Y00955D02*
X01823Y00958D01*
X018Y00955D02*
X0182D01*
X01809Y01312D02*
X01865D01*
X0179Y0126D02*
Y01303D01*
X01948Y01545D02*
X0198D01*
X01948Y01476D02*
Y01545D01*
X01885Y01547D02*
Y0159D01*
X02542Y01757D02*
X0259D01*
X02495Y0171D02*
X02542Y01757D01*
X02245Y01702D02*
X02277Y0167D01*
X02245Y01757D02*
Y018D01*
X0256Y01476D02*
Y01508D01*
X02587Y01534*
X02877Y0113D02*
X02925D01*
X02877Y01075D02*
Y0113D01*
X02724Y01135D02*
X02816D01*
X0282Y01077D02*
Y01175D01*
X02724Y01056D02*
X02781D01*
X028Y01075*
X0282*
X02724Y01332D02*
X02802D01*
X028Y0133D02*
X02802Y01332D01*
X0282Y0135*
Y0137*
X02852Y0133D02*
X02885D01*
X01695Y01305D02*
X01737D01*
X01565Y0126D02*
X0159Y01235D01*
X01565Y0126D02*
Y01302D01*
X01515Y01135D02*
X0156D01*
X0142D02*
X01464D01*
X0306Y01102D02*
X03062Y011D01*
X031*
X02165Y0158D02*
X02195Y0155D01*
X0025Y01901D02*
X00274Y01925D01*
Y02013*
X00305Y02044*
X02206Y01393D02*
X0223Y0137D01*
X02344Y0142D02*
X0237Y01395D01*
X0241*
X02435Y0137*
X00335Y00556D02*
X00347Y00543D01*
Y00526D02*
Y00543D01*
X003Y0057D02*
X00315Y00556D01*
X003Y0057D02*
Y00584D01*
X00315Y00556D02*
X00335D01*
X00263Y00584D02*
Y00621D01*
X00245Y00566D02*
X00263Y00584D01*
X00245Y00521D02*
Y00566D01*
X0022Y00496D02*
X00245Y00521D01*
X004Y00641D02*
X00416D01*
X00434Y00623*
X00503*
X00359Y00584D02*
X00385D01*
X00429Y00526D02*
X00434Y00521D01*
X005*
X0055*
X02105Y01625D02*
X02115Y01614D01*
X02105Y01625D02*
Y01655D01*
X00628Y011D02*
X00868D01*
X00883Y01115*
X03687Y00898D02*
X03706D01*
X03736Y00868*
X03785*
G54D63*
X0149Y001D03*
X0085Y02D03*
X0434Y003D03*
X0234Y02D03*
G54D64*
X0424Y02D03*
X0414D03*
X0404D03*
X0394D03*
X0384D03*
X0374D03*
X0364D03*
X0268D03*
X0338D03*
X0328D03*
X0318D03*
X0308D03*
X0298D03*
X0288D03*
X0278D03*
X0258D03*
X0354Y001D03*
X0344D03*
X0334D03*
X0324D03*
X0314D03*
X0304D03*
X0294D03*
X0384D03*
X0394D03*
X0404D03*
X0414D03*
X0424D03*
X0224Y002D03*
X0234Y001D03*
Y002D03*
X0244Y001D03*
Y002D03*
X0254Y001D03*
Y002D03*
X0264Y001D03*
Y002D03*
X0143Y0196D03*
X01725D03*
X0204Y002D03*
Y001D03*
X0194Y002D03*
Y001D03*
X0184Y002D03*
Y001D03*
X0174Y002D03*
Y001D03*
X0164Y002D03*
G54D65*
X0354Y02D03*
X0248D03*
X0284Y001D03*
X0374D03*
X0172Y00545D03*
X0224Y001D03*
X0133Y0196D03*
X01625D03*
X0164Y001D03*
G54D66*
X04006Y00767D03*
X04325Y00516D03*
Y00882D03*
X04128Y00846D03*
X04006Y00642D03*
Y01272D03*
X04325Y01021D03*
Y01387D03*
X04128Y01351D03*
X04006Y01147D03*
G54D67*
X04325Y00705D03*
X04128D03*
X04325Y0121D03*
X04128D03*
X0192Y0196D03*
X0197D03*
X0192Y0191D03*
X0197D03*
X0202Y0196D03*
Y0191D03*
X0207D03*
Y0196D03*
X0212D03*
Y0191D03*
G54D68*
X0185Y00395D03*
G54D69*
X0088Y00398D03*
X0114D03*
G54D70*
X0088Y003D03*
X0114D03*
G54D71*
X0054Y00265D03*
X00303D03*
X00421Y00079D03*
G54D72*
X00099Y01723D03*
Y01976D03*
G54D73*
X00808Y00122D03*
X01535Y00199D03*
X00185Y01038D03*
X01226Y00779D03*
X00723Y00848D03*
X01098Y00928D03*
X00176Y00865D03*
X01344Y00861D03*
X00268Y01081D03*
X0069Y00571D03*
X00349Y01079D03*
X01144Y00622D03*
X01215Y00061D03*
X00383Y01422D03*
X00067Y00353D03*
X00062Y01028D03*
X00374Y0149D03*
X01651Y00774D03*
X01564Y00775D03*
X01566Y00357D03*
X01653D03*
X00857Y00997D03*
X00658Y01049D03*
G54D74*
X00929Y01151D03*
X0349Y00455D03*
X036Y0034D03*
X034D03*
X03465D03*
X01995Y0158D03*
X03205Y0102D03*
X01057Y00522D03*
X00742Y00757D03*
Y00787D03*
X00772D03*
Y00757D03*
X02825Y0079D03*
X02905Y0075D03*
X01027Y00492D03*
Y00522D03*
X01057Y00492D03*
X02195Y0155D03*
X03165Y0109D03*
X0226Y004D03*
X02255Y0044D03*
X03507Y006D03*
X03467Y00595D03*
X03497Y0056D03*
X0324Y0125D03*
X03235Y0129D03*
X03275Y01285D03*
X03775Y00595D03*
X03735Y006D03*
X0374Y0056D03*
X0371Y00525D03*
X03665Y00535D03*
X037Y00565D03*
X0324Y01005D03*
X0079Y0115D03*
X00899Y01446D03*
X00829Y01536D03*
X00889Y01361D03*
Y01276D03*
X00979Y01231D03*
Y01331D03*
X0222Y00405D03*
X03205Y0093D03*
X0318Y00905D03*
X03235Y00835D03*
X0324Y00875D03*
X03165Y01225D03*
X0321Y01215D03*
X032Y01255D03*
X0229Y00475D03*
X02295Y00435D03*
X02575Y01115D03*
X028Y00682D03*
X02625Y0103D03*
X0149Y01785D03*
X02065Y01405D03*
X0109Y0182D03*
X0102Y01815D03*
X0116Y0189D03*
X0098Y02D03*
X02775Y01095D03*
X03025Y01615D03*
X02967Y0156D03*
X0293Y0068D03*
X0322Y0073D03*
X0295Y00375D03*
X02935Y0048D03*
X02995Y01595D03*
X03205Y00965D03*
X0317Y01005D03*
X02105Y01655D03*
X01855Y01465D03*
X02205Y01585D03*
X01785Y01785D03*
X02575Y01215D03*
X0255Y0119D03*
X02575Y01165D03*
X0255Y0104D03*
X02575Y01065D03*
X0255Y0114D03*
Y0109D03*
X0189Y01465D03*
X01855Y0143D03*
X02147Y00685D03*
X02068D03*
X02Y01615D03*
X0213Y0181D03*
X02205Y0172D03*
X01465Y0124D03*
X01515D03*
X0194Y0181D03*
X0043Y0066D03*
X0046Y00661D03*
X00175Y00631D03*
X00205D03*
X00175Y00601D03*
X00205D03*
X00175Y00571D03*
X00205D03*
Y00541D03*
X00175D03*
X0028Y00741D03*
X0025D03*
X0028Y00771D03*
X0025D03*
X0038D03*
X0041D03*
X0038Y00741D03*
X0041D03*
X003Y00816D03*
X0033D03*
X0024D03*
X0027D03*
X0021D03*
X0015D03*
X005Y00521D03*
X00485Y00941D03*
X0278Y0032D03*
X0276Y0029D03*
X02825Y0027D03*
X0276Y0035D03*
X02785Y00265D03*
X0012Y00816D03*
X0018D03*
X02085Y0153D03*
X0202Y01555D03*
X0205Y01592D03*
X0031Y00671D03*
X0035D03*
X0031Y00631D03*
X0035D03*
G54D75*
X02325Y00515D03*
X02415Y0046D03*
X00315Y01988D03*
X0142Y01575D03*
X03145Y0176D03*
Y016D03*
X0355Y01305D03*
X02025Y00685D03*
X00967Y00537D03*
Y00757D03*
X0406Y00385D03*
X0419Y0042D03*
X04265Y00385D03*
X04075Y00245D03*
X04065Y00315D03*
X03865D03*
X03875Y00245D03*
X0399Y0042D03*
X03865Y00385D03*
X0379Y0042D03*
X03665Y00315D03*
X03675Y00245D03*
X03655Y0157D03*
X03395Y015D03*
X0344Y007D03*
X00529Y01495D03*
Y01575D03*
X00519Y01125D03*
X00569Y0124D03*
X01284Y01555D03*
X00704Y01465D03*
X00699Y0121D03*
X0418Y0155D03*
X0335Y013D03*
X03445Y01335D03*
X0197Y00525D03*
X0175Y0072D03*
X01795Y0062D03*
X018Y0099D03*
X017Y00945D03*
X0179Y0126D03*
X01695Y01305D03*
X02015Y0043D03*
X0388Y0095D03*
X03305Y0066D03*
X03805Y0062D03*
X03395Y0065D03*
X036Y007D03*
X0378Y0116D03*
X03885Y01215D03*
X03895Y01125D03*
X02685Y00555D03*
X0264Y00455D03*
X0254Y01555D03*
X015Y0192D03*
X0138Y01885D03*
X01795Y0192D03*
X01245Y0182D03*
X01545Y01915D03*
X0222Y02005D03*
X0227Y01907D03*
X02635Y017D03*
X0223Y0137D03*
X02285Y01372D03*
X0234D03*
Y0123D03*
X02285D03*
X00305Y02044D03*
X02165Y0137D03*
X031Y011D03*
Y0094D03*
X0355Y01235D03*
X02495Y0166D03*
X024Y0171D03*
X01542Y01822D03*
X03827Y00813D03*
X01283Y0127D03*
X00889Y01405D03*
X00569Y01435D03*
X00433Y01295D03*
X00629Y01296D03*
X03785Y0091D03*
X002Y01634D03*
X03083Y01173D03*
X03135Y01285D03*
X02385Y01255D03*
X02435Y0137D03*
X0258Y01405D03*
X0248Y0125D03*
X02435Y0123D03*
X033Y00795D03*
X00568Y0106D03*
X01885Y0159D03*
X02175Y0123D03*
X0223D03*
X01935Y0132D03*
X0198Y01545D03*
X02245Y018D03*
X0264Y0161D03*
X0282Y01175D03*
X02925Y0113D03*
X02885Y0133D03*
X0282Y0137D03*
X0159Y01235D03*
X0142Y01135D03*
X0156D03*
X0142Y01635D03*
X01665Y0151D03*
X0039Y00821D03*
X0022Y00496D03*
X00265Y00481D03*
X0024Y00866D03*
X00142Y01249D03*
X00454Y01234D03*
X00206Y01528D03*
X0024Y01422D03*
X00063Y01228D03*
X00105Y01392D03*
X0036Y01759D03*
X00415Y01754D03*
X00508Y01714D03*
G54D76*
X00887Y00592D03*
Y00561D03*
G54D77*
X0075Y0008D03*
X01471Y00422D03*
X01551Y00951D03*
X01198Y00865D03*
X01542Y00672D03*
X01116Y00488D03*
X0075Y00273D03*
X0044Y00256D03*
X00686Y00491D03*
X00621Y00527D03*
M02*