%FSTAX23Y23*%
%MOIN*%
%SFA1B1*%

%IPPOS*%
%ADD10R,0.030000X0.030000*%
%ADD11R,0.060000X0.050000*%
%ADD12R,0.086610X0.021650*%
%ADD13R,0.050000X0.060000*%
%ADD14R,0.050000X0.050000*%
%ADD15R,0.037400X0.033470*%
%ADD16C,0.004000*%
%ADD17C,0.008000*%
%ADD18C,0.059060*%
%ADD19R,0.059060X0.059060*%
%ADD20C,0.022000*%
%ADD21R,0.086610X0.070870*%
%ADD22R,0.051180X0.011810*%
%ADD23C,0.018000*%
%LNpeak_detector_with_banking-1*%
%LPD*%
G54D10*
X09209Y15301D03*
Y15356D03*
X0866Y153D03*
Y15355D03*
X09117Y15302D03*
Y15357D03*
X08934Y15301D03*
Y15356D03*
X0877Y1566D03*
Y15715D03*
X08843Y15301D03*
Y15356D03*
X09026D03*
Y15301D03*
X08751Y15357D03*
Y15302D03*
X09301Y15357D03*
Y15302D03*
X09209Y14641D03*
Y14696D03*
X0866Y1464D03*
Y14695D03*
X09117Y14642D03*
Y14697D03*
X08934Y14641D03*
Y14696D03*
X0877Y15D03*
Y15055D03*
X08843Y14641D03*
Y14696D03*
X09026D03*
Y14641D03*
X08751Y14697D03*
Y14642D03*
X09301Y14697D03*
Y14642D03*
X09209Y14036D03*
Y13981D03*
X0866Y14035D03*
Y1398D03*
X09117Y14037D03*
Y13982D03*
X08934Y14036D03*
Y13981D03*
X0877Y14395D03*
Y1434D03*
X09301Y13982D03*
Y14037D03*
X08843Y14036D03*
Y13981D03*
X09026D03*
Y14036D03*
X08751Y13982D03*
Y14037D03*
X09301Y13322D03*
Y13377D03*
X08843Y13321D03*
Y13376D03*
X09026Y13321D03*
Y13376D03*
X09117Y13377D03*
Y13322D03*
X09209Y13321D03*
Y13376D03*
X08751Y13377D03*
Y13322D03*
X0866Y13375D03*
Y1332D03*
X0877Y13735D03*
Y1368D03*
X08934Y13321D03*
Y13376D03*
X08469Y15301D03*
Y15356D03*
X0792Y153D03*
Y15355D03*
X08377Y15302D03*
Y15357D03*
X08194Y15301D03*
Y15356D03*
X0803Y1566D03*
Y15715D03*
X08561Y15357D03*
Y15302D03*
X08103Y15301D03*
Y15356D03*
X08286D03*
Y15301D03*
X08011Y15357D03*
Y15302D03*
X08469Y14641D03*
Y14696D03*
X0792Y1464D03*
Y14695D03*
X08377Y14642D03*
Y14697D03*
X08194Y14641D03*
Y14696D03*
X0803Y15D03*
Y15055D03*
X08561Y14697D03*
Y14642D03*
X08103Y14641D03*
Y14696D03*
X08286D03*
Y14641D03*
X08011Y14697D03*
Y14642D03*
X08469Y14036D03*
Y13981D03*
X0792Y14035D03*
Y1398D03*
X08377Y14037D03*
Y13982D03*
X08194Y14036D03*
Y13981D03*
X0803Y14395D03*
Y1434D03*
X08561Y13982D03*
Y14037D03*
X08103Y14036D03*
Y13981D03*
X08286D03*
Y14036D03*
X08011Y13982D03*
Y14037D03*
X08561Y13322D03*
Y13377D03*
X08103Y13321D03*
Y13376D03*
X08286Y13321D03*
Y13376D03*
X08377Y13377D03*
Y13322D03*
X08469Y13321D03*
Y13376D03*
X08011Y13377D03*
Y13322D03*
X0792Y13375D03*
Y1332D03*
X0803Y13735D03*
Y1368D03*
X08194Y13321D03*
Y13376D03*
X07729Y15301D03*
Y15356D03*
X0718Y153D03*
Y15355D03*
X07637Y15302D03*
Y15357D03*
X07454Y15301D03*
Y15356D03*
X0729Y1566D03*
Y15715D03*
X07821Y15302D03*
Y15357D03*
X07363Y15301D03*
Y15356D03*
X07546D03*
Y15301D03*
X07271Y15357D03*
Y15302D03*
X07729Y14641D03*
Y14696D03*
X0718Y1464D03*
Y14695D03*
X07637Y14642D03*
Y14697D03*
X07454Y14641D03*
Y14696D03*
X0729Y15D03*
Y15055D03*
X07821Y14697D03*
Y14642D03*
X07363Y14641D03*
Y14696D03*
X07546D03*
Y14641D03*
X07271Y14697D03*
Y14642D03*
X07729Y14036D03*
Y13981D03*
X0718Y14035D03*
Y1398D03*
X07637Y14037D03*
Y13982D03*
X07454Y14036D03*
Y13981D03*
X0729Y14395D03*
Y1434D03*
X07821Y13982D03*
Y14037D03*
X07363Y14036D03*
Y13981D03*
X07546D03*
Y14036D03*
X07271Y13982D03*
Y14037D03*
X07821Y13322D03*
Y13377D03*
X07363Y13321D03*
Y13376D03*
X07546Y13321D03*
Y13376D03*
X07637Y13377D03*
Y13322D03*
X07729Y13321D03*
Y13376D03*
X07271Y13377D03*
Y13322D03*
X0718Y13375D03*
Y1332D03*
X0729Y13735D03*
Y1368D03*
X07454Y13321D03*
Y13376D03*
X06989Y15356D03*
Y15301D03*
X0644Y15355D03*
Y153D03*
X06897Y15357D03*
Y15302D03*
X06714Y15356D03*
Y15301D03*
X0655Y15715D03*
Y1566D03*
X07081Y15302D03*
Y15357D03*
X06623Y15356D03*
Y15301D03*
X06806D03*
Y15356D03*
X06531Y15302D03*
Y15357D03*
X06989Y14641D03*
Y14696D03*
X0644Y1464D03*
Y14695D03*
X06897Y14642D03*
Y14697D03*
X06714Y14641D03*
Y14696D03*
X0655Y15D03*
Y15055D03*
X07081Y14697D03*
Y14642D03*
X06623Y14641D03*
Y14696D03*
X06806D03*
Y14641D03*
X06531Y14697D03*
Y14642D03*
X06989Y14036D03*
Y13981D03*
X0644Y14035D03*
Y1398D03*
X06897Y14037D03*
Y13982D03*
X06714Y14036D03*
Y13981D03*
X0655Y14395D03*
Y1434D03*
X07081Y13982D03*
Y14037D03*
X06623Y14036D03*
Y13981D03*
X06806D03*
Y14036D03*
X06531Y13982D03*
Y14037D03*
X07081Y13322D03*
Y13377D03*
X06623Y13321D03*
Y13376D03*
X06806Y13321D03*
Y13376D03*
X06897Y13377D03*
Y13322D03*
X06989Y13321D03*
Y13376D03*
X06531Y13377D03*
Y13322D03*
X0644Y13375D03*
Y1332D03*
X0655Y13735D03*
Y1368D03*
X06714Y13321D03*
Y13376D03*
G54D11*
X08924Y15805D03*
X09034D03*
X08679Y1556D03*
X08769D03*
X0877Y1545D03*
X0868D03*
X08924Y15145D03*
X09034D03*
X08679Y149D03*
X08769D03*
X0877Y1479D03*
X0868D03*
X09034Y14485D03*
X08924D03*
X08769Y1424D03*
X08679D03*
X0868Y1413D03*
X0877D03*
X0868Y1347D03*
X0877D03*
X08769Y1358D03*
X08679D03*
X09034Y13825D03*
X08924D03*
X08184Y15805D03*
X08294D03*
X07939Y1556D03*
X08029D03*
X0803Y1545D03*
X0794D03*
X08184Y15145D03*
X08294D03*
X07939Y149D03*
X08029D03*
X0803Y1479D03*
X0794D03*
X08294Y14485D03*
X08184D03*
X08029Y1424D03*
X07939D03*
X0794Y1413D03*
X0803D03*
X0794Y1347D03*
X0803D03*
X08029Y1358D03*
X07939D03*
X08294Y13825D03*
X08184D03*
X07554Y15805D03*
X07444D03*
X07199Y1556D03*
X07289D03*
X0729Y1545D03*
X072D03*
X07444Y15145D03*
X07554D03*
X07199Y149D03*
X07289D03*
X0729Y1479D03*
X072D03*
X07554Y14485D03*
X07444D03*
X07289Y1424D03*
X07199D03*
X072Y1413D03*
X0729D03*
X072Y1347D03*
X0729D03*
X07289Y1358D03*
X07199D03*
X07444Y13825D03*
X07554D03*
X06814Y15805D03*
X06704D03*
X06549Y1556D03*
X06459D03*
X0646Y1545D03*
X0655D03*
X06704Y15145D03*
X06814D03*
X06459Y149D03*
X06549D03*
X0655Y1479D03*
X0646D03*
X06814Y14485D03*
X06704D03*
X06549Y1424D03*
X06459D03*
X0646Y1413D03*
X0655D03*
X0646Y1347D03*
X0655D03*
X06549Y1358D03*
X06459D03*
X06814Y13825D03*
X06704D03*
G54D12*
X09082Y1558D03*
X08877D03*
Y1563D03*
Y1543D03*
Y1573D03*
Y1548D03*
X09082Y1568D03*
X08877D03*
X09082Y1563D03*
Y1573D03*
X08877Y1553D03*
X09082Y1543D03*
Y1548D03*
Y1553D03*
Y1492D03*
X08877D03*
Y1497D03*
Y1477D03*
Y1507D03*
Y1482D03*
X09082Y1502D03*
X08877D03*
X09082Y1497D03*
Y1507D03*
X08877Y1487D03*
X09082Y1477D03*
Y1482D03*
Y1487D03*
Y1421D03*
Y1416D03*
Y1411D03*
X08877Y1421D03*
X09082Y1441D03*
Y1431D03*
X08877Y1436D03*
X09082D03*
X08877Y1416D03*
Y1441D03*
Y1411D03*
Y1431D03*
Y1426D03*
X09082D03*
X08877Y1345D03*
Y135D03*
Y1355D03*
Y136D03*
Y1365D03*
Y137D03*
Y1375D03*
X09082Y1345D03*
Y135D03*
Y1355D03*
Y136D03*
Y1365D03*
Y137D03*
Y1375D03*
X08342Y1558D03*
X08137D03*
Y1563D03*
Y1543D03*
Y1573D03*
Y1548D03*
X08342Y1568D03*
X08137D03*
X08342Y1563D03*
Y1573D03*
X08137Y1553D03*
X08342D03*
Y1548D03*
Y1543D03*
Y1492D03*
X08137D03*
Y1497D03*
Y1477D03*
Y1507D03*
Y1482D03*
X08342Y1502D03*
X08137D03*
X08342Y1497D03*
Y1507D03*
X08137Y1487D03*
X08342D03*
Y1482D03*
Y1477D03*
Y1411D03*
Y1416D03*
Y1421D03*
X08137D03*
X08342Y1441D03*
Y1431D03*
X08137Y1436D03*
X08342D03*
X08137Y1416D03*
Y1441D03*
Y1411D03*
Y1431D03*
Y1426D03*
X08342D03*
X08137Y1345D03*
Y135D03*
Y1355D03*
Y136D03*
Y1365D03*
Y137D03*
Y1375D03*
X08342Y1345D03*
Y135D03*
Y1355D03*
Y136D03*
Y1365D03*
Y137D03*
Y1375D03*
X07602Y1553D03*
Y1548D03*
Y1543D03*
X07397Y1553D03*
X07602Y1573D03*
Y1563D03*
X07397Y1568D03*
X07602D03*
X07397Y1548D03*
Y1573D03*
Y1543D03*
Y1563D03*
Y1558D03*
X07602D03*
Y1492D03*
X07397D03*
Y1497D03*
Y1477D03*
Y1507D03*
Y1482D03*
X07602Y1502D03*
X07397D03*
X07602Y1497D03*
Y1507D03*
X07397Y1487D03*
X07602Y1477D03*
Y1482D03*
Y1487D03*
Y1421D03*
Y1416D03*
Y1411D03*
X07397Y1421D03*
X07602Y1441D03*
Y1431D03*
X07397Y1436D03*
X07602D03*
X07397Y1416D03*
Y1441D03*
Y1411D03*
Y1431D03*
Y1426D03*
X07602D03*
X07397Y1345D03*
Y135D03*
Y1355D03*
Y136D03*
Y1365D03*
Y137D03*
Y1375D03*
X07602Y1345D03*
Y135D03*
Y1355D03*
Y136D03*
Y1365D03*
Y137D03*
Y1375D03*
X06862Y1543D03*
Y1548D03*
Y1553D03*
X06657D03*
X06862Y1573D03*
Y1563D03*
X06657Y1568D03*
X06862D03*
X06657Y1548D03*
Y1573D03*
Y1543D03*
Y1563D03*
Y1558D03*
X06862D03*
Y1492D03*
X06657D03*
Y1497D03*
Y1477D03*
Y1507D03*
Y1482D03*
X06862Y1502D03*
X06657D03*
X06862Y1497D03*
Y1507D03*
X06657Y1487D03*
X06862D03*
Y1482D03*
Y1477D03*
Y1411D03*
Y1416D03*
Y1421D03*
X06657D03*
X06862Y1441D03*
Y1431D03*
X06657Y1436D03*
X06862D03*
X06657Y1416D03*
Y1441D03*
Y1411D03*
Y1431D03*
Y1426D03*
X06862D03*
X06657Y1345D03*
Y135D03*
Y1355D03*
Y136D03*
Y1365D03*
Y137D03*
Y1375D03*
X06862Y1345D03*
Y135D03*
Y1355D03*
Y136D03*
Y1365D03*
Y137D03*
Y1375D03*
G54D13*
X0867Y1567D03*
Y1578D03*
X0918Y15459D03*
Y15549D03*
X0867Y1501D03*
Y1512D03*
X0918Y14799D03*
Y14889D03*
X0867Y1446D03*
Y1435D03*
X0918Y14229D03*
Y14139D03*
Y13569D03*
Y13479D03*
X0867Y1369D03*
Y138D03*
X0793Y1567D03*
Y1578D03*
X0844Y15459D03*
Y15549D03*
X0793Y1501D03*
Y1512D03*
X0844Y14799D03*
Y14889D03*
X0793Y1446D03*
Y1435D03*
X0844Y14229D03*
Y14139D03*
Y13569D03*
Y13479D03*
X0793Y1369D03*
Y138D03*
X0719Y1578D03*
Y1567D03*
X077Y15549D03*
Y15459D03*
X0719Y1501D03*
Y1512D03*
X077Y14799D03*
Y14889D03*
X0719Y1446D03*
Y1435D03*
X077Y14229D03*
Y14139D03*
Y13569D03*
Y13479D03*
X0719Y1369D03*
Y138D03*
X0645Y1578D03*
Y1567D03*
X0696Y15549D03*
Y15459D03*
X0645Y1501D03*
Y1512D03*
X0696Y14799D03*
Y14889D03*
X0645Y1446D03*
Y1435D03*
X0696Y14229D03*
Y14139D03*
Y13569D03*
Y13479D03*
X0645Y1369D03*
Y138D03*
G54D14*
X09285Y15595D03*
Y1546D03*
Y14935D03*
Y148D03*
Y1414D03*
Y14275D03*
Y13615D03*
Y1348D03*
X08545Y15595D03*
Y1546D03*
Y14935D03*
Y148D03*
Y1414D03*
Y14275D03*
Y13615D03*
Y1348D03*
X07805Y15595D03*
Y1546D03*
Y14935D03*
Y148D03*
Y1414D03*
Y14275D03*
Y13615D03*
Y1348D03*
X07065Y1546D03*
Y15595D03*
Y14935D03*
Y148D03*
Y1414D03*
Y14275D03*
Y13615D03*
Y1348D03*
G54D15*
X09203Y1577D03*
X09296Y15732D03*
Y15807D03*
X09203Y1511D03*
X09296Y15072D03*
Y15147D03*
Y14487D03*
Y14412D03*
X09203Y1445D03*
Y1379D03*
X09296Y13752D03*
Y13827D03*
X08463Y1577D03*
X08556Y15732D03*
Y15807D03*
X08463Y1511D03*
X08556Y15072D03*
Y15147D03*
Y14487D03*
Y14412D03*
X08463Y1445D03*
Y1379D03*
X08556Y13752D03*
Y13827D03*
X07723Y1577D03*
X07816Y15732D03*
Y15807D03*
X07723Y1511D03*
X07816Y15072D03*
Y15147D03*
Y14487D03*
Y14412D03*
X07723Y1445D03*
Y1379D03*
X07816Y13752D03*
Y13827D03*
X07076Y15807D03*
Y15732D03*
X06983Y1577D03*
Y1511D03*
X07076Y15072D03*
Y15147D03*
Y14487D03*
Y14412D03*
X06983Y1445D03*
X07076Y13827D03*
Y13752D03*
X06983Y1379D03*
G54D16*
X06379Y15569D02*
X06395Y15585D01*
X06374Y15589D02*
X06385Y156D01*
X06362Y15687D02*
X06375Y157D01*
X06395Y15585D02*
Y1582D01*
X0633Y15775D02*
X06345D01*
X063Y1571D02*
X06302Y15707D01*
X0629Y15678D02*
X063Y15668D01*
X0628Y15668D02*
X063Y15648D01*
X0627Y15658D02*
X063Y15628D01*
X0626Y1565D02*
X063Y15609D01*
X0627Y15658D02*
Y15755D01*
X063Y1571D02*
Y15745D01*
X0633Y15775*
X0629Y15748D02*
X06308Y15766D01*
X0628Y15668D02*
Y1575D01*
X06362Y15412D02*
X0637Y15405D01*
X0632Y15365D02*
X06333Y15378D01*
X0632Y15355D02*
Y15365D01*
X06379Y1553D02*
X06395Y15515D01*
X06374Y1551D02*
X06385Y155D01*
X06395Y1537D02*
Y15515D01*
X06385Y1539D02*
Y155D01*
X06365Y1537D02*
X06385Y1539D01*
X0637Y15386D02*
Y15405D01*
X0635Y1536D02*
X06357Y15367D01*
Y15373D02*
X0637Y15386D01*
X06357Y15367D02*
Y15373D01*
X06365Y15355D02*
X0638Y1534D01*
X06385*
X06395Y1533*
X06365Y15355D02*
Y1537D01*
X0638Y15295D02*
X06395Y1531D01*
Y1533*
X0632Y15355D02*
X06355Y1532D01*
X06285Y15425D02*
X06292Y15432D01*
X0627Y1548D02*
X06278Y15471D01*
X06308Y15766D02*
Y15847D01*
X06375Y157D02*
Y1578D01*
X0628Y1575D02*
X063Y1577D01*
Y1584*
X0627Y15755D02*
X0628Y15765D01*
X0629Y1585D02*
X063Y1584D01*
X0626Y1585D02*
X0629D01*
Y15865D02*
X06308Y15847D01*
X0629Y15678D02*
Y15748D01*
X0636Y15795D02*
X06375Y1578D01*
X06355Y15805D02*
X06365D01*
X06385Y15785*
Y156D02*
Y15785D01*
X0626Y1581D02*
X06265Y15815D01*
X0626Y1565D02*
Y1581D01*
X06379Y14909D02*
X06395Y14925D01*
X06374Y14929D02*
X06385Y1494D01*
X06362Y15027D02*
X06375Y1504D01*
X06395Y14925D02*
Y1516D01*
X06375Y1504D02*
Y1512D01*
X06362Y14752D02*
X0637Y14745D01*
X0632Y14705D02*
X06333Y14718D01*
X0632Y14695D02*
Y14705D01*
X06379Y1487D02*
X06395Y14855D01*
X06374Y1485D02*
X06385Y1484D01*
X06395Y1471D02*
Y14855D01*
X06385Y1473D02*
Y1484D01*
X06365Y1471D02*
X06385Y1473D01*
X0637Y14726D02*
Y14745D01*
X0635Y147D02*
X06357Y14707D01*
Y14713D02*
X0637Y14726D01*
X06357Y14707D02*
Y14713D01*
X06365Y14695D02*
X0638Y1468D01*
X06385*
X06395Y1467*
X06365Y14695D02*
Y1471D01*
X0638Y14635D02*
X06395Y1465D01*
Y1467*
X0632Y14695D02*
X06355Y1466D01*
X06285Y14765D02*
X06292Y14772D01*
X0627Y1482D02*
X06278Y14811D01*
X0633Y15115D02*
X06345D01*
X06308Y15106D02*
Y15187D01*
X063Y1511D02*
Y1518D01*
X0629Y1519D02*
X063Y1518D01*
X0626Y1519D02*
X0629D01*
Y15205D02*
X06308Y15187D01*
X0636Y15135D02*
X06375Y1512D01*
X06355Y15145D02*
X06365D01*
X063Y1505D02*
X06302Y15047D01*
X0629Y15018D02*
X063Y15008D01*
X0628Y15008D02*
X063Y14988D01*
X0627Y14998D02*
X063Y14968D01*
X0626Y1499D02*
X063Y14949D01*
X0627Y14998D02*
Y15095D01*
X063Y1505D02*
Y15085D01*
X0629Y15088D02*
X06308Y15106D01*
X0628Y15008D02*
Y1509D01*
X063Y1511*
X0627Y15095D02*
X0628Y15105D01*
X0629Y15018D02*
Y15088D01*
X063Y15085D02*
X0633Y15115D01*
X06379Y14249D02*
X06395Y14265D01*
X06374Y14269D02*
X06385Y1428D01*
X06362Y14367D02*
X06375Y1438D01*
X06395Y14265D02*
Y145D01*
X06375Y1438D02*
Y1446D01*
X06362Y14092D02*
X0637Y14085D01*
X0632Y14045D02*
X06333Y14058D01*
X0632Y14035D02*
Y14045D01*
X06379Y1421D02*
X06395Y14195D01*
X06374Y1419D02*
X06385Y1418D01*
X06395Y1405D02*
Y14195D01*
X06385Y1407D02*
Y1418D01*
X06365Y1405D02*
X06385Y1407D01*
X0637Y14066D02*
Y14085D01*
X0635Y1404D02*
X06357Y14047D01*
Y14053D02*
X0637Y14066D01*
X06357Y14047D02*
Y14053D01*
X06365Y14035D02*
X0638Y1402D01*
X06385*
X06395Y1401*
X06365Y14035D02*
Y1405D01*
X0638Y13975D02*
X06395Y1399D01*
Y1401*
X0632Y14035D02*
X06355Y14D01*
X06285Y14105D02*
X06292Y14112D01*
X0627Y1416D02*
X06278Y14151D01*
X0633Y14455D02*
X06345D01*
X06308Y14446D02*
Y14527D01*
X063Y1445D02*
Y1452D01*
X0629Y1453D02*
X063Y1452D01*
X0626Y1453D02*
X0629D01*
Y14545D02*
X06308Y14527D01*
X0636Y14475D02*
X06375Y1446D01*
X06355Y14485D02*
X06365D01*
X063Y1439D02*
X06302Y14387D01*
X0629Y14358D02*
X063Y14348D01*
X0628Y14348D02*
X063Y14328D01*
X0627Y14338D02*
X063Y14308D01*
X0626Y1433D02*
X063Y14289D01*
X0627Y14338D02*
Y14435D01*
X063Y1439D02*
Y14425D01*
X0629Y14428D02*
X06308Y14446D01*
X0628Y14348D02*
Y1443D01*
X063Y1445*
X0627Y14435D02*
X0628Y14445D01*
X0629Y14358D02*
Y14428D01*
X063Y14425D02*
X0633Y14455D01*
X06379Y13589D02*
X06395Y13605D01*
X06374Y13609D02*
X06385Y1362D01*
X06362Y13707D02*
X06375Y1372D01*
X06395Y13605D02*
Y1384D01*
X06375Y1372D02*
Y138D01*
X06362Y13432D02*
X0637Y13425D01*
X0632Y13385D02*
X06333Y13398D01*
X0632Y13375D02*
Y13385D01*
X06379Y1355D02*
X06395Y13535D01*
X06374Y1353D02*
X06385Y1352D01*
X06395Y1339D02*
Y13535D01*
X06385Y1341D02*
Y1352D01*
X06365Y1339D02*
X06385Y1341D01*
X0637Y13406D02*
Y13425D01*
X0635Y1338D02*
X06357Y13387D01*
Y13393D02*
X0637Y13406D01*
X06357Y13387D02*
Y13393D01*
X06365Y13375D02*
X0638Y1336D01*
X06385*
X06395Y1335*
X06365Y13375D02*
Y1339D01*
X0638Y13315D02*
X06395Y1333D01*
Y1335*
X0632Y13375D02*
X06355Y1334D01*
X06285Y13445D02*
X06292Y13452D01*
X0627Y135D02*
X06278Y13491D01*
X0633Y13795D02*
X06345D01*
X06308Y13786D02*
Y13867D01*
X063Y1379D02*
Y1386D01*
X0629Y1387D02*
X063Y1386D01*
X0626Y1387D02*
X0629D01*
Y13885D02*
X06308Y13867D01*
X0636Y13815D02*
X06375Y138D01*
X06355Y13825D02*
X06365D01*
X063Y1373D02*
X06302Y13727D01*
X0629Y13698D02*
X063Y13688D01*
X0628Y13688D02*
X063Y13668D01*
X0627Y13678D02*
X063Y13648D01*
X0626Y1367D02*
X063Y13629D01*
X0627Y13678D02*
Y13775D01*
X063Y1373D02*
Y13765D01*
X0629Y13768D02*
X06308Y13786D01*
X0628Y13688D02*
Y1377D01*
X063Y1379*
X0627Y13775D02*
X0628Y13785D01*
X0629Y13698D02*
Y13768D01*
X063Y13765D02*
X0633Y13795D01*
X0634Y1338D02*
X0635D01*
X06333Y13432D02*
X06362D01*
X0628Y1343D02*
X06282Y13432D01*
X06285Y1343D02*
Y13445D01*
X06292Y13452D02*
X06333D01*
X06271Y13471D02*
X06333D01*
X0627Y135D02*
Y1353D01*
X06278Y13491D02*
X06333D01*
X06291Y13511D02*
X06333D01*
X0632Y13315D02*
X0638D01*
X06333Y1353D02*
X06374D01*
X06333Y1355D02*
X06379D01*
X06385Y1338D02*
X06395Y1339D01*
X06355Y14D02*
X0637D01*
X06333Y14058D02*
Y14072D01*
X0634Y1404D02*
X0635D01*
X06333Y14092D02*
X06362D01*
X0628Y1409D02*
X06282Y14092D01*
X06285Y1409D02*
Y14105D01*
X06292Y14112D02*
X06333D01*
X06271Y14131D02*
X06333D01*
X0627Y1416D02*
Y1419D01*
X06278Y14151D02*
X06333D01*
X06291Y14171D02*
X06333D01*
X0632Y13975D02*
X0638D01*
X06333Y1419D02*
X06374D01*
X06333Y1421D02*
X06379D01*
X06385Y1404D02*
X06395Y1405D01*
X06355Y1466D02*
X0637D01*
X06333Y14718D02*
Y14732D01*
X0634Y147D02*
X0635D01*
X06333Y14752D02*
X06362D01*
X0628Y1475D02*
X06282Y14752D01*
X06285Y1475D02*
Y14765D01*
X06292Y14772D02*
X06333D01*
X06271Y14791D02*
X06333D01*
X0627Y1482D02*
Y1485D01*
X06278Y14811D02*
X06333D01*
X06291Y14831D02*
X06333D01*
X0632Y14635D02*
X0638D01*
X06333Y1485D02*
X06374D01*
X06333Y1487D02*
X06379D01*
X06385Y147D02*
X06395Y1471D01*
X06355Y1532D02*
X0637D01*
X06333Y15378D02*
Y15392D01*
X0634Y1536D02*
X0635D01*
X06333Y15412D02*
X06362D01*
X0628Y1541D02*
X06282Y15412D01*
X06285Y1541D02*
Y15425D01*
X06292Y15432D02*
X06333D01*
X06271Y15451D02*
X06333D01*
X0627Y1548D02*
Y1551D01*
X06278Y15471D02*
X06333D01*
X06291Y15491D02*
X06333D01*
X0632Y15295D02*
X0638D01*
X06333Y1551D02*
X06374D01*
X06333Y1553D02*
X06379D01*
X06385Y1536D02*
X06395Y1537D01*
X06333Y13589D02*
X06379D01*
X06385Y13845D02*
X06395Y1384D01*
X06333Y14249D02*
X06379D01*
X06385Y14505D02*
X06395Y145D01*
X06333Y14909D02*
X06379D01*
X06385Y15165D02*
X06395Y1516D01*
X06333Y15569D02*
X06379D01*
X06385Y15825D02*
X06395Y1582D01*
X06333Y13609D02*
X06374D01*
X06365Y13825D02*
X06385Y13805D01*
Y1362D02*
Y13805D01*
Y1382*
X06345Y13835D02*
X06355Y13825D01*
X06333Y14269D02*
X06374D01*
X06345Y14495D02*
X06355Y14485D01*
X06365D02*
X06385Y14465D01*
Y1428D02*
Y14465D01*
Y1448*
X06333Y14929D02*
X06374D01*
X06365Y15145D02*
X06385Y15125D01*
Y1494D02*
Y15125D01*
Y1514*
X06345Y15155D02*
X06355Y15145D01*
X06333Y15589D02*
X06374D01*
X06345Y15815D02*
X06355Y15805D01*
X0626Y1383D02*
X06265Y13835D01*
X0626Y1367D02*
Y1383D01*
Y1384*
X063Y13629D02*
X06333D01*
X06265Y13835D02*
X0628D01*
X0626Y1449D02*
X06265Y14495D01*
X0626Y1433D02*
Y1449D01*
Y145*
X063Y14289D02*
X06333D01*
X06265Y14495D02*
X0628D01*
X0626Y1515D02*
X06265Y15155D01*
X0626Y1499D02*
Y1515D01*
Y1516*
X063Y14949D02*
X06333D01*
X06265Y15155D02*
X0628D01*
X063Y15609D02*
X06333D01*
X06265Y15815D02*
X0628D01*
Y13785D02*
Y13805D01*
X063Y13648D02*
X06333D01*
X0628Y14445D02*
Y14465D01*
X063Y14308D02*
X06333D01*
X0628Y15105D02*
Y15125D01*
X063Y14968D02*
X06333D01*
X0628Y15765D02*
Y15785D01*
X063Y15628D02*
X06333D01*
X063Y13668D02*
X06333D01*
X06255Y13875D02*
X0626Y1387D01*
X063Y14328D02*
X06333D01*
X06255Y14535D02*
X0626Y1453D01*
X063Y14988D02*
X06333D01*
X06255Y15195D02*
X0626Y1519D01*
X063Y15648D02*
X06333D01*
X06255Y15855D02*
X0626Y1585D01*
X063Y13688D02*
X06333D01*
X0629Y13885D02*
Y1391D01*
X063Y14348D02*
X06333D01*
X0629Y14545D02*
Y1457D01*
X063Y15008D02*
X06333D01*
X0629Y15205D02*
Y1523D01*
X063Y15668D02*
X06333D01*
X0629Y15865D02*
Y1589D01*
X06333Y13707D02*
X06362D01*
X06325Y13815D02*
X0636D01*
X06333Y14367D02*
X06362D01*
X06325Y14475D02*
X0636D01*
X06333Y15027D02*
X06362D01*
X06325Y15135D02*
X0636D01*
X06333Y15687D02*
X06362D01*
X06325Y15795D02*
X0636D01*
X06302Y13727D02*
X06333D01*
X06345Y13795D02*
X0635Y138D01*
X06302Y14387D02*
X06333D01*
X06345Y14455D02*
X0635Y1446D01*
X06302Y15047D02*
X06333D01*
X06345Y15115D02*
X0635Y1512D01*
X06302Y15707D02*
X06333D01*
X06345Y15775D02*
X0635Y1578D01*
X0692D02*
Y1582D01*
Y1512D02*
Y1516D01*
Y1446D02*
Y145D01*
Y138D02*
Y1384D01*
X0766Y1578D02*
Y1582D01*
Y1512D02*
Y1516D01*
Y1446D02*
Y145D01*
Y138D02*
Y1384D01*
X084Y1578D02*
Y1582D01*
Y1512D02*
Y1516D01*
Y1446D02*
Y145D01*
Y138D02*
Y1384D01*
X0914Y1578D02*
Y1582D01*
Y1512D02*
Y1516D01*
Y1446D02*
Y145D01*
Y138D02*
Y1384D01*
X09285Y15595D02*
Y1563D01*
X09256Y15659D02*
X09285Y1563D01*
X0903Y15659D02*
X09256D01*
X08824Y15647D02*
X09018D01*
X0903Y15659*
X08843Y15356D02*
Y15385D01*
Y15356D02*
X08843D01*
X08815Y15413D02*
X08843Y15385D01*
X08815Y15413D02*
Y15638D01*
X08824Y15647*
X08998Y15302D02*
X09014D01*
X08849Y1528D02*
X08976D01*
X08998Y15302*
X0897Y1533D02*
X08998Y15302D01*
X0894Y1541D02*
Y1547D01*
X0892Y1533D02*
X0897D01*
X0893Y1548D02*
X0894Y1547D01*
X08843Y15286D02*
X08849Y1528D01*
X08843Y15286D02*
Y15301D01*
X08843D02*
X08843D01*
X0891Y1534D02*
X0892Y1533D01*
X0891Y1534D02*
Y1538D01*
X0894Y1541*
X08877Y1548D02*
X0893D01*
X09301Y15302D02*
X09323D01*
X09337Y15316*
Y15823*
X09075Y1528D02*
X09279D01*
X09301Y15302*
X0917Y1541D02*
X0918Y1542D01*
X0932Y1584D02*
X09337Y15823D01*
X0918Y1542D02*
Y15459D01*
X0904Y1584D02*
X0932D01*
X0913Y1541D02*
X0917D01*
X09065Y1529D02*
X09075Y1528D01*
X09065Y15345D02*
X0913Y1541D01*
X09065Y1529D02*
Y15345D01*
X09034Y15834D02*
X0904Y1584D01*
X09034Y15805D02*
Y15834D01*
X09301Y1541D02*
X09319Y15428D01*
Y15622*
X09203Y15737D02*
X09319Y15622D01*
X09301Y15353D02*
Y15357D01*
Y1541*
X09203Y15737D02*
Y1577D01*
X09005Y1571D02*
X0903D01*
X0905Y1573*
X08775Y1571D02*
X09005D01*
Y15745*
X08995Y1576D02*
X09005Y15745D01*
X0877Y15715D02*
X08775Y1571D01*
X08807Y15421D02*
Y1566D01*
X09005D02*
X09025Y1568D01*
X0872Y1541D02*
X08796D01*
X08807Y15421*
X09025Y1568D02*
X09082D01*
X08807Y1566D02*
X09005D01*
X0877D02*
X08807D01*
X08715Y1541D02*
X0872D01*
Y15555*
X0866Y15355D02*
X08715Y1541D01*
Y1556D02*
X0872Y15555D01*
X08679Y1556D02*
X08715D01*
X0898Y15357D02*
X09026D01*
X0898Y15356D02*
Y15357D01*
X08934Y15356D02*
X0898D01*
X08906Y1533D02*
X08934Y15301D01*
X0889Y1533D02*
X08906D01*
X0887D02*
X08889D01*
Y15399D02*
Y1543D01*
X0887Y1538D02*
X08889Y15399D01*
X08779Y1533D02*
X0887D01*
Y1538*
X08751Y15302D02*
X08779Y1533D01*
X08877Y1553D02*
X0894D01*
X0905Y1573D02*
X09082D01*
X0915Y1546D02*
X0918D01*
X0914Y1547D02*
X0915Y1546D01*
X0914Y1547D02*
Y1563D01*
X09082D02*
X0914D01*
X0882Y1568D02*
X08877D01*
X08877Y15681D02*
X08877D01*
X0881Y1569D02*
X0882Y1568D01*
X088Y1582D02*
X0882D01*
X0879Y1578D02*
X0882D01*
X0874Y1569D02*
X0881D01*
X0879Y1583D02*
X088Y1582D01*
X0874Y1573D02*
X0879Y1578D01*
X0868Y1583D02*
X0879D01*
X0875Y1558D02*
Y156D01*
X0874Y1561D02*
X0875Y156D01*
X0874Y1561D02*
Y1569D01*
Y1573*
X0867Y1578D02*
Y1582D01*
X0868Y1583*
X08877Y1573D02*
Y15805D01*
X08924*
X08855D02*
X08877D01*
X0879Y158D02*
X0885D01*
X08855Y15805*
X0877Y1545D02*
Y15484D01*
X08731Y15524D02*
X0877Y15484D01*
X08731Y15524D02*
Y15602D01*
X0872Y15613D02*
X08731Y15602D01*
X0872Y15613D02*
Y1567D01*
Y1567D02*
Y1573D01*
X0867Y1567D02*
X08719D01*
X0872Y1573D02*
X0879Y158D01*
X08877Y1543D02*
X08889D01*
X08833D02*
X08877D01*
X08828Y1563D02*
X08877D01*
X08823Y1544D02*
X08833Y1543D01*
X08823Y15625D02*
X08828Y1563D01*
X08823Y1544D02*
Y15625D01*
X0894Y15585D02*
Y156D01*
X08935Y1558D02*
X0894Y15585D01*
X08877Y1558D02*
X08935D01*
X0902Y1556D02*
Y15575D01*
X09025Y1558D02*
X09082D01*
X0902Y15575D02*
X09025Y1558D01*
X0919Y154D02*
X09225D01*
X09285Y1546*
X0917Y1538D02*
X0919Y154D01*
X0917Y15355D02*
Y1538D01*
X091Y15302D02*
X09117D01*
X09098Y153D02*
X091Y15302D01*
X09085Y153D02*
X09098D01*
X08636Y15324D02*
X0866Y153D01*
X08636Y1545D02*
X0868D01*
X08636Y15324D02*
Y1545D01*
X08636Y15768*
X0864Y1578D02*
X0867D01*
X08636Y15768D02*
Y15776D01*
X0864Y1578*
X09318Y15329D02*
X09328Y15339D01*
X09218Y15329D02*
X09318D01*
X09328Y15339D02*
Y15753D01*
X09296Y15784D02*
X09328Y15753D01*
X09209Y15301D02*
Y1532D01*
X09296Y15784D02*
Y15807D01*
X09209Y1532D02*
X09218Y15329D01*
X09295Y15732D02*
X09296D01*
X09203Y1577D02*
X09203D01*
X09209Y15301D02*
X09209D01*
X08769Y1556D02*
Y1556D01*
X0875Y1558D02*
X08769Y1556D01*
X0926Y1551D02*
X0928D01*
X0922Y15549D02*
X0926Y1551D01*
X0918Y15549D02*
X0922D01*
X09034Y158D02*
Y15805D01*
X09026Y15356D02*
Y15357D01*
X08713D02*
X08751D01*
X09285Y14935D02*
Y1497D01*
X09256Y14999D02*
X09285Y1497D01*
X0903Y14999D02*
X09256D01*
X08824Y14987D02*
X09018D01*
X0903Y14999*
X08843Y14696D02*
Y14725D01*
Y14696D02*
X08843D01*
X08815Y14753D02*
X08843Y14725D01*
X08815Y14753D02*
Y14978D01*
X08824Y14987*
X08998Y14642D02*
X09014D01*
X08849Y1462D02*
X08976D01*
X08998Y14642*
X0897Y1467D02*
X08998Y14642D01*
X0894Y1475D02*
Y1481D01*
X0892Y1467D02*
X0897D01*
X0893Y1482D02*
X0894Y1481D01*
X08843Y14626D02*
X08849Y1462D01*
X08843Y14626D02*
Y14641D01*
X08843D02*
X08843D01*
X0891Y1468D02*
X0892Y1467D01*
X0891Y1468D02*
Y1472D01*
X0894Y1475*
X08877Y1482D02*
X0893D01*
X09301Y14642D02*
X09323D01*
X09337Y14656*
Y15163*
X09075Y1462D02*
X09279D01*
X09301Y14642*
X0917Y1475D02*
X0918Y1476D01*
X0932Y1518D02*
X09337Y15163D01*
X0918Y1476D02*
Y14799D01*
X0904Y1518D02*
X0932D01*
X0913Y1475D02*
X0917D01*
X09065Y1463D02*
X09075Y1462D01*
X09065Y14685D02*
X0913Y1475D01*
X09065Y1463D02*
Y14685D01*
X09034Y15174D02*
X0904Y1518D01*
X09034Y15145D02*
Y15174D01*
X09301Y1475D02*
X09319Y14768D01*
Y14962*
X09203Y15077D02*
X09319Y14962D01*
X09301Y14693D02*
Y14697D01*
Y1475*
X09203Y15077D02*
Y1511D01*
X09005Y1505D02*
X0903D01*
X0905Y1507*
X08775Y1505D02*
X09005D01*
Y15085*
X08995Y151D02*
X09005Y15085D01*
X0877Y15055D02*
X08775Y1505D01*
X08807Y14761D02*
Y15D01*
X09005D02*
X09025Y1502D01*
X0872Y1475D02*
X08796D01*
X08807Y14761*
X09025Y1502D02*
X09082D01*
X08807Y15D02*
X09005D01*
X0877D02*
X08807D01*
X08715Y1475D02*
X0872D01*
Y14895*
X0866Y14695D02*
X08715Y1475D01*
Y149D02*
X0872Y14895D01*
X08679Y149D02*
X08715D01*
X0898Y14697D02*
X09026D01*
X0898Y14696D02*
Y14697D01*
X08934Y14696D02*
X0898D01*
X08906Y1467D02*
X08934Y14641D01*
X0889Y1467D02*
X08906D01*
X0887D02*
X08889D01*
Y14739D02*
Y1477D01*
X0887Y1472D02*
X08889Y14739D01*
X08779Y1467D02*
X0887D01*
Y1472*
X08751Y14642D02*
X08779Y1467D01*
X08877Y1487D02*
X0894D01*
X0905Y1507D02*
X09082D01*
X0915Y148D02*
X0918D01*
X0914Y1481D02*
X0915Y148D01*
X0914Y1481D02*
Y1497D01*
X09082D02*
X0914D01*
X0882Y1502D02*
X08877D01*
X08877Y15021D02*
X08877D01*
X0881Y1503D02*
X0882Y1502D01*
X088Y1516D02*
X0882D01*
X0879Y1512D02*
X0882D01*
X0874Y1503D02*
X0881D01*
X0879Y1517D02*
X088Y1516D01*
X0874Y1507D02*
X0879Y1512D01*
X0868Y1517D02*
X0879D01*
X0875Y1492D02*
Y1494D01*
X0874Y1495D02*
X0875Y1494D01*
X0874Y1495D02*
Y1503D01*
Y1507*
X0867Y1512D02*
Y1516D01*
X0868Y1517*
X08877Y1507D02*
Y15145D01*
X08924*
X08855D02*
X08877D01*
X0879Y1514D02*
X0885D01*
X08855Y15145*
X0877Y1479D02*
Y14824D01*
X08731Y14864D02*
X0877Y14824D01*
X08731Y14864D02*
Y14942D01*
X0872Y14953D02*
X08731Y14942D01*
X0872Y14953D02*
Y1501D01*
Y1501D02*
Y1507D01*
X0867Y1501D02*
X08719D01*
X0872Y1507D02*
X0879Y1514D01*
X08877Y1477D02*
X08889D01*
X08833D02*
X08877D01*
X08828Y1497D02*
X08877D01*
X08823Y1478D02*
X08833Y1477D01*
X08823Y14965D02*
X08828Y1497D01*
X08823Y1478D02*
Y14965D01*
X0894Y14925D02*
Y1494D01*
X08935Y1492D02*
X0894Y14925D01*
X08877Y1492D02*
X08935D01*
X0902Y149D02*
Y14915D01*
X09025Y1492D02*
X09082D01*
X0902Y14915D02*
X09025Y1492D01*
X0919Y1474D02*
X09225D01*
X09285Y148*
X0917Y1472D02*
X0919Y1474D01*
X0917Y14695D02*
Y1472D01*
X091Y14642D02*
X09117D01*
X09098Y1464D02*
X091Y14642D01*
X09085Y1464D02*
X09098D01*
X08636Y14664D02*
X0866Y1464D01*
X08636Y1479D02*
X0868D01*
X08636Y14664D02*
Y1479D01*
X08636Y15108*
X0864Y1512D02*
X0867D01*
X08636Y15108D02*
Y15116D01*
X0864Y1512*
X09318Y14669D02*
X09328Y14679D01*
X09218Y14669D02*
X09318D01*
X09328Y14679D02*
Y15093D01*
X09296Y15124D02*
X09328Y15093D01*
X09209Y14641D02*
Y1466D01*
X09296Y15124D02*
Y15147D01*
X09209Y1466D02*
X09218Y14669D01*
X09295Y15072D02*
X09296D01*
X09203Y1511D02*
X09203D01*
X09209Y14641D02*
X09209D01*
X08769Y149D02*
Y149D01*
X0875Y1492D02*
X08769Y149D01*
X0926Y1485D02*
X0928D01*
X0922Y14889D02*
X0926Y1485D01*
X0918Y14889D02*
X0922D01*
X09034Y1514D02*
Y15145D01*
X09026Y14696D02*
Y14697D01*
X08713D02*
X08751D01*
X09285Y14275D02*
Y1431D01*
X09256Y14339D02*
X09285Y1431D01*
X0903Y14339D02*
X09256D01*
X08824Y14327D02*
X09018D01*
X0903Y14339*
X08843Y14036D02*
Y14065D01*
Y14036D02*
X08843D01*
X08815Y14093D02*
X08843Y14065D01*
X08815Y14093D02*
Y14318D01*
X08824Y14327*
X08998Y13982D02*
X09014D01*
X08849Y1396D02*
X08976D01*
X08998Y13982*
X0897Y1401D02*
X08998Y13982D01*
X0894Y1409D02*
Y1415D01*
X0892Y1401D02*
X0897D01*
X0893Y1416D02*
X0894Y1415D01*
X08843Y13966D02*
X08849Y1396D01*
X08843Y13966D02*
Y13981D01*
X08843D02*
X08843D01*
X0891Y1402D02*
X0892Y1401D01*
X0891Y1402D02*
Y1406D01*
X0894Y1409*
X08877Y1416D02*
X0893D01*
X09301Y13982D02*
X09323D01*
X09337Y13996*
Y14503*
X09075Y1396D02*
X09279D01*
X09301Y13982*
X0917Y1409D02*
X0918Y141D01*
X0932Y1452D02*
X09337Y14503D01*
X0918Y141D02*
Y14139D01*
X0904Y1452D02*
X0932D01*
X0913Y1409D02*
X0917D01*
X09065Y1397D02*
X09075Y1396D01*
X09065Y14025D02*
X0913Y1409D01*
X09065Y1397D02*
Y14025D01*
X09034Y14514D02*
X0904Y1452D01*
X09034Y14485D02*
Y14514D01*
X09301Y1409D02*
X09319Y14108D01*
Y14302*
X09203Y14417D02*
X09319Y14302D01*
X09301Y14033D02*
Y14037D01*
Y1409*
X09203Y14417D02*
Y1445D01*
X09005Y1439D02*
X0903D01*
X0905Y1441*
X08775Y1439D02*
X09005D01*
Y14425*
X08995Y1444D02*
X09005Y14425D01*
X0877Y14395D02*
X08775Y1439D01*
X08807Y14101D02*
Y1434D01*
X09005D02*
X09025Y1436D01*
X0872Y1409D02*
X08796D01*
X08807Y14101*
X09025Y1436D02*
X09082D01*
X08807Y1434D02*
X09005D01*
X0877D02*
X08807D01*
X08715Y1409D02*
X0872D01*
Y14235*
X0866Y14035D02*
X08715Y1409D01*
Y1424D02*
X0872Y14235D01*
X08679Y1424D02*
X08715D01*
X0898Y14037D02*
X09026D01*
X0898Y14036D02*
Y14037D01*
X08934Y14036D02*
X0898D01*
X08906Y1401D02*
X08934Y13981D01*
X0889Y1401D02*
X08906D01*
X0887D02*
X08889D01*
Y14079D02*
Y1411D01*
X0887Y1406D02*
X08889Y14079D01*
X08779Y1401D02*
X0887D01*
Y1406*
X08751Y13982D02*
X08779Y1401D01*
X08877Y1421D02*
X0894D01*
X0905Y1441D02*
X09082D01*
X0915Y1414D02*
X0918D01*
X0914Y1415D02*
X0915Y1414D01*
X0914Y1415D02*
Y1431D01*
X09082D02*
X0914D01*
X0882Y1436D02*
X08877D01*
X08877Y14361D02*
X08877D01*
X0881Y1437D02*
X0882Y1436D01*
X088Y145D02*
X0882D01*
X0879Y1446D02*
X0882D01*
X0874Y1437D02*
X0881D01*
X0879Y1451D02*
X088Y145D01*
X0874Y1441D02*
X0879Y1446D01*
X0868Y1451D02*
X0879D01*
X0875Y1426D02*
Y1428D01*
X0874Y1429D02*
X0875Y1428D01*
X0874Y1429D02*
Y1437D01*
Y1441*
X0867Y1446D02*
Y145D01*
X0868Y1451*
X08877Y1441D02*
Y14485D01*
X08924*
X08855D02*
X08877D01*
X0879Y1448D02*
X0885D01*
X08855Y14485*
X0877Y1413D02*
Y14164D01*
X08731Y14204D02*
X0877Y14164D01*
X08731Y14204D02*
Y14282D01*
X0872Y14293D02*
X08731Y14282D01*
X0872Y14293D02*
Y1435D01*
Y1435D02*
Y1441D01*
X0867Y1435D02*
X08719D01*
X0872Y1441D02*
X0879Y1448D01*
X08877Y1411D02*
X08889D01*
X08833D02*
X08877D01*
X08828Y1431D02*
X08877D01*
X08823Y1412D02*
X08833Y1411D01*
X08823Y14305D02*
X08828Y1431D01*
X08823Y1412D02*
Y14305D01*
X0894Y14265D02*
Y1428D01*
X08935Y1426D02*
X0894Y14265D01*
X08877Y1426D02*
X08935D01*
X0902Y1424D02*
Y14255D01*
X09025Y1426D02*
X09082D01*
X0902Y14255D02*
X09025Y1426D01*
X0919Y1408D02*
X09225D01*
X09285Y1414*
X0917Y1406D02*
X0919Y1408D01*
X0917Y14035D02*
Y1406D01*
X091Y13982D02*
X09117D01*
X09098Y1398D02*
X091Y13982D01*
X09085Y1398D02*
X09098D01*
X08636Y14004D02*
X0866Y1398D01*
X08636Y1413D02*
X0868D01*
X08636Y14004D02*
Y1413D01*
X08636Y14448*
X0864Y1446D02*
X0867D01*
X08636Y14448D02*
Y14456D01*
X0864Y1446*
X09318Y14009D02*
X09328Y14019D01*
X09218Y14009D02*
X09318D01*
X09328Y14019D02*
Y14433D01*
X09296Y14464D02*
X09328Y14433D01*
X09209Y13981D02*
Y14D01*
X09296Y14464D02*
Y14487D01*
X09209Y14D02*
X09218Y14009D01*
X09295Y14412D02*
X09296D01*
X09203Y1445D02*
X09203D01*
X09209Y13981D02*
X09209D01*
X08769Y1424D02*
Y1424D01*
X0875Y1426D02*
X08769Y1424D01*
X0926Y1419D02*
X0928D01*
X0922Y14229D02*
X0926Y1419D01*
X0918Y14229D02*
X0922D01*
X09034Y1448D02*
Y14485D01*
X09026Y14036D02*
Y14037D01*
X08713D02*
X08751D01*
X09285Y13615D02*
Y1365D01*
X09256Y13679D02*
X09285Y1365D01*
X0903Y13679D02*
X09256D01*
X08824Y13667D02*
X09018D01*
X0903Y13679*
X08843Y13376D02*
Y13405D01*
Y13376D02*
X08843D01*
X08815Y13433D02*
X08843Y13405D01*
X08815Y13433D02*
Y13658D01*
X08824Y13667*
X08998Y13322D02*
X09014D01*
X08849Y133D02*
X08976D01*
X08998Y13322*
X0897Y1335D02*
X08998Y13322D01*
X0894Y1343D02*
Y1349D01*
X0892Y1335D02*
X0897D01*
X0893Y135D02*
X0894Y1349D01*
X08843Y13306D02*
X08849Y133D01*
X08843Y13306D02*
Y13321D01*
X08843D02*
X08843D01*
X0891Y1336D02*
X0892Y1335D01*
X0891Y1336D02*
Y134D01*
X0894Y1343*
X08877Y135D02*
X0893D01*
X09301Y13322D02*
X09323D01*
X09337Y13336*
Y13843*
X09075Y133D02*
X09279D01*
X09301Y13322*
X0917Y1343D02*
X0918Y1344D01*
X0932Y1386D02*
X09337Y13843D01*
X0918Y1344D02*
Y13479D01*
X0904Y1386D02*
X0932D01*
X0913Y1343D02*
X0917D01*
X09065Y1331D02*
X09075Y133D01*
X09065Y13365D02*
X0913Y1343D01*
X09065Y1331D02*
Y13365D01*
X09034Y13854D02*
X0904Y1386D01*
X09034Y13825D02*
Y13854D01*
X09301Y1343D02*
X09319Y13448D01*
Y13642*
X09203Y13757D02*
X09319Y13642D01*
X09301Y13373D02*
Y13377D01*
Y1343*
X09203Y13757D02*
Y1379D01*
X09005Y1373D02*
X0903D01*
X0905Y1375*
X08775Y1373D02*
X09005D01*
Y13765*
X08995Y1378D02*
X09005Y13765D01*
X0877Y13735D02*
X08775Y1373D01*
X08807Y13441D02*
Y1368D01*
X09005D02*
X09025Y137D01*
X0872Y1343D02*
X08796D01*
X08807Y13441*
X09025Y137D02*
X09082D01*
X08807Y1368D02*
X09005D01*
X0877D02*
X08807D01*
X08715Y1343D02*
X0872D01*
Y13575*
X0866Y13375D02*
X08715Y1343D01*
Y1358D02*
X0872Y13575D01*
X08679Y1358D02*
X08715D01*
X0898Y13377D02*
X09026D01*
X0898Y13376D02*
Y13377D01*
X08934Y13376D02*
X0898D01*
X08906Y1335D02*
X08934Y13321D01*
X0889Y1335D02*
X08906D01*
X0887D02*
X08889D01*
Y13419D02*
Y1345D01*
X0887Y134D02*
X08889Y13419D01*
X08779Y1335D02*
X0887D01*
Y134*
X08751Y13322D02*
X08779Y1335D01*
X08877Y1355D02*
X0894D01*
X0905Y1375D02*
X09082D01*
X0915Y1348D02*
X0918D01*
X0914Y1349D02*
X0915Y1348D01*
X0914Y1349D02*
Y1365D01*
X09082D02*
X0914D01*
X0882Y137D02*
X08877D01*
X08877Y13701D02*
X08877D01*
X0881Y1371D02*
X0882Y137D01*
X088Y1384D02*
X0882D01*
X0879Y138D02*
X0882D01*
X0874Y1371D02*
X0881D01*
X0879Y1385D02*
X088Y1384D01*
X0874Y1375D02*
X0879Y138D01*
X0868Y1385D02*
X0879D01*
X0875Y136D02*
Y1362D01*
X0874Y1363D02*
X0875Y1362D01*
X0874Y1363D02*
Y1371D01*
Y1375*
X0867Y138D02*
Y1384D01*
X0868Y1385*
X08877Y1375D02*
Y13825D01*
X08924*
X08855D02*
X08877D01*
X0879Y1382D02*
X0885D01*
X08855Y13825*
X0877Y1347D02*
Y13504D01*
X08731Y13544D02*
X0877Y13504D01*
X08731Y13544D02*
Y13622D01*
X0872Y13633D02*
X08731Y13622D01*
X0872Y13633D02*
Y1369D01*
Y1369D02*
Y1375D01*
X0867Y1369D02*
X08719D01*
X0872Y1375D02*
X0879Y1382D01*
X08877Y1345D02*
X08889D01*
X08833D02*
X08877D01*
X08828Y1365D02*
X08877D01*
X08823Y1346D02*
X08833Y1345D01*
X08823Y13645D02*
X08828Y1365D01*
X08823Y1346D02*
Y13645D01*
X0894Y13605D02*
Y1362D01*
X08935Y136D02*
X0894Y13605D01*
X08877Y136D02*
X08935D01*
X0902Y1358D02*
Y13595D01*
X09025Y136D02*
X09082D01*
X0902Y13595D02*
X09025Y136D01*
X0919Y1342D02*
X09225D01*
X09285Y1348*
X0917Y134D02*
X0919Y1342D01*
X0917Y13375D02*
Y134D01*
X091Y13322D02*
X09117D01*
X09098Y1332D02*
X091Y13322D01*
X09085Y1332D02*
X09098D01*
X08636Y13344D02*
X0866Y1332D01*
X08636Y1347D02*
X0868D01*
X08636Y13344D02*
Y1347D01*
X08636Y13788*
X0864Y138D02*
X0867D01*
X08636Y13788D02*
Y13796D01*
X0864Y138*
X09318Y13349D02*
X09328Y13359D01*
X09218Y13349D02*
X09318D01*
X09328Y13359D02*
Y13773D01*
X09296Y13804D02*
X09328Y13773D01*
X09209Y13321D02*
Y1334D01*
X09296Y13804D02*
Y13827D01*
X09209Y1334D02*
X09218Y13349D01*
X09295Y13752D02*
X09296D01*
X09203Y1379D02*
X09203D01*
X09209Y13321D02*
X09209D01*
X08769Y1358D02*
Y1358D01*
X0875Y136D02*
X08769Y1358D01*
X0926Y1353D02*
X0928D01*
X0922Y13569D02*
X0926Y1353D01*
X0918Y13569D02*
X0922D01*
X09034Y1382D02*
Y13825D01*
X09026Y13376D02*
Y13377D01*
X08713D02*
X08751D01*
X08545Y15595D02*
Y1563D01*
X08516Y15659D02*
X08545Y1563D01*
X0829Y15659D02*
X08516D01*
X08084Y15647D02*
X08278D01*
X0829Y15659*
X08103Y15356D02*
Y15385D01*
Y15356D02*
X08103D01*
X08075Y15413D02*
X08103Y15385D01*
X08075Y15413D02*
Y15638D01*
X08084Y15647*
X08258Y15302D02*
X08274D01*
X08109Y1528D02*
X08236D01*
X08258Y15302*
X0823Y1533D02*
X08258Y15302D01*
X082Y1541D02*
Y1547D01*
X0818Y1533D02*
X0823D01*
X0819Y1548D02*
X082Y1547D01*
X08103Y15286D02*
X08109Y1528D01*
X08103Y15286D02*
Y15301D01*
X08103D02*
X08103D01*
X0817Y1534D02*
X0818Y1533D01*
X0817Y1534D02*
Y1538D01*
X082Y1541*
X08137Y1548D02*
X0819D01*
X08561Y15302D02*
X08583D01*
X08597Y15316*
Y15823*
X08335Y1528D02*
X08539D01*
X08561Y15302*
X0843Y1541D02*
X0844Y1542D01*
X0858Y1584D02*
X08597Y15823D01*
X0844Y1542D02*
Y15459D01*
X083Y1584D02*
X0858D01*
X0839Y1541D02*
X0843D01*
X08325Y1529D02*
X08335Y1528D01*
X08325Y15345D02*
X0839Y1541D01*
X08325Y1529D02*
Y15345D01*
X08294Y15834D02*
X083Y1584D01*
X08294Y15805D02*
Y15834D01*
X08561Y1541D02*
X08579Y15428D01*
Y15622*
X08463Y15737D02*
X08579Y15622D01*
X08561Y15353D02*
Y15357D01*
Y1541*
X08463Y15737D02*
Y1577D01*
X08265Y1571D02*
X0829D01*
X0831Y1573*
X08035Y1571D02*
X08265D01*
Y15745*
X08255Y1576D02*
X08265Y15745D01*
X0803Y15715D02*
X08035Y1571D01*
X08067Y15421D02*
Y1566D01*
X08265D02*
X08285Y1568D01*
X0798Y1541D02*
X08056D01*
X08067Y15421*
X08285Y1568D02*
X08342D01*
X08067Y1566D02*
X08265D01*
X0803D02*
X08067D01*
X07975Y1541D02*
X0798D01*
Y15555*
X0792Y15355D02*
X07975Y1541D01*
Y1556D02*
X0798Y15555D01*
X07939Y1556D02*
X07975D01*
X0824Y15357D02*
X08286D01*
X0824Y15356D02*
Y15357D01*
X08194Y15356D02*
X0824D01*
X08166Y1533D02*
X08194Y15301D01*
X0815Y1533D02*
X08166D01*
X0813D02*
X08149D01*
Y15399D02*
Y1543D01*
X0813Y1538D02*
X08149Y15399D01*
X08039Y1533D02*
X0813D01*
Y1538*
X08011Y15302D02*
X08039Y1533D01*
X08137Y1553D02*
X082D01*
X0831Y1573D02*
X08342D01*
X0841Y1546D02*
X0844D01*
X084Y1547D02*
X0841Y1546D01*
X084Y1547D02*
Y1563D01*
X08342D02*
X084D01*
X0808Y1568D02*
X08137D01*
X08137Y15681D02*
X08137D01*
X0807Y1569D02*
X0808Y1568D01*
X0806Y1582D02*
X0808D01*
X0805Y1578D02*
X0808D01*
X08Y1569D02*
X0807D01*
X0805Y1583D02*
X0806Y1582D01*
X08Y1573D02*
X0805Y1578D01*
X0794Y1583D02*
X0805D01*
X0801Y1558D02*
Y156D01*
X08Y1561D02*
X0801Y156D01*
X08Y1561D02*
Y1569D01*
Y1573*
X0793Y1578D02*
Y1582D01*
X0794Y1583*
X08137Y1573D02*
Y15805D01*
X08184*
X08115D02*
X08137D01*
X0805Y158D02*
X0811D01*
X08115Y15805*
X0803Y1545D02*
Y15484D01*
X07991Y15524D02*
X0803Y15484D01*
X07991Y15524D02*
Y15602D01*
X0798Y15613D02*
X07991Y15602D01*
X0798Y15613D02*
Y1567D01*
Y1567D02*
Y1573D01*
X0793Y1567D02*
X07979D01*
X0798Y1573D02*
X0805Y158D01*
X08137Y1543D02*
X08149D01*
X08093D02*
X08137D01*
X08088Y1563D02*
X08137D01*
X08083Y1544D02*
X08093Y1543D01*
X08083Y15625D02*
X08088Y1563D01*
X08083Y1544D02*
Y15625D01*
X082Y15585D02*
Y156D01*
X08195Y1558D02*
X082Y15585D01*
X08137Y1558D02*
X08195D01*
X0828Y1556D02*
Y15575D01*
X08285Y1558D02*
X08342D01*
X0828Y15575D02*
X08285Y1558D01*
X0845Y154D02*
X08485D01*
X08545Y1546*
X0843Y1538D02*
X0845Y154D01*
X0843Y15355D02*
Y1538D01*
X0836Y15302D02*
X08377D01*
X08358Y153D02*
X0836Y15302D01*
X08345Y153D02*
X08358D01*
X07896Y15324D02*
X0792Y153D01*
X07896Y1545D02*
X0794D01*
X07896Y15324D02*
Y1545D01*
X07896Y15768*
X079Y1578D02*
X0793D01*
X07896Y15768D02*
Y15776D01*
X079Y1578*
X08578Y15329D02*
X08588Y15339D01*
X08478Y15329D02*
X08578D01*
X08588Y15339D02*
Y15753D01*
X08556Y15784D02*
X08588Y15753D01*
X08469Y15301D02*
Y1532D01*
X08556Y15784D02*
Y15807D01*
X08469Y1532D02*
X08478Y15329D01*
X08555Y15732D02*
X08556D01*
X08463Y1577D02*
X08463D01*
X08469Y15301D02*
X08469D01*
X08029Y1556D02*
Y1556D01*
X0801Y1558D02*
X08029Y1556D01*
X0852Y1551D02*
X0854D01*
X0848Y15549D02*
X0852Y1551D01*
X0844Y15549D02*
X0848D01*
X08294Y158D02*
Y15805D01*
X08286Y15356D02*
Y15357D01*
X07973D02*
X08011D01*
X08545Y14935D02*
Y1497D01*
X08516Y14999D02*
X08545Y1497D01*
X0829Y14999D02*
X08516D01*
X08084Y14987D02*
X08278D01*
X0829Y14999*
X08103Y14696D02*
Y14725D01*
Y14696D02*
X08103D01*
X08075Y14753D02*
X08103Y14725D01*
X08075Y14753D02*
Y14978D01*
X08084Y14987*
X08258Y14642D02*
X08274D01*
X08109Y1462D02*
X08236D01*
X08258Y14642*
X0823Y1467D02*
X08258Y14642D01*
X082Y1475D02*
Y1481D01*
X0818Y1467D02*
X0823D01*
X0819Y1482D02*
X082Y1481D01*
X08103Y14626D02*
X08109Y1462D01*
X08103Y14626D02*
Y14641D01*
X08103D02*
X08103D01*
X0817Y1468D02*
X0818Y1467D01*
X0817Y1468D02*
Y1472D01*
X082Y1475*
X08137Y1482D02*
X0819D01*
X08561Y14642D02*
X08583D01*
X08597Y14656*
Y15163*
X08335Y1462D02*
X08539D01*
X08561Y14642*
X0843Y1475D02*
X0844Y1476D01*
X0858Y1518D02*
X08597Y15163D01*
X0844Y1476D02*
Y14799D01*
X083Y1518D02*
X0858D01*
X0839Y1475D02*
X0843D01*
X08325Y1463D02*
X08335Y1462D01*
X08325Y14685D02*
X0839Y1475D01*
X08325Y1463D02*
Y14685D01*
X08294Y15174D02*
X083Y1518D01*
X08294Y15145D02*
Y15174D01*
X08561Y1475D02*
X08579Y14768D01*
Y14962*
X08463Y15077D02*
X08579Y14962D01*
X08561Y14693D02*
Y14697D01*
Y1475*
X08463Y15077D02*
Y1511D01*
X08265Y1505D02*
X0829D01*
X0831Y1507*
X08035Y1505D02*
X08265D01*
Y15085*
X08255Y151D02*
X08265Y15085D01*
X0803Y15055D02*
X08035Y1505D01*
X08067Y14761D02*
Y15D01*
X08265D02*
X08285Y1502D01*
X0798Y1475D02*
X08056D01*
X08067Y14761*
X08285Y1502D02*
X08342D01*
X08067Y15D02*
X08265D01*
X0803D02*
X08067D01*
X07975Y1475D02*
X0798D01*
Y14895*
X0792Y14695D02*
X07975Y1475D01*
Y149D02*
X0798Y14895D01*
X07939Y149D02*
X07975D01*
X0824Y14697D02*
X08286D01*
X0824Y14696D02*
Y14697D01*
X08194Y14696D02*
X0824D01*
X08166Y1467D02*
X08194Y14641D01*
X0815Y1467D02*
X08166D01*
X0813D02*
X08149D01*
Y14739D02*
Y1477D01*
X0813Y1472D02*
X08149Y14739D01*
X08039Y1467D02*
X0813D01*
Y1472*
X08011Y14642D02*
X08039Y1467D01*
X08137Y1487D02*
X082D01*
X0831Y1507D02*
X08342D01*
X0841Y148D02*
X0844D01*
X084Y1481D02*
X0841Y148D01*
X084Y1481D02*
Y1497D01*
X08342D02*
X084D01*
X0808Y1502D02*
X08137D01*
X08137Y15021D02*
X08137D01*
X0807Y1503D02*
X0808Y1502D01*
X0806Y1516D02*
X0808D01*
X0805Y1512D02*
X0808D01*
X08Y1503D02*
X0807D01*
X0805Y1517D02*
X0806Y1516D01*
X08Y1507D02*
X0805Y1512D01*
X0794Y1517D02*
X0805D01*
X0801Y1492D02*
Y1494D01*
X08Y1495D02*
X0801Y1494D01*
X08Y1495D02*
Y1503D01*
Y1507*
X0793Y1512D02*
Y1516D01*
X0794Y1517*
X08137Y1507D02*
Y15145D01*
X08184*
X08115D02*
X08137D01*
X0805Y1514D02*
X0811D01*
X08115Y15145*
X0803Y1479D02*
Y14824D01*
X07991Y14864D02*
X0803Y14824D01*
X07991Y14864D02*
Y14942D01*
X0798Y14953D02*
X07991Y14942D01*
X0798Y14953D02*
Y1501D01*
Y1501D02*
Y1507D01*
X0793Y1501D02*
X07979D01*
X0798Y1507D02*
X0805Y1514D01*
X08137Y1477D02*
X08149D01*
X08093D02*
X08137D01*
X08088Y1497D02*
X08137D01*
X08083Y1478D02*
X08093Y1477D01*
X08083Y14965D02*
X08088Y1497D01*
X08083Y1478D02*
Y14965D01*
X082Y14925D02*
Y1494D01*
X08195Y1492D02*
X082Y14925D01*
X08137Y1492D02*
X08195D01*
X0828Y149D02*
Y14915D01*
X08285Y1492D02*
X08342D01*
X0828Y14915D02*
X08285Y1492D01*
X0845Y1474D02*
X08485D01*
X08545Y148*
X0843Y1472D02*
X0845Y1474D01*
X0843Y14695D02*
Y1472D01*
X0836Y14642D02*
X08377D01*
X08358Y1464D02*
X0836Y14642D01*
X08345Y1464D02*
X08358D01*
X07896Y14664D02*
X0792Y1464D01*
X07896Y1479D02*
X0794D01*
X07896Y14664D02*
Y1479D01*
X07896Y15108*
X079Y1512D02*
X0793D01*
X07896Y15108D02*
Y15116D01*
X079Y1512*
X08578Y14669D02*
X08588Y14679D01*
X08478Y14669D02*
X08578D01*
X08588Y14679D02*
Y15093D01*
X08556Y15124D02*
X08588Y15093D01*
X08469Y14641D02*
Y1466D01*
X08556Y15124D02*
Y15147D01*
X08469Y1466D02*
X08478Y14669D01*
X08555Y15072D02*
X08556D01*
X08463Y1511D02*
X08463D01*
X08469Y14641D02*
X08469D01*
X08029Y149D02*
Y149D01*
X0801Y1492D02*
X08029Y149D01*
X0852Y1485D02*
X0854D01*
X0848Y14889D02*
X0852Y1485D01*
X0844Y14889D02*
X0848D01*
X08294Y1514D02*
Y15145D01*
X08286Y14696D02*
Y14697D01*
X07973D02*
X08011D01*
X08545Y14275D02*
Y1431D01*
X08516Y14339D02*
X08545Y1431D01*
X0829Y14339D02*
X08516D01*
X08084Y14327D02*
X08278D01*
X0829Y14339*
X08103Y14036D02*
Y14065D01*
Y14036D02*
X08103D01*
X08075Y14093D02*
X08103Y14065D01*
X08075Y14093D02*
Y14318D01*
X08084Y14327*
X08258Y13982D02*
X08274D01*
X08109Y1396D02*
X08236D01*
X08258Y13982*
X0823Y1401D02*
X08258Y13982D01*
X082Y1409D02*
Y1415D01*
X0818Y1401D02*
X0823D01*
X0819Y1416D02*
X082Y1415D01*
X08103Y13966D02*
X08109Y1396D01*
X08103Y13966D02*
Y13981D01*
X08103D02*
X08103D01*
X0817Y1402D02*
X0818Y1401D01*
X0817Y1402D02*
Y1406D01*
X082Y1409*
X08137Y1416D02*
X0819D01*
X08561Y13982D02*
X08583D01*
X08597Y13996*
Y14503*
X08335Y1396D02*
X08539D01*
X08561Y13982*
X0843Y1409D02*
X0844Y141D01*
X0858Y1452D02*
X08597Y14503D01*
X0844Y141D02*
Y14139D01*
X083Y1452D02*
X0858D01*
X0839Y1409D02*
X0843D01*
X08325Y1397D02*
X08335Y1396D01*
X08325Y14025D02*
X0839Y1409D01*
X08325Y1397D02*
Y14025D01*
X08294Y14514D02*
X083Y1452D01*
X08294Y14485D02*
Y14514D01*
X08561Y1409D02*
X08579Y14108D01*
Y14302*
X08463Y14417D02*
X08579Y14302D01*
X08561Y14033D02*
Y14037D01*
Y1409*
X08463Y14417D02*
Y1445D01*
X08265Y1439D02*
X0829D01*
X0831Y1441*
X08035Y1439D02*
X08265D01*
Y14425*
X08255Y1444D02*
X08265Y14425D01*
X0803Y14395D02*
X08035Y1439D01*
X08067Y14101D02*
Y1434D01*
X08265D02*
X08285Y1436D01*
X0798Y1409D02*
X08056D01*
X08067Y14101*
X08285Y1436D02*
X08342D01*
X08067Y1434D02*
X08265D01*
X0803D02*
X08067D01*
X07975Y1409D02*
X0798D01*
Y14235*
X0792Y14035D02*
X07975Y1409D01*
Y1424D02*
X0798Y14235D01*
X07939Y1424D02*
X07975D01*
X0824Y14037D02*
X08286D01*
X0824Y14036D02*
Y14037D01*
X08194Y14036D02*
X0824D01*
X08166Y1401D02*
X08194Y13981D01*
X0815Y1401D02*
X08166D01*
X0813D02*
X08149D01*
Y14079D02*
Y1411D01*
X0813Y1406D02*
X08149Y14079D01*
X08039Y1401D02*
X0813D01*
Y1406*
X08011Y13982D02*
X08039Y1401D01*
X08137Y1421D02*
X082D01*
X0831Y1441D02*
X08342D01*
X0841Y1414D02*
X0844D01*
X084Y1415D02*
X0841Y1414D01*
X084Y1415D02*
Y1431D01*
X08342D02*
X084D01*
X0808Y1436D02*
X08137D01*
X08137Y14361D02*
X08137D01*
X0807Y1437D02*
X0808Y1436D01*
X0806Y145D02*
X0808D01*
X0805Y1446D02*
X0808D01*
X08Y1437D02*
X0807D01*
X0805Y1451D02*
X0806Y145D01*
X08Y1441D02*
X0805Y1446D01*
X0794Y1451D02*
X0805D01*
X0801Y1426D02*
Y1428D01*
X08Y1429D02*
X0801Y1428D01*
X08Y1429D02*
Y1437D01*
Y1441*
X0793Y1446D02*
Y145D01*
X0794Y1451*
X08137Y1441D02*
Y14485D01*
X08184*
X08115D02*
X08137D01*
X0805Y1448D02*
X0811D01*
X08115Y14485*
X0803Y1413D02*
Y14164D01*
X07991Y14204D02*
X0803Y14164D01*
X07991Y14204D02*
Y14282D01*
X0798Y14293D02*
X07991Y14282D01*
X0798Y14293D02*
Y1435D01*
Y1435D02*
Y1441D01*
X0793Y1435D02*
X07979D01*
X0798Y1441D02*
X0805Y1448D01*
X08137Y1411D02*
X08149D01*
X08093D02*
X08137D01*
X08088Y1431D02*
X08137D01*
X08083Y1412D02*
X08093Y1411D01*
X08083Y14305D02*
X08088Y1431D01*
X08083Y1412D02*
Y14305D01*
X082Y14265D02*
Y1428D01*
X08195Y1426D02*
X082Y14265D01*
X08137Y1426D02*
X08195D01*
X0828Y1424D02*
Y14255D01*
X08285Y1426D02*
X08342D01*
X0828Y14255D02*
X08285Y1426D01*
X0845Y1408D02*
X08485D01*
X08545Y1414*
X0843Y1406D02*
X0845Y1408D01*
X0843Y14035D02*
Y1406D01*
X0836Y13982D02*
X08377D01*
X08358Y1398D02*
X0836Y13982D01*
X08345Y1398D02*
X08358D01*
X07896Y14004D02*
X0792Y1398D01*
X07896Y1413D02*
X0794D01*
X07896Y14004D02*
Y1413D01*
X07896Y14448*
X079Y1446D02*
X0793D01*
X07896Y14448D02*
Y14456D01*
X079Y1446*
X08578Y14009D02*
X08588Y14019D01*
X08478Y14009D02*
X08578D01*
X08588Y14019D02*
Y14433D01*
X08556Y14464D02*
X08588Y14433D01*
X08469Y13981D02*
Y14D01*
X08556Y14464D02*
Y14487D01*
X08469Y14D02*
X08478Y14009D01*
X08555Y14412D02*
X08556D01*
X08463Y1445D02*
X08463D01*
X08469Y13981D02*
X08469D01*
X08029Y1424D02*
Y1424D01*
X0801Y1426D02*
X08029Y1424D01*
X0852Y1419D02*
X0854D01*
X0848Y14229D02*
X0852Y1419D01*
X0844Y14229D02*
X0848D01*
X08294Y1448D02*
Y14485D01*
X08286Y14036D02*
Y14037D01*
X07973D02*
X08011D01*
X08545Y13615D02*
Y1365D01*
X08516Y13679D02*
X08545Y1365D01*
X0829Y13679D02*
X08516D01*
X08084Y13667D02*
X08278D01*
X0829Y13679*
X08103Y13376D02*
Y13405D01*
Y13376D02*
X08103D01*
X08075Y13433D02*
X08103Y13405D01*
X08075Y13433D02*
Y13658D01*
X08084Y13667*
X08258Y13322D02*
X08274D01*
X08109Y133D02*
X08236D01*
X08258Y13322*
X0823Y1335D02*
X08258Y13322D01*
X082Y1343D02*
Y1349D01*
X0818Y1335D02*
X0823D01*
X0819Y135D02*
X082Y1349D01*
X08103Y13306D02*
X08109Y133D01*
X08103Y13306D02*
Y13321D01*
X08103D02*
X08103D01*
X0817Y1336D02*
X0818Y1335D01*
X0817Y1336D02*
Y134D01*
X082Y1343*
X08137Y135D02*
X0819D01*
X08561Y13322D02*
X08583D01*
X08597Y13336*
Y13843*
X08335Y133D02*
X08539D01*
X08561Y13322*
X0843Y1343D02*
X0844Y1344D01*
X0858Y1386D02*
X08597Y13843D01*
X0844Y1344D02*
Y13479D01*
X083Y1386D02*
X0858D01*
X0839Y1343D02*
X0843D01*
X08325Y1331D02*
X08335Y133D01*
X08325Y13365D02*
X0839Y1343D01*
X08325Y1331D02*
Y13365D01*
X08294Y13854D02*
X083Y1386D01*
X08294Y13825D02*
Y13854D01*
X08561Y1343D02*
X08579Y13448D01*
Y13642*
X08463Y13757D02*
X08579Y13642D01*
X08561Y13373D02*
Y13377D01*
Y1343*
X08463Y13757D02*
Y1379D01*
X08265Y1373D02*
X0829D01*
X0831Y1375*
X08035Y1373D02*
X08265D01*
Y13765*
X08255Y1378D02*
X08265Y13765D01*
X0803Y13735D02*
X08035Y1373D01*
X08067Y13441D02*
Y1368D01*
X08265D02*
X08285Y137D01*
X0798Y1343D02*
X08056D01*
X08067Y13441*
X08285Y137D02*
X08342D01*
X08067Y1368D02*
X08265D01*
X0803D02*
X08067D01*
X07975Y1343D02*
X0798D01*
Y13575*
X0792Y13375D02*
X07975Y1343D01*
Y1358D02*
X0798Y13575D01*
X07939Y1358D02*
X07975D01*
X0824Y13377D02*
X08286D01*
X0824Y13376D02*
Y13377D01*
X08194Y13376D02*
X0824D01*
X08166Y1335D02*
X08194Y13321D01*
X0815Y1335D02*
X08166D01*
X0813D02*
X08149D01*
Y13419D02*
Y1345D01*
X0813Y134D02*
X08149Y13419D01*
X08039Y1335D02*
X0813D01*
Y134*
X08011Y13322D02*
X08039Y1335D01*
X08137Y1355D02*
X082D01*
X0831Y1375D02*
X08342D01*
X0841Y1348D02*
X0844D01*
X084Y1349D02*
X0841Y1348D01*
X084Y1349D02*
Y1365D01*
X08342D02*
X084D01*
X0808Y137D02*
X08137D01*
X08137Y13701D02*
X08137D01*
X0807Y1371D02*
X0808Y137D01*
X0806Y1384D02*
X0808D01*
X0805Y138D02*
X0808D01*
X08Y1371D02*
X0807D01*
X0805Y1385D02*
X0806Y1384D01*
X08Y1375D02*
X0805Y138D01*
X0794Y1385D02*
X0805D01*
X0801Y136D02*
Y1362D01*
X08Y1363D02*
X0801Y1362D01*
X08Y1363D02*
Y1371D01*
Y1375*
X0793Y138D02*
Y1384D01*
X0794Y1385*
X08137Y1375D02*
Y13825D01*
X08184*
X08115D02*
X08137D01*
X0805Y1382D02*
X0811D01*
X08115Y13825*
X0803Y1347D02*
Y13504D01*
X07991Y13544D02*
X0803Y13504D01*
X07991Y13544D02*
Y13622D01*
X0798Y13633D02*
X07991Y13622D01*
X0798Y13633D02*
Y1369D01*
Y1369D02*
Y1375D01*
X0793Y1369D02*
X07979D01*
X0798Y1375D02*
X0805Y1382D01*
X08137Y1345D02*
X08149D01*
X08093D02*
X08137D01*
X08088Y1365D02*
X08137D01*
X08083Y1346D02*
X08093Y1345D01*
X08083Y13645D02*
X08088Y1365D01*
X08083Y1346D02*
Y13645D01*
X082Y13605D02*
Y1362D01*
X08195Y136D02*
X082Y13605D01*
X08137Y136D02*
X08195D01*
X0828Y1358D02*
Y13595D01*
X08285Y136D02*
X08342D01*
X0828Y13595D02*
X08285Y136D01*
X0845Y1342D02*
X08485D01*
X08545Y1348*
X0843Y134D02*
X0845Y1342D01*
X0843Y13375D02*
Y134D01*
X0836Y13322D02*
X08377D01*
X08358Y1332D02*
X0836Y13322D01*
X08345Y1332D02*
X08358D01*
X07896Y13344D02*
X0792Y1332D01*
X07896Y1347D02*
X0794D01*
X07896Y13344D02*
Y1347D01*
X07896Y13788*
X079Y138D02*
X0793D01*
X07896Y13788D02*
Y13796D01*
X079Y138*
X08578Y13349D02*
X08588Y13359D01*
X08478Y13349D02*
X08578D01*
X08588Y13359D02*
Y13773D01*
X08556Y13804D02*
X08588Y13773D01*
X08469Y13321D02*
Y1334D01*
X08556Y13804D02*
Y13827D01*
X08469Y1334D02*
X08478Y13349D01*
X08555Y13752D02*
X08556D01*
X08463Y1379D02*
X08463D01*
X08469Y13321D02*
X08469D01*
X08029Y1358D02*
Y1358D01*
X0801Y136D02*
X08029Y1358D01*
X0852Y1353D02*
X0854D01*
X0848Y13569D02*
X0852Y1353D01*
X0844Y13569D02*
X0848D01*
X08294Y1382D02*
Y13825D01*
X08286Y13376D02*
Y13377D01*
X07973D02*
X08011D01*
X07805Y15595D02*
Y1563D01*
X07776Y15659D02*
X07805Y1563D01*
X0755Y15659D02*
X07776D01*
X07344Y15647D02*
X07538D01*
X0755Y15659*
X07363Y15356D02*
Y15385D01*
Y15356D02*
X07363D01*
X07335Y15413D02*
X07363Y15385D01*
X07335Y15413D02*
Y15638D01*
X07344Y15647*
X07518Y15302D02*
X07534D01*
X07369Y1528D02*
X07496D01*
X07518Y15302*
X0749Y1533D02*
X07518Y15302D01*
X0746Y1541D02*
Y1547D01*
X0744Y1533D02*
X0749D01*
X0745Y1548D02*
X0746Y1547D01*
X07363Y15286D02*
X07369Y1528D01*
X07363Y15286D02*
Y15301D01*
X07363D02*
X07363D01*
X0743Y1534D02*
X0744Y1533D01*
X0743Y1534D02*
Y1538D01*
X0746Y1541*
X07397Y1548D02*
X0745D01*
X07821Y15302D02*
X07843D01*
X07857Y15316*
Y15823*
X07595Y1528D02*
X07799D01*
X07821Y15302*
X0769Y1541D02*
X077Y1542D01*
X0784Y1584D02*
X07857Y15823D01*
X077Y1542D02*
Y15459D01*
X0756Y1584D02*
X0784D01*
X0765Y1541D02*
X0769D01*
X07585Y1529D02*
X07595Y1528D01*
X07585Y15345D02*
X0765Y1541D01*
X07585Y1529D02*
Y15345D01*
X07554Y15834D02*
X0756Y1584D01*
X07554Y15805D02*
Y15834D01*
X07821Y1541D02*
X07839Y15428D01*
Y15622*
X07723Y15737D02*
X07839Y15622D01*
X07821Y15353D02*
Y15357D01*
Y1541*
X07723Y15737D02*
Y1577D01*
X07525Y1571D02*
X0755D01*
X0757Y1573*
X07295Y1571D02*
X07525D01*
Y15745*
X07515Y1576D02*
X07525Y15745D01*
X0729Y15715D02*
X07295Y1571D01*
X07327Y15421D02*
Y1566D01*
X07525D02*
X07545Y1568D01*
X0724Y1541D02*
X07316D01*
X07327Y15421*
X07545Y1568D02*
X07602D01*
X07327Y1566D02*
X07525D01*
X0729D02*
X07327D01*
X07235Y1541D02*
X0724D01*
Y15555*
X0718Y15355D02*
X07235Y1541D01*
Y1556D02*
X0724Y15555D01*
X07199Y1556D02*
X07235D01*
X075Y15357D02*
X07546D01*
X075Y15356D02*
Y15357D01*
X07454Y15356D02*
X075D01*
X07426Y1533D02*
X07454Y15301D01*
X0741Y1533D02*
X07426D01*
X0739D02*
X07409D01*
Y15399D02*
Y1543D01*
X0739Y1538D02*
X07409Y15399D01*
X07299Y1533D02*
X0739D01*
Y1538*
X07271Y15302D02*
X07299Y1533D01*
X07397Y1553D02*
X0746D01*
X0757Y1573D02*
X07602D01*
X0767Y1546D02*
X077D01*
X0766Y1547D02*
X0767Y1546D01*
X0766Y1547D02*
Y1563D01*
X07602D02*
X0766D01*
X0734Y1568D02*
X07397D01*
X07397Y15681D02*
X07397D01*
X0733Y1569D02*
X0734Y1568D01*
X0732Y1582D02*
X0734D01*
X0731Y1578D02*
X0734D01*
X0726Y1569D02*
X0733D01*
X0731Y1583D02*
X0732Y1582D01*
X0726Y1573D02*
X0731Y1578D01*
X072Y1583D02*
X0731D01*
X0727Y1558D02*
Y156D01*
X0726Y1561D02*
X0727Y156D01*
X0726Y1561D02*
Y1569D01*
Y1573*
X0719Y1578D02*
Y1582D01*
X072Y1583*
X07397Y1573D02*
Y15805D01*
X07444*
X07375D02*
X07397D01*
X0731Y158D02*
X0737D01*
X07375Y15805*
X0729Y1545D02*
Y15484D01*
X07251Y15524D02*
X0729Y15484D01*
X07251Y15524D02*
Y15602D01*
X0724Y15613D02*
X07251Y15602D01*
X0724Y15613D02*
Y1567D01*
Y1567D02*
Y1573D01*
X0719Y1567D02*
X07239D01*
X0724Y1573D02*
X0731Y158D01*
X07397Y1543D02*
X07409D01*
X07353D02*
X07397D01*
X07348Y1563D02*
X07397D01*
X07343Y1544D02*
X07353Y1543D01*
X07343Y15625D02*
X07348Y1563D01*
X07343Y1544D02*
Y15625D01*
X0746Y15585D02*
Y156D01*
X07455Y1558D02*
X0746Y15585D01*
X07397Y1558D02*
X07455D01*
X0754Y1556D02*
Y15575D01*
X07545Y1558D02*
X07602D01*
X0754Y15575D02*
X07545Y1558D01*
X0771Y154D02*
X07745D01*
X07805Y1546*
X0769Y1538D02*
X0771Y154D01*
X0769Y15355D02*
Y1538D01*
X0762Y15302D02*
X07637D01*
X07618Y153D02*
X0762Y15302D01*
X07605Y153D02*
X07618D01*
X07156Y15324D02*
X0718Y153D01*
X07156Y1545D02*
X072D01*
X07156Y15324D02*
Y1545D01*
X07156Y15768*
X0716Y1578D02*
X0719D01*
X07156Y15768D02*
Y15776D01*
X0716Y1578*
X07838Y15329D02*
X07848Y15339D01*
X07738Y15329D02*
X07838D01*
X07848Y15339D02*
Y15753D01*
X07816Y15784D02*
X07848Y15753D01*
X07729Y15301D02*
Y1532D01*
X07816Y15784D02*
Y15807D01*
X07729Y1532D02*
X07738Y15329D01*
X07815Y15732D02*
X07816D01*
X07723Y1577D02*
X07723D01*
X07729Y15301D02*
X07729D01*
X07289Y1556D02*
Y1556D01*
X0727Y1558D02*
X07289Y1556D01*
X0778Y1551D02*
X078D01*
X0774Y15549D02*
X0778Y1551D01*
X077Y15549D02*
X0774D01*
X07554Y158D02*
Y15805D01*
X07546Y15356D02*
Y15357D01*
X07233D02*
X07271D01*
X07805Y14935D02*
Y1497D01*
X07776Y14999D02*
X07805Y1497D01*
X0755Y14999D02*
X07776D01*
X07344Y14987D02*
X07538D01*
X0755Y14999*
X07363Y14696D02*
Y14725D01*
Y14696D02*
X07363D01*
X07335Y14753D02*
X07363Y14725D01*
X07335Y14753D02*
Y14978D01*
X07344Y14987*
X07518Y14642D02*
X07534D01*
X07369Y1462D02*
X07496D01*
X07518Y14642*
X0749Y1467D02*
X07518Y14642D01*
X0746Y1475D02*
Y1481D01*
X0744Y1467D02*
X0749D01*
X0745Y1482D02*
X0746Y1481D01*
X07363Y14626D02*
X07369Y1462D01*
X07363Y14626D02*
Y14641D01*
X07363D02*
X07363D01*
X0743Y1468D02*
X0744Y1467D01*
X0743Y1468D02*
Y1472D01*
X0746Y1475*
X07397Y1482D02*
X0745D01*
X07821Y14642D02*
X07843D01*
X07857Y14656*
Y15163*
X07595Y1462D02*
X07799D01*
X07821Y14642*
X0769Y1475D02*
X077Y1476D01*
X0784Y1518D02*
X07857Y15163D01*
X077Y1476D02*
Y14799D01*
X0756Y1518D02*
X0784D01*
X0765Y1475D02*
X0769D01*
X07585Y1463D02*
X07595Y1462D01*
X07585Y14685D02*
X0765Y1475D01*
X07585Y1463D02*
Y14685D01*
X07554Y15174D02*
X0756Y1518D01*
X07554Y15145D02*
Y15174D01*
X07821Y1475D02*
X07839Y14768D01*
Y14962*
X07723Y15077D02*
X07839Y14962D01*
X07821Y14693D02*
Y14697D01*
Y1475*
X07723Y15077D02*
Y1511D01*
X07525Y1505D02*
X0755D01*
X0757Y1507*
X07295Y1505D02*
X07525D01*
Y15085*
X07515Y151D02*
X07525Y15085D01*
X0729Y15055D02*
X07295Y1505D01*
X07327Y14761D02*
Y15D01*
X07525D02*
X07545Y1502D01*
X0724Y1475D02*
X07316D01*
X07327Y14761*
X07545Y1502D02*
X07602D01*
X07327Y15D02*
X07525D01*
X0729D02*
X07327D01*
X07235Y1475D02*
X0724D01*
Y14895*
X0718Y14695D02*
X07235Y1475D01*
Y149D02*
X0724Y14895D01*
X07199Y149D02*
X07235D01*
X075Y14697D02*
X07546D01*
X075Y14696D02*
Y14697D01*
X07454Y14696D02*
X075D01*
X07426Y1467D02*
X07454Y14641D01*
X0741Y1467D02*
X07426D01*
X0739D02*
X07409D01*
Y14739D02*
Y1477D01*
X0739Y1472D02*
X07409Y14739D01*
X07299Y1467D02*
X0739D01*
Y1472*
X07271Y14642D02*
X07299Y1467D01*
X07397Y1487D02*
X0746D01*
X0757Y1507D02*
X07602D01*
X0767Y148D02*
X077D01*
X0766Y1481D02*
X0767Y148D01*
X0766Y1481D02*
Y1497D01*
X07602D02*
X0766D01*
X0734Y1502D02*
X07397D01*
X07397Y15021D02*
X07397D01*
X0733Y1503D02*
X0734Y1502D01*
X0732Y1516D02*
X0734D01*
X0731Y1512D02*
X0734D01*
X0726Y1503D02*
X0733D01*
X0731Y1517D02*
X0732Y1516D01*
X0726Y1507D02*
X0731Y1512D01*
X072Y1517D02*
X0731D01*
X0727Y1492D02*
Y1494D01*
X0726Y1495D02*
X0727Y1494D01*
X0726Y1495D02*
Y1503D01*
Y1507*
X0719Y1512D02*
Y1516D01*
X072Y1517*
X07397Y1507D02*
Y15145D01*
X07444*
X07375D02*
X07397D01*
X0731Y1514D02*
X0737D01*
X07375Y15145*
X0729Y1479D02*
Y14824D01*
X07251Y14864D02*
X0729Y14824D01*
X07251Y14864D02*
Y14942D01*
X0724Y14953D02*
X07251Y14942D01*
X0724Y14953D02*
Y1501D01*
Y1501D02*
Y1507D01*
X0719Y1501D02*
X07239D01*
X0724Y1507D02*
X0731Y1514D01*
X07397Y1477D02*
X07409D01*
X07353D02*
X07397D01*
X07348Y1497D02*
X07397D01*
X07343Y1478D02*
X07353Y1477D01*
X07343Y14965D02*
X07348Y1497D01*
X07343Y1478D02*
Y14965D01*
X0746Y14925D02*
Y1494D01*
X07455Y1492D02*
X0746Y14925D01*
X07397Y1492D02*
X07455D01*
X0754Y149D02*
Y14915D01*
X07545Y1492D02*
X07602D01*
X0754Y14915D02*
X07545Y1492D01*
X0771Y1474D02*
X07745D01*
X07805Y148*
X0769Y1472D02*
X0771Y1474D01*
X0769Y14695D02*
Y1472D01*
X0762Y14642D02*
X07637D01*
X07618Y1464D02*
X0762Y14642D01*
X07605Y1464D02*
X07618D01*
X07156Y14664D02*
X0718Y1464D01*
X07156Y1479D02*
X072D01*
X07156Y14664D02*
Y1479D01*
X07156Y15108*
X0716Y1512D02*
X0719D01*
X07156Y15108D02*
Y15116D01*
X0716Y1512*
X07838Y14669D02*
X07848Y14679D01*
X07738Y14669D02*
X07838D01*
X07848Y14679D02*
Y15093D01*
X07816Y15124D02*
X07848Y15093D01*
X07729Y14641D02*
Y1466D01*
X07816Y15124D02*
Y15147D01*
X07729Y1466D02*
X07738Y14669D01*
X07815Y15072D02*
X07816D01*
X07723Y1511D02*
X07723D01*
X07729Y14641D02*
X07729D01*
X07289Y149D02*
Y149D01*
X0727Y1492D02*
X07289Y149D01*
X0778Y1485D02*
X078D01*
X0774Y14889D02*
X0778Y1485D01*
X077Y14889D02*
X0774D01*
X07554Y1514D02*
Y15145D01*
X07546Y14696D02*
Y14697D01*
X07233D02*
X07271D01*
X07805Y14275D02*
Y1431D01*
X07776Y14339D02*
X07805Y1431D01*
X0755Y14339D02*
X07776D01*
X07344Y14327D02*
X07538D01*
X0755Y14339*
X07363Y14036D02*
Y14065D01*
Y14036D02*
X07363D01*
X07335Y14093D02*
X07363Y14065D01*
X07335Y14093D02*
Y14318D01*
X07344Y14327*
X07518Y13982D02*
X07534D01*
X07369Y1396D02*
X07496D01*
X07518Y13982*
X0749Y1401D02*
X07518Y13982D01*
X0746Y1409D02*
Y1415D01*
X0744Y1401D02*
X0749D01*
X0745Y1416D02*
X0746Y1415D01*
X07363Y13966D02*
X07369Y1396D01*
X07363Y13966D02*
Y13981D01*
X07363D02*
X07363D01*
X0743Y1402D02*
X0744Y1401D01*
X0743Y1402D02*
Y1406D01*
X0746Y1409*
X07397Y1416D02*
X0745D01*
X07821Y13982D02*
X07843D01*
X07857Y13996*
Y14503*
X07595Y1396D02*
X07799D01*
X07821Y13982*
X0769Y1409D02*
X077Y141D01*
X0784Y1452D02*
X07857Y14503D01*
X077Y141D02*
Y14139D01*
X0756Y1452D02*
X0784D01*
X0765Y1409D02*
X0769D01*
X07585Y1397D02*
X07595Y1396D01*
X07585Y14025D02*
X0765Y1409D01*
X07585Y1397D02*
Y14025D01*
X07554Y14514D02*
X0756Y1452D01*
X07554Y14485D02*
Y14514D01*
X07821Y1409D02*
X07839Y14108D01*
Y14302*
X07723Y14417D02*
X07839Y14302D01*
X07821Y14033D02*
Y14037D01*
Y1409*
X07723Y14417D02*
Y1445D01*
X07525Y1439D02*
X0755D01*
X0757Y1441*
X07295Y1439D02*
X07525D01*
Y14425*
X07515Y1444D02*
X07525Y14425D01*
X0729Y14395D02*
X07295Y1439D01*
X07327Y14101D02*
Y1434D01*
X07525D02*
X07545Y1436D01*
X0724Y1409D02*
X07316D01*
X07327Y14101*
X07545Y1436D02*
X07602D01*
X07327Y1434D02*
X07525D01*
X0729D02*
X07327D01*
X07235Y1409D02*
X0724D01*
Y14235*
X0718Y14035D02*
X07235Y1409D01*
Y1424D02*
X0724Y14235D01*
X07199Y1424D02*
X07235D01*
X075Y14037D02*
X07546D01*
X075Y14036D02*
Y14037D01*
X07454Y14036D02*
X075D01*
X07426Y1401D02*
X07454Y13981D01*
X0741Y1401D02*
X07426D01*
X0739D02*
X07409D01*
Y14079D02*
Y1411D01*
X0739Y1406D02*
X07409Y14079D01*
X07299Y1401D02*
X0739D01*
Y1406*
X07271Y13982D02*
X07299Y1401D01*
X07397Y1421D02*
X0746D01*
X0757Y1441D02*
X07602D01*
X0767Y1414D02*
X077D01*
X0766Y1415D02*
X0767Y1414D01*
X0766Y1415D02*
Y1431D01*
X07602D02*
X0766D01*
X0734Y1436D02*
X07397D01*
X07397Y14361D02*
X07397D01*
X0733Y1437D02*
X0734Y1436D01*
X0732Y145D02*
X0734D01*
X0731Y1446D02*
X0734D01*
X0726Y1437D02*
X0733D01*
X0731Y1451D02*
X0732Y145D01*
X0726Y1441D02*
X0731Y1446D01*
X072Y1451D02*
X0731D01*
X0727Y1426D02*
Y1428D01*
X0726Y1429D02*
X0727Y1428D01*
X0726Y1429D02*
Y1437D01*
Y1441*
X0719Y1446D02*
Y145D01*
X072Y1451*
X07397Y1441D02*
Y14485D01*
X07444*
X07375D02*
X07397D01*
X0731Y1448D02*
X0737D01*
X07375Y14485*
X0729Y1413D02*
Y14164D01*
X07251Y14204D02*
X0729Y14164D01*
X07251Y14204D02*
Y14282D01*
X0724Y14293D02*
X07251Y14282D01*
X0724Y14293D02*
Y1435D01*
Y1435D02*
Y1441D01*
X0719Y1435D02*
X07239D01*
X0724Y1441D02*
X0731Y1448D01*
X07397Y1411D02*
X07409D01*
X07353D02*
X07397D01*
X07348Y1431D02*
X07397D01*
X07343Y1412D02*
X07353Y1411D01*
X07343Y14305D02*
X07348Y1431D01*
X07343Y1412D02*
Y14305D01*
X0746Y14265D02*
Y1428D01*
X07455Y1426D02*
X0746Y14265D01*
X07397Y1426D02*
X07455D01*
X0754Y1424D02*
Y14255D01*
X07545Y1426D02*
X07602D01*
X0754Y14255D02*
X07545Y1426D01*
X0771Y1408D02*
X07745D01*
X07805Y1414*
X0769Y1406D02*
X0771Y1408D01*
X0769Y14035D02*
Y1406D01*
X0762Y13982D02*
X07637D01*
X07618Y1398D02*
X0762Y13982D01*
X07605Y1398D02*
X07618D01*
X07156Y14004D02*
X0718Y1398D01*
X07156Y1413D02*
X072D01*
X07156Y14004D02*
Y1413D01*
X07156Y14448*
X0716Y1446D02*
X0719D01*
X07156Y14448D02*
Y14456D01*
X0716Y1446*
X07838Y14009D02*
X07848Y14019D01*
X07738Y14009D02*
X07838D01*
X07848Y14019D02*
Y14433D01*
X07816Y14464D02*
X07848Y14433D01*
X07729Y13981D02*
Y14D01*
X07816Y14464D02*
Y14487D01*
X07729Y14D02*
X07738Y14009D01*
X07815Y14412D02*
X07816D01*
X07723Y1445D02*
X07723D01*
X07729Y13981D02*
X07729D01*
X07289Y1424D02*
Y1424D01*
X0727Y1426D02*
X07289Y1424D01*
X0778Y1419D02*
X078D01*
X0774Y14229D02*
X0778Y1419D01*
X077Y14229D02*
X0774D01*
X07554Y1448D02*
Y14485D01*
X07546Y14036D02*
Y14037D01*
X07233D02*
X07271D01*
X07805Y13615D02*
Y1365D01*
X07776Y13679D02*
X07805Y1365D01*
X0755Y13679D02*
X07776D01*
X07344Y13667D02*
X07538D01*
X0755Y13679*
X07363Y13376D02*
Y13405D01*
Y13376D02*
X07363D01*
X07335Y13433D02*
X07363Y13405D01*
X07335Y13433D02*
Y13658D01*
X07344Y13667*
X07518Y13322D02*
X07534D01*
X07369Y133D02*
X07496D01*
X07518Y13322*
X0749Y1335D02*
X07518Y13322D01*
X0746Y1343D02*
Y1349D01*
X0744Y1335D02*
X0749D01*
X0745Y135D02*
X0746Y1349D01*
X07363Y13306D02*
X07369Y133D01*
X07363Y13306D02*
Y13321D01*
X07363D02*
X07363D01*
X0743Y1336D02*
X0744Y1335D01*
X0743Y1336D02*
Y134D01*
X0746Y1343*
X07397Y135D02*
X0745D01*
X07821Y13322D02*
X07843D01*
X07857Y13336*
Y13843*
X07595Y133D02*
X07799D01*
X07821Y13322*
X0769Y1343D02*
X077Y1344D01*
X0784Y1386D02*
X07857Y13843D01*
X077Y1344D02*
Y13479D01*
X0756Y1386D02*
X0784D01*
X0765Y1343D02*
X0769D01*
X07585Y1331D02*
X07595Y133D01*
X07585Y13365D02*
X0765Y1343D01*
X07585Y1331D02*
Y13365D01*
X07554Y13854D02*
X0756Y1386D01*
X07554Y13825D02*
Y13854D01*
X07821Y1343D02*
X07839Y13448D01*
Y13642*
X07723Y13757D02*
X07839Y13642D01*
X07821Y13373D02*
Y13377D01*
Y1343*
X07723Y13757D02*
Y1379D01*
X07525Y1373D02*
X0755D01*
X0757Y1375*
X07295Y1373D02*
X07525D01*
Y13765*
X07515Y1378D02*
X07525Y13765D01*
X0729Y13735D02*
X07295Y1373D01*
X07327Y13441D02*
Y1368D01*
X07525D02*
X07545Y137D01*
X0724Y1343D02*
X07316D01*
X07327Y13441*
X07545Y137D02*
X07602D01*
X07327Y1368D02*
X07525D01*
X0729D02*
X07327D01*
X07235Y1343D02*
X0724D01*
Y13575*
X0718Y13375D02*
X07235Y1343D01*
Y1358D02*
X0724Y13575D01*
X07199Y1358D02*
X07235D01*
X075Y13377D02*
X07546D01*
X075Y13376D02*
Y13377D01*
X07454Y13376D02*
X075D01*
X07426Y1335D02*
X07454Y13321D01*
X0741Y1335D02*
X07426D01*
X0739D02*
X07409D01*
Y13419D02*
Y1345D01*
X0739Y134D02*
X07409Y13419D01*
X07299Y1335D02*
X0739D01*
Y134*
X07271Y13322D02*
X07299Y1335D01*
X07397Y1355D02*
X0746D01*
X0757Y1375D02*
X07602D01*
X0767Y1348D02*
X077D01*
X0766Y1349D02*
X0767Y1348D01*
X0766Y1349D02*
Y1365D01*
X07602D02*
X0766D01*
X0734Y137D02*
X07397D01*
X07397Y13701D02*
X07397D01*
X0733Y1371D02*
X0734Y137D01*
X0732Y1384D02*
X0734D01*
X0731Y138D02*
X0734D01*
X0726Y1371D02*
X0733D01*
X0731Y1385D02*
X0732Y1384D01*
X0726Y1375D02*
X0731Y138D01*
X072Y1385D02*
X0731D01*
X0727Y136D02*
Y1362D01*
X0726Y1363D02*
X0727Y1362D01*
X0726Y1363D02*
Y1371D01*
Y1375*
X0719Y138D02*
Y1384D01*
X072Y1385*
X07397Y1375D02*
Y13825D01*
X07444*
X07375D02*
X07397D01*
X0731Y1382D02*
X0737D01*
X07375Y13825*
X0729Y1347D02*
Y13504D01*
X07251Y13544D02*
X0729Y13504D01*
X07251Y13544D02*
Y13622D01*
X0724Y13633D02*
X07251Y13622D01*
X0724Y13633D02*
Y1369D01*
Y1369D02*
Y1375D01*
X0719Y1369D02*
X07239D01*
X0724Y1375D02*
X0731Y1382D01*
X07397Y1345D02*
X07409D01*
X07353D02*
X07397D01*
X07348Y1365D02*
X07397D01*
X07343Y1346D02*
X07353Y1345D01*
X07343Y13645D02*
X07348Y1365D01*
X07343Y1346D02*
Y13645D01*
X0746Y13605D02*
Y1362D01*
X07455Y136D02*
X0746Y13605D01*
X07397Y136D02*
X07455D01*
X0754Y1358D02*
Y13595D01*
X07545Y136D02*
X07602D01*
X0754Y13595D02*
X07545Y136D01*
X0771Y1342D02*
X07745D01*
X07805Y1348*
X0769Y134D02*
X0771Y1342D01*
X0769Y13375D02*
Y134D01*
X0762Y13322D02*
X07637D01*
X07618Y1332D02*
X0762Y13322D01*
X07605Y1332D02*
X07618D01*
X07156Y13344D02*
X0718Y1332D01*
X07156Y1347D02*
X072D01*
X07156Y13344D02*
Y1347D01*
X07156Y13788*
X0716Y138D02*
X0719D01*
X07156Y13788D02*
Y13796D01*
X0716Y138*
X07838Y13349D02*
X07848Y13359D01*
X07738Y13349D02*
X07838D01*
X07848Y13359D02*
Y13773D01*
X07816Y13804D02*
X07848Y13773D01*
X07729Y13321D02*
Y1334D01*
X07816Y13804D02*
Y13827D01*
X07729Y1334D02*
X07738Y13349D01*
X07815Y13752D02*
X07816D01*
X07723Y1379D02*
X07723D01*
X07729Y13321D02*
X07729D01*
X07289Y1358D02*
Y1358D01*
X0727Y136D02*
X07289Y1358D01*
X0778Y1353D02*
X078D01*
X0774Y13569D02*
X0778Y1353D01*
X077Y13569D02*
X0774D01*
X07554Y1382D02*
Y13825D01*
X07546Y13376D02*
Y13377D01*
X07233D02*
X07271D01*
X07065Y15595D02*
Y1563D01*
X07036Y15659D02*
X07065Y1563D01*
X0681Y15659D02*
X07036D01*
X06604Y15647D02*
X06798D01*
X0681Y15659*
X06623Y15356D02*
Y15385D01*
Y15356D02*
X06623D01*
X06595Y15413D02*
X06623Y15385D01*
X06595Y15413D02*
Y15638D01*
X06604Y15647*
X06778Y15302D02*
X06794D01*
X06629Y1528D02*
X06756D01*
X06778Y15302*
X0675Y1533D02*
X06778Y15302D01*
X0672Y1541D02*
Y1547D01*
X067Y1533D02*
X0675D01*
X0671Y1548D02*
X0672Y1547D01*
X06623Y15286D02*
X06629Y1528D01*
X06623Y15286D02*
Y15301D01*
X06623D02*
X06623D01*
X0669Y1534D02*
X067Y1533D01*
X0669Y1534D02*
Y1538D01*
X0672Y1541*
X06657Y1548D02*
X0671D01*
X07081Y15302D02*
X07103D01*
X07117Y15316*
Y15823*
X06855Y1528D02*
X07059D01*
X07081Y15302*
X0695Y1541D02*
X0696Y1542D01*
X071Y1584D02*
X07117Y15823D01*
X0696Y1542D02*
Y15459D01*
X0682Y1584D02*
X071D01*
X0691Y1541D02*
X0695D01*
X06845Y1529D02*
X06855Y1528D01*
X06845Y15345D02*
X0691Y1541D01*
X06845Y1529D02*
Y15345D01*
X06814Y15834D02*
X0682Y1584D01*
X06814Y15805D02*
Y15834D01*
X07081Y1541D02*
X07099Y15428D01*
Y15622*
X06983Y15737D02*
X07099Y15622D01*
X07081Y15353D02*
Y15357D01*
Y1541*
X06983Y15737D02*
Y1577D01*
X06785Y1571D02*
X0681D01*
X0683Y1573*
X06555Y1571D02*
X06785D01*
Y15745*
X06775Y1576D02*
X06785Y15745D01*
X0655Y15715D02*
X06555Y1571D01*
X06587Y15421D02*
Y1566D01*
X06785D02*
X06805Y1568D01*
X065Y1541D02*
X06576D01*
X06587Y15421*
X06805Y1568D02*
X06862D01*
X06587Y1566D02*
X06785D01*
X0655D02*
X06587D01*
X06495Y1541D02*
X065D01*
Y15555*
X0644Y15355D02*
X06495Y1541D01*
Y1556D02*
X065Y15555D01*
X06459Y1556D02*
X06495D01*
X0676Y15357D02*
X06806D01*
X0676Y15356D02*
Y15357D01*
X06714Y15356D02*
X0676D01*
X06686Y1533D02*
X06714Y15301D01*
X0667Y1533D02*
X06686D01*
X0665D02*
X06669D01*
Y15399D02*
Y1543D01*
X0665Y1538D02*
X06669Y15399D01*
X06559Y1533D02*
X0665D01*
Y1538*
X06531Y15302D02*
X06559Y1533D01*
X06657Y1553D02*
X0672D01*
X0683Y1573D02*
X06862D01*
X0693Y1546D02*
X0696D01*
X0692Y1547D02*
X0693Y1546D01*
X0692Y1547D02*
Y1563D01*
X06862D02*
X0692D01*
X066Y1568D02*
X06657D01*
X06657Y15681D02*
X06657D01*
X0659Y1569D02*
X066Y1568D01*
X0658Y1582D02*
X066D01*
X0657Y1578D02*
X066D01*
X0652Y1569D02*
X0659D01*
X0657Y1583D02*
X0658Y1582D01*
X0652Y1573D02*
X0657Y1578D01*
X0646Y1583D02*
X0657D01*
X0653Y1558D02*
Y156D01*
X0652Y1561D02*
X0653Y156D01*
X0652Y1561D02*
Y1569D01*
Y1573*
X0645Y1578D02*
Y1582D01*
X0646Y1583*
X06657Y1573D02*
Y15805D01*
X06704*
X06635D02*
X06657D01*
X0657Y158D02*
X0663D01*
X06635Y15805*
X0655Y1545D02*
Y15484D01*
X06511Y15524D02*
X0655Y15484D01*
X06511Y15524D02*
Y15602D01*
X065Y15613D02*
X06511Y15602D01*
X065Y15613D02*
Y1567D01*
Y1567D02*
Y1573D01*
X0645Y1567D02*
X06499D01*
X065Y1573D02*
X0657Y158D01*
X06657Y1543D02*
X06669D01*
X06613D02*
X06657D01*
X06608Y1563D02*
X06657D01*
X06603Y1544D02*
X06613Y1543D01*
X06603Y15625D02*
X06608Y1563D01*
X06603Y1544D02*
Y15625D01*
X0672Y15585D02*
Y156D01*
X06715Y1558D02*
X0672Y15585D01*
X06657Y1558D02*
X06715D01*
X068Y1556D02*
Y15575D01*
X06805Y1558D02*
X06862D01*
X068Y15575D02*
X06805Y1558D01*
X0697Y154D02*
X07005D01*
X07065Y1546*
X0695Y1538D02*
X0697Y154D01*
X0695Y15355D02*
Y1538D01*
X0688Y15302D02*
X06897D01*
X06878Y153D02*
X0688Y15302D01*
X06865Y153D02*
X06878D01*
X06416Y15324D02*
X0644Y153D01*
X06416Y1545D02*
X0646D01*
X06416Y15324D02*
Y1545D01*
X06416Y15768*
X0642Y1578D02*
X0645D01*
X06416Y15768D02*
Y15776D01*
X0642Y1578*
X07098Y15329D02*
X07108Y15339D01*
X06998Y15329D02*
X07098D01*
X07108Y15339D02*
Y15753D01*
X07076Y15784D02*
X07108Y15753D01*
X06989Y15301D02*
Y1532D01*
X07076Y15784D02*
Y15807D01*
X06989Y1532D02*
X06998Y15329D01*
X07075Y15732D02*
X07076D01*
X06983Y1577D02*
X06983D01*
X06989Y15301D02*
X06989D01*
X06549Y1556D02*
Y1556D01*
X0653Y1558D02*
X06549Y1556D01*
X0704Y1551D02*
X0706D01*
X07Y15549D02*
X0704Y1551D01*
X0696Y15549D02*
X07D01*
X06814Y158D02*
Y15805D01*
X06806Y15356D02*
Y15357D01*
X06493D02*
X06531D01*
X07065Y14935D02*
Y1497D01*
X07036Y14999D02*
X07065Y1497D01*
X0681Y14999D02*
X07036D01*
X06604Y14987D02*
X06798D01*
X0681Y14999*
X06623Y14696D02*
Y14725D01*
Y14696D02*
X06623D01*
X06595Y14753D02*
X06623Y14725D01*
X06595Y14753D02*
Y14978D01*
X06604Y14987*
X06778Y14642D02*
X06794D01*
X06629Y1462D02*
X06756D01*
X06778Y14642*
X0675Y1467D02*
X06778Y14642D01*
X0672Y1475D02*
Y1481D01*
X067Y1467D02*
X0675D01*
X0671Y1482D02*
X0672Y1481D01*
X06623Y14626D02*
X06629Y1462D01*
X06623Y14626D02*
Y14641D01*
X06623D02*
X06623D01*
X0669Y1468D02*
X067Y1467D01*
X0669Y1468D02*
Y1472D01*
X0672Y1475*
X06657Y1482D02*
X0671D01*
X07081Y14642D02*
X07103D01*
X07117Y14656*
Y15163*
X06855Y1462D02*
X07059D01*
X07081Y14642*
X0695Y1475D02*
X0696Y1476D01*
X071Y1518D02*
X07117Y15163D01*
X0696Y1476D02*
Y14799D01*
X0682Y1518D02*
X071D01*
X0691Y1475D02*
X0695D01*
X06845Y1463D02*
X06855Y1462D01*
X06845Y14685D02*
X0691Y1475D01*
X06845Y1463D02*
Y14685D01*
X06814Y15174D02*
X0682Y1518D01*
X06814Y15145D02*
Y15174D01*
X07081Y1475D02*
X07099Y14768D01*
Y14962*
X06983Y15077D02*
X07099Y14962D01*
X07081Y14693D02*
Y14697D01*
Y1475*
X06983Y15077D02*
Y1511D01*
X06785Y1505D02*
X0681D01*
X0683Y1507*
X06555Y1505D02*
X06785D01*
Y15085*
X06775Y151D02*
X06785Y15085D01*
X0655Y15055D02*
X06555Y1505D01*
X06587Y14761D02*
Y15D01*
X06785D02*
X06805Y1502D01*
X065Y1475D02*
X06576D01*
X06587Y14761*
X06805Y1502D02*
X06862D01*
X06587Y15D02*
X06785D01*
X0655D02*
X06587D01*
X06495Y1475D02*
X065D01*
Y14895*
X0644Y14695D02*
X06495Y1475D01*
Y149D02*
X065Y14895D01*
X06459Y149D02*
X06495D01*
X0676Y14697D02*
X06806D01*
X0676Y14696D02*
Y14697D01*
X06714Y14696D02*
X0676D01*
X06686Y1467D02*
X06714Y14641D01*
X0667Y1467D02*
X06686D01*
X0665D02*
X06669D01*
Y14739D02*
Y1477D01*
X0665Y1472D02*
X06669Y14739D01*
X06559Y1467D02*
X0665D01*
Y1472*
X06531Y14642D02*
X06559Y1467D01*
X06657Y1487D02*
X0672D01*
X0683Y1507D02*
X06862D01*
X0693Y148D02*
X0696D01*
X0692Y1481D02*
X0693Y148D01*
X0692Y1481D02*
Y1497D01*
X06862D02*
X0692D01*
X066Y1502D02*
X06657D01*
X06657Y15021D02*
X06657D01*
X0659Y1503D02*
X066Y1502D01*
X0658Y1516D02*
X066D01*
X0657Y1512D02*
X066D01*
X0652Y1503D02*
X0659D01*
X0657Y1517D02*
X0658Y1516D01*
X0652Y1507D02*
X0657Y1512D01*
X0646Y1517D02*
X0657D01*
X0653Y1492D02*
Y1494D01*
X0652Y1495D02*
X0653Y1494D01*
X0652Y1495D02*
Y1503D01*
Y1507*
X0645Y1512D02*
Y1516D01*
X0646Y1517*
X06657Y1507D02*
Y15145D01*
X06704*
X06635D02*
X06657D01*
X0657Y1514D02*
X0663D01*
X06635Y15145*
X0655Y1479D02*
Y14824D01*
X06511Y14864D02*
X0655Y14824D01*
X06511Y14864D02*
Y14942D01*
X065Y14953D02*
X06511Y14942D01*
X065Y14953D02*
Y1501D01*
Y1501D02*
Y1507D01*
X0645Y1501D02*
X06499D01*
X065Y1507D02*
X0657Y1514D01*
X06657Y1477D02*
X06669D01*
X06613D02*
X06657D01*
X06608Y1497D02*
X06657D01*
X06603Y1478D02*
X06613Y1477D01*
X06603Y14965D02*
X06608Y1497D01*
X06603Y1478D02*
Y14965D01*
X0672Y14925D02*
Y1494D01*
X06715Y1492D02*
X0672Y14925D01*
X06657Y1492D02*
X06715D01*
X068Y149D02*
Y14915D01*
X06805Y1492D02*
X06862D01*
X068Y14915D02*
X06805Y1492D01*
X0697Y1474D02*
X07005D01*
X07065Y148*
X0695Y1472D02*
X0697Y1474D01*
X0695Y14695D02*
Y1472D01*
X0688Y14642D02*
X06897D01*
X06878Y1464D02*
X0688Y14642D01*
X06865Y1464D02*
X06878D01*
X06416Y14664D02*
X0644Y1464D01*
X06416Y1479D02*
X0646D01*
X06416Y14664D02*
Y1479D01*
X06416Y15108*
X0642Y1512D02*
X0645D01*
X06416Y15108D02*
Y15116D01*
X0642Y1512*
X07098Y14669D02*
X07108Y14679D01*
X06998Y14669D02*
X07098D01*
X07108Y14679D02*
Y15093D01*
X07076Y15124D02*
X07108Y15093D01*
X06989Y14641D02*
Y1466D01*
X07076Y15124D02*
Y15147D01*
X06989Y1466D02*
X06998Y14669D01*
X07075Y15072D02*
X07076D01*
X06983Y1511D02*
X06983D01*
X06989Y14641D02*
X06989D01*
X06549Y149D02*
Y149D01*
X0653Y1492D02*
X06549Y149D01*
X0704Y1485D02*
X0706D01*
X07Y14889D02*
X0704Y1485D01*
X0696Y14889D02*
X07D01*
X06814Y1514D02*
Y15145D01*
X06806Y14696D02*
Y14697D01*
X06493D02*
X06531D01*
X07065Y14275D02*
Y1431D01*
X07036Y14339D02*
X07065Y1431D01*
X0681Y14339D02*
X07036D01*
X06604Y14327D02*
X06798D01*
X0681Y14339*
X06623Y14036D02*
Y14065D01*
Y14036D02*
X06623D01*
X06595Y14093D02*
X06623Y14065D01*
X06595Y14093D02*
Y14318D01*
X06604Y14327*
X06778Y13982D02*
X06794D01*
X06629Y1396D02*
X06756D01*
X06778Y13982*
X0675Y1401D02*
X06778Y13982D01*
X0672Y1409D02*
Y1415D01*
X067Y1401D02*
X0675D01*
X0671Y1416D02*
X0672Y1415D01*
X06623Y13966D02*
X06629Y1396D01*
X06623Y13966D02*
Y13981D01*
X06623D02*
X06623D01*
X0669Y1402D02*
X067Y1401D01*
X0669Y1402D02*
Y1406D01*
X0672Y1409*
X06657Y1416D02*
X0671D01*
X07081Y13982D02*
X07103D01*
X07117Y13996*
Y14503*
X06855Y1396D02*
X07059D01*
X07081Y13982*
X0695Y1409D02*
X0696Y141D01*
X071Y1452D02*
X07117Y14503D01*
X0696Y141D02*
Y14139D01*
X0682Y1452D02*
X071D01*
X0691Y1409D02*
X0695D01*
X06845Y1397D02*
X06855Y1396D01*
X06845Y14025D02*
X0691Y1409D01*
X06845Y1397D02*
Y14025D01*
X06814Y14514D02*
X0682Y1452D01*
X06814Y14485D02*
Y14514D01*
X07081Y1409D02*
X07099Y14108D01*
Y14302*
X06983Y14417D02*
X07099Y14302D01*
X07081Y14033D02*
Y14037D01*
Y1409*
X06983Y14417D02*
Y1445D01*
X06785Y1439D02*
X0681D01*
X0683Y1441*
X06555Y1439D02*
X06785D01*
Y14425*
X06775Y1444D02*
X06785Y14425D01*
X0655Y14395D02*
X06555Y1439D01*
X06587Y14101D02*
Y1434D01*
X06785D02*
X06805Y1436D01*
X065Y1409D02*
X06576D01*
X06587Y14101*
X06805Y1436D02*
X06862D01*
X06587Y1434D02*
X06785D01*
X0655D02*
X06587D01*
X06495Y1409D02*
X065D01*
Y14235*
X0644Y14035D02*
X06495Y1409D01*
Y1424D02*
X065Y14235D01*
X06459Y1424D02*
X06495D01*
X0676Y14037D02*
X06806D01*
X0676Y14036D02*
Y14037D01*
X06714Y14036D02*
X0676D01*
X06686Y1401D02*
X06714Y13981D01*
X0667Y1401D02*
X06686D01*
X0665D02*
X06669D01*
Y14079D02*
Y1411D01*
X0665Y1406D02*
X06669Y14079D01*
X06559Y1401D02*
X0665D01*
Y1406*
X06531Y13982D02*
X06559Y1401D01*
X06657Y1421D02*
X0672D01*
X0683Y1441D02*
X06862D01*
X0693Y1414D02*
X0696D01*
X0692Y1415D02*
X0693Y1414D01*
X0692Y1415D02*
Y1431D01*
X06862D02*
X0692D01*
X066Y1436D02*
X06657D01*
X06657Y14361D02*
X06657D01*
X0659Y1437D02*
X066Y1436D01*
X0658Y145D02*
X066D01*
X0657Y1446D02*
X066D01*
X0652Y1437D02*
X0659D01*
X0657Y1451D02*
X0658Y145D01*
X0652Y1441D02*
X0657Y1446D01*
X0646Y1451D02*
X0657D01*
X0653Y1426D02*
Y1428D01*
X0652Y1429D02*
X0653Y1428D01*
X0652Y1429D02*
Y1437D01*
Y1441*
X0645Y1446D02*
Y145D01*
X0646Y1451*
X06657Y1441D02*
Y14485D01*
X06704*
X06635D02*
X06657D01*
X0657Y1448D02*
X0663D01*
X06635Y14485*
X0655Y1413D02*
Y14164D01*
X06511Y14204D02*
X0655Y14164D01*
X06511Y14204D02*
Y14282D01*
X065Y14293D02*
X06511Y14282D01*
X065Y14293D02*
Y1435D01*
Y1435D02*
Y1441D01*
X0645Y1435D02*
X06499D01*
X065Y1441D02*
X0657Y1448D01*
X06657Y1411D02*
X06669D01*
X06613D02*
X06657D01*
X06608Y1431D02*
X06657D01*
X06603Y1412D02*
X06613Y1411D01*
X06603Y14305D02*
X06608Y1431D01*
X06603Y1412D02*
Y14305D01*
X0672Y14265D02*
Y1428D01*
X06715Y1426D02*
X0672Y14265D01*
X06657Y1426D02*
X06715D01*
X068Y1424D02*
Y14255D01*
X06805Y1426D02*
X06862D01*
X068Y14255D02*
X06805Y1426D01*
X0697Y1408D02*
X07005D01*
X07065Y1414*
X0695Y1406D02*
X0697Y1408D01*
X0695Y14035D02*
Y1406D01*
X0688Y13982D02*
X06897D01*
X06878Y1398D02*
X0688Y13982D01*
X06865Y1398D02*
X06878D01*
X06416Y14004D02*
X0644Y1398D01*
X06416Y1413D02*
X0646D01*
X06416Y14004D02*
Y1413D01*
X06416Y14448*
X0642Y1446D02*
X0645D01*
X06416Y14448D02*
Y14456D01*
X0642Y1446*
X07098Y14009D02*
X07108Y14019D01*
X06998Y14009D02*
X07098D01*
X07108Y14019D02*
Y14433D01*
X07076Y14464D02*
X07108Y14433D01*
X06989Y13981D02*
Y14D01*
X07076Y14464D02*
Y14487D01*
X06989Y14D02*
X06998Y14009D01*
X07075Y14412D02*
X07076D01*
X06983Y1445D02*
X06983D01*
X06989Y13981D02*
X06989D01*
X06549Y1424D02*
Y1424D01*
X0653Y1426D02*
X06549Y1424D01*
X0704Y1419D02*
X0706D01*
X07Y14229D02*
X0704Y1419D01*
X0696Y14229D02*
X07D01*
X06814Y1448D02*
Y14485D01*
X06806Y14036D02*
Y14037D01*
X06493D02*
X06531D01*
X07065Y13615D02*
Y1365D01*
X07036Y13679D02*
X07065Y1365D01*
X0681Y13679D02*
X07036D01*
X06604Y13667D02*
X06798D01*
X0681Y13679*
X06623Y13376D02*
Y13405D01*
Y13376D02*
X06623D01*
X06595Y13433D02*
X06623Y13405D01*
X06595Y13433D02*
Y13658D01*
X06604Y13667*
X06778Y13322D02*
X06794D01*
X06629Y133D02*
X06756D01*
X06778Y13322*
X0675Y1335D02*
X06778Y13322D01*
X0672Y1343D02*
Y1349D01*
X067Y1335D02*
X0675D01*
X0671Y135D02*
X0672Y1349D01*
X06623Y13306D02*
X06629Y133D01*
X06623Y13306D02*
Y13321D01*
X06623D02*
X06623D01*
X0669Y1336D02*
X067Y1335D01*
X0669Y1336D02*
Y134D01*
X0672Y1343*
X06657Y135D02*
X0671D01*
X07081Y13322D02*
X07103D01*
X07117Y13336*
Y13843*
X06855Y133D02*
X07059D01*
X07081Y13322*
X0695Y1343D02*
X0696Y1344D01*
X071Y1386D02*
X07117Y13843D01*
X0696Y1344D02*
Y13479D01*
X0682Y1386D02*
X071D01*
X0691Y1343D02*
X0695D01*
X06845Y1331D02*
X06855Y133D01*
X06845Y13365D02*
X0691Y1343D01*
X06845Y1331D02*
Y13365D01*
X06814Y13854D02*
X0682Y1386D01*
X06814Y13825D02*
Y13854D01*
X07081Y1343D02*
X07099Y13448D01*
Y13642*
X06983Y13757D02*
X07099Y13642D01*
X07081Y13373D02*
Y13377D01*
Y1343*
X06983Y13757D02*
Y1379D01*
X06785Y1373D02*
X0681D01*
X0683Y1375*
X06555Y1373D02*
X06785D01*
Y13765*
X06775Y1378D02*
X06785Y13765D01*
X0655Y13735D02*
X06555Y1373D01*
X06587Y13441D02*
Y1368D01*
X06785D02*
X06805Y137D01*
X065Y1343D02*
X06576D01*
X06587Y13441*
X06805Y137D02*
X06862D01*
X06587Y1368D02*
X06785D01*
X0655D02*
X06587D01*
X06495Y1343D02*
X065D01*
Y13575*
X0644Y13375D02*
X06495Y1343D01*
Y1358D02*
X065Y13575D01*
X06459Y1358D02*
X06495D01*
X0676Y13377D02*
X06806D01*
X0676Y13376D02*
Y13377D01*
X06714Y13376D02*
X0676D01*
X06686Y1335D02*
X06714Y13321D01*
X0667Y1335D02*
X06686D01*
X0665D02*
X06669D01*
Y13419D02*
Y1345D01*
X0665Y134D02*
X06669Y13419D01*
X06559Y1335D02*
X0665D01*
Y134*
X06531Y13322D02*
X06559Y1335D01*
X06657Y1355D02*
X0672D01*
X0683Y1375D02*
X06862D01*
X0693Y1348D02*
X0696D01*
X0692Y1349D02*
X0693Y1348D01*
X0692Y1349D02*
Y1365D01*
X06862D02*
X0692D01*
X066Y137D02*
X06657D01*
X06657Y13701D02*
X06657D01*
X0659Y1371D02*
X066Y137D01*
X0658Y1384D02*
X066D01*
X0657Y138D02*
X066D01*
X0652Y1371D02*
X0659D01*
X0657Y1385D02*
X0658Y1384D01*
X0652Y1375D02*
X0657Y138D01*
X0646Y1385D02*
X0657D01*
X0653Y136D02*
Y1362D01*
X0652Y1363D02*
X0653Y1362D01*
X0652Y1363D02*
Y1371D01*
Y1375*
X0645Y138D02*
Y1384D01*
X0646Y1385*
X06657Y1375D02*
Y13825D01*
X06704*
X06635D02*
X06657D01*
X0657Y1382D02*
X0663D01*
X06635Y13825*
X0655Y1347D02*
Y13504D01*
X06511Y13544D02*
X0655Y13504D01*
X06511Y13544D02*
Y13622D01*
X065Y13633D02*
X06511Y13622D01*
X065Y13633D02*
Y1369D01*
Y1369D02*
Y1375D01*
X0645Y1369D02*
X06499D01*
X065Y1375D02*
X0657Y1382D01*
X06657Y1345D02*
X06669D01*
X06613D02*
X06657D01*
X06608Y1365D02*
X06657D01*
X06603Y1346D02*
X06613Y1345D01*
X06603Y13645D02*
X06608Y1365D01*
X06603Y1346D02*
Y13645D01*
X0672Y13605D02*
Y1362D01*
X06715Y136D02*
X0672Y13605D01*
X06657Y136D02*
X06715D01*
X068Y1358D02*
Y13595D01*
X06805Y136D02*
X06862D01*
X068Y13595D02*
X06805Y136D01*
X0697Y1342D02*
X07005D01*
X07065Y1348*
X0695Y134D02*
X0697Y1342D01*
X0695Y13375D02*
Y134D01*
X0688Y13322D02*
X06897D01*
X06878Y1332D02*
X0688Y13322D01*
X06865Y1332D02*
X06878D01*
X06416Y13344D02*
X0644Y1332D01*
X06416Y1347D02*
X0646D01*
X06416Y13344D02*
Y1347D01*
X06416Y13788*
X0642Y138D02*
X0645D01*
X06416Y13788D02*
Y13796D01*
X0642Y138*
X07098Y13349D02*
X07108Y13359D01*
X06998Y13349D02*
X07098D01*
X07108Y13359D02*
Y13773D01*
X07076Y13804D02*
X07108Y13773D01*
X06989Y13321D02*
Y1334D01*
X07076Y13804D02*
Y13827D01*
X06989Y1334D02*
X06998Y13349D01*
X07075Y13752D02*
X07076D01*
X06983Y1379D02*
X06983D01*
X06989Y13321D02*
X06989D01*
X06549Y1358D02*
Y1358D01*
X0653Y136D02*
X06549Y1358D01*
X0704Y1353D02*
X0706D01*
X07Y13569D02*
X0704Y1353D01*
X0696Y13569D02*
X07D01*
X06814Y1382D02*
Y13825D01*
X06806Y13376D02*
Y13377D01*
X06493D02*
X06531D01*
X06355Y1334D02*
X0637D01*
X06333Y13398D02*
Y13412D01*
G54D17*
X06333Y1357D02*
X06379D01*
X06333Y1423D02*
X06379D01*
X06333Y1489D02*
X06379D01*
X06333Y1555D02*
X06379D01*
X06333Y13747D02*
Y13775D01*
Y14407D02*
Y14435D01*
Y15067D02*
Y15095D01*
Y15727D02*
Y15755D01*
X09168Y15357D02*
X0917Y15355D01*
X09117Y15357D02*
X09168D01*
X09258Y15733D02*
X09295D01*
X09209Y15356D02*
Y15378D01*
X09216Y15385*
X09245*
X09168Y14697D02*
X0917Y14695D01*
X09117Y14697D02*
X09168D01*
X09258Y15073D02*
X09295D01*
X09209Y14696D02*
Y14718D01*
X09216Y14725*
X09245*
X09168Y14037D02*
X0917Y14035D01*
X09117Y14037D02*
X09168D01*
X09258Y14413D02*
X09295D01*
X09209Y14036D02*
Y14058D01*
X09216Y14065*
X09245*
X09168Y13377D02*
X0917Y13375D01*
X09117Y13377D02*
X09168D01*
X09258Y13753D02*
X09295D01*
X09209Y13376D02*
Y13398D01*
X09216Y13405*
X09245*
X08428Y15357D02*
X0843Y15355D01*
X08377Y15357D02*
X08428D01*
X08518Y15733D02*
X08555D01*
X08469Y15356D02*
Y15378D01*
X08476Y15385*
X08505*
X08428Y14697D02*
X0843Y14695D01*
X08377Y14697D02*
X08428D01*
X08518Y15073D02*
X08555D01*
X08469Y14696D02*
Y14718D01*
X08476Y14725*
X08505*
X08428Y14037D02*
X0843Y14035D01*
X08377Y14037D02*
X08428D01*
X08518Y14413D02*
X08555D01*
X08469Y14036D02*
Y14058D01*
X08476Y14065*
X08505*
X08428Y13377D02*
X0843Y13375D01*
X08377Y13377D02*
X08428D01*
X08518Y13753D02*
X08555D01*
X08469Y13376D02*
Y13398D01*
X08476Y13405*
X08505*
X07688Y15357D02*
X0769Y15355D01*
X07637Y15357D02*
X07688D01*
X07778Y15733D02*
X07815D01*
X07729Y15356D02*
Y15378D01*
X07736Y15385*
X07765*
X07688Y14697D02*
X0769Y14695D01*
X07637Y14697D02*
X07688D01*
X07778Y15073D02*
X07815D01*
X07729Y14696D02*
Y14718D01*
X07736Y14725*
X07765*
X07688Y14037D02*
X0769Y14035D01*
X07637Y14037D02*
X07688D01*
X07778Y14413D02*
X07815D01*
X07729Y14036D02*
Y14058D01*
X07736Y14065*
X07765*
X07688Y13377D02*
X0769Y13375D01*
X07637Y13377D02*
X07688D01*
X07778Y13753D02*
X07815D01*
X07729Y13376D02*
Y13398D01*
X07736Y13405*
X07765*
X06948Y15357D02*
X0695Y15355D01*
X06897Y15357D02*
X06948D01*
X07038Y15733D02*
X07075D01*
X06989Y15356D02*
Y15378D01*
X06996Y15385*
X07025*
X06948Y14697D02*
X0695Y14695D01*
X06897Y14697D02*
X06948D01*
X07038Y15073D02*
X07075D01*
X06989Y14696D02*
Y14718D01*
X06996Y14725*
X07025*
X06948Y14037D02*
X0695Y14035D01*
X06897Y14037D02*
X06948D01*
X07038Y14413D02*
X07075D01*
X06989Y14036D02*
Y14058D01*
X06996Y14065*
X07025*
X06948Y13377D02*
X0695Y13375D01*
X06897Y13377D02*
X06948D01*
X07038Y13753D02*
X07075D01*
X06989Y13376D02*
Y13398D01*
X06996Y13405*
X07025*
G54D18*
X09445Y14655D03*
Y14555D03*
Y14855D03*
Y14755D03*
Y14455D03*
Y14355D03*
Y14255D03*
Y15055D03*
Y14955D03*
G54D19*
X09445Y14155D03*
G54D20*
X068Y156D03*
X06745Y1576D03*
X068Y1553D03*
X06655Y153D03*
X06482Y15733D03*
X0657Y15355D03*
X0646Y1551D03*
X0692Y1582D03*
Y1578D03*
X07027Y15357D03*
X0937Y1358D03*
Y1556D03*
Y149D03*
Y1424D03*
X0637Y1532D03*
X0634Y1536D03*
X06271Y15451D03*
X0627Y1551D03*
X0632Y15295D03*
X06345Y15815D03*
X06335Y15755D03*
X06325Y15795D03*
X06385Y15825D03*
X0628Y15815D03*
Y15785D03*
X06255Y15855D03*
X0638Y1555D03*
X06285Y1541D03*
X06385Y1536D03*
X0629Y1549D03*
Y1589D03*
X06355Y15775D03*
X0637Y1466D03*
X0634Y147D03*
X06271Y14791D03*
X0627Y1485D03*
X0632Y14635D03*
X06335Y15095D03*
X0638Y1489D03*
X06285Y1475D03*
X06385Y147D03*
X0629Y1483D03*
X06345Y15155D03*
X06325Y15135D03*
X06385Y15165D03*
X0628Y15155D03*
Y15125D03*
X06255Y15195D03*
X0629Y1523D03*
X06355Y15115D03*
X0637Y14D03*
X0634Y1404D03*
X06271Y14131D03*
X0627Y1419D03*
X0632Y13975D03*
X06335Y14435D03*
X0638Y1423D03*
X06285Y1409D03*
X06385Y1404D03*
X0629Y1417D03*
X06345Y14495D03*
X06325Y14475D03*
X06385Y14505D03*
X0628Y14495D03*
Y14465D03*
X06255Y14535D03*
X0629Y1457D03*
X06355Y14455D03*
X0637Y1334D03*
X0634Y1338D03*
X06271Y13471D03*
X0627Y1353D03*
X0632Y13315D03*
X06335Y13775D03*
X0638Y1357D03*
X06285Y1343D03*
X06385Y1338D03*
X0629Y1351D03*
X06345Y13835D03*
X06325Y13815D03*
X06385Y13845D03*
X0628Y13835D03*
Y13805D03*
X06255Y13875D03*
X0629Y1391D03*
X06355Y13795D03*
X06745Y151D03*
X068Y1487D03*
X0692Y1512D03*
Y1516D03*
X068Y1494D03*
X0657Y14695D03*
X06655Y1464D03*
X06482Y15073D03*
X0646Y1485D03*
X07027Y14697D03*
X06745Y1444D03*
X068Y1421D03*
X0692Y1446D03*
Y145D03*
X068Y1428D03*
X0657Y14035D03*
X06655Y1398D03*
X06482Y14413D03*
X0646Y1419D03*
X07027Y14037D03*
X06745Y1378D03*
X068Y1355D03*
X0692Y138D03*
Y1384D03*
X068Y1362D03*
X0657Y13375D03*
X06655Y1332D03*
X06482Y13753D03*
X0646Y1353D03*
X07027Y13377D03*
X07485Y1576D03*
X0754Y1553D03*
X0766Y1578D03*
Y1582D03*
X0754Y156D03*
X0731Y15355D03*
X07395Y153D03*
X07222Y15733D03*
X072Y1551D03*
X07767Y15357D03*
X07485Y151D03*
X0754Y1487D03*
X0766Y1512D03*
Y1516D03*
X0754Y1494D03*
X0731Y14695D03*
X07395Y1464D03*
X07222Y15073D03*
X072Y1485D03*
X07767Y14697D03*
X07485Y1444D03*
X0754Y1421D03*
X0766Y1446D03*
Y145D03*
X0754Y1428D03*
X0731Y14035D03*
X07395Y1398D03*
X07222Y14413D03*
X072Y1419D03*
X07767Y14037D03*
X07485Y1378D03*
X0754Y1355D03*
X0766Y138D03*
Y1384D03*
X0754Y1362D03*
X0731Y13375D03*
X07395Y1332D03*
X07222Y13753D03*
X072Y1353D03*
X07767Y13377D03*
X08225Y1576D03*
X0828Y1553D03*
X084Y1578D03*
Y1582D03*
X0828Y156D03*
X0805Y15355D03*
X08135Y153D03*
X07962Y15733D03*
X0794Y1551D03*
X08507Y15357D03*
X08225Y151D03*
X0828Y1487D03*
X084Y1512D03*
Y1516D03*
X0828Y1494D03*
X0805Y14695D03*
X08135Y1464D03*
X07962Y15073D03*
X0794Y1485D03*
X08507Y14697D03*
X08225Y1444D03*
X0828Y1421D03*
X084Y1446D03*
Y145D03*
X0828Y1428D03*
X0805Y14035D03*
X08135Y1398D03*
X07962Y14413D03*
X0794Y1419D03*
X08507Y14037D03*
X08225Y1378D03*
X0828Y1355D03*
X084Y138D03*
Y1384D03*
X0828Y1362D03*
X0805Y13375D03*
X08135Y1332D03*
X07962Y13753D03*
X0794Y1353D03*
X08507Y13377D03*
X08965Y1576D03*
X0902Y1553D03*
X0914Y1578D03*
Y1582D03*
X0902Y156D03*
X0879Y15355D03*
X08875Y153D03*
X08702Y15733D03*
X0868Y1551D03*
X09247Y15357D03*
X08965Y151D03*
X0902Y1487D03*
X0914Y1512D03*
Y1516D03*
X0902Y1494D03*
X0879Y14695D03*
X08875Y1464D03*
X08702Y15073D03*
X0868Y1485D03*
X09247Y14697D03*
X08965Y1444D03*
X0902Y1421D03*
X0914Y1446D03*
Y145D03*
X0902Y1428D03*
X0879Y14035D03*
X08875Y1398D03*
X08702Y14413D03*
X0868Y1419D03*
X09247Y14037D03*
X08965Y1378D03*
X0902Y1355D03*
X0914Y138D03*
Y1384D03*
X0902Y1362D03*
X0879Y13375D03*
X08875Y1332D03*
X08702Y13753D03*
X0868Y1353D03*
X09247Y13377D03*
X08995Y1576D03*
X0894Y1553D03*
X0882Y1578D03*
Y1582D03*
X0894Y156D03*
X0902Y1556D03*
X0894D03*
X0917Y15355D03*
X09085Y153D03*
X09258Y15733D03*
X09245Y15385D03*
X08715D03*
X0928Y1551D03*
X08713Y15357D03*
X08995Y151D03*
X0894Y1487D03*
X0882Y1512D03*
Y1516D03*
X0894Y1494D03*
X0902Y149D03*
X0894D03*
X0917Y14695D03*
X09085Y1464D03*
X09258Y15073D03*
X09245Y14725D03*
X08715D03*
X0928Y1485D03*
X08713Y14697D03*
X08995Y1444D03*
X0894Y1421D03*
X0882Y1446D03*
Y145D03*
X0894Y1428D03*
X0902Y1424D03*
X0894D03*
X0917Y14035D03*
X09085Y1398D03*
X09258Y14413D03*
X09245Y14065D03*
X08715D03*
X0928Y1419D03*
X08713Y14037D03*
X08995Y1378D03*
X0894Y1355D03*
X0882Y138D03*
Y1384D03*
X0894Y1362D03*
X0902Y1358D03*
X0894D03*
X0917Y13375D03*
X09085Y1332D03*
X09258Y13753D03*
X09245Y13405D03*
X08715D03*
X0928Y1353D03*
X08713Y13377D03*
X08255Y1576D03*
X082Y1553D03*
X0808Y1578D03*
Y1582D03*
X082Y156D03*
X0828Y1556D03*
X082D03*
X0843Y15355D03*
X08345Y153D03*
X08518Y15733D03*
X08505Y15385D03*
X07975D03*
X0854Y1551D03*
X07973Y15357D03*
X08255Y151D03*
X082Y1487D03*
X0808Y1512D03*
Y1516D03*
X082Y1494D03*
X0828Y149D03*
X082D03*
X0843Y14695D03*
X08345Y1464D03*
X08518Y15073D03*
X08505Y14725D03*
X07975D03*
X0854Y1485D03*
X07973Y14697D03*
X08255Y1444D03*
X082Y1421D03*
X0808Y1446D03*
Y145D03*
X082Y1428D03*
X0828Y1424D03*
X082D03*
X0843Y14035D03*
X08345Y1398D03*
X08518Y14413D03*
X08505Y14065D03*
X07975D03*
X0854Y1419D03*
X07973Y14037D03*
X08255Y1378D03*
X082Y1355D03*
X0808Y138D03*
Y1384D03*
X082Y1362D03*
X0828Y1358D03*
X082D03*
X0843Y13375D03*
X08345Y1332D03*
X08518Y13753D03*
X08505Y13405D03*
X07975D03*
X0854Y1353D03*
X07973Y13377D03*
X07515Y1576D03*
X0746Y1553D03*
X0734Y1578D03*
Y1582D03*
X0746Y156D03*
X0754Y1556D03*
X0746D03*
X0769Y15355D03*
X07605Y153D03*
X07778Y15733D03*
X07765Y15385D03*
X07235D03*
X078Y1551D03*
X07233Y15357D03*
X07515Y151D03*
X0746Y1487D03*
X0734Y1512D03*
Y1516D03*
X0746Y1494D03*
X0754Y149D03*
X0746D03*
X0769Y14695D03*
X07605Y1464D03*
X07778Y15073D03*
X07765Y14725D03*
X07235D03*
X078Y1485D03*
X07233Y14697D03*
X07515Y1444D03*
X0746Y1421D03*
X0734Y1446D03*
Y145D03*
X0746Y1428D03*
X0754Y1424D03*
X0746D03*
X0769Y14035D03*
X07605Y1398D03*
X07778Y14413D03*
X07765Y14065D03*
X07235D03*
X078Y1419D03*
X07233Y14037D03*
X07515Y1378D03*
X0746Y1355D03*
X0734Y138D03*
Y1384D03*
X0746Y1362D03*
X0754Y1358D03*
X0746D03*
X0769Y13375D03*
X07605Y1332D03*
X07778Y13753D03*
X07765Y13405D03*
X07235D03*
X078Y1353D03*
X07233Y13377D03*
X06775Y1576D03*
X0672Y1553D03*
X066Y1578D03*
Y1582D03*
X0672Y156D03*
X068Y1556D03*
X0672D03*
X0695Y15355D03*
X06865Y153D03*
X07038Y15733D03*
X07025Y15385D03*
X06495D03*
X0706Y1551D03*
X06493Y15357D03*
X06775Y151D03*
X0672Y1487D03*
X066Y1512D03*
Y1516D03*
X0672Y1494D03*
X068Y149D03*
X0672D03*
X0695Y14695D03*
X06865Y1464D03*
X07038Y15073D03*
X07025Y14725D03*
X06495D03*
X0706Y1485D03*
X06493Y14697D03*
X06775Y1444D03*
X0672Y1421D03*
X066Y1446D03*
Y145D03*
X0672Y1428D03*
X068Y1424D03*
X0672D03*
X0695Y14035D03*
X06865Y1398D03*
X07038Y14413D03*
X07025Y14065D03*
X06495D03*
X0706Y1419D03*
X06493Y14037D03*
X06775Y1378D03*
X0672Y1355D03*
X066Y138D03*
Y1384D03*
X0672Y1362D03*
X068Y1358D03*
X0672D03*
X0695Y13375D03*
X06865Y1332D03*
X07038Y13753D03*
X07025Y13405D03*
X06495D03*
X0706Y1353D03*
X06493Y13377D03*
G54D21*
X06206Y13997D03*
Y14482D03*
Y14657D03*
Y15142D03*
Y15802D03*
Y15317D03*
Y13337D03*
Y13822D03*
G54D22*
X06333Y14072D03*
Y14092D03*
Y14112D03*
Y14131D03*
Y14151D03*
Y14171D03*
Y1419D03*
Y1421D03*
Y1423D03*
Y14249D03*
Y14269D03*
Y14289D03*
Y14308D03*
Y14328D03*
Y14348D03*
Y14367D03*
Y14387D03*
Y14407D03*
Y14732D03*
Y14752D03*
Y14772D03*
Y14791D03*
Y14811D03*
Y14831D03*
Y1485D03*
Y1487D03*
Y1489D03*
Y14909D03*
Y14929D03*
Y14949D03*
Y14968D03*
Y14988D03*
Y15008D03*
Y15027D03*
Y15047D03*
Y15067D03*
Y15727D03*
Y15707D03*
Y15687D03*
Y15668D03*
Y15648D03*
Y15628D03*
Y15609D03*
Y15589D03*
Y15569D03*
Y1555D03*
Y1553D03*
Y1551D03*
Y15491D03*
Y15471D03*
Y15451D03*
Y15432D03*
Y15412D03*
Y15392D03*
Y13412D03*
Y13432D03*
Y13452D03*
Y13471D03*
Y13491D03*
Y13511D03*
Y1353D03*
Y1355D03*
Y1357D03*
Y13589D03*
Y13609D03*
Y13629D03*
Y13648D03*
Y13668D03*
Y13688D03*
Y13707D03*
Y13727D03*
Y13747D03*
G54D23*
X0943Y14555D02*
X09435D01*
X0937Y1358D02*
Y1424D01*
Y1448*
X09445Y14555*
X0943D02*
D01*
Y14655*
X09445Y14555D02*
Y14655D01*
X09455Y14555D02*
D01*
X0946D02*
D01*
Y14655*
X0937Y1473D02*
X09445Y14655D01*
X0937Y1473D02*
Y149D01*
Y15555*
M02*