%FSTAX23Y23*%
%MOIN*%
%SFA1B1*%

%IPPOS*%
%ADD10R,0.030000X0.030000*%
%ADD11R,0.060000X0.050000*%
%ADD12R,0.086610X0.021650*%
%ADD13R,0.050000X0.060000*%
%ADD14R,0.050000X0.050000*%
%ADD15R,0.037400X0.033470*%
%ADD16C,0.004000*%
%ADD17C,0.008000*%
%ADD18C,0.059060*%
%ADD19R,0.059060X0.059060*%
%ADD20C,0.022000*%
%LNpeak_detector_with_banking-1*%
%LPD*%
G54D10*
X093Y15355D03*
Y153D03*
Y14695D03*
Y1464D03*
X08193Y15301D03*
Y15356D03*
X07453Y15301D03*
Y15356D03*
X07728Y15357D03*
Y15302D03*
X06713Y15301D03*
Y15356D03*
X06988Y15357D03*
Y15302D03*
X08193Y14641D03*
Y14696D03*
X08468Y14697D03*
Y14642D03*
X07453Y14641D03*
Y14696D03*
X07728Y14697D03*
Y14642D03*
X06713Y14641D03*
Y14696D03*
X06988Y14697D03*
Y14642D03*
X08193Y13981D03*
Y14036D03*
X08468Y14037D03*
Y13982D03*
X07453Y13981D03*
Y14036D03*
X07728Y14037D03*
Y13982D03*
X06713Y13981D03*
Y14036D03*
X06988Y14037D03*
Y13982D03*
X08193Y13321D03*
Y13376D03*
X08468Y13377D03*
Y13322D03*
X07453Y13321D03*
Y13376D03*
X07728Y13377D03*
Y13322D03*
X06713Y13321D03*
Y13376D03*
X06988Y13377D03*
Y13322D03*
X08102D03*
Y13377D03*
X0856Y1332D03*
Y13375D03*
X08102Y13982D03*
Y14037D03*
X0856Y1398D03*
Y14035D03*
X08102Y14642D03*
Y14697D03*
X0856Y1464D03*
Y14695D03*
X08102Y15302D03*
Y15357D03*
X0856Y153D03*
Y15355D03*
X07362Y13322D03*
Y13377D03*
X0782Y1332D03*
Y13375D03*
X07362Y13982D03*
Y14037D03*
X0782Y1398D03*
Y14035D03*
X07362Y14642D03*
Y14697D03*
X0782Y1464D03*
Y14695D03*
X07362Y15302D03*
Y15357D03*
X0782Y153D03*
Y15355D03*
X0708Y1398D03*
Y14035D03*
X06622Y14642D03*
Y14697D03*
X0708Y1464D03*
Y14695D03*
X06622Y15302D03*
Y15357D03*
X0708Y153D03*
Y15355D03*
X06622Y13322D03*
Y13377D03*
X0708Y1332D03*
Y13375D03*
X06622Y13982D03*
Y14037D03*
X0697Y14395D03*
Y1434D03*
X0801Y15301D03*
Y15356D03*
X0727Y15301D03*
Y15356D03*
X0653Y15301D03*
Y15356D03*
X0801Y14641D03*
Y14696D03*
X0727Y14641D03*
Y14696D03*
X0653Y14641D03*
Y14696D03*
X0801Y13981D03*
Y14036D03*
X0727Y13981D03*
Y14036D03*
X0653Y13981D03*
Y14036D03*
X0801Y13321D03*
Y13376D03*
X0727Y13321D03*
Y13376D03*
X0653Y13321D03*
Y13376D03*
X08285Y15301D03*
X07545D03*
X06805D03*
X08285Y14641D03*
X07545D03*
X06805D03*
X08285Y13981D03*
X07545D03*
X06805D03*
X08285Y13321D03*
X07545D03*
X06805D03*
X08285Y15356D03*
X07545D03*
X06805D03*
X08285Y14696D03*
X07545D03*
X06805D03*
X08285Y14036D03*
X07545D03*
X06805D03*
X08285Y13376D03*
X07545D03*
X06805D03*
X08376Y15301D03*
X07636D03*
X06896D03*
X08376Y14641D03*
X07636D03*
X06896D03*
X08376Y13981D03*
X07636D03*
X06896D03*
X08376Y13321D03*
X07636D03*
X06896D03*
X0845Y1566D03*
X0771D03*
X0697D03*
X0845Y15D03*
X0771D03*
X0697D03*
X0845Y1434D03*
X0771D03*
X0845Y1368D03*
X0771D03*
X0697D03*
X08376Y15356D03*
X07636D03*
X06896D03*
X08376Y14696D03*
X07636D03*
X06896D03*
X08376Y14036D03*
X07636D03*
X06896D03*
X08376Y13376D03*
X07636D03*
X06896D03*
X07919Y15357D03*
X07179D03*
X06439D03*
X07919Y14697D03*
X07179D03*
X06439D03*
X07919Y14037D03*
X07179D03*
X06439D03*
X07919Y13377D03*
X07179D03*
X06439D03*
X07919Y15302D03*
X07179D03*
X06439D03*
X07919Y14642D03*
X07179D03*
X06439D03*
X07919Y13982D03*
X07179D03*
X06439D03*
X07919Y13322D03*
X07179D03*
X06439D03*
X0845Y15715D03*
Y15055D03*
Y14395D03*
Y13735D03*
X0771Y15715D03*
Y15055D03*
Y14395D03*
Y13735D03*
X0697Y15715D03*
Y15055D03*
Y13735D03*
X08659Y14037D03*
Y13982D03*
X0919Y15055D03*
Y15D03*
Y1434D03*
Y14395D03*
X09025Y15356D03*
Y15301D03*
Y14696D03*
Y14641D03*
Y13981D03*
Y14036D03*
Y13376D03*
Y13321D03*
X0875Y13981D03*
Y14036D03*
X0919Y13735D03*
Y1368D03*
X08659Y15302D03*
Y15357D03*
Y14642D03*
Y14697D03*
X0875Y14696D03*
Y14641D03*
X093Y1398D03*
Y14035D03*
Y13375D03*
Y1332D03*
X08842Y15357D03*
Y15302D03*
Y14697D03*
Y14642D03*
Y13982D03*
Y14037D03*
X0875Y13376D03*
Y13321D03*
Y15356D03*
Y15301D03*
X0919Y15715D03*
Y1566D03*
X08659Y13322D03*
Y13377D03*
X09116Y15356D03*
Y15301D03*
Y14696D03*
Y14641D03*
Y13981D03*
Y14036D03*
Y13376D03*
Y13321D03*
X08933Y15301D03*
Y15356D03*
Y14641D03*
Y14696D03*
Y14036D03*
Y13981D03*
Y13321D03*
Y13376D03*
X09208Y15302D03*
Y15357D03*
Y14642D03*
Y14697D03*
Y14037D03*
Y13982D03*
Y13322D03*
Y13377D03*
X08842Y13322D03*
Y13377D03*
X08468Y15357D03*
Y15302D03*
G54D11*
X06815Y15805D03*
X06705D03*
X0845Y1556D03*
X0854D03*
X08539Y1545D03*
X08449D03*
X08185Y15805D03*
X08295D03*
X0771Y1556D03*
X078D03*
X07799Y1545D03*
X07709D03*
X07445Y15805D03*
X07555D03*
X0697Y1556D03*
X0706D03*
X07059Y1545D03*
X06969D03*
X0845Y149D03*
X0854D03*
X08539Y1479D03*
X08449D03*
X08185Y15145D03*
X08295D03*
X0771Y149D03*
X078D03*
X07799Y1479D03*
X07709D03*
X07445Y15145D03*
X07555D03*
X0697Y149D03*
X0706D03*
X07059Y1479D03*
X06969D03*
X06705Y15145D03*
X06815D03*
X0845Y1424D03*
X0854D03*
X08539Y1413D03*
X08449D03*
X08185Y14485D03*
X08295D03*
X0771Y1424D03*
X078D03*
X07799Y1413D03*
X07709D03*
X07445Y14485D03*
X07555D03*
X0697Y1424D03*
X0706D03*
X07059Y1413D03*
X06969D03*
X06705Y14485D03*
X06815D03*
X0845Y1358D03*
X0854D03*
X08539Y1347D03*
X08449D03*
X08185Y13825D03*
X08295D03*
X0771Y1358D03*
X078D03*
X07799Y1347D03*
X07709D03*
X07445Y13825D03*
X07555D03*
X0697Y1358D03*
X0706D03*
X07059Y1347D03*
X06969D03*
X06705Y13825D03*
X06815D03*
X08925Y15805D03*
X09035D03*
X08925Y15145D03*
X09035D03*
Y14485D03*
X08925D03*
X0919Y1556D03*
X0928D03*
X0919Y149D03*
X0928D03*
Y1424D03*
X0919D03*
Y1358D03*
X0928D03*
X09279Y1545D03*
X09189D03*
X09279Y1479D03*
X09189D03*
Y1413D03*
X09279D03*
X09189Y1347D03*
X09279D03*
X09035Y13825D03*
X08925D03*
G54D12*
X08137Y1355D03*
Y135D03*
Y1345D03*
X08342Y1355D03*
X08137Y1375D03*
Y1365D03*
X08342Y137D03*
X08137D03*
X08342Y135D03*
Y1375D03*
Y1345D03*
Y1365D03*
Y136D03*
X08137D03*
X06657Y1421D03*
Y1416D03*
Y1411D03*
X06862Y1421D03*
X06657Y1441D03*
X06862Y1436D03*
X06657D03*
Y1431D03*
X06862Y1416D03*
Y1441D03*
Y1411D03*
Y1431D03*
Y1426D03*
X06657D03*
X08137Y1558D03*
X07397D03*
X06657D03*
X08137Y1492D03*
X07397D03*
X06657D03*
X08137Y1426D03*
X07397D03*
Y136D03*
X08342Y1558D03*
X07602D03*
X06862D03*
X08342Y1492D03*
X07602D03*
X06862D03*
X08342Y1426D03*
X07602D03*
Y136D03*
X08342Y1563D03*
Y1543D03*
X07602Y1563D03*
Y1543D03*
X06862Y1563D03*
Y1543D03*
X08342Y1497D03*
Y1477D03*
X07602Y1497D03*
Y1477D03*
X06862Y1497D03*
Y1477D03*
X08342Y1431D03*
Y1411D03*
X07602Y1431D03*
Y1411D03*
Y1365D03*
Y1345D03*
X08342Y1573D03*
X07602D03*
X06862D03*
X08342Y1507D03*
X07602D03*
X06862D03*
X08342Y1441D03*
X07602D03*
Y1375D03*
X08342Y1548D03*
X07602D03*
X06862D03*
X08342Y1482D03*
X07602D03*
X06862D03*
X08342Y1416D03*
X07602D03*
Y135D03*
X08137Y1568D03*
X07397D03*
X06657D03*
X08137Y1502D03*
X07397D03*
X06657D03*
X08137Y1436D03*
X07397D03*
Y137D03*
X08342Y1568D03*
X07602D03*
X06862D03*
X08342Y1502D03*
X07602D03*
X06862D03*
X08342Y1436D03*
X07602D03*
Y137D03*
X08137Y1563D03*
X07397D03*
X06657D03*
X08137Y1497D03*
X07397D03*
X06657D03*
X08137Y1431D03*
X07397D03*
Y1365D03*
X08137Y1573D03*
Y1507D03*
Y1441D03*
X07397Y1573D03*
Y1507D03*
Y1441D03*
Y1375D03*
X06657Y1573D03*
Y1507D03*
X08342Y1553D03*
X07602D03*
X06862D03*
X08342Y1487D03*
X07602D03*
X06862D03*
X08342Y1421D03*
X07602D03*
Y1355D03*
X07397D03*
Y135D03*
Y1345D03*
Y1421D03*
Y1416D03*
Y1411D03*
X08137D03*
Y1416D03*
Y1421D03*
X06657Y1477D03*
Y1482D03*
Y1487D03*
X07397D03*
Y1482D03*
Y1477D03*
X08137D03*
Y1482D03*
Y1487D03*
X06657Y1543D03*
Y1548D03*
Y1553D03*
X07397D03*
Y1548D03*
Y1543D03*
X08137D03*
Y1548D03*
Y1553D03*
X08877Y1543D03*
Y1548D03*
Y1553D03*
X09082D03*
X08877Y1573D03*
Y1563D03*
X09082Y1568D03*
X08877D03*
X09082Y1548D03*
Y1573D03*
Y1543D03*
Y1563D03*
Y1558D03*
X08877D03*
Y1477D03*
Y1482D03*
Y1487D03*
X09082D03*
X08877Y1507D03*
Y1497D03*
X09082Y1502D03*
X08877D03*
X09082Y1482D03*
Y1507D03*
Y1477D03*
Y1497D03*
Y1492D03*
X08877D03*
Y1426D03*
X09082D03*
Y1431D03*
Y1411D03*
Y1441D03*
Y1416D03*
X08877Y1436D03*
X09082D03*
X08877Y1431D03*
Y1441D03*
X09082Y1421D03*
X08877D03*
Y1416D03*
Y1411D03*
Y136D03*
X09082D03*
Y1365D03*
Y1345D03*
Y1375D03*
Y135D03*
X08877Y137D03*
X09082D03*
X08877Y1365D03*
Y1375D03*
X09082Y1355D03*
X08877D03*
Y135D03*
Y1345D03*
X06657Y1355D03*
Y135D03*
Y1345D03*
X06862Y1355D03*
X06657Y1375D03*
Y1365D03*
X06862Y137D03*
X06657D03*
X06862Y135D03*
Y1375D03*
Y1345D03*
Y1365D03*
Y136D03*
X06657D03*
G54D13*
X0855Y1567D03*
Y1578D03*
X0804Y15549D03*
Y15459D03*
X0781Y1567D03*
Y1578D03*
X073Y15549D03*
Y15459D03*
X0707Y1567D03*
Y1578D03*
X0656Y15549D03*
Y15459D03*
X0855Y1501D03*
Y1512D03*
X0804Y14889D03*
Y14799D03*
X0781Y1501D03*
Y1512D03*
X073Y14889D03*
Y14799D03*
X0707Y1501D03*
Y1512D03*
X0656Y14889D03*
Y14799D03*
X0855Y1435D03*
Y1446D03*
X0804Y14229D03*
Y14139D03*
X0781Y1435D03*
Y1446D03*
X073Y14229D03*
Y14139D03*
X0707Y1435D03*
Y1446D03*
X0656Y14229D03*
Y14139D03*
X0855Y1369D03*
Y138D03*
X0804Y13569D03*
Y13479D03*
X0781Y1369D03*
Y138D03*
X073Y13569D03*
Y13479D03*
X0707Y1369D03*
Y138D03*
X0656Y13569D03*
Y13479D03*
X0929Y1578D03*
Y1567D03*
Y1512D03*
Y1501D03*
Y1435D03*
Y1446D03*
Y138D03*
Y1369D03*
X0878Y15549D03*
Y15459D03*
Y14889D03*
Y14799D03*
Y14139D03*
Y14229D03*
Y13569D03*
Y13479D03*
G54D14*
X07935Y15595D03*
Y1546D03*
X07195Y15595D03*
Y1546D03*
X06455Y15595D03*
Y1546D03*
X07935Y14935D03*
Y148D03*
X07195Y14935D03*
Y148D03*
X06455Y14935D03*
Y148D03*
X07935Y14275D03*
Y1414D03*
X07195Y14275D03*
Y1414D03*
X06455Y14275D03*
Y1414D03*
X07935Y13615D03*
Y1348D03*
X07195Y13615D03*
Y1348D03*
X06455Y13615D03*
Y1348D03*
X08675Y1546D03*
Y15595D03*
Y148D03*
Y14935D03*
Y14275D03*
Y1414D03*
Y13615D03*
Y1348D03*
G54D15*
X07276Y1379D03*
X07183Y13752D03*
Y13827D03*
X06536Y1445D03*
X06443Y14412D03*
Y14487D03*
X08016Y1577D03*
X07923Y15732D03*
Y15807D03*
X07276Y1577D03*
X07183Y15732D03*
Y15807D03*
X06536Y1577D03*
X06443Y15732D03*
Y15807D03*
X08016Y1511D03*
X07923Y15072D03*
Y15147D03*
X07276Y1511D03*
X07183Y15072D03*
Y15147D03*
X06536Y1511D03*
X06443Y15072D03*
Y15147D03*
X08016Y1445D03*
X07923Y14412D03*
Y14487D03*
X07276Y1445D03*
X07183Y14412D03*
Y14487D03*
X08016Y1379D03*
X07923Y13752D03*
Y13827D03*
X08663Y15147D03*
Y15072D03*
X08756Y1511D03*
X08663Y13827D03*
Y13752D03*
X08756Y1379D03*
Y1445D03*
X08663Y14412D03*
Y14487D03*
Y15807D03*
Y15732D03*
X08756Y1577D03*
X06443Y13827D03*
Y13752D03*
X06536Y1379D03*
G54D16*
X0702Y1567D02*
Y1573D01*
Y15613D02*
Y1567D01*
X06795Y152D02*
X07505D01*
X07515Y1519*
X07525Y1524D02*
X07545Y1522D01*
X0826*
X0752Y1523D02*
X0754Y1521D01*
X07515Y1522D02*
X07535Y152D01*
X0751Y1521D02*
X0753Y1519D01*
X06815Y1524D02*
X07525D01*
X06795Y1526D02*
X06815Y1524D01*
X0681Y1523D02*
X0752D01*
X0679Y1525D02*
X0681Y1523D01*
X06805Y1522D02*
X07515D01*
X06785Y1524D02*
X06805Y1522D01*
X068Y1521D02*
X0751D01*
X0678Y1523D02*
X068Y1521D01*
Y15585D02*
X06805Y1558D01*
X06917Y1544D02*
Y15625D01*
X06912Y1563D02*
X06917Y15625D01*
X06907Y1543D02*
X06917Y1544D01*
X0669Y1573D02*
X0671Y1571D01*
X0664Y15302D02*
X06642Y153D01*
X06421Y15428D02*
X06439Y1541D01*
X06522Y15329D02*
X06531Y1532D01*
X06412Y15339D02*
X06422Y15329D01*
X06522*
X06916Y15647D02*
X06925Y15638D01*
Y15413D02*
Y15638D01*
X06897Y15385D02*
X06925Y15413D01*
X06933Y15421D02*
X06944Y1541D01*
X06715Y1568D02*
X06735Y1566D01*
X0648Y1551D02*
X06519Y15549D01*
X066Y1547D02*
Y1563D01*
X0659Y1546D02*
X066Y1547D01*
X0656Y1542D02*
X0657Y1541D01*
X067Y1584D02*
X06705Y15834D01*
X0642Y1584D02*
X067D01*
X06403Y15823D02*
X0642Y1584D01*
X06403Y15316D02*
Y15823D01*
Y15316D02*
X06417Y15302D01*
X07009Y15602D02*
X0702Y15613D01*
X0695Y158D02*
X0702Y1573D01*
X06885Y15805D02*
X0689Y158D01*
X0695*
X0699Y156D02*
X07Y1561D01*
X0699Y1558D02*
Y156D01*
X0694Y1582D02*
X0695Y1583D01*
Y1578D02*
X07Y1573D01*
X0692Y1568D02*
X0693Y1569D01*
X068Y1541D02*
X0683Y1538D01*
X068Y1547D02*
X0681Y1548D01*
X0683Y1534D02*
Y1538D01*
X0682Y1533D02*
X0683Y1534D01*
X0689Y1528D02*
X06896Y15286D01*
X068Y1541D02*
Y1547D01*
X0676Y15356D02*
Y15357D01*
X06851Y15399D02*
X0687Y1538D01*
X06833Y1533D02*
X0685D01*
X06775Y1522D02*
X06795Y152D01*
X0679Y1519D02*
X07485D01*
X08985Y1388D02*
X08995Y1387D01*
X08245Y1388D02*
X08255Y1387D01*
X07505Y1388D02*
X07515Y1387D01*
X06765Y1388D02*
X06775Y1387D01*
X06795Y1394D02*
X06815Y1392D01*
X07525*
X07545Y139*
X0826*
X0828Y1388*
X08985*
X08275Y1387D02*
X08965D01*
X0679Y1393D02*
X0681Y1391D01*
X0752*
X0754Y1389*
X08255*
X08275Y1387*
X06785Y1392D02*
X06805Y139D01*
X07515*
X07535Y1388*
X08245*
X0753Y1387D02*
X08225D01*
X0678Y1391D02*
X068Y1389D01*
X0751*
X0753Y1387*
X06775Y139D02*
X06795Y1388D01*
X07505*
X0677Y1389D02*
X0679Y1387D01*
X07485*
X08985Y1454D02*
X08995Y1453D01*
X08245Y1454D02*
X08255Y1453D01*
X07505Y1454D02*
X07515Y1453D01*
X06765Y1454D02*
X06775Y1453D01*
X06795Y146D02*
X06815Y1458D01*
X07525*
X07545Y1456*
X0826*
X0828Y1454*
X08985*
X08275Y1453D02*
X08965D01*
X0679Y1459D02*
X0681Y1457D01*
X0752*
X0754Y1455*
X08255*
X08275Y1453*
X06785Y1458D02*
X06805Y1456D01*
X07515*
X07535Y1454*
X08245*
X0753Y1453D02*
X08225D01*
X0678Y1457D02*
X068Y1455D01*
X0751*
X0753Y1453*
X06775Y1456D02*
X06795Y1454D01*
X07505*
X0677Y1455D02*
X0679Y1453D01*
X07485*
X08985Y152D02*
X08995Y1519D01*
X08245Y152D02*
X08255Y1519D01*
X06765Y152D02*
X06775Y1519D01*
X0826Y1522D02*
X0828Y152D01*
X08985*
X08275Y1519D02*
X08965D01*
X0754Y1521D02*
X08255D01*
X08275Y1519*
X07535Y152D02*
X08245D01*
X0753Y1519D02*
X08225D01*
X0677Y1521D02*
X0679Y1519D01*
X08985Y1586D02*
X08995Y1585D01*
X08245Y1586D02*
X08255Y1585D01*
X07505Y1586D02*
X07515Y1585D01*
X06765Y1586D02*
X06775Y1585D01*
X06795Y1592D02*
X06815Y159D01*
X07525*
X07545Y1588*
X0826*
X0828Y1586*
X08985*
X08275Y1585D02*
X08965D01*
X0679Y1591D02*
X0681Y1589D01*
X0752*
X0754Y1587*
X08255*
X08275Y1585*
X06785Y159D02*
X06805Y1588D01*
X07515*
X07535Y1586*
X08245*
X0753Y1585D02*
X08225D01*
X0678Y1589D02*
X068Y1587D01*
X0751*
X0753Y1585*
X06775Y1588D02*
X06795Y1586D01*
X07505*
X0677Y1587D02*
X0679Y1585D01*
X07485*
X0639Y1587D02*
X0677D01*
X06385Y1588D02*
X06775D01*
X0638Y1589D02*
X0678D01*
X06395Y1586D02*
X06765D01*
X0641Y1585D02*
X06745D01*
X06365Y1583D02*
X06395Y1586D01*
X0635Y15845D02*
X06385Y1588D01*
X06345Y15855D02*
X0638Y1589D01*
X0632Y15855D02*
X06345D01*
X06255Y1591D02*
X06265Y1592D01*
X06795*
X0627Y15865D02*
Y159D01*
X0628Y1591*
X0627Y15865D02*
X06275Y1586D01*
Y1584D02*
Y1586D01*
X0628Y1591D02*
X0679D01*
X0631Y1589D02*
X0632Y159D01*
X06785*
X0626Y15825D02*
X06275Y1584D01*
X0631Y1583D02*
X06325Y15845D01*
X0631Y1581D02*
Y1583D01*
X06325Y15845D02*
X0635D01*
X06355Y15825D02*
Y15835D01*
X0639Y1587*
X0626Y15805D02*
Y15825D01*
X0639Y1521D02*
X0677D01*
X06385Y1522D02*
X06775D01*
X0638Y1523D02*
X0678D01*
X06395Y152D02*
X06765D01*
X0641Y1519D02*
X06745D01*
X06365Y1517D02*
X06395Y152D01*
X06365Y1516D02*
Y1517D01*
X0635Y15185D02*
X06385Y1522D01*
X06345Y15195D02*
X0638Y1523D01*
X0632Y15195D02*
X06345D01*
X06375Y15115D02*
X06385Y15125D01*
Y1514*
X06365Y1516D02*
X06385Y1514D01*
X06255Y1525D02*
X06265Y1526D01*
X0627Y15205D02*
Y1524D01*
X0628Y1525*
X0627Y15205D02*
X06275Y152D01*
Y1518D02*
Y152D01*
X0631Y1523D02*
X0632Y1524D01*
X0626Y15165D02*
X06275Y1518D01*
X0631Y1517D02*
X06325Y15185D01*
X0631Y1515D02*
Y1517D01*
X06325Y15185D02*
X0635D01*
X06355Y15165D02*
Y15175D01*
X0639Y1521*
X0626Y15145D02*
Y15165D01*
X06265Y1526D02*
X06795D01*
X0628Y1525D02*
X0679D01*
X0632Y1524D02*
X06785D01*
X0639Y1455D02*
X0677D01*
X06385Y1456D02*
X06775D01*
X0638Y1457D02*
X0678D01*
X06395Y1454D02*
X06765D01*
X0641Y1453D02*
X06745D01*
X06365Y1451D02*
X06395Y1454D01*
X06365Y145D02*
Y1451D01*
X0635Y14525D02*
X06385Y1456D01*
X06345Y14535D02*
X0638Y1457D01*
X0632Y14535D02*
X06345D01*
X06375Y14455D02*
X06385Y14465D01*
Y1448*
X06365Y145D02*
X06385Y1448D01*
X06255Y1459D02*
X06265Y146D01*
X0627Y14545D02*
Y1458D01*
X0628Y1459*
X0627Y14545D02*
X06275Y1454D01*
Y1452D02*
Y1454D01*
X0631Y1457D02*
X0632Y1458D01*
X0626Y14505D02*
X06275Y1452D01*
X0631Y1451D02*
X06325Y14525D01*
X0631Y1449D02*
Y1451D01*
X06325Y14525D02*
X0635D01*
X06355Y14505D02*
Y14515D01*
X0639Y1455*
X0626Y14485D02*
Y14505D01*
X06265Y146D02*
X06795D01*
X0628Y1459D02*
X0679D01*
X0632Y1458D02*
X06785D01*
X0639Y1389D02*
X0677D01*
X06385Y139D02*
X06775D01*
X0638Y1391D02*
X0678D01*
X06395Y1388D02*
X06765D01*
X0641Y1387D02*
X06745D01*
X06365Y1385D02*
X06395Y1388D01*
X06365Y1384D02*
Y1385D01*
X0635Y13865D02*
X06385Y139D01*
X06345Y13875D02*
X0638Y1391D01*
X0632Y13875D02*
X06345D01*
X06375Y13795D02*
X06385Y13805D01*
Y1382*
X06365Y1384D02*
X06385Y1382D01*
X06255Y1393D02*
X06265Y1394D01*
X0627Y13885D02*
Y1392D01*
X0628Y1393*
X0627Y13885D02*
X06275Y1388D01*
Y1386D02*
Y1388D01*
X0631Y1391D02*
X0632Y1392D01*
X0626Y13845D02*
X06275Y1386D01*
X0631Y1385D02*
X06325Y13865D01*
X0631Y1383D02*
Y1385D01*
X06325Y13865D02*
X0635D01*
X06355Y13845D02*
Y13855D01*
X0639Y1389*
X0626Y13825D02*
Y13845D01*
X06265Y1394D02*
X06795D01*
X0628Y1393D02*
X0679D01*
X0632Y1392D02*
X06785D01*
X06726Y15302D02*
X06742D01*
X06365Y15785D02*
Y1583D01*
X06742Y15302D02*
X06763Y1528D01*
X06742Y15302D02*
X0677Y1533D01*
X06763Y1528D02*
X0689D01*
X0677Y1533D02*
X0682D01*
X07104Y15324D02*
Y1545D01*
X0702Y15555D02*
X07025Y1556D01*
X0706Y1583D02*
X0707Y1582D01*
X0695Y1583D02*
X0706D01*
X07104Y15768D02*
Y15776D01*
X07099Y1578D02*
X07104Y15776D01*
X06515Y154D02*
X0655D01*
X0657Y1538*
X06412Y15339D02*
Y15753D01*
X06443Y15784*
X06421Y15428D02*
Y15622D01*
X06536Y15737*
X06484Y15659D02*
X0671D01*
X06722Y15647D02*
X06916D01*
X0671Y15659D02*
X06722Y15647D01*
X06455Y1563D02*
X06484Y15659D01*
X06969Y15484D02*
X07009Y15524D01*
Y15602*
X0646Y1551D02*
X0648D01*
X06622Y15302D02*
X0664D01*
X06443Y15732D02*
X06444D01*
X06519Y15549D02*
X0656D01*
X06642Y153D02*
X06655D01*
X06988Y15357D02*
X07027D01*
X068Y1553D02*
X06862D01*
X06455Y1546D02*
X06515Y154D01*
X0657Y15355D02*
Y1538D01*
X06385Y13845D02*
X0641Y1387D01*
X06745Y1378D02*
Y1387D01*
X06385Y14505D02*
X0641Y1453D01*
X06745Y1444D02*
Y1453D01*
X06385Y15165D02*
X0641Y1519D01*
X06745Y151D02*
Y1519D01*
X06385Y15825D02*
X0641Y1585D01*
X06735Y1571D02*
Y15745D01*
X0671Y1571D02*
X06735D01*
X06965*
X06657Y1573D02*
X0669D01*
X06735Y15745D02*
X06745Y1576D01*
X06965Y1571D02*
X0697Y15715D01*
X06745Y1576D02*
Y1585D01*
X06345Y13835D02*
X06355Y13845D01*
X07485Y1378D02*
Y1387D01*
X06345Y14495D02*
X06355Y14505D01*
X07485Y1444D02*
Y1453D01*
X06345Y15155D02*
X06355Y15165D01*
X07485Y151D02*
Y1519D01*
X06345Y15815D02*
X06355Y15825D01*
X07485Y1576D02*
Y1585D01*
X0628Y13835D02*
X0632Y13875D01*
X08225Y1378D02*
Y1387D01*
X0628Y14495D02*
X0632Y14535D01*
X08225Y1444D02*
Y1453D01*
X0628Y15155D02*
X0632Y15195D01*
X08225Y151D02*
Y1519D01*
X0628Y15815D02*
X0632Y15855D01*
X08225Y1576D02*
Y1585D01*
X0626Y13825D02*
X0628Y13805D01*
X08965Y1378D02*
Y1387D01*
X0626Y14485D02*
X0628Y14465D01*
X08965Y1444D02*
Y1453D01*
X0626Y15145D02*
X0628Y15125D01*
X08965Y151D02*
Y1519D01*
X0626Y15805D02*
X0628Y15785D01*
X08965Y1576D02*
Y1585D01*
X06255Y13875D02*
Y1393D01*
X08995Y1378D02*
Y1387D01*
X06255Y14535D02*
Y1459D01*
X08995Y1444D02*
Y1453D01*
X06255Y15195D02*
Y1525D01*
X08995Y151D02*
Y1519D01*
X06255Y15855D02*
Y1591D01*
X08995Y1576D02*
Y1585D01*
X0629Y1391D02*
X0631D01*
X08255Y1378D02*
Y1387D01*
X0629Y1457D02*
X0631D01*
X08255Y1444D02*
Y1453D01*
X0629Y1523D02*
X0631D01*
X08255Y151D02*
Y1519D01*
X0629Y1589D02*
X0631D01*
X08255Y1576D02*
Y1585D01*
X0631Y1383D02*
X06325Y13815D01*
X07515Y1378D02*
Y1387D01*
X0631Y1449D02*
X06325Y14475D01*
X07515Y1444D02*
Y1453D01*
X0631Y1515D02*
X06325Y15135D01*
X07515Y151D02*
Y1519D01*
X0631Y1581D02*
X06325Y15795D01*
X07515Y1576D02*
Y1585D01*
X06355Y13795D02*
X06375D01*
X06775Y1378D02*
Y1387D01*
X06355Y14455D02*
X06375D01*
X06775Y1444D02*
Y1453D01*
X06355Y15115D02*
X06375D01*
X06775Y151D02*
Y1519D01*
X06355Y15775D02*
X06365Y15785D01*
X06775Y1576D02*
Y1585D01*
X06417Y15302D02*
X06439D01*
X0656Y1546D02*
X0659D01*
X066Y1563D02*
X06657D01*
X06705Y158D02*
Y15805D01*
Y15834*
X06531Y15301D02*
Y1532D01*
X06443Y15784D02*
Y15807D01*
X0653Y15301D02*
X06531D01*
X06439Y15353D02*
Y15357D01*
Y1541*
X06536Y15737D02*
Y1577D01*
X06537*
X06455Y15595D02*
Y1563D01*
X06897Y15356D02*
Y15385D01*
X06896Y15356D02*
X06897D01*
X06862Y1568D02*
X0692D01*
X06862Y15681D02*
X06862D01*
X0697Y1556D02*
Y1556D01*
X0693Y1569D02*
X07D01*
X0692Y1582D02*
X0694D01*
X0692Y1578D02*
X0695D01*
X0697Y1556D02*
D01*
X0699Y1558*
X0708Y153D02*
X07104Y15324D01*
X07059Y1545D02*
X07104D01*
X07103Y15768D02*
X07104Y1545D01*
X07Y1561D02*
Y1569D01*
Y1573*
X0707Y1578D02*
Y1582D01*
Y1578D02*
X07099D01*
X06933Y15421D02*
Y1566D01*
X06944Y1541D02*
X0702D01*
X07025*
X06657Y1568D02*
X06715D01*
X06735Y1566D02*
X06933D01*
X0697*
X0702Y1541D02*
Y15555D01*
X07025Y1541D02*
X0708Y15355D01*
X07025Y1556D02*
X0706D01*
X06896Y15286D02*
Y15301D01*
X06897*
X0681Y1548D02*
X06862D01*
X06713Y15356D02*
Y15357D01*
X0676*
Y15356D02*
X06805D01*
X06862Y1573D02*
Y15805D01*
X06815D02*
X06862D01*
X06885*
X06969Y1545D02*
Y15484D01*
X0702Y1567D02*
X0707D01*
X06805Y15301D02*
X06833Y1533D01*
X06851D02*
X0687D01*
X0696*
X06851Y15399D02*
Y1543D01*
X0687Y1533D02*
Y1538D01*
X06851Y1543D02*
X06862D01*
X06907*
X0696Y1533D02*
X06988Y15302D01*
X06862Y1563D02*
X06912D01*
X068Y15585D02*
Y156D01*
X06805Y1558D02*
X06862D01*
X06439Y15302D02*
X06461Y1528D01*
X06665*
X0656Y1542D02*
Y15459D01*
X0657Y1541D02*
X0661D01*
X06665Y1528D02*
X06675Y1529D01*
X0661Y1541D02*
X06675Y15345D01*
Y1529D02*
Y15345D01*
X06455Y14935D02*
Y1497D01*
X06484Y14999*
X0671*
X06722Y14987D02*
X06916D01*
X0671Y14999D02*
X06722Y14987D01*
X06897Y14696D02*
Y14725D01*
X06896Y14696D02*
X06897D01*
Y14725D02*
X06925Y14753D01*
Y14978*
X06916Y14987D02*
X06925Y14978D01*
X06726Y14642D02*
X06742D01*
X06763Y1462D02*
X0689D01*
X06742Y14642D02*
X06763Y1462D01*
X06742Y14642D02*
X0677Y1467D01*
X068Y1475D02*
Y1481D01*
X0677Y1467D02*
X0682D01*
X068Y1481D02*
X0681Y1482D01*
X0689Y1462D02*
X06896Y14626D01*
Y14641*
X06897*
X0682Y1467D02*
X0683Y1468D01*
Y1472*
X068Y1475D02*
X0683Y1472D01*
X0681Y1482D02*
X06862D01*
X06417Y14642D02*
X06439D01*
X06403Y14656D02*
X06417Y14642D01*
X06403Y14656D02*
Y15163D01*
X06461Y1462D02*
X06665D01*
X06439Y14642D02*
X06461Y1462D01*
X0656Y1476D02*
X0657Y1475D01*
X06403Y15163D02*
X0642Y1518D01*
X0656Y1476D02*
Y14799D01*
X0642Y1518D02*
X067D01*
X0657Y1475D02*
X0661D01*
X06665Y1462D02*
X06675Y1463D01*
X0661Y1475D02*
X06675Y14685D01*
Y1463D02*
Y14685D01*
X067Y1518D02*
X06705Y15174D01*
Y15145D02*
Y15174D01*
X06421Y14768D02*
X06439Y1475D01*
X06421Y14768D02*
Y14962D01*
X06536Y15077*
X06439Y14693D02*
Y14697D01*
Y1475*
X06536Y15077D02*
Y1511D01*
X0671Y1505D02*
X06735D01*
X0669Y1507D02*
X0671Y1505D01*
X06735D02*
X06965D01*
X06735D02*
Y15085D01*
X06745Y151*
X06965Y1505D02*
X0697Y15055D01*
X06933Y14761D02*
Y15D01*
X06715Y1502D02*
X06735Y15D01*
X06944Y1475D02*
X0702D01*
X06933Y14761D02*
X06944Y1475D01*
X06657Y1502D02*
X06715D01*
X06735Y15D02*
X06933D01*
X0697*
X0702Y1475D02*
X07025D01*
X0702D02*
Y14895D01*
X07025Y1475D02*
X0708Y14695D01*
X0702Y14895D02*
X07025Y149D01*
X0706*
X06713Y14697D02*
X0676D01*
Y14696D02*
Y14697D01*
Y14696D02*
X06805D01*
Y14641D02*
X06833Y1467D01*
X0685*
X06851D02*
X0687D01*
X06851Y14739D02*
Y1477D01*
Y14739D02*
X0687Y1472D01*
Y1467D02*
X0696D01*
X0687D02*
Y1472D01*
X0696Y1467D02*
X06988Y14642D01*
X068Y1487D02*
X06862D01*
X06657Y1507D02*
X0669D01*
X0656Y148D02*
X0659D01*
X066Y1481*
Y1497*
X06657*
X06862Y1502D02*
X0692D01*
X06862Y15021D02*
X06862D01*
X0692Y1502D02*
X0693Y1503D01*
X0692Y1516D02*
X0694D01*
X0692Y1512D02*
X0695D01*
X0693Y1503D02*
X07D01*
X0694Y1516D02*
X0695Y1517D01*
Y1512D02*
X07Y1507D01*
X0695Y1517D02*
X0706D01*
X0699Y1492D02*
Y1494D01*
X07Y1495*
Y1503*
Y1507*
X0707Y1512D02*
Y1516D01*
X0706Y1517D02*
X0707Y1516D01*
X06862Y1507D02*
Y15145D01*
X06815D02*
X06862D01*
X06885*
X0689Y1514D02*
X0695D01*
X06885Y15145D02*
X0689Y1514D01*
X06969Y1479D02*
Y14824D01*
X07009Y14864*
Y14942*
X0702Y14953*
Y1501*
Y1501D02*
Y1507D01*
X0702Y1501D02*
X0707D01*
X0695Y1514D02*
X0702Y1507D01*
X06851Y1477D02*
X06862D01*
X06907*
X06862Y1497D02*
X06912D01*
X06907Y1477D02*
X06917Y1478D01*
X06912Y1497D02*
X06917Y14965D01*
Y1478D02*
Y14965D01*
X068Y14925D02*
Y1494D01*
Y14925D02*
X06805Y1492D01*
X06862*
X06515Y1474D02*
X0655D01*
X06455Y148D02*
X06515Y1474D01*
X0655D02*
X0657Y1472D01*
Y14695D02*
Y1472D01*
X06622Y14642D02*
X0664D01*
X06642Y1464*
X06655*
X0708D02*
X07104Y14664D01*
X07059Y1479D02*
X07104D01*
Y14664D02*
Y1479D01*
D01*
X07103Y15108D02*
X07104Y1479D01*
X0707Y1512D02*
X07099D01*
X07104Y15108D02*
Y15116D01*
X07099Y1512D02*
X07104Y15116D01*
X06412Y14679D02*
X06422Y14669D01*
X06522*
X06412Y14679D02*
Y15093D01*
X06443Y15124*
X06531Y14641D02*
Y1466D01*
X06443Y15124D02*
Y15147D01*
X06522Y14669D02*
X06531Y1466D01*
X06443Y15072D02*
X06444D01*
X06536Y1511D02*
X06537D01*
X0653Y14641D02*
X06531D01*
X0697Y149D02*
Y149D01*
D01*
X0699Y1492*
X0646Y1485D02*
X0648D01*
X06519Y14889*
X0656*
X06705Y1514D02*
Y15145D01*
X06713Y14696D02*
Y14697D01*
X06988D02*
X07027D01*
X06455Y14275D02*
Y1431D01*
X06484Y14339*
X0671*
X06722Y14327D02*
X06916D01*
X0671Y14339D02*
X06722Y14327D01*
X06897Y14036D02*
Y14065D01*
X06896Y14036D02*
X06897D01*
Y14065D02*
X06925Y14093D01*
Y14318*
X06916Y14327D02*
X06925Y14318D01*
X06726Y13982D02*
X06742D01*
X06763Y1396D02*
X0689D01*
X06742Y13982D02*
X06763Y1396D01*
X06742Y13982D02*
X0677Y1401D01*
X068Y1409D02*
Y1415D01*
X0677Y1401D02*
X0682D01*
X068Y1415D02*
X0681Y1416D01*
X0689Y1396D02*
X06896Y13966D01*
Y13981*
X06897*
X0682Y1401D02*
X0683Y1402D01*
Y1406*
X068Y1409D02*
X0683Y1406D01*
X0681Y1416D02*
X06862D01*
X06417Y13982D02*
X06439D01*
X06403Y13996D02*
X06417Y13982D01*
X06403Y13996D02*
Y14503D01*
X06461Y1396D02*
X06665D01*
X06439Y13982D02*
X06461Y1396D01*
X0656Y141D02*
X0657Y1409D01*
X06403Y14503D02*
X0642Y1452D01*
X0656Y141D02*
Y14139D01*
X0642Y1452D02*
X067D01*
X0657Y1409D02*
X0661D01*
X06665Y1396D02*
X06675Y1397D01*
X0661Y1409D02*
X06675Y14025D01*
Y1397D02*
Y14025D01*
X067Y1452D02*
X06705Y14514D01*
Y14485D02*
Y14514D01*
X06421Y14108D02*
X06439Y1409D01*
X06421Y14108D02*
Y14302D01*
X06536Y14417*
X06439Y14033D02*
Y14037D01*
Y1409*
X06536Y14417D02*
Y1445D01*
X0671Y1439D02*
X06735D01*
X0669Y1441D02*
X0671Y1439D01*
X06735D02*
X06965D01*
X06735D02*
Y14425D01*
X06745Y1444*
X06965Y1439D02*
X0697Y14395D01*
X06933Y14101D02*
Y1434D01*
X06715Y1436D02*
X06735Y1434D01*
X06944Y1409D02*
X0702D01*
X06933Y14101D02*
X06944Y1409D01*
X06657Y1436D02*
X06715D01*
X06735Y1434D02*
X06933D01*
X0697*
X0702Y1409D02*
X07025D01*
X0702D02*
Y14235D01*
X07025Y1409D02*
X0708Y14035D01*
X0702Y14235D02*
X07025Y1424D01*
X0706*
X06713Y14037D02*
X0676D01*
Y14036D02*
Y14037D01*
Y14036D02*
X06805D01*
Y13981D02*
X06833Y1401D01*
X0685*
X06851D02*
X0687D01*
X06851Y14079D02*
Y1411D01*
Y14079D02*
X0687Y1406D01*
Y1401D02*
X0696D01*
X0687D02*
Y1406D01*
X0696Y1401D02*
X06988Y13982D01*
X068Y1421D02*
X06862D01*
X06657Y1441D02*
X0669D01*
X0656Y1414D02*
X0659D01*
X066Y1415*
Y1431*
X06657*
X06862Y1436D02*
X0692D01*
X06862Y14361D02*
X06862D01*
X0692Y1436D02*
X0693Y1437D01*
X0692Y145D02*
X0694D01*
X0692Y1446D02*
X0695D01*
X0693Y1437D02*
X07D01*
X0694Y145D02*
X0695Y1451D01*
Y1446D02*
X07Y1441D01*
X0695Y1451D02*
X0706D01*
X0699Y1426D02*
Y1428D01*
X07Y1429*
Y1437*
Y1441*
X0707Y1446D02*
Y145D01*
X0706Y1451D02*
X0707Y145D01*
X06862Y1441D02*
Y14485D01*
X06815D02*
X06862D01*
X06885*
X0689Y1448D02*
X0695D01*
X06885Y14485D02*
X0689Y1448D01*
X06969Y1413D02*
Y14164D01*
X07009Y14204*
Y14282*
X0702Y14293*
Y1435*
Y1435D02*
Y1441D01*
X0702Y1435D02*
X0707D01*
X0695Y1448D02*
X0702Y1441D01*
X06851Y1411D02*
X06862D01*
X06907*
X06862Y1431D02*
X06912D01*
X06907Y1411D02*
X06917Y1412D01*
X06912Y1431D02*
X06917Y14305D01*
Y1412D02*
Y14305D01*
X068Y14265D02*
Y1428D01*
Y14265D02*
X06805Y1426D01*
X06862*
X06515Y1408D02*
X0655D01*
X06455Y1414D02*
X06515Y1408D01*
X0655D02*
X0657Y1406D01*
Y14035D02*
Y1406D01*
X06622Y13982D02*
X0664D01*
X06642Y1398*
X06655*
X0708D02*
X07104Y14004D01*
X07059Y1413D02*
X07104D01*
Y14004D02*
Y1413D01*
D01*
X07103Y14448D02*
X07104Y1413D01*
X0707Y1446D02*
X07099D01*
X07104Y14448D02*
Y14456D01*
X07099Y1446D02*
X07104Y14456D01*
X06412Y14019D02*
X06422Y14009D01*
X06522*
X06412Y14019D02*
Y14433D01*
X06443Y14464*
X06531Y13981D02*
Y14D01*
X06443Y14464D02*
Y14487D01*
X06522Y14009D02*
X06531Y14D01*
X06443Y14412D02*
X06444D01*
X06536Y1445D02*
X06537D01*
X0653Y13981D02*
X06531D01*
X0697Y1424D02*
Y1424D01*
D01*
X0699Y1426*
X0646Y1419D02*
X0648D01*
X06519Y14229*
X0656*
X06705Y1448D02*
Y14485D01*
X06713Y14036D02*
Y14037D01*
X06988D02*
X07027D01*
X06455Y13615D02*
Y1365D01*
X06484Y13679*
X0671*
X06722Y13667D02*
X06916D01*
X0671Y13679D02*
X06722Y13667D01*
X06897Y13376D02*
Y13405D01*
X06896Y13376D02*
X06897D01*
Y13405D02*
X06925Y13433D01*
Y13658*
X06916Y13667D02*
X06925Y13658D01*
X06726Y13322D02*
X06742D01*
X06763Y133D02*
X0689D01*
X06742Y13322D02*
X06763Y133D01*
X06742Y13322D02*
X0677Y1335D01*
X068Y1343D02*
Y1349D01*
X0677Y1335D02*
X0682D01*
X068Y1349D02*
X0681Y135D01*
X0689Y133D02*
X06896Y13306D01*
Y13321*
X06897*
X0682Y1335D02*
X0683Y1336D01*
Y134*
X068Y1343D02*
X0683Y134D01*
X0681Y135D02*
X06862D01*
X06417Y13322D02*
X06439D01*
X06403Y13336D02*
X06417Y13322D01*
X06403Y13336D02*
Y13843D01*
X06461Y133D02*
X06665D01*
X06439Y13322D02*
X06461Y133D01*
X0656Y1344D02*
X0657Y1343D01*
X06403Y13843D02*
X0642Y1386D01*
X0656Y1344D02*
Y13479D01*
X0642Y1386D02*
X067D01*
X0657Y1343D02*
X0661D01*
X06665Y133D02*
X06675Y1331D01*
X0661Y1343D02*
X06675Y13365D01*
Y1331D02*
Y13365D01*
X067Y1386D02*
X06705Y13854D01*
Y13825D02*
Y13854D01*
X06421Y13448D02*
X06439Y1343D01*
X06421Y13448D02*
Y13642D01*
X06536Y13757*
X06439Y13373D02*
Y13377D01*
Y1343*
X06536Y13757D02*
Y1379D01*
X0671Y1373D02*
X06735D01*
X0669Y1375D02*
X0671Y1373D01*
X06735D02*
X06965D01*
X06735D02*
Y13765D01*
X06745Y1378*
X06965Y1373D02*
X0697Y13735D01*
X06933Y13441D02*
Y1368D01*
X06715Y137D02*
X06735Y1368D01*
X06944Y1343D02*
X0702D01*
X06933Y13441D02*
X06944Y1343D01*
X06657Y137D02*
X06715D01*
X06735Y1368D02*
X06933D01*
X0697*
X0702Y1343D02*
X07025D01*
X0702D02*
Y13575D01*
X07025Y1343D02*
X0708Y13375D01*
X0702Y13575D02*
X07025Y1358D01*
X0706*
X06713Y13377D02*
X0676D01*
Y13376D02*
Y13377D01*
Y13376D02*
X06805D01*
Y13321D02*
X06833Y1335D01*
X0685*
X06851D02*
X0687D01*
X06851Y13419D02*
Y1345D01*
Y13419D02*
X0687Y134D01*
Y1335D02*
X0696D01*
X0687D02*
Y134D01*
X0696Y1335D02*
X06988Y13322D01*
X068Y1355D02*
X06862D01*
X06657Y1375D02*
X0669D01*
X0656Y1348D02*
X0659D01*
X066Y1349*
Y1365*
X06657*
X06862Y137D02*
X0692D01*
X06862Y13701D02*
X06862D01*
X0692Y137D02*
X0693Y1371D01*
X0692Y1384D02*
X0694D01*
X0692Y138D02*
X0695D01*
X0693Y1371D02*
X07D01*
X0694Y1384D02*
X0695Y1385D01*
Y138D02*
X07Y1375D01*
X0695Y1385D02*
X0706D01*
X0699Y136D02*
Y1362D01*
X07Y1363*
Y1371*
Y1375*
X0707Y138D02*
Y1384D01*
X0706Y1385D02*
X0707Y1384D01*
X06862Y1375D02*
Y13825D01*
X06815D02*
X06862D01*
X06885*
X0689Y1382D02*
X0695D01*
X06885Y13825D02*
X0689Y1382D01*
X06969Y1347D02*
Y13504D01*
X07009Y13544*
Y13622*
X0702Y13633*
Y1369*
Y1369D02*
Y1375D01*
X0702Y1369D02*
X0707D01*
X0695Y1382D02*
X0702Y1375D01*
X06851Y1345D02*
X06862D01*
X06907*
X06862Y1365D02*
X06912D01*
X06907Y1345D02*
X06917Y1346D01*
X06912Y1365D02*
X06917Y13645D01*
Y1346D02*
Y13645D01*
X068Y13605D02*
Y1362D01*
Y13605D02*
X06805Y136D01*
X06862*
X06515Y1342D02*
X0655D01*
X0657Y134*
X06622Y13322D02*
X0664D01*
X06642Y1332*
X06655*
X0708D02*
X07104Y13344D01*
X07059Y1347D02*
X07104D01*
Y13344D02*
Y1347D01*
D01*
X07103Y13788D02*
X07104Y1347D01*
X0707Y138D02*
X07099D01*
X07104Y13788D02*
Y13796D01*
X07099Y138D02*
X07104Y13796D01*
X06412Y13359D02*
X06422Y13349D01*
X06522*
X06412Y13359D02*
Y13773D01*
X06443Y13804*
X06531Y13321D02*
Y1334D01*
X06443Y13804D02*
Y13827D01*
X06522Y13349D02*
X06531Y1334D01*
X06443Y13752D02*
X06444D01*
X06536Y1379D02*
X06537D01*
X0653Y13321D02*
X06531D01*
X0697Y1358D02*
Y1358D01*
D01*
X0699Y136*
X0646Y1353D02*
X0648D01*
X06519Y13569*
X0656*
X06705Y1382D02*
Y13825D01*
X06713Y13376D02*
Y13377D01*
X06988D02*
X07027D01*
X07195Y15595D02*
Y1563D01*
X07224Y15659*
X0745*
X07462Y15647D02*
X07656D01*
X0745Y15659D02*
X07462Y15647D01*
X07637Y15356D02*
Y15385D01*
X07636Y15356D02*
X07637D01*
Y15385D02*
X07665Y15413D01*
Y15638*
X07656Y15647D02*
X07665Y15638D01*
X07466Y15302D02*
X07482D01*
X07503Y1528D02*
X0763D01*
X07482Y15302D02*
X07503Y1528D01*
X07482Y15302D02*
X0751Y1533D01*
X0754Y1541D02*
Y1547D01*
X0751Y1533D02*
X0756D01*
X0754Y1547D02*
X0755Y1548D01*
X0763Y1528D02*
X07636Y15286D01*
Y15301*
X07637*
X0756Y1533D02*
X0757Y1534D01*
Y1538*
X0754Y1541D02*
X0757Y1538D01*
X0755Y1548D02*
X07602D01*
X07157Y15302D02*
X07179D01*
X07143Y15316D02*
X07157Y15302D01*
X07143Y15316D02*
Y15823D01*
X07201Y1528D02*
X07405D01*
X07179Y15302D02*
X07201Y1528D01*
X073Y1542D02*
X0731Y1541D01*
X07143Y15823D02*
X0716Y1584D01*
X073Y1542D02*
Y15459D01*
X0716Y1584D02*
X0744D01*
X0731Y1541D02*
X0735D01*
X07405Y1528D02*
X07415Y1529D01*
X0735Y1541D02*
X07415Y15345D01*
Y1529D02*
Y15345D01*
X0744Y1584D02*
X07445Y15834D01*
Y15805D02*
Y15834D01*
X07161Y15428D02*
X07179Y1541D01*
X07161Y15428D02*
Y15622D01*
X07276Y15737*
X07179Y15353D02*
Y15357D01*
Y1541*
X07276Y15737D02*
Y1577D01*
X0745Y1571D02*
X07475D01*
X0743Y1573D02*
X0745Y1571D01*
X07475D02*
X07705D01*
X07475D02*
Y15745D01*
X07485Y1576*
X07705Y1571D02*
X0771Y15715D01*
X07673Y15421D02*
Y1566D01*
X07455Y1568D02*
X07475Y1566D01*
X07684Y1541D02*
X0776D01*
X07673Y15421D02*
X07684Y1541D01*
X07397Y1568D02*
X07455D01*
X07475Y1566D02*
X07673D01*
X0771*
X0776Y1541D02*
X07765D01*
X0776D02*
Y15555D01*
X07765Y1541D02*
X0782Y15355D01*
X0776Y15555D02*
X07765Y1556D01*
X078*
X07453Y15357D02*
X075D01*
Y15356D02*
Y15357D01*
Y15356D02*
X07545D01*
Y15301D02*
X07573Y1533D01*
X0759*
X07591D02*
X0761D01*
X07591Y15399D02*
Y1543D01*
Y15399D02*
X0761Y1538D01*
Y1533D02*
X077D01*
X0761D02*
Y1538D01*
X077Y1533D02*
X07728Y15302D01*
X0754Y1553D02*
X07602D01*
X07397Y1573D02*
X0743D01*
X073Y1546D02*
X0733D01*
X0734Y1547*
Y1563*
X07397*
X07602Y1568D02*
X0766D01*
X07602Y15681D02*
X07602D01*
X0766Y1568D02*
X0767Y1569D01*
X0766Y1582D02*
X0768D01*
X0766Y1578D02*
X0769D01*
X0767Y1569D02*
X0774D01*
X0768Y1582D02*
X0769Y1583D01*
Y1578D02*
X0774Y1573D01*
X0769Y1583D02*
X078D01*
X0773Y1558D02*
Y156D01*
X0774Y1561*
Y1569*
Y1573*
X0781Y1578D02*
Y1582D01*
X078Y1583D02*
X0781Y1582D01*
X07602Y1573D02*
Y15805D01*
X07555D02*
X07602D01*
X07625*
X0763Y158D02*
X0769D01*
X07625Y15805D02*
X0763Y158D01*
X07709Y1545D02*
Y15484D01*
X07749Y15524*
Y15602*
X0776Y15613*
Y1567*
Y1567D02*
Y1573D01*
X0776Y1567D02*
X0781D01*
X0769Y158D02*
X0776Y1573D01*
X07591Y1543D02*
X07602D01*
X07647*
X07602Y1563D02*
X07652D01*
X07647Y1543D02*
X07657Y1544D01*
X07652Y1563D02*
X07657Y15625D01*
Y1544D02*
Y15625D01*
X0754Y15585D02*
Y156D01*
Y15585D02*
X07545Y1558D01*
X07602*
X07255Y154D02*
X0729D01*
X07195Y1546D02*
X07255Y154D01*
X0729D02*
X0731Y1538D01*
Y15355D02*
Y1538D01*
X07362Y15302D02*
X0738D01*
X07382Y153*
X07395*
X0782D02*
X07844Y15324D01*
X07799Y1545D02*
X07844D01*
Y15324D02*
Y1545D01*
D01*
X07843Y15768D02*
X07844Y1545D01*
X0781Y1578D02*
X07839D01*
X07844Y15768D02*
Y15776D01*
X07839Y1578D02*
X07844Y15776D01*
X07152Y15339D02*
X07162Y15329D01*
X07262*
X07152Y15339D02*
Y15753D01*
X07183Y15784*
X07271Y15301D02*
Y1532D01*
X07183Y15784D02*
Y15807D01*
X07262Y15329D02*
X07271Y1532D01*
X07183Y15732D02*
X07184D01*
X07276Y1577D02*
X07277D01*
X0727Y15301D02*
X07271D01*
X0771Y1556D02*
Y1556D01*
D01*
X0773Y1558*
X072Y1551D02*
X0722D01*
X07259Y15549*
X073*
X07445Y158D02*
Y15805D01*
X07453Y15356D02*
Y15357D01*
X07728D02*
X07767D01*
X07195Y14935D02*
Y1497D01*
X07224Y14999*
X0745*
X07462Y14987D02*
X07656D01*
X0745Y14999D02*
X07462Y14987D01*
X07637Y14696D02*
Y14725D01*
X07636Y14696D02*
X07637D01*
Y14725D02*
X07665Y14753D01*
Y14978*
X07656Y14987D02*
X07665Y14978D01*
X07466Y14642D02*
X07482D01*
X07503Y1462D02*
X0763D01*
X07482Y14642D02*
X07503Y1462D01*
X07482Y14642D02*
X0751Y1467D01*
X0754Y1475D02*
Y1481D01*
X0751Y1467D02*
X0756D01*
X0754Y1481D02*
X0755Y1482D01*
X0763Y1462D02*
X07636Y14626D01*
Y14641*
X07637*
X0756Y1467D02*
X0757Y1468D01*
Y1472*
X0754Y1475D02*
X0757Y1472D01*
X0755Y1482D02*
X07602D01*
X07157Y14642D02*
X07179D01*
X07143Y14656D02*
X07157Y14642D01*
X07143Y14656D02*
Y15163D01*
X07201Y1462D02*
X07405D01*
X07179Y14642D02*
X07201Y1462D01*
X073Y1476D02*
X0731Y1475D01*
X07143Y15163D02*
X0716Y1518D01*
X073Y1476D02*
Y14799D01*
X0716Y1518D02*
X0744D01*
X0731Y1475D02*
X0735D01*
X07405Y1462D02*
X07415Y1463D01*
X0735Y1475D02*
X07415Y14685D01*
Y1463D02*
Y14685D01*
X0744Y1518D02*
X07445Y15174D01*
Y15145D02*
Y15174D01*
X07161Y14768D02*
X07179Y1475D01*
X07161Y14768D02*
Y14962D01*
X07276Y15077*
X07179Y14693D02*
Y14697D01*
Y1475*
X07276Y15077D02*
Y1511D01*
X0745Y1505D02*
X07475D01*
X0743Y1507D02*
X0745Y1505D01*
X07475D02*
X07705D01*
X07475D02*
Y15085D01*
X07485Y151*
X07705Y1505D02*
X0771Y15055D01*
X07673Y14761D02*
Y15D01*
X07455Y1502D02*
X07475Y15D01*
X07684Y1475D02*
X0776D01*
X07673Y14761D02*
X07684Y1475D01*
X07397Y1502D02*
X07455D01*
X07475Y15D02*
X07673D01*
X0771*
X0776Y1475D02*
X07765D01*
X0776D02*
Y14895D01*
X07765Y1475D02*
X0782Y14695D01*
X0776Y14895D02*
X07765Y149D01*
X078*
X07453Y14697D02*
X075D01*
Y14696D02*
Y14697D01*
Y14696D02*
X07545D01*
Y14641D02*
X07573Y1467D01*
X0759*
X07591D02*
X0761D01*
X07591Y14739D02*
Y1477D01*
Y14739D02*
X0761Y1472D01*
Y1467D02*
X077D01*
X0761D02*
Y1472D01*
X077Y1467D02*
X07728Y14642D01*
X0754Y1487D02*
X07602D01*
X07397Y1507D02*
X0743D01*
X073Y148D02*
X0733D01*
X0734Y1481*
Y1497*
X07397*
X07602Y1502D02*
X0766D01*
X07602Y15021D02*
X07602D01*
X0766Y1502D02*
X0767Y1503D01*
X0766Y1516D02*
X0768D01*
X0766Y1512D02*
X0769D01*
X0767Y1503D02*
X0774D01*
X0768Y1516D02*
X0769Y1517D01*
Y1512D02*
X0774Y1507D01*
X0769Y1517D02*
X078D01*
X0773Y1492D02*
Y1494D01*
X0774Y1495*
Y1503*
Y1507*
X0781Y1512D02*
Y1516D01*
X078Y1517D02*
X0781Y1516D01*
X07602Y1507D02*
Y15145D01*
X07555D02*
X07602D01*
X07625*
X0763Y1514D02*
X0769D01*
X07625Y15145D02*
X0763Y1514D01*
X07709Y1479D02*
Y14824D01*
X07749Y14864*
Y14942*
X0776Y14953*
Y1501*
Y1501D02*
Y1507D01*
X0776Y1501D02*
X0781D01*
X0769Y1514D02*
X0776Y1507D01*
X07591Y1477D02*
X07602D01*
X07647*
X07602Y1497D02*
X07652D01*
X07647Y1477D02*
X07657Y1478D01*
X07652Y1497D02*
X07657Y14965D01*
Y1478D02*
Y14965D01*
X0754Y14925D02*
Y1494D01*
Y14925D02*
X07545Y1492D01*
X07602*
X07255Y1474D02*
X0729D01*
X07195Y148D02*
X07255Y1474D01*
X0729D02*
X0731Y1472D01*
Y14695D02*
Y1472D01*
X07362Y14642D02*
X0738D01*
X07382Y1464*
X07395*
X0782D02*
X07844Y14664D01*
X07799Y1479D02*
X07844D01*
Y14664D02*
Y1479D01*
D01*
X07843Y15108D02*
X07844Y1479D01*
X0781Y1512D02*
X07839D01*
X07844Y15108D02*
Y15116D01*
X07839Y1512D02*
X07844Y15116D01*
X07152Y14679D02*
X07162Y14669D01*
X07262*
X07152Y14679D02*
Y15093D01*
X07183Y15124*
X07271Y14641D02*
Y1466D01*
X07183Y15124D02*
Y15147D01*
X07262Y14669D02*
X07271Y1466D01*
X07183Y15072D02*
X07184D01*
X07276Y1511D02*
X07277D01*
X0727Y14641D02*
X07271D01*
X0771Y149D02*
Y149D01*
D01*
X0773Y1492*
X072Y1485D02*
X0722D01*
X07259Y14889*
X073*
X07445Y1514D02*
Y15145D01*
X07453Y14696D02*
Y14697D01*
X07728D02*
X07767D01*
X07195Y14275D02*
Y1431D01*
X07224Y14339*
X0745*
X07462Y14327D02*
X07656D01*
X0745Y14339D02*
X07462Y14327D01*
X07637Y14036D02*
Y14065D01*
X07636Y14036D02*
X07637D01*
Y14065D02*
X07665Y14093D01*
Y14318*
X07656Y14327D02*
X07665Y14318D01*
X07466Y13982D02*
X07482D01*
X07503Y1396D02*
X0763D01*
X07482Y13982D02*
X07503Y1396D01*
X07482Y13982D02*
X0751Y1401D01*
X0754Y1409D02*
Y1415D01*
X0751Y1401D02*
X0756D01*
X0754Y1415D02*
X0755Y1416D01*
X0763Y1396D02*
X07636Y13966D01*
Y13981*
X07637*
X0756Y1401D02*
X0757Y1402D01*
Y1406*
X0754Y1409D02*
X0757Y1406D01*
X0755Y1416D02*
X07602D01*
X07157Y13982D02*
X07179D01*
X07143Y13996D02*
X07157Y13982D01*
X07143Y13996D02*
Y14503D01*
X07201Y1396D02*
X07405D01*
X07179Y13982D02*
X07201Y1396D01*
X073Y141D02*
X0731Y1409D01*
X07143Y14503D02*
X0716Y1452D01*
X073Y141D02*
Y14139D01*
X0716Y1452D02*
X0744D01*
X0731Y1409D02*
X0735D01*
X07405Y1396D02*
X07415Y1397D01*
X0735Y1409D02*
X07415Y14025D01*
Y1397D02*
Y14025D01*
X0744Y1452D02*
X07445Y14514D01*
Y14485D02*
Y14514D01*
X07161Y14108D02*
X07179Y1409D01*
X07161Y14108D02*
Y14302D01*
X07276Y14417*
X07179Y14033D02*
Y14037D01*
Y1409*
X07276Y14417D02*
Y1445D01*
X0745Y1439D02*
X07475D01*
X0743Y1441D02*
X0745Y1439D01*
X07475D02*
X07705D01*
X07475D02*
Y14425D01*
X07485Y1444*
X07705Y1439D02*
X0771Y14395D01*
X07673Y14101D02*
Y1434D01*
X07455Y1436D02*
X07475Y1434D01*
X07684Y1409D02*
X0776D01*
X07673Y14101D02*
X07684Y1409D01*
X07397Y1436D02*
X07455D01*
X07475Y1434D02*
X07673D01*
X0771*
X0776Y1409D02*
X07765D01*
X0776D02*
Y14235D01*
X07765Y1409D02*
X0782Y14035D01*
X0776Y14235D02*
X07765Y1424D01*
X078*
X07453Y14037D02*
X075D01*
Y14036D02*
Y14037D01*
Y14036D02*
X07545D01*
Y13981D02*
X07573Y1401D01*
X0759*
X07591D02*
X0761D01*
X07591Y14079D02*
Y1411D01*
Y14079D02*
X0761Y1406D01*
Y1401D02*
X077D01*
X0761D02*
Y1406D01*
X077Y1401D02*
X07728Y13982D01*
X0754Y1421D02*
X07602D01*
X07397Y1441D02*
X0743D01*
X073Y1414D02*
X0733D01*
X0734Y1415*
Y1431*
X07397*
X07602Y1436D02*
X0766D01*
X07602Y14361D02*
X07602D01*
X0766Y1436D02*
X0767Y1437D01*
X0766Y145D02*
X0768D01*
X0766Y1446D02*
X0769D01*
X0767Y1437D02*
X0774D01*
X0768Y145D02*
X0769Y1451D01*
Y1446D02*
X0774Y1441D01*
X0769Y1451D02*
X078D01*
X0773Y1426D02*
Y1428D01*
X0774Y1429*
Y1437*
Y1441*
X0781Y1446D02*
Y145D01*
X078Y1451D02*
X0781Y145D01*
X07602Y1441D02*
Y14485D01*
X07555D02*
X07602D01*
X07625*
X0763Y1448D02*
X0769D01*
X07625Y14485D02*
X0763Y1448D01*
X07709Y1413D02*
Y14164D01*
X07749Y14204*
Y14282*
X0776Y14293*
Y1435*
Y1435D02*
Y1441D01*
X0776Y1435D02*
X0781D01*
X0769Y1448D02*
X0776Y1441D01*
X07591Y1411D02*
X07602D01*
X07647*
X07602Y1431D02*
X07652D01*
X07647Y1411D02*
X07657Y1412D01*
X07652Y1431D02*
X07657Y14305D01*
Y1412D02*
Y14305D01*
X0754Y14265D02*
Y1428D01*
Y14265D02*
X07545Y1426D01*
X07602*
X07255Y1408D02*
X0729D01*
X07195Y1414D02*
X07255Y1408D01*
X0729D02*
X0731Y1406D01*
Y14035D02*
Y1406D01*
X07362Y13982D02*
X0738D01*
X07382Y1398*
X07395*
X0782D02*
X07844Y14004D01*
X07799Y1413D02*
X07844D01*
Y14004D02*
Y1413D01*
D01*
X07843Y14448D02*
X07844Y1413D01*
X0781Y1446D02*
X07839D01*
X07844Y14448D02*
Y14456D01*
X07839Y1446D02*
X07844Y14456D01*
X07152Y14019D02*
X07162Y14009D01*
X07262*
X07152Y14019D02*
Y14433D01*
X07183Y14464*
X07271Y13981D02*
Y14D01*
X07183Y14464D02*
Y14487D01*
X07262Y14009D02*
X07271Y14D01*
X07183Y14412D02*
X07184D01*
X07276Y1445D02*
X07277D01*
X0727Y13981D02*
X07271D01*
X0771Y1424D02*
Y1424D01*
D01*
X0773Y1426*
X072Y1419D02*
X0722D01*
X07259Y14229*
X073*
X07445Y1448D02*
Y14485D01*
X07453Y14036D02*
Y14037D01*
X07728D02*
X07767D01*
X07195Y13615D02*
Y1365D01*
X07224Y13679*
X0745*
X07462Y13667D02*
X07656D01*
X0745Y13679D02*
X07462Y13667D01*
X07637Y13376D02*
Y13405D01*
X07636Y13376D02*
X07637D01*
Y13405D02*
X07665Y13433D01*
Y13658*
X07656Y13667D02*
X07665Y13658D01*
X07466Y13322D02*
X07482D01*
X07503Y133D02*
X0763D01*
X07482Y13322D02*
X07503Y133D01*
X07482Y13322D02*
X0751Y1335D01*
X0754Y1343D02*
Y1349D01*
X0751Y1335D02*
X0756D01*
X0754Y1349D02*
X0755Y135D01*
X0763Y133D02*
X07636Y13306D01*
Y13321*
X07637*
X0756Y1335D02*
X0757Y1336D01*
Y134*
X0754Y1343D02*
X0757Y134D01*
X0755Y135D02*
X07602D01*
X07157Y13322D02*
X07179D01*
X07143Y13336D02*
X07157Y13322D01*
X07143Y13336D02*
Y13843D01*
X07201Y133D02*
X07405D01*
X07179Y13322D02*
X07201Y133D01*
X073Y1344D02*
X0731Y1343D01*
X07143Y13843D02*
X0716Y1386D01*
X073Y1344D02*
Y13479D01*
X0716Y1386D02*
X0744D01*
X0731Y1343D02*
X0735D01*
X07405Y133D02*
X07415Y1331D01*
X0735Y1343D02*
X07415Y13365D01*
Y1331D02*
Y13365D01*
X0744Y1386D02*
X07445Y13854D01*
Y13825D02*
Y13854D01*
X07161Y13448D02*
X07179Y1343D01*
X07161Y13448D02*
Y13642D01*
X07276Y13757*
X07179Y13373D02*
Y13377D01*
Y1343*
X07276Y13757D02*
Y1379D01*
X0745Y1373D02*
X07475D01*
X0743Y1375D02*
X0745Y1373D01*
X07475D02*
X07705D01*
X07475D02*
Y13765D01*
X07485Y1378*
X07705Y1373D02*
X0771Y13735D01*
X07673Y13441D02*
Y1368D01*
X07455Y137D02*
X07475Y1368D01*
X07684Y1343D02*
X0776D01*
X07673Y13441D02*
X07684Y1343D01*
X07397Y137D02*
X07455D01*
X07475Y1368D02*
X07673D01*
X0771*
X0776Y1343D02*
X07765D01*
X0776D02*
Y13575D01*
X07765Y1343D02*
X0782Y13375D01*
X0776Y13575D02*
X07765Y1358D01*
X078*
X07453Y13377D02*
X075D01*
Y13376D02*
Y13377D01*
Y13376D02*
X07545D01*
Y13321D02*
X07573Y1335D01*
X0759*
X07591D02*
X0761D01*
X07591Y13419D02*
Y1345D01*
Y13419D02*
X0761Y134D01*
Y1335D02*
X077D01*
X0761D02*
Y134D01*
X077Y1335D02*
X07728Y13322D01*
X0754Y1355D02*
X07602D01*
X07397Y1375D02*
X0743D01*
X073Y1348D02*
X0733D01*
X0734Y1349*
Y1365*
X07397*
X07602Y137D02*
X0766D01*
X07602Y13701D02*
X07602D01*
X0766Y137D02*
X0767Y1371D01*
X0766Y1384D02*
X0768D01*
X0766Y138D02*
X0769D01*
X0767Y1371D02*
X0774D01*
X0768Y1384D02*
X0769Y1385D01*
Y138D02*
X0774Y1375D01*
X0769Y1385D02*
X078D01*
X0773Y136D02*
Y1362D01*
X0774Y1363*
Y1371*
Y1375*
X0781Y138D02*
Y1384D01*
X078Y1385D02*
X0781Y1384D01*
X07602Y1375D02*
Y13825D01*
X07555D02*
X07602D01*
X07625*
X0763Y1382D02*
X0769D01*
X07625Y13825D02*
X0763Y1382D01*
X07709Y1347D02*
Y13504D01*
X07749Y13544*
Y13622*
X0776Y13633*
Y1369*
Y1369D02*
Y1375D01*
X0776Y1369D02*
X0781D01*
X0769Y1382D02*
X0776Y1375D01*
X07591Y1345D02*
X07602D01*
X07647*
X07602Y1365D02*
X07652D01*
X07647Y1345D02*
X07657Y1346D01*
X07652Y1365D02*
X07657Y13645D01*
Y1346D02*
Y13645D01*
X0754Y13605D02*
Y1362D01*
Y13605D02*
X07545Y136D01*
X07602*
X07255Y1342D02*
X0729D01*
X07195Y1348D02*
X07255Y1342D01*
X0729D02*
X0731Y134D01*
Y13375D02*
Y134D01*
X07362Y13322D02*
X0738D01*
X07382Y1332*
X07395*
X0782D02*
X07844Y13344D01*
X07799Y1347D02*
X07844D01*
Y13344D02*
Y1347D01*
D01*
X07843Y13788D02*
X07844Y1347D01*
X0781Y138D02*
X07839D01*
X07844Y13788D02*
Y13796D01*
X07839Y138D02*
X07844Y13796D01*
X07152Y13359D02*
X07162Y13349D01*
X07262*
X07152Y13359D02*
Y13773D01*
X07183Y13804*
X07271Y13321D02*
Y1334D01*
X07183Y13804D02*
Y13827D01*
X07262Y13349D02*
X07271Y1334D01*
X07183Y13752D02*
X07184D01*
X07276Y1379D02*
X07277D01*
X0727Y13321D02*
X07271D01*
X0771Y1358D02*
Y1358D01*
D01*
X0773Y136*
X072Y1353D02*
X0722D01*
X07259Y13569*
X073*
X07445Y1382D02*
Y13825D01*
X07453Y13376D02*
Y13377D01*
X07728D02*
X07767D01*
X07935Y15595D02*
Y1563D01*
X07964Y15659*
X0819*
X08202Y15647D02*
X08396D01*
X0819Y15659D02*
X08202Y15647D01*
X08377Y15356D02*
Y15385D01*
X08376Y15356D02*
X08377D01*
Y15385D02*
X08405Y15413D01*
Y15638*
X08396Y15647D02*
X08405Y15638D01*
X08206Y15302D02*
X08222D01*
X08243Y1528D02*
X0837D01*
X08222Y15302D02*
X08243Y1528D01*
X08222Y15302D02*
X0825Y1533D01*
X0828Y1541D02*
Y1547D01*
X0825Y1533D02*
X083D01*
X0828Y1547D02*
X0829Y1548D01*
X0837Y1528D02*
X08376Y15286D01*
Y15301*
X08377*
X083Y1533D02*
X0831Y1534D01*
Y1538*
X0828Y1541D02*
X0831Y1538D01*
X0829Y1548D02*
X08342D01*
X07897Y15302D02*
X07919D01*
X07883Y15316D02*
X07897Y15302D01*
X07883Y15316D02*
Y15823D01*
X07941Y1528D02*
X08145D01*
X07919Y15302D02*
X07941Y1528D01*
X0804Y1542D02*
X0805Y1541D01*
X07883Y15823D02*
X079Y1584D01*
X0804Y1542D02*
Y15459D01*
X079Y1584D02*
X0818D01*
X0805Y1541D02*
X0809D01*
X08145Y1528D02*
X08155Y1529D01*
X0809Y1541D02*
X08155Y15345D01*
Y1529D02*
Y15345D01*
X0818Y1584D02*
X08185Y15834D01*
Y15805D02*
Y15834D01*
X07901Y15428D02*
X07919Y1541D01*
X07901Y15428D02*
Y15622D01*
X08016Y15737*
X07919Y15353D02*
Y15357D01*
Y1541*
X08016Y15737D02*
Y1577D01*
X0819Y1571D02*
X08215D01*
X0817Y1573D02*
X0819Y1571D01*
X08215D02*
X08445D01*
X08215D02*
Y15745D01*
X08225Y1576*
X08445Y1571D02*
X0845Y15715D01*
X08413Y15421D02*
Y1566D01*
X08195Y1568D02*
X08215Y1566D01*
X08424Y1541D02*
X085D01*
X08413Y15421D02*
X08424Y1541D01*
X08137Y1568D02*
X08195D01*
X08215Y1566D02*
X08413D01*
X0845*
X085Y1541D02*
X08505D01*
X085D02*
Y15555D01*
X08505Y1541D02*
X0856Y15355D01*
X085Y15555D02*
X08505Y1556D01*
X0854*
X08193Y15357D02*
X0824D01*
Y15356D02*
Y15357D01*
Y15356D02*
X08285D01*
Y15301D02*
X08313Y1533D01*
X0833*
X08331D02*
X0835D01*
X08331Y15399D02*
Y1543D01*
Y15399D02*
X0835Y1538D01*
Y1533D02*
X0844D01*
X0835D02*
Y1538D01*
X0844Y1533D02*
X08468Y15302D01*
X0828Y1553D02*
X08342D01*
X08137Y1573D02*
X0817D01*
X0804Y1546D02*
X0807D01*
X0808Y1547*
Y1563*
X08137*
X08342Y1568D02*
X084D01*
X08342Y15681D02*
X08342D01*
X084Y1568D02*
X0841Y1569D01*
X084Y1582D02*
X0842D01*
X084Y1578D02*
X0843D01*
X0841Y1569D02*
X0848D01*
X0842Y1582D02*
X0843Y1583D01*
Y1578D02*
X0848Y1573D01*
X0843Y1583D02*
X0854D01*
X0847Y1558D02*
Y156D01*
X0848Y1561*
Y1569*
Y1573*
X0855Y1578D02*
Y1582D01*
X0854Y1583D02*
X0855Y1582D01*
X08342Y1573D02*
Y15805D01*
X08295D02*
X08342D01*
X08365*
X0837Y158D02*
X0843D01*
X08365Y15805D02*
X0837Y158D01*
X08449Y1545D02*
Y15484D01*
X08489Y15524*
Y15602*
X085Y15613*
Y1567*
Y1567D02*
Y1573D01*
X085Y1567D02*
X0855D01*
X0843Y158D02*
X085Y1573D01*
X08331Y1543D02*
X08342D01*
X08387*
X08342Y1563D02*
X08392D01*
X08387Y1543D02*
X08397Y1544D01*
X08392Y1563D02*
X08397Y15625D01*
Y1544D02*
Y15625D01*
X0828Y15585D02*
Y156D01*
Y15585D02*
X08285Y1558D01*
X08342*
X07995Y154D02*
X0803D01*
X07935Y1546D02*
X07995Y154D01*
X0803D02*
X0805Y1538D01*
Y15355D02*
Y1538D01*
X08102Y15302D02*
X0812D01*
X08122Y153*
X08135*
X0856D02*
X08584Y15324D01*
X08539Y1545D02*
X08584D01*
Y15324D02*
Y1545D01*
D01*
X08583Y15768D02*
X08584Y1545D01*
X0855Y1578D02*
X08579D01*
X08584Y15768D02*
Y15776D01*
X08579Y1578D02*
X08584Y15776D01*
X07892Y15339D02*
X07902Y15329D01*
X08002*
X07892Y15339D02*
Y15753D01*
X07923Y15784*
X08011Y15301D02*
Y1532D01*
X07923Y15784D02*
Y15807D01*
X08002Y15329D02*
X08011Y1532D01*
X07923Y15732D02*
X07924D01*
X08016Y1577D02*
X08017D01*
X0801Y15301D02*
X08011D01*
X0845Y1556D02*
Y1556D01*
D01*
X0847Y1558*
X0794Y1551D02*
X0796D01*
X07999Y15549*
X0804*
X08185Y158D02*
Y15805D01*
X08193Y15356D02*
Y15357D01*
X08468D02*
X08507D01*
X07935Y14935D02*
Y1497D01*
X07964Y14999*
X0819*
X08202Y14987D02*
X08396D01*
X0819Y14999D02*
X08202Y14987D01*
X08377Y14696D02*
Y14725D01*
X08376Y14696D02*
X08377D01*
Y14725D02*
X08405Y14753D01*
Y14978*
X08396Y14987D02*
X08405Y14978D01*
X08206Y14642D02*
X08222D01*
X08243Y1462D02*
X0837D01*
X08222Y14642D02*
X08243Y1462D01*
X08222Y14642D02*
X0825Y1467D01*
X0828Y1475D02*
Y1481D01*
X0825Y1467D02*
X083D01*
X0828Y1481D02*
X0829Y1482D01*
X0837Y1462D02*
X08376Y14626D01*
Y14641*
X08377*
X083Y1467D02*
X0831Y1468D01*
Y1472*
X0828Y1475D02*
X0831Y1472D01*
X0829Y1482D02*
X08342D01*
X07897Y14642D02*
X07919D01*
X07883Y14656D02*
X07897Y14642D01*
X07883Y14656D02*
Y15163D01*
X07941Y1462D02*
X08145D01*
X07919Y14642D02*
X07941Y1462D01*
X0804Y1476D02*
X0805Y1475D01*
X07883Y15163D02*
X079Y1518D01*
X0804Y1476D02*
Y14799D01*
X079Y1518D02*
X0818D01*
X0805Y1475D02*
X0809D01*
X08145Y1462D02*
X08155Y1463D01*
X0809Y1475D02*
X08155Y14685D01*
Y1463D02*
Y14685D01*
X0818Y1518D02*
X08185Y15174D01*
Y15145D02*
Y15174D01*
X07901Y14768D02*
X07919Y1475D01*
X07901Y14768D02*
Y14962D01*
X08016Y15077*
X07919Y14693D02*
Y14697D01*
Y1475*
X08016Y15077D02*
Y1511D01*
X0819Y1505D02*
X08215D01*
X0817Y1507D02*
X0819Y1505D01*
X08215D02*
X08445D01*
X08215D02*
Y15085D01*
X08225Y151*
X08445Y1505D02*
X0845Y15055D01*
X08413Y14761D02*
Y15D01*
X08195Y1502D02*
X08215Y15D01*
X08424Y1475D02*
X085D01*
X08413Y14761D02*
X08424Y1475D01*
X08137Y1502D02*
X08195D01*
X08215Y15D02*
X08413D01*
X0845*
X085Y1475D02*
X08505D01*
X085D02*
Y14895D01*
X08505Y1475D02*
X0856Y14695D01*
X085Y14895D02*
X08505Y149D01*
X0854*
X08193Y14697D02*
X0824D01*
Y14696D02*
Y14697D01*
Y14696D02*
X08285D01*
Y14641D02*
X08313Y1467D01*
X0833*
X08331D02*
X0835D01*
X08331Y14739D02*
Y1477D01*
Y14739D02*
X0835Y1472D01*
Y1467D02*
X0844D01*
X0835D02*
Y1472D01*
X0844Y1467D02*
X08468Y14642D01*
X0828Y1487D02*
X08342D01*
X08137Y1507D02*
X0817D01*
X0804Y148D02*
X0807D01*
X0808Y1481*
Y1497*
X08137*
X08342Y1502D02*
X084D01*
X08342Y15021D02*
X08342D01*
X084Y1502D02*
X0841Y1503D01*
X084Y1516D02*
X0842D01*
X084Y1512D02*
X0843D01*
X0841Y1503D02*
X0848D01*
X0842Y1516D02*
X0843Y1517D01*
Y1512D02*
X0848Y1507D01*
X0843Y1517D02*
X0854D01*
X0847Y1492D02*
Y1494D01*
X0848Y1495*
Y1503*
Y1507*
X0855Y1512D02*
Y1516D01*
X0854Y1517D02*
X0855Y1516D01*
X08342Y1507D02*
Y15145D01*
X08295D02*
X08342D01*
X08365*
X0837Y1514D02*
X0843D01*
X08365Y15145D02*
X0837Y1514D01*
X08449Y1479D02*
Y14824D01*
X08489Y14864*
Y14942*
X085Y14953*
Y1501*
Y1501D02*
Y1507D01*
X085Y1501D02*
X0855D01*
X0843Y1514D02*
X085Y1507D01*
X08331Y1477D02*
X08342D01*
X08387*
X08342Y1497D02*
X08392D01*
X08387Y1477D02*
X08397Y1478D01*
X08392Y1497D02*
X08397Y14965D01*
Y1478D02*
Y14965D01*
X0828Y14925D02*
Y1494D01*
Y14925D02*
X08285Y1492D01*
X08342*
X07995Y1474D02*
X0803D01*
X07935Y148D02*
X07995Y1474D01*
X0803D02*
X0805Y1472D01*
Y14695D02*
Y1472D01*
X08102Y14642D02*
X0812D01*
X08122Y1464*
X08135*
X0856D02*
X08584Y14664D01*
X08539Y1479D02*
X08584D01*
Y14664D02*
Y1479D01*
D01*
X08583Y15108D02*
X08584Y1479D01*
X0855Y1512D02*
X08579D01*
X08584Y15108D02*
Y15116D01*
X08579Y1512D02*
X08584Y15116D01*
X07892Y14679D02*
X07902Y14669D01*
X08002*
X07892Y14679D02*
Y15093D01*
X07923Y15124*
X08011Y14641D02*
Y1466D01*
X07923Y15124D02*
Y15147D01*
X08002Y14669D02*
X08011Y1466D01*
X07923Y15072D02*
X07924D01*
X08016Y1511D02*
X08017D01*
X0801Y14641D02*
X08011D01*
X0845Y149D02*
Y149D01*
D01*
X0847Y1492*
X0794Y1485D02*
X0796D01*
X07999Y14889*
X0804*
X08185Y1514D02*
Y15145D01*
X08193Y14696D02*
Y14697D01*
X08468D02*
X08507D01*
X07935Y14275D02*
Y1431D01*
X07964Y14339*
X0819*
X08202Y14327D02*
X08396D01*
X0819Y14339D02*
X08202Y14327D01*
X08377Y14036D02*
Y14065D01*
X08376Y14036D02*
X08377D01*
Y14065D02*
X08405Y14093D01*
Y14318*
X08396Y14327D02*
X08405Y14318D01*
X08206Y13982D02*
X08222D01*
X08243Y1396D02*
X0837D01*
X08222Y13982D02*
X08243Y1396D01*
X08222Y13982D02*
X0825Y1401D01*
X0828Y1409D02*
Y1415D01*
X0825Y1401D02*
X083D01*
X0828Y1415D02*
X0829Y1416D01*
X0837Y1396D02*
X08376Y13966D01*
Y13981*
X08377*
X083Y1401D02*
X0831Y1402D01*
Y1406*
X0828Y1409D02*
X0831Y1406D01*
X0829Y1416D02*
X08342D01*
X07897Y13982D02*
X07919D01*
X07883Y13996D02*
X07897Y13982D01*
X07883Y13996D02*
Y14503D01*
X07941Y1396D02*
X08145D01*
X07919Y13982D02*
X07941Y1396D01*
X0804Y141D02*
X0805Y1409D01*
X07883Y14503D02*
X079Y1452D01*
X0804Y141D02*
Y14139D01*
X079Y1452D02*
X0818D01*
X0805Y1409D02*
X0809D01*
X08145Y1396D02*
X08155Y1397D01*
X0809Y1409D02*
X08155Y14025D01*
Y1397D02*
Y14025D01*
X0818Y1452D02*
X08185Y14514D01*
Y14485D02*
Y14514D01*
X07901Y14108D02*
X07919Y1409D01*
X07901Y14108D02*
Y14302D01*
X08016Y14417*
X07919Y14033D02*
Y14037D01*
Y1409*
X08016Y14417D02*
Y1445D01*
X0819Y1439D02*
X08215D01*
X0817Y1441D02*
X0819Y1439D01*
X08215D02*
X08445D01*
X08215D02*
Y14425D01*
X08225Y1444*
X08445Y1439D02*
X0845Y14395D01*
X08413Y14101D02*
Y1434D01*
X08195Y1436D02*
X08215Y1434D01*
X08424Y1409D02*
X085D01*
X08413Y14101D02*
X08424Y1409D01*
X08137Y1436D02*
X08195D01*
X08215Y1434D02*
X08413D01*
X0845*
X085Y1409D02*
X08505D01*
X085D02*
Y14235D01*
X08505Y1409D02*
X0856Y14035D01*
X085Y14235D02*
X08505Y1424D01*
X0854*
X08193Y14037D02*
X0824D01*
Y14036D02*
Y14037D01*
Y14036D02*
X08285D01*
Y13981D02*
X08313Y1401D01*
X0833*
X08331D02*
X0835D01*
X08331Y14079D02*
Y1411D01*
Y14079D02*
X0835Y1406D01*
Y1401D02*
X0844D01*
X0835D02*
Y1406D01*
X0844Y1401D02*
X08468Y13982D01*
X0828Y1421D02*
X08342D01*
X08137Y1441D02*
X0817D01*
X0804Y1414D02*
X0807D01*
X0808Y1415*
Y1431*
X08137*
X08342Y1436D02*
X084D01*
X08342Y14361D02*
X08342D01*
X084Y1436D02*
X0841Y1437D01*
X084Y145D02*
X0842D01*
X084Y1446D02*
X0843D01*
X0841Y1437D02*
X0848D01*
X0842Y145D02*
X0843Y1451D01*
Y1446D02*
X0848Y1441D01*
X0843Y1451D02*
X0854D01*
X0847Y1426D02*
Y1428D01*
X0848Y1429*
Y1437*
Y1441*
X0855Y1446D02*
Y145D01*
X0854Y1451D02*
X0855Y145D01*
X08342Y1441D02*
Y14485D01*
X08295D02*
X08342D01*
X08365*
X0837Y1448D02*
X0843D01*
X08365Y14485D02*
X0837Y1448D01*
X08449Y1413D02*
Y14164D01*
X08489Y14204*
Y14282*
X085Y14293*
Y1435*
Y1435D02*
Y1441D01*
X085Y1435D02*
X0855D01*
X0843Y1448D02*
X085Y1441D01*
X08331Y1411D02*
X08342D01*
X08387*
X08342Y1431D02*
X08392D01*
X08387Y1411D02*
X08397Y1412D01*
X08392Y1431D02*
X08397Y14305D01*
Y1412D02*
Y14305D01*
X0828Y14265D02*
Y1428D01*
Y14265D02*
X08285Y1426D01*
X08342*
X07995Y1408D02*
X0803D01*
X07935Y1414D02*
X07995Y1408D01*
X0803D02*
X0805Y1406D01*
Y14035D02*
Y1406D01*
X08102Y13982D02*
X0812D01*
X08122Y1398*
X08135*
X0856D02*
X08584Y14004D01*
X08539Y1413D02*
X08584D01*
Y14004D02*
Y1413D01*
D01*
X08583Y14448D02*
X08584Y1413D01*
X0855Y1446D02*
X08579D01*
X08584Y14448D02*
Y14456D01*
X08579Y1446D02*
X08584Y14456D01*
X07892Y14019D02*
X07902Y14009D01*
X08002*
X07892Y14019D02*
Y14433D01*
X07923Y14464*
X08011Y13981D02*
Y14D01*
X07923Y14464D02*
Y14487D01*
X08002Y14009D02*
X08011Y14D01*
X07923Y14412D02*
X07924D01*
X08016Y1445D02*
X08017D01*
X0801Y13981D02*
X08011D01*
X0845Y1424D02*
Y1424D01*
D01*
X0847Y1426*
X0794Y1419D02*
X0796D01*
X07999Y14229*
X0804*
X08185Y1448D02*
Y14485D01*
X08193Y14036D02*
Y14037D01*
X08468D02*
X08507D01*
X07935Y13615D02*
Y1365D01*
X07964Y13679*
X0819*
X08202Y13667D02*
X08396D01*
X0819Y13679D02*
X08202Y13667D01*
X08377Y13376D02*
Y13405D01*
X08376Y13376D02*
X08377D01*
Y13405D02*
X08405Y13433D01*
Y13658*
X08396Y13667D02*
X08405Y13658D01*
X08206Y13322D02*
X08222D01*
X08243Y133D02*
X0837D01*
X08222Y13322D02*
X08243Y133D01*
X08222Y13322D02*
X0825Y1335D01*
X0828Y1343D02*
Y1349D01*
X0825Y1335D02*
X083D01*
X0828Y1349D02*
X0829Y135D01*
X0837Y133D02*
X08376Y13306D01*
Y13321*
X08377*
X083Y1335D02*
X0831Y1336D01*
Y134*
X0828Y1343D02*
X0831Y134D01*
X0829Y135D02*
X08342D01*
X07897Y13322D02*
X07919D01*
X07883Y13336D02*
X07897Y13322D01*
X07883Y13336D02*
Y13843D01*
X07941Y133D02*
X08145D01*
X07919Y13322D02*
X07941Y133D01*
X0804Y1344D02*
X0805Y1343D01*
X07883Y13843D02*
X079Y1386D01*
X0804Y1344D02*
Y13479D01*
X079Y1386D02*
X0818D01*
X0805Y1343D02*
X0809D01*
X08145Y133D02*
X08155Y1331D01*
X0809Y1343D02*
X08155Y13365D01*
Y1331D02*
Y13365D01*
X0818Y1386D02*
X08185Y13854D01*
Y13825D02*
Y13854D01*
X07901Y13448D02*
X07919Y1343D01*
X07901Y13448D02*
Y13642D01*
X08016Y13757*
X07919Y13373D02*
Y13377D01*
Y1343*
X08016Y13757D02*
Y1379D01*
X0819Y1373D02*
X08215D01*
X0817Y1375D02*
X0819Y1373D01*
X08215D02*
X08445D01*
X08215D02*
Y13765D01*
X08225Y1378*
X08445Y1373D02*
X0845Y13735D01*
X08413Y13441D02*
Y1368D01*
X08195Y137D02*
X08215Y1368D01*
X08424Y1343D02*
X085D01*
X08413Y13441D02*
X08424Y1343D01*
X08137Y137D02*
X08195D01*
X08215Y1368D02*
X08413D01*
X0845*
X085Y1343D02*
X08505D01*
X085D02*
Y13575D01*
X08505Y1343D02*
X0856Y13375D01*
X085Y13575D02*
X08505Y1358D01*
X0854*
X08193Y13377D02*
X0824D01*
Y13376D02*
Y13377D01*
Y13376D02*
X08285D01*
Y13321D02*
X08313Y1335D01*
X0833*
X08331D02*
X0835D01*
X08331Y13419D02*
Y1345D01*
Y13419D02*
X0835Y134D01*
Y1335D02*
X0844D01*
X0835D02*
Y134D01*
X0844Y1335D02*
X08468Y13322D01*
X0828Y1355D02*
X08342D01*
X08137Y1375D02*
X0817D01*
X0804Y1348D02*
X0807D01*
X0808Y1349*
Y1365*
X08137*
X08342Y137D02*
X084D01*
X08342Y13701D02*
X08342D01*
X084Y137D02*
X0841Y1371D01*
X084Y1384D02*
X0842D01*
X084Y138D02*
X0843D01*
X0841Y1371D02*
X0848D01*
X0842Y1384D02*
X0843Y1385D01*
Y138D02*
X0848Y1375D01*
X0843Y1385D02*
X0854D01*
X0847Y136D02*
Y1362D01*
X0848Y1363*
Y1371*
Y1375*
X0855Y138D02*
Y1384D01*
X0854Y1385D02*
X0855Y1384D01*
X08342Y1375D02*
Y13825D01*
X08295D02*
X08342D01*
X08365*
X0837Y1382D02*
X0843D01*
X08365Y13825D02*
X0837Y1382D01*
X08449Y1347D02*
Y13504D01*
X08489Y13544*
Y13622*
X085Y13633*
Y1369*
Y1369D02*
Y1375D01*
X085Y1369D02*
X0855D01*
X0843Y1382D02*
X085Y1375D01*
X08331Y1345D02*
X08342D01*
X08387*
X08342Y1365D02*
X08392D01*
X08387Y1345D02*
X08397Y1346D01*
X08392Y1365D02*
X08397Y13645D01*
Y1346D02*
Y13645D01*
X0828Y13605D02*
Y1362D01*
Y13605D02*
X08285Y136D01*
X08342*
X07995Y1342D02*
X0803D01*
X07935Y1348D02*
X07995Y1342D01*
X0803D02*
X0805Y134D01*
Y13375D02*
Y134D01*
X08102Y13322D02*
X0812D01*
X08122Y1332*
X08135*
X0856D02*
X08584Y13344D01*
X08539Y1347D02*
X08584D01*
Y13344D02*
Y1347D01*
D01*
X08583Y13788D02*
X08584Y1347D01*
X0855Y138D02*
X08579D01*
X08584Y13788D02*
Y13796D01*
X08579Y138D02*
X08584Y13796D01*
X07892Y13359D02*
X07902Y13349D01*
X08002*
X07892Y13359D02*
Y13773D01*
X07923Y13804*
X08011Y13321D02*
Y1334D01*
X07923Y13804D02*
Y13827D01*
X08002Y13349D02*
X08011Y1334D01*
X07923Y13752D02*
X07924D01*
X08016Y1379D02*
X08017D01*
X0801Y13321D02*
X08011D01*
X0845Y1358D02*
Y1358D01*
D01*
X0847Y136*
X0794Y1353D02*
X0796D01*
X07999Y13569*
X0804*
X08185Y1382D02*
Y13825D01*
X08193Y13376D02*
Y13377D01*
X08468D02*
X08507D01*
X08675Y15595D02*
Y1563D01*
X08704Y15659*
X0893*
X08942Y15647D02*
X09136D01*
X0893Y15659D02*
X08942Y15647D01*
X09117Y15356D02*
Y15385D01*
X09116Y15356D02*
X09117D01*
Y15385D02*
X09145Y15413D01*
Y15638*
X09136Y15647D02*
X09145Y15638D01*
X08946Y15302D02*
X08962D01*
X08983Y1528D02*
X0911D01*
X08962Y15302D02*
X08983Y1528D01*
X08962Y15302D02*
X0899Y1533D01*
X0902Y1541D02*
Y1547D01*
X0899Y1533D02*
X0904D01*
X0902Y1547D02*
X0903Y1548D01*
X0911Y1528D02*
X09116Y15286D01*
Y15301*
X09117*
X0904Y1533D02*
X0905Y1534D01*
Y1538*
X0902Y1541D02*
X0905Y1538D01*
X0903Y1548D02*
X09082D01*
X08637Y15302D02*
X08659D01*
X08623Y15316D02*
X08637Y15302D01*
X08623Y15316D02*
Y15823D01*
X08681Y1528D02*
X08885D01*
X08659Y15302D02*
X08681Y1528D01*
X0878Y1542D02*
X0879Y1541D01*
X08623Y15823D02*
X0864Y1584D01*
X0878Y1542D02*
Y15459D01*
X0864Y1584D02*
X0892D01*
X0879Y1541D02*
X0883D01*
X08885Y1528D02*
X08895Y1529D01*
X0883Y1541D02*
X08895Y15345D01*
Y1529D02*
Y15345D01*
X0892Y1584D02*
X08925Y15834D01*
Y15805D02*
Y15834D01*
X08641Y15428D02*
X08659Y1541D01*
X08641Y15428D02*
Y15622D01*
X08756Y15737*
X08659Y15353D02*
Y15357D01*
Y1541*
X08756Y15737D02*
Y1577D01*
X0893Y1571D02*
X08955D01*
X0891Y1573D02*
X0893Y1571D01*
X08955D02*
X09185D01*
X08955D02*
Y15745D01*
X08965Y1576*
X09185Y1571D02*
X0919Y15715D01*
X09153Y15421D02*
Y1566D01*
X08935Y1568D02*
X08955Y1566D01*
X09164Y1541D02*
X0924D01*
X09153Y15421D02*
X09164Y1541D01*
X08877Y1568D02*
X08935D01*
X08955Y1566D02*
X09153D01*
X0919*
X0924Y1541D02*
X09245D01*
X0924D02*
Y15555D01*
X09245Y1541D02*
X093Y15355D01*
X0924Y15555D02*
X09245Y1556D01*
X0928*
X08933Y15357D02*
X0898D01*
Y15356D02*
Y15357D01*
Y15356D02*
X09025D01*
Y15301D02*
X09053Y1533D01*
X0907*
X09071D02*
X0909D01*
X09071Y15399D02*
Y1543D01*
Y15399D02*
X0909Y1538D01*
Y1533D02*
X0918D01*
X0909D02*
Y1538D01*
X0918Y1533D02*
X09208Y15302D01*
X0902Y1553D02*
X09082D01*
X08877Y1573D02*
X0891D01*
X0878Y1546D02*
X0881D01*
X0882Y1547*
Y1563*
X08877*
X09082Y1568D02*
X0914D01*
X09082Y15681D02*
X09082D01*
X0914Y1568D02*
X0915Y1569D01*
X0914Y1582D02*
X0916D01*
X0914Y1578D02*
X0917D01*
X0915Y1569D02*
X0922D01*
X0916Y1582D02*
X0917Y1583D01*
Y1578D02*
X0922Y1573D01*
X0917Y1583D02*
X0928D01*
X0921Y1558D02*
Y156D01*
X0922Y1561*
Y1569*
Y1573*
X0929Y1578D02*
Y1582D01*
X0928Y1583D02*
X0929Y1582D01*
X09082Y1573D02*
Y15805D01*
X09035D02*
X09082D01*
X09105*
X0911Y158D02*
X0917D01*
X09105Y15805D02*
X0911Y158D01*
X09189Y1545D02*
Y15484D01*
X09229Y15524*
Y15602*
X0924Y15613*
Y1567*
Y1567D02*
Y1573D01*
X0924Y1567D02*
X0929D01*
X0917Y158D02*
X0924Y1573D01*
X09071Y1543D02*
X09082D01*
X09127*
X09082Y1563D02*
X09132D01*
X09127Y1543D02*
X09137Y1544D01*
X09132Y1563D02*
X09137Y15625D01*
Y1544D02*
Y15625D01*
X0902Y15585D02*
Y156D01*
Y15585D02*
X09025Y1558D01*
X09082*
X08735Y154D02*
X0877D01*
X08675Y1546D02*
X08735Y154D01*
X0877D02*
X0879Y1538D01*
Y15355D02*
Y1538D01*
X08842Y15302D02*
X0886D01*
X08862Y153*
X08875*
X093D02*
X09324Y15324D01*
X09279Y1545D02*
X09324D01*
Y15324D02*
Y1545D01*
D01*
X09323Y15768D02*
X09324Y1545D01*
X0929Y1578D02*
X09319D01*
X09324Y15768D02*
Y15776D01*
X09319Y1578D02*
X09324Y15776D01*
X08632Y15339D02*
X08642Y15329D01*
X08742*
X08632Y15339D02*
Y15753D01*
X08663Y15784*
X08751Y15301D02*
Y1532D01*
X08663Y15784D02*
Y15807D01*
X08742Y15329D02*
X08751Y1532D01*
X08663Y15732D02*
X08664D01*
X08756Y1577D02*
X08757D01*
X0875Y15301D02*
X08751D01*
X0919Y1556D02*
Y1556D01*
D01*
X0921Y1558*
X0868Y1551D02*
X087D01*
X08739Y15549*
X0878*
X08925Y158D02*
Y15805D01*
X08933Y15356D02*
Y15357D01*
X09208D02*
X09247D01*
X08675Y14935D02*
Y1497D01*
X08704Y14999*
X0893*
X08942Y14987D02*
X09136D01*
X0893Y14999D02*
X08942Y14987D01*
X09117Y14696D02*
Y14725D01*
X09116Y14696D02*
X09117D01*
Y14725D02*
X09145Y14753D01*
Y14978*
X09136Y14987D02*
X09145Y14978D01*
X08946Y14642D02*
X08962D01*
X08983Y1462D02*
X0911D01*
X08962Y14642D02*
X08983Y1462D01*
X08962Y14642D02*
X0899Y1467D01*
X0902Y1475D02*
Y1481D01*
X0899Y1467D02*
X0904D01*
X0902Y1481D02*
X0903Y1482D01*
X0911Y1462D02*
X09116Y14626D01*
Y14641*
X09117*
X0904Y1467D02*
X0905Y1468D01*
Y1472*
X0902Y1475D02*
X0905Y1472D01*
X0903Y1482D02*
X09082D01*
X08637Y14642D02*
X08659D01*
X08623Y14656D02*
X08637Y14642D01*
X08623Y14656D02*
Y15163D01*
X08681Y1462D02*
X08885D01*
X08659Y14642D02*
X08681Y1462D01*
X0878Y1476D02*
X0879Y1475D01*
X08623Y15163D02*
X0864Y1518D01*
X0878Y1476D02*
Y14799D01*
X0864Y1518D02*
X0892D01*
X0879Y1475D02*
X0883D01*
X08885Y1462D02*
X08895Y1463D01*
X0883Y1475D02*
X08895Y14685D01*
Y1463D02*
Y14685D01*
X0892Y1518D02*
X08925Y15174D01*
Y15145D02*
Y15174D01*
X08641Y14768D02*
X08659Y1475D01*
X08641Y14768D02*
Y14962D01*
X08756Y15077*
X08659Y14693D02*
Y14697D01*
Y1475*
X08756Y15077D02*
Y1511D01*
X0893Y1505D02*
X08955D01*
X0891Y1507D02*
X0893Y1505D01*
X08955D02*
X09185D01*
X08955D02*
Y15085D01*
X08965Y151*
X09185Y1505D02*
X0919Y15055D01*
X09153Y14761D02*
Y15D01*
X08935Y1502D02*
X08955Y15D01*
X09164Y1475D02*
X0924D01*
X09153Y14761D02*
X09164Y1475D01*
X08877Y1502D02*
X08935D01*
X08955Y15D02*
X09153D01*
X0919*
X0924Y1475D02*
X09245D01*
X0924D02*
Y14895D01*
X09245Y1475D02*
X093Y14695D01*
X0924Y14895D02*
X09245Y149D01*
X0928*
X08933Y14697D02*
X0898D01*
Y14696D02*
Y14697D01*
Y14696D02*
X09025D01*
Y14641D02*
X09053Y1467D01*
X0907*
X09071D02*
X0909D01*
X09071Y14739D02*
Y1477D01*
Y14739D02*
X0909Y1472D01*
Y1467D02*
X0918D01*
X0909D02*
Y1472D01*
X0918Y1467D02*
X09208Y14642D01*
X0902Y1487D02*
X09082D01*
X08877Y1507D02*
X0891D01*
X0878Y148D02*
X0881D01*
X0882Y1481*
Y1497*
X08877*
X09082Y1502D02*
X0914D01*
X09082Y15021D02*
X09082D01*
X0914Y1502D02*
X0915Y1503D01*
X0914Y1516D02*
X0916D01*
X0914Y1512D02*
X0917D01*
X0915Y1503D02*
X0922D01*
X0916Y1516D02*
X0917Y1517D01*
Y1512D02*
X0922Y1507D01*
X0917Y1517D02*
X0928D01*
X0921Y1492D02*
Y1494D01*
X0922Y1495*
Y1503*
Y1507*
X0929Y1512D02*
Y1516D01*
X0928Y1517D02*
X0929Y1516D01*
X09082Y1507D02*
Y15145D01*
X09035D02*
X09082D01*
X09105*
X0911Y1514D02*
X0917D01*
X09105Y15145D02*
X0911Y1514D01*
X09189Y1479D02*
Y14824D01*
X09229Y14864*
Y14942*
X0924Y14953*
Y1501*
Y1501D02*
Y1507D01*
X0924Y1501D02*
X0929D01*
X0917Y1514D02*
X0924Y1507D01*
X09071Y1477D02*
X09082D01*
X09127*
X09082Y1497D02*
X09132D01*
X09127Y1477D02*
X09137Y1478D01*
X09132Y1497D02*
X09137Y14965D01*
Y1478D02*
Y14965D01*
X0902Y14925D02*
Y1494D01*
Y14925D02*
X09025Y1492D01*
X09082*
X08735Y1474D02*
X0877D01*
X08675Y148D02*
X08735Y1474D01*
X0877D02*
X0879Y1472D01*
Y14695D02*
Y1472D01*
X08842Y14642D02*
X0886D01*
X08862Y1464*
X08875*
X093D02*
X09324Y14664D01*
X09279Y1479D02*
X09324D01*
Y14664D02*
Y1479D01*
D01*
X09323Y15108D02*
X09324Y1479D01*
X0929Y1512D02*
X09319D01*
X09324Y15108D02*
Y15116D01*
X09319Y1512D02*
X09324Y15116D01*
X08632Y14679D02*
X08642Y14669D01*
X08742*
X08632Y14679D02*
Y15093D01*
X08663Y15124*
X08751Y14641D02*
Y1466D01*
X08663Y15124D02*
Y15147D01*
X08742Y14669D02*
X08751Y1466D01*
X08663Y15072D02*
X08664D01*
X08756Y1511D02*
X08757D01*
X0875Y14641D02*
X08751D01*
X0919Y149D02*
Y149D01*
D01*
X0921Y1492*
X0868Y1485D02*
X087D01*
X08739Y14889*
X0878*
X08925Y1514D02*
Y15145D01*
X08933Y14696D02*
Y14697D01*
X09208D02*
X09247D01*
X08675Y14275D02*
Y1431D01*
X08704Y14339*
X0893*
X08942Y14327D02*
X09136D01*
X0893Y14339D02*
X08942Y14327D01*
X09117Y14036D02*
Y14065D01*
X09116Y14036D02*
X09117D01*
Y14065D02*
X09145Y14093D01*
Y14318*
X09136Y14327D02*
X09145Y14318D01*
X08946Y13982D02*
X08962D01*
X08983Y1396D02*
X0911D01*
X08962Y13982D02*
X08983Y1396D01*
X08962Y13982D02*
X0899Y1401D01*
X0902Y1409D02*
Y1415D01*
X0899Y1401D02*
X0904D01*
X0902Y1415D02*
X0903Y1416D01*
X0911Y1396D02*
X09116Y13966D01*
Y13981*
X09117*
X0904Y1401D02*
X0905Y1402D01*
Y1406*
X0902Y1409D02*
X0905Y1406D01*
X0903Y1416D02*
X09082D01*
X08637Y13982D02*
X08659D01*
X08623Y13996D02*
X08637Y13982D01*
X08623Y13996D02*
Y14503D01*
X08681Y1396D02*
X08885D01*
X08659Y13982D02*
X08681Y1396D01*
X0878Y141D02*
X0879Y1409D01*
X08623Y14503D02*
X0864Y1452D01*
X0878Y141D02*
Y14139D01*
X0864Y1452D02*
X0892D01*
X0879Y1409D02*
X0883D01*
X08885Y1396D02*
X08895Y1397D01*
X0883Y1409D02*
X08895Y14025D01*
Y1397D02*
Y14025D01*
X0892Y1452D02*
X08925Y14514D01*
Y14485D02*
Y14514D01*
X08641Y14108D02*
X08659Y1409D01*
X08641Y14108D02*
Y14302D01*
X08756Y14417*
X08659Y14033D02*
Y14037D01*
Y1409*
X08756Y14417D02*
Y1445D01*
X0893Y1439D02*
X08955D01*
X0891Y1441D02*
X0893Y1439D01*
X08955D02*
X09185D01*
X08955D02*
Y14425D01*
X08965Y1444*
X09185Y1439D02*
X0919Y14395D01*
X09153Y14101D02*
Y1434D01*
X08935Y1436D02*
X08955Y1434D01*
X09164Y1409D02*
X0924D01*
X09153Y14101D02*
X09164Y1409D01*
X08877Y1436D02*
X08935D01*
X08955Y1434D02*
X09153D01*
X0919*
X0924Y1409D02*
X09245D01*
X0924D02*
Y14235D01*
X09245Y1409D02*
X093Y14035D01*
X0924Y14235D02*
X09245Y1424D01*
X0928*
X08933Y14037D02*
X0898D01*
Y14036D02*
Y14037D01*
Y14036D02*
X09025D01*
Y13981D02*
X09053Y1401D01*
X0907*
X09071D02*
X0909D01*
X09071Y14079D02*
Y1411D01*
Y14079D02*
X0909Y1406D01*
Y1401D02*
X0918D01*
X0909D02*
Y1406D01*
X0918Y1401D02*
X09208Y13982D01*
X0902Y1421D02*
X09082D01*
X08877Y1441D02*
X0891D01*
X0878Y1414D02*
X0881D01*
X0882Y1415*
Y1431*
X08877*
X09082Y1436D02*
X0914D01*
X09082Y14361D02*
X09082D01*
X0914Y1436D02*
X0915Y1437D01*
X0914Y145D02*
X0916D01*
X0914Y1446D02*
X0917D01*
X0915Y1437D02*
X0922D01*
X0916Y145D02*
X0917Y1451D01*
Y1446D02*
X0922Y1441D01*
X0917Y1451D02*
X0928D01*
X0921Y1426D02*
Y1428D01*
X0922Y1429*
Y1437*
Y1441*
X0929Y1446D02*
Y145D01*
X0928Y1451D02*
X0929Y145D01*
X09082Y1441D02*
Y14485D01*
X09035D02*
X09082D01*
X09105*
X0911Y1448D02*
X0917D01*
X09105Y14485D02*
X0911Y1448D01*
X09189Y1413D02*
Y14164D01*
X09229Y14204*
Y14282*
X0924Y14293*
Y1435*
Y1435D02*
Y1441D01*
X0924Y1435D02*
X0929D01*
X0917Y1448D02*
X0924Y1441D01*
X09071Y1411D02*
X09082D01*
X09127*
X09082Y1431D02*
X09132D01*
X09127Y1411D02*
X09137Y1412D01*
X09132Y1431D02*
X09137Y14305D01*
Y1412D02*
Y14305D01*
X0902Y14265D02*
Y1428D01*
Y14265D02*
X09025Y1426D01*
X09082*
X08735Y1408D02*
X0877D01*
X08675Y1414D02*
X08735Y1408D01*
X0877D02*
X0879Y1406D01*
Y14035D02*
Y1406D01*
X08842Y13982D02*
X0886D01*
X08862Y1398*
X08875*
X093D02*
X09324Y14004D01*
X09279Y1413D02*
X09324D01*
Y14004D02*
Y1413D01*
D01*
X09323Y14448D02*
X09324Y1413D01*
X0929Y1446D02*
X09319D01*
X09324Y14448D02*
Y14456D01*
X09319Y1446D02*
X09324Y14456D01*
X08632Y14019D02*
X08642Y14009D01*
X08742*
X08632Y14019D02*
Y14433D01*
X08663Y14464*
X08751Y13981D02*
Y14D01*
X08663Y14464D02*
Y14487D01*
X08742Y14009D02*
X08751Y14D01*
X08663Y14412D02*
X08664D01*
X08756Y1445D02*
X08757D01*
X0875Y13981D02*
X08751D01*
X0919Y1424D02*
Y1424D01*
D01*
X0921Y1426*
X0868Y1419D02*
X087D01*
X08739Y14229*
X0878*
X08925Y1448D02*
Y14485D01*
X08933Y14036D02*
Y14037D01*
X09208D02*
X09247D01*
X08675Y13615D02*
Y1365D01*
X08704Y13679*
X0893*
X08942Y13667D02*
X09136D01*
X0893Y13679D02*
X08942Y13667D01*
X09117Y13376D02*
Y13405D01*
X09116Y13376D02*
X09117D01*
Y13405D02*
X09145Y13433D01*
Y13658*
X09136Y13667D02*
X09145Y13658D01*
X08946Y13322D02*
X08962D01*
X08983Y133D02*
X0911D01*
X08962Y13322D02*
X08983Y133D01*
X08962Y13322D02*
X0899Y1335D01*
X0902Y1343D02*
Y1349D01*
X0899Y1335D02*
X0904D01*
X0902Y1349D02*
X0903Y135D01*
X0911Y133D02*
X09116Y13306D01*
Y13321*
X09117*
X0904Y1335D02*
X0905Y1336D01*
Y134*
X0902Y1343D02*
X0905Y134D01*
X0903Y135D02*
X09082D01*
X08637Y13322D02*
X08659D01*
X08623Y13336D02*
X08637Y13322D01*
X08623Y13336D02*
Y13843D01*
X08681Y133D02*
X08885D01*
X08659Y13322D02*
X08681Y133D01*
X0878Y1344D02*
X0879Y1343D01*
X08623Y13843D02*
X0864Y1386D01*
X0878Y1344D02*
Y13479D01*
X0864Y1386D02*
X0892D01*
X0879Y1343D02*
X0883D01*
X08885Y133D02*
X08895Y1331D01*
X0883Y1343D02*
X08895Y13365D01*
Y1331D02*
Y13365D01*
X0892Y1386D02*
X08925Y13854D01*
Y13825D02*
Y13854D01*
X08641Y13448D02*
X08659Y1343D01*
X08641Y13448D02*
Y13642D01*
X08756Y13757*
X08659Y13373D02*
Y13377D01*
Y1343*
X08756Y13757D02*
Y1379D01*
X0893Y1373D02*
X08955D01*
X0891Y1375D02*
X0893Y1373D01*
X08955D02*
X09185D01*
X08955D02*
Y13765D01*
X08965Y1378*
X09185Y1373D02*
X0919Y13735D01*
X09153Y13441D02*
Y1368D01*
X08935Y137D02*
X08955Y1368D01*
X09164Y1343D02*
X0924D01*
X09153Y13441D02*
X09164Y1343D01*
X08877Y137D02*
X08935D01*
X08955Y1368D02*
X09153D01*
X0919*
X0924Y1343D02*
X09245D01*
X0924D02*
Y13575D01*
X09245Y1343D02*
X093Y13375D01*
X0924Y13575D02*
X09245Y1358D01*
X0928*
X08933Y13377D02*
X0898D01*
Y13376D02*
Y13377D01*
Y13376D02*
X09025D01*
Y13321D02*
X09053Y1335D01*
X0907*
X09071D02*
X0909D01*
X09071Y13419D02*
Y1345D01*
Y13419D02*
X0909Y134D01*
Y1335D02*
X0918D01*
X0909D02*
Y134D01*
X0918Y1335D02*
X09208Y13322D01*
X0902Y1355D02*
X09082D01*
X08877Y1375D02*
X0891D01*
X0878Y1348D02*
X0881D01*
X0882Y1349*
Y1365*
X08877*
X09082Y137D02*
X0914D01*
X09082Y13701D02*
X09082D01*
X0914Y137D02*
X0915Y1371D01*
X0914Y1384D02*
X0916D01*
X0914Y138D02*
X0917D01*
X0915Y1371D02*
X0922D01*
X0916Y1384D02*
X0917Y1385D01*
Y138D02*
X0922Y1375D01*
X0917Y1385D02*
X0928D01*
X0921Y136D02*
Y1362D01*
X0922Y1363*
Y1371*
Y1375*
X0929Y138D02*
Y1384D01*
X0928Y1385D02*
X0929Y1384D01*
X09082Y1375D02*
Y13825D01*
X09035D02*
X09082D01*
X09105*
X0911Y1382D02*
X0917D01*
X09105Y13825D02*
X0911Y1382D01*
X09189Y1347D02*
Y13504D01*
X09229Y13544*
Y13622*
X0924Y13633*
Y1369*
Y1369D02*
Y1375D01*
X0924Y1369D02*
X0929D01*
X0917Y1382D02*
X0924Y1375D01*
X09071Y1345D02*
X09082D01*
X09127*
X09082Y1365D02*
X09132D01*
X09127Y1345D02*
X09137Y1346D01*
X09132Y1365D02*
X09137Y13645D01*
Y1346D02*
Y13645D01*
X0902Y13605D02*
Y1362D01*
Y13605D02*
X09025Y136D01*
X09082*
X08735Y1342D02*
X0877D01*
X08675Y1348D02*
X08735Y1342D01*
X0877D02*
X0879Y134D01*
Y13375D02*
Y134D01*
X08842Y13322D02*
X0886D01*
X08862Y1332*
X08875*
X093D02*
X09324Y13344D01*
X09279Y1347D02*
X09324D01*
Y13344D02*
Y1347D01*
D01*
X09323Y13788D02*
X09324Y1347D01*
X0929Y138D02*
X09319D01*
X09324Y13788D02*
Y13796D01*
X09319Y138D02*
X09324Y13796D01*
X08632Y13359D02*
X08642Y13349D01*
X08742*
X08632Y13359D02*
Y13773D01*
X08663Y13804*
X08751Y13321D02*
Y1334D01*
X08663Y13804D02*
Y13827D01*
X08742Y13349D02*
X08751Y1334D01*
X08663Y13752D02*
X08664D01*
X08756Y1379D02*
X08757D01*
X0875Y13321D02*
X08751D01*
X0919Y1358D02*
Y1358D01*
D01*
X0921Y136*
X0868Y1353D02*
X087D01*
X08739Y13569*
X0878*
X08925Y1382D02*
Y13825D01*
X08933Y13376D02*
Y13377D01*
X09208D02*
X09247D01*
X0882Y1578D02*
Y1582D01*
X0894Y1556D02*
Y15575D01*
X08935Y1558D02*
X0894Y15575D01*
X08877Y1558D02*
X08935D01*
X0882Y1512D02*
Y1516D01*
X0894Y149D02*
Y14915D01*
X08935Y1492D02*
X0894Y14915D01*
X08877Y1492D02*
X08935D01*
X0882Y1446D02*
Y145D01*
X0894Y1424D02*
Y14255D01*
X08935Y1426D02*
X0894Y14255D01*
X08877Y1426D02*
X08935D01*
X0882Y138D02*
Y1384D01*
X0894Y1358D02*
Y13595D01*
X08935Y136D02*
X0894Y13595D01*
X08877Y136D02*
X08935D01*
X0808Y1578D02*
Y1582D01*
X082Y1556D02*
Y15575D01*
X08195Y1558D02*
X082Y15575D01*
X08137Y1558D02*
X08195D01*
X0808Y1512D02*
Y1516D01*
X082Y149D02*
Y14915D01*
X08195Y1492D02*
X082Y14915D01*
X08137Y1492D02*
X08195D01*
X0808Y1446D02*
Y145D01*
X082Y1424D02*
Y14255D01*
X08195Y1426D02*
X082Y14255D01*
X08137Y1426D02*
X08195D01*
X0808Y138D02*
Y1384D01*
X082Y1358D02*
Y13595D01*
X08195Y136D02*
X082Y13595D01*
X08137Y136D02*
X08195D01*
X0734Y1578D02*
Y1582D01*
X0746Y1556D02*
Y15575D01*
X07455Y1558D02*
X0746Y15575D01*
X07397Y1558D02*
X07455D01*
X0734Y1512D02*
Y1516D01*
X0746Y149D02*
Y14915D01*
X07455Y1492D02*
X0746Y14915D01*
X07397Y1492D02*
X07455D01*
X0734Y1446D02*
Y145D01*
X0746Y1424D02*
Y14255D01*
X07455Y1426D02*
X0746Y14255D01*
X07397Y1426D02*
X07455D01*
X0734Y138D02*
Y1384D01*
X0746Y1358D02*
Y13595D01*
X07455Y136D02*
X0746Y13595D01*
X07397Y136D02*
X07455D01*
X066Y1578D02*
Y1582D01*
X0672Y1556D02*
Y15575D01*
X06715Y1558D02*
X0672Y15575D01*
X06657Y1558D02*
X06715D01*
X066Y1512D02*
Y1516D01*
X0672Y149D02*
Y14915D01*
X06715Y1492D02*
X0672Y14915D01*
X06657Y1492D02*
X06715D01*
X066Y1446D02*
Y145D01*
X0672Y1424D02*
Y14255D01*
X06715Y1426D02*
X0672Y14255D01*
X06657Y1426D02*
X06715D01*
X066Y138D02*
Y1384D01*
X0672Y1358D02*
Y13595D01*
X06715Y136D02*
X0672Y13595D01*
X06657Y136D02*
X06715D01*
X06455Y1348D02*
X06515Y1342D01*
X0657Y13375D02*
Y134D01*
G54D17*
X06444Y15733D02*
X06482D01*
X0657Y15355D02*
X06572Y15357D01*
X06622*
X0657Y14695D02*
X06572Y14697D01*
X06622*
X06444Y15073D02*
X06482D01*
X0657Y14035D02*
X06572Y14037D01*
X06622*
X06444Y14413D02*
X06482D01*
X06444Y13753D02*
X06482D01*
X0731Y15355D02*
X07312Y15357D01*
X07362*
X07184Y15733D02*
X07222D01*
X0731Y14695D02*
X07312Y14697D01*
X07362*
X07184Y15073D02*
X07222D01*
X0731Y14035D02*
X07312Y14037D01*
X07362*
X07184Y14413D02*
X07222D01*
X0731Y13375D02*
X07312Y13377D01*
X07362*
X07184Y13753D02*
X07222D01*
X0805Y15355D02*
X08052Y15357D01*
X08102*
X07924Y15733D02*
X07962D01*
X0805Y14695D02*
X08052Y14697D01*
X08102*
X07924Y15073D02*
X07962D01*
X0805Y14035D02*
X08052Y14037D01*
X08102*
X07924Y14413D02*
X07962D01*
X0805Y13375D02*
X08052Y13377D01*
X08102*
X07924Y13753D02*
X07962D01*
X0879Y15355D02*
X08792Y15357D01*
X08842*
X08664Y15733D02*
X08702D01*
X0879Y14695D02*
X08792Y14697D01*
X08842*
X08664Y15073D02*
X08702D01*
X0879Y14035D02*
X08792Y14037D01*
X08842*
X08664Y14413D02*
X08702D01*
X0879Y13375D02*
X08792Y13377D01*
X08842*
X08664Y13753D02*
X08702D01*
X0875Y15356D02*
Y15377D01*
X08743Y15385D02*
X0875Y15377D01*
X08715Y15385D02*
X08743D01*
X0875Y14696D02*
Y14717D01*
X08743Y14725D02*
X0875Y14717D01*
X08715Y14725D02*
X08743D01*
X0875Y14036D02*
Y14057D01*
X08743Y14065D02*
X0875Y14057D01*
X08715Y14065D02*
X08743D01*
X0875Y13376D02*
Y13397D01*
X08743Y13405D02*
X0875Y13397D01*
X08715Y13405D02*
X08743D01*
X0801Y15356D02*
Y15377D01*
X08003Y15385D02*
X0801Y15377D01*
X07975Y15385D02*
X08003D01*
X0801Y14696D02*
Y14717D01*
X08003Y14725D02*
X0801Y14717D01*
X07975Y14725D02*
X08003D01*
X0801Y14036D02*
Y14057D01*
X08003Y14065D02*
X0801Y14057D01*
X07975Y14065D02*
X08003D01*
X0801Y13376D02*
Y13397D01*
X08003Y13405D02*
X0801Y13397D01*
X07975Y13405D02*
X08003D01*
X0727Y15356D02*
Y15377D01*
X07263Y15385D02*
X0727Y15377D01*
X07235Y15385D02*
X07263D01*
X0727Y14696D02*
Y14717D01*
X07263Y14725D02*
X0727Y14717D01*
X07235Y14725D02*
X07263D01*
X0727Y14036D02*
Y14057D01*
X07263Y14065D02*
X0727Y14057D01*
X07235Y14065D02*
X07263D01*
X0727Y13376D02*
Y13397D01*
X07263Y13405D02*
X0727Y13397D01*
X07235Y13405D02*
X07263D01*
X0653Y15356D02*
Y15377D01*
X06523Y15385D02*
X0653Y15377D01*
X06495Y15385D02*
X06523D01*
X0653Y14696D02*
Y14717D01*
X06523Y14725D02*
X0653Y14717D01*
X06495Y14725D02*
X06523D01*
X0653Y14036D02*
Y14057D01*
X06523Y14065D02*
X0653Y14057D01*
X06495Y14065D02*
X06523D01*
X0653Y13376D02*
Y13397D01*
X06523Y13405D02*
X0653Y13397D01*
X06495Y13405D02*
X06523D01*
X0657Y13375D02*
X06572Y13377D01*
X06622*
G54D18*
X09445Y14655D03*
Y14555D03*
Y14855D03*
Y14755D03*
Y14455D03*
Y14355D03*
Y14255D03*
Y15055D03*
Y14955D03*
G54D19*
X09445Y14155D03*
G54D20*
X068Y156D03*
X06745Y1576D03*
X068Y1553D03*
X06655Y153D03*
X06482Y15733D03*
X0657Y15355D03*
X0646Y1551D03*
X0692Y1582D03*
Y1578D03*
X07027Y15357D03*
X0937Y1358D03*
Y1556D03*
Y149D03*
Y1424D03*
X0637Y1532D03*
X0634Y1536D03*
X06271Y15451D03*
X0627Y1551D03*
X0632Y15295D03*
X06345Y15815D03*
X06335Y15755D03*
X06325Y15795D03*
X06385Y15825D03*
X0628Y15815D03*
Y15785D03*
X06255Y15855D03*
X0638Y1555D03*
X06285Y1541D03*
X06385Y1536D03*
X0629Y1549D03*
Y1589D03*
X06355Y15775D03*
X0637Y1466D03*
X0634Y147D03*
X06271Y14791D03*
X0627Y1485D03*
X0632Y14635D03*
X06335Y15095D03*
X0638Y1489D03*
X06285Y1475D03*
X06385Y147D03*
X0629Y1483D03*
X06345Y15155D03*
X06325Y15135D03*
X06385Y15165D03*
X0628Y15155D03*
Y15125D03*
X06255Y15195D03*
X0629Y1523D03*
X06355Y15115D03*
X0637Y14D03*
X0634Y1404D03*
X06271Y14131D03*
X0627Y1419D03*
X0632Y13975D03*
X06335Y14435D03*
X0638Y1423D03*
X06285Y1409D03*
X06385Y1404D03*
X0629Y1417D03*
X06345Y14495D03*
X06325Y14475D03*
X06385Y14505D03*
X0628Y14495D03*
Y14465D03*
X06255Y14535D03*
X0629Y1457D03*
X06355Y14455D03*
X0637Y1334D03*
X0634Y1338D03*
X06271Y13471D03*
X0627Y1353D03*
X0632Y13315D03*
X06335Y13775D03*
X0638Y1357D03*
X06285Y1343D03*
X06385Y1338D03*
X0629Y1351D03*
X06345Y13835D03*
X06325Y13815D03*
X06385Y13845D03*
X0628Y13835D03*
Y13805D03*
X06255Y13875D03*
X0629Y1391D03*
X06355Y13795D03*
X06745Y151D03*
X068Y1487D03*
X0692Y1512D03*
Y1516D03*
X068Y1494D03*
X0657Y14695D03*
X06655Y1464D03*
X06482Y15073D03*
X0646Y1485D03*
X07027Y14697D03*
X06745Y1444D03*
X068Y1421D03*
X0692Y1446D03*
Y145D03*
X068Y1428D03*
X0657Y14035D03*
X06655Y1398D03*
X06482Y14413D03*
X0646Y1419D03*
X07027Y14037D03*
X06745Y1378D03*
X068Y1355D03*
X0692Y138D03*
Y1384D03*
X068Y1362D03*
X0657Y13375D03*
X06655Y1332D03*
X06482Y13753D03*
X0646Y1353D03*
X07027Y13377D03*
X07485Y1576D03*
X0754Y1553D03*
X0766Y1578D03*
Y1582D03*
X0754Y156D03*
X0731Y15355D03*
X07395Y153D03*
X07222Y15733D03*
X072Y1551D03*
X07767Y15357D03*
X07485Y151D03*
X0754Y1487D03*
X0766Y1512D03*
Y1516D03*
X0754Y1494D03*
X0731Y14695D03*
X07395Y1464D03*
X07222Y15073D03*
X072Y1485D03*
X07767Y14697D03*
X07485Y1444D03*
X0754Y1421D03*
X0766Y1446D03*
Y145D03*
X0754Y1428D03*
X0731Y14035D03*
X07395Y1398D03*
X07222Y14413D03*
X072Y1419D03*
X07767Y14037D03*
X07485Y1378D03*
X0754Y1355D03*
X0766Y138D03*
Y1384D03*
X0754Y1362D03*
X0731Y13375D03*
X07395Y1332D03*
X07222Y13753D03*
X072Y1353D03*
X07767Y13377D03*
X08225Y1576D03*
X0828Y1553D03*
X084Y1578D03*
Y1582D03*
X0828Y156D03*
X0805Y15355D03*
X08135Y153D03*
X07962Y15733D03*
X0794Y1551D03*
X08507Y15357D03*
X08225Y151D03*
X0828Y1487D03*
X084Y1512D03*
Y1516D03*
X0828Y1494D03*
X0805Y14695D03*
X08135Y1464D03*
X07962Y15073D03*
X0794Y1485D03*
X08507Y14697D03*
X08225Y1444D03*
X0828Y1421D03*
X084Y1446D03*
Y145D03*
X0828Y1428D03*
X0805Y14035D03*
X08135Y1398D03*
X07962Y14413D03*
X0794Y1419D03*
X08507Y14037D03*
X08225Y1378D03*
X0828Y1355D03*
X084Y138D03*
Y1384D03*
X0828Y1362D03*
X0805Y13375D03*
X08135Y1332D03*
X07962Y13753D03*
X0794Y1353D03*
X08507Y13377D03*
X08965Y1576D03*
X0902Y1553D03*
X0914Y1578D03*
Y1582D03*
X0902Y156D03*
X0879Y15355D03*
X08875Y153D03*
X08702Y15733D03*
X0868Y1551D03*
X09247Y15357D03*
X08965Y151D03*
X0902Y1487D03*
X0914Y1512D03*
Y1516D03*
X0902Y1494D03*
X0879Y14695D03*
X08875Y1464D03*
X08702Y15073D03*
X0868Y1485D03*
X09247Y14697D03*
X08965Y1444D03*
X0902Y1421D03*
X0914Y1446D03*
Y145D03*
X0902Y1428D03*
X0879Y14035D03*
X08875Y1398D03*
X08702Y14413D03*
X0868Y1419D03*
X09247Y14037D03*
X08965Y1378D03*
X0902Y1355D03*
X0914Y138D03*
Y1384D03*
X0902Y1362D03*
X0879Y13375D03*
X08875Y1332D03*
X08702Y13753D03*
X0868Y1353D03*
X09247Y13377D03*
X08995Y1576D03*
X0894Y1553D03*
X0882Y1578D03*
Y1582D03*
X0894Y156D03*
X0902Y1556D03*
X0894D03*
X0917Y15355D03*
X09085Y153D03*
X09258Y15733D03*
X09245Y15385D03*
X08715D03*
X0928Y1551D03*
X08713Y15357D03*
X08995Y151D03*
X0894Y1487D03*
X0882Y1512D03*
Y1516D03*
X0894Y1494D03*
X0902Y149D03*
X0894D03*
X0917Y14695D03*
X09085Y1464D03*
X09258Y15073D03*
X09245Y14725D03*
X08715D03*
X0928Y1485D03*
X08713Y14697D03*
X08995Y1444D03*
X0894Y1421D03*
X0882Y1446D03*
Y145D03*
X0894Y1428D03*
X0902Y1424D03*
X0894D03*
X0917Y14035D03*
X09085Y1398D03*
X09258Y14413D03*
X09245Y14065D03*
X08715D03*
X0928Y1419D03*
X08713Y14037D03*
X08995Y1378D03*
X0894Y1355D03*
X0882Y138D03*
Y1384D03*
X0894Y1362D03*
X0902Y1358D03*
X0894D03*
X0917Y13375D03*
X09085Y1332D03*
X09258Y13753D03*
X09245Y13405D03*
X08715D03*
X0928Y1353D03*
X08713Y13377D03*
X08255Y1576D03*
X082Y1553D03*
X0808Y1578D03*
Y1582D03*
X082Y156D03*
X0828Y1556D03*
X082D03*
X0843Y15355D03*
X08345Y153D03*
X08518Y15733D03*
X08505Y15385D03*
X07975D03*
X0854Y1551D03*
X07973Y15357D03*
X08255Y151D03*
X082Y1487D03*
X0808Y1512D03*
Y1516D03*
X082Y1494D03*
X0828Y149D03*
X082D03*
X0843Y14695D03*
X08345Y1464D03*
X08518Y15073D03*
X08505Y14725D03*
X07975D03*
X0854Y1485D03*
X07973Y14697D03*
X08255Y1444D03*
X082Y1421D03*
X0808Y1446D03*
Y145D03*
X082Y1428D03*
X0828Y1424D03*
X082D03*
X0843Y14035D03*
X08345Y1398D03*
X08518Y14413D03*
X08505Y14065D03*
X07975D03*
X0854Y1419D03*
X07973Y14037D03*
X08255Y1378D03*
X082Y1355D03*
X0808Y138D03*
Y1384D03*
X082Y1362D03*
X0828Y1358D03*
X082D03*
X0843Y13375D03*
X08345Y1332D03*
X08518Y13753D03*
X08505Y13405D03*
X07975D03*
X0854Y1353D03*
X07973Y13377D03*
X07515Y1576D03*
X0746Y1553D03*
X0734Y1578D03*
Y1582D03*
X0746Y156D03*
X0754Y1556D03*
X0746D03*
X0769Y15355D03*
X07605Y153D03*
X07778Y15733D03*
X07765Y15385D03*
X07235D03*
X078Y1551D03*
X07233Y15357D03*
X07515Y151D03*
X0746Y1487D03*
X0734Y1512D03*
Y1516D03*
X0746Y1494D03*
X0754Y149D03*
X0746D03*
X0769Y14695D03*
X07605Y1464D03*
X07778Y15073D03*
X07765Y14725D03*
X07235D03*
X078Y1485D03*
X07233Y14697D03*
X07515Y1444D03*
X0746Y1421D03*
X0734Y1446D03*
Y145D03*
X0746Y1428D03*
X0754Y1424D03*
X0746D03*
X0769Y14035D03*
X07605Y1398D03*
X07778Y14413D03*
X07765Y14065D03*
X07235D03*
X078Y1419D03*
X07233Y14037D03*
X07515Y1378D03*
X0746Y1355D03*
X0734Y138D03*
Y1384D03*
X0746Y1362D03*
X0754Y1358D03*
X0746D03*
X0769Y13375D03*
X07605Y1332D03*
X07778Y13753D03*
X07765Y13405D03*
X07235D03*
X078Y1353D03*
X07233Y13377D03*
X06775Y1576D03*
X0672Y1553D03*
X066Y1578D03*
Y1582D03*
X0672Y156D03*
X068Y1556D03*
X0672D03*
X0695Y15355D03*
X06865Y153D03*
X07038Y15733D03*
X07025Y15385D03*
X06495D03*
X0706Y1551D03*
X06493Y15357D03*
X06775Y151D03*
X0672Y1487D03*
X066Y1512D03*
Y1516D03*
X0672Y1494D03*
X068Y149D03*
X0672D03*
X0695Y14695D03*
X06865Y1464D03*
X07038Y15073D03*
X07025Y14725D03*
X06495D03*
X0706Y1485D03*
X06493Y14697D03*
X06775Y1444D03*
X0672Y1421D03*
X066Y1446D03*
Y145D03*
X0672Y1428D03*
X068Y1424D03*
X0672D03*
X0695Y14035D03*
X06865Y1398D03*
X07038Y14413D03*
X07025Y14065D03*
X06495D03*
X0706Y1419D03*
X06493Y14037D03*
X06775Y1378D03*
X0672Y1355D03*
X066Y138D03*
Y1384D03*
X0672Y1362D03*
X068Y1358D03*
X0672D03*
X0695Y13375D03*
X06865Y1332D03*
X07038Y13753D03*
X07025Y13405D03*
X06495D03*
X0706Y1353D03*
X06493Y13377D03*
M02*