%FSTAX23Y23*%
%MOIN*%
%SFA1B1*%

%IPPOS*%
%ADD10C,0.019690*%
%ADD11C,0.039370*%
%ADD12C,0.216540*%
%ADD13C,0.078740*%
%ADD14R,0.078740X0.078740*%
%ADD15R,0.078740X0.078740*%
%ADD16R,0.118110X0.055120*%
%ADD17O,0.118110X0.055120*%
%ADD18R,0.055120X0.118110*%
%ADD19O,0.055120X0.118110*%
%ADD20C,0.078740*%
%ADD21R,0.050000X0.060000*%
%LNqudong-1*%
%LPD*%
G54D10*
X02475Y01375D02*
X0254Y0144D01*
X02175Y01375D02*
X02475D01*
X0207Y0127D02*
X02175Y01375D01*
X02605Y0139D02*
X0285D01*
X02535Y0132D02*
X02605Y0139D01*
X0234Y0132D02*
X02535D01*
X02695Y0135D02*
X0289D01*
X02625Y0128D02*
X02695Y0135D01*
X0252Y0128D02*
X02625D01*
X02775Y0131D02*
X0301D01*
X0268Y01215D02*
X02775Y0131D01*
X0268Y0113D02*
Y01215D01*
X01577Y02972D02*
X01722D01*
X01405Y028D02*
X01577Y02972D01*
X0138Y028D02*
X01405D01*
X0176Y0301D02*
X0186D01*
X01722Y02972D02*
X0176Y0301D01*
X01205Y0305D02*
X0166D01*
X0108Y02925D02*
X01205Y0305D01*
X0108Y0283D02*
Y02925D01*
X0005Y0005D02*
Y001D01*
Y0005D02*
X0585D01*
Y043*
X0005D02*
X0585D01*
X0005Y001D02*
Y043D01*
X0425Y023D02*
X045D01*
X04699Y021*
X04752*
X05372Y012D02*
X0542D01*
X0545Y0123*
Y0148*
X054Y0153D02*
X0545Y0148D01*
X0496Y0153D02*
X054D01*
X0493Y015D02*
X0496Y0153D01*
X04752Y015D02*
X0493D01*
X04407Y01432D02*
X04962D01*
X0522Y0148D02*
X0525Y0145D01*
X0501Y0148D02*
X0522D01*
X04962Y01432D02*
X0501Y0148D01*
X05372Y028D02*
X0543D01*
X0547Y0284*
Y0306*
X0539Y0314D02*
X0547Y0306D01*
X0497Y0314D02*
X0539D01*
X0493Y031D02*
X0497Y0314D01*
X04752Y031D02*
X0493D01*
X0518Y0308D02*
X0523Y0303D01*
X04417Y03032D02*
X04952D01*
X05Y0308D02*
X0518D01*
X04952Y03032D02*
X05Y0308D01*
X04752Y016D02*
X05759D01*
X05372Y024D02*
X05759D01*
X05372Y025D02*
X05669D01*
X05372Y01D02*
X05589D01*
X05669Y009D02*
X0567Y009D01*
X05372Y009D02*
X05669D01*
X05372Y008D02*
X05373Y008D01*
X0576*
X04752Y032D02*
X0576Y032D01*
X04753Y033D02*
X0567D01*
X05669Y017D02*
X0567Y017D01*
X04752Y017D02*
X05669D01*
X04752Y018D02*
X05589D01*
X05372Y026D02*
X05373Y026D01*
X0559*
X05589Y034D02*
X0559Y034D01*
X04752Y034D02*
X05589D01*
X04752Y035D02*
X04753Y035D01*
X05519Y027D02*
X0552Y027D01*
X05372Y027D02*
X05519D01*
X05372Y011D02*
X05373Y011D01*
X0551*
X05372Y02122D02*
Y023D01*
X0525Y02D02*
X05372Y02122D01*
X04752Y02D02*
X0525D01*
X04752Y019D02*
X0551Y019D01*
X0425Y015D02*
X0434D01*
X04407Y01432*
X0525Y0133D02*
Y0145D01*
Y0133D02*
X05279Y013D01*
X05372*
X0435Y031D02*
X04417Y03032D01*
X0425Y031D02*
X0435D01*
X0523Y0298D02*
Y0303D01*
Y0298D02*
X05309Y029D01*
X05372*
X04679Y037D02*
X04752D01*
X0465Y0373D02*
X04679Y037D01*
X0465Y0373D02*
Y0384D01*
X0459Y039D02*
X0465Y0384D01*
X0425Y039D02*
X0459D01*
X0425Y008D02*
X05072D01*
X0425Y009D02*
X05072D01*
X0425Y01D02*
X05072D01*
X0425Y011D02*
X0508D01*
X0425Y012D02*
X05072D01*
X0425Y013D02*
X05072D01*
X0425Y0138D02*
X05072D01*
X0425Y016D02*
X04452Y016D01*
X0425Y017D02*
X04452D01*
X0425Y018D02*
X04452D01*
X0425Y019D02*
X04452D01*
X0425Y02D02*
X04452D01*
X0425Y021D02*
X04452D01*
X04452Y022D02*
X04452Y022D01*
X0425Y022D02*
X04452D01*
X0425Y024D02*
X0425Y024D01*
X05072*
X05072Y025D02*
X05072Y025D01*
X0425Y025D02*
X05072D01*
X0425Y026D02*
X0425Y026D01*
X05072*
X05072Y027D02*
X05072Y027D01*
X0425Y027D02*
X05072D01*
X0425Y028D02*
X0425Y028D01*
X05072*
X05072Y029D02*
X05072Y029D01*
X0425Y029D02*
X05072D01*
X0425Y03D02*
X0425Y03D01*
X0425Y0298D02*
X05072D01*
X04452Y032D02*
X04452Y032D01*
X0425Y032D02*
X04452D01*
X0425Y033D02*
X0425Y033D01*
X04452*
X04452Y034D02*
X04452Y034D01*
X0425Y034D02*
X04452D01*
X0425Y035D02*
X0425Y035D01*
X04452*
X0425Y036D02*
X0425Y036D01*
X04452*
X0425Y037D02*
X0425Y037D01*
X04452*
X0425Y038D02*
X0425Y038D01*
X04452*
X0279Y0231D02*
Y0329D01*
X015Y0393D02*
Y0402D01*
X016Y0384D02*
Y0402D01*
X0289Y0231D02*
Y0319D01*
X0299Y0231D02*
Y0309D01*
X017Y0392D02*
Y0402D01*
X0309Y0231D02*
Y0299D01*
X018Y0384D02*
Y0402D01*
X0319Y0231D02*
Y0269D01*
X019Y039D02*
Y0402D01*
X0118Y0392D02*
X0125D01*
X0127Y039*
Y0381D02*
Y039D01*
Y0381D02*
X0131Y0377D01*
X0208*
X021Y0379*
Y0382*
X0345Y0037D02*
Y005D01*
X0355Y0026D02*
Y005D01*
X0365D02*
X0407D01*
X0408Y0051*
X0185Y0016D02*
Y005D01*
X0184Y0015D02*
X0185Y0016D01*
X0195Y0026D02*
Y005D01*
X0205Y0036D02*
Y005D01*
X0165D02*
Y007D01*
X0175Y005D02*
Y0062D01*
X0335Y005D02*
Y0065D01*
X0377Y0089D02*
Y0099D01*
X0315Y005D02*
Y0077D01*
X0371Y0083D02*
X0377Y0089D01*
X0321Y0083D02*
X0371D01*
X0315Y0077D02*
X0321Y0083D01*
X0325Y005D02*
Y0074D01*
X0305Y005D02*
Y0076D01*
X0317Y0088*
X0351*
X0355Y0092*
Y01*
X0295Y005D02*
Y0076D01*
X0334Y0094D02*
Y01D01*
X0332Y0092D02*
X0334Y0094D01*
X0311Y0092D02*
X0332D01*
X0295Y0076D02*
X0311Y0092D01*
X0285Y0078D02*
X0307Y01D01*
X0285Y005D02*
Y0078D01*
X0307Y01D02*
X0314D01*
X014Y0331D02*
Y0342D01*
X015Y0332D02*
Y0342D01*
X016Y0331D02*
Y0341D01*
X017Y0331D02*
Y0342D01*
X018Y0331D02*
Y0342D01*
X019Y0331D02*
Y0342D01*
X02Y0331D02*
Y0342D01*
X021Y0331D02*
Y0342D01*
X022Y0331D02*
Y0342D01*
X023Y0331D02*
Y0342D01*
X024Y0331D02*
Y0342D01*
X0048Y005D02*
X0055D01*
X0044Y0054D02*
X0048Y005D01*
X0044Y0054D02*
Y03D01*
X0049Y0305*
X0081*
X0101Y0325*
X0115*
X0055Y0269D02*
X0061D01*
X0065Y0265*
Y005D02*
Y0265D01*
X0075Y005D02*
Y0269D01*
X0098Y0251D02*
Y027D01*
X0085Y0238D02*
X0098Y0251D01*
X0085Y005D02*
Y0238D01*
X0095Y005D02*
Y0228D01*
X0118Y0251*
Y027*
X0105Y005D02*
Y0206D01*
X0138Y0239*
Y027*
X0115Y005D02*
Y0205D01*
X0162Y0252*
Y027*
X0125Y005D02*
Y0085D01*
X0144Y0104*
Y022*
X0184Y026*
Y027*
X0206Y0256D02*
Y027D01*
X0155Y0223D02*
X0182Y025D01*
X0135Y005D02*
Y0077D01*
X0155Y0097*
Y0223*
X0182Y025D02*
X02D01*
X0206Y0256*
X0145Y005D02*
Y0071D01*
X0166Y0092*
X0206Y0245D02*
X0213Y0252D01*
X0166Y0092D02*
Y0222D01*
X0189Y0245*
X0206*
X0213Y0252D02*
X0215D01*
X0155Y0072D02*
X0178Y0095D01*
Y0224*
X0193Y0239*
X023*
X0155Y005D02*
Y0072D01*
X0248Y0257D02*
Y0269D01*
X023Y0239D02*
X0248Y0257D01*
X0215Y0252D02*
X0226Y0263D01*
Y0269*
X0185Y0098D02*
Y0129D01*
X0215Y0051D02*
Y0068D01*
X0185Y0098D02*
X0215Y0068D01*
X0185Y0129D02*
X01992Y01432D01*
X02402*
X0246Y0149*
Y0154*
X0269Y0161D02*
Y0171D01*
X0279Y0161D02*
Y0171D01*
X0289Y0161D02*
Y0171D01*
X0299Y0161D02*
Y0171D01*
X0309Y0161D02*
Y0171D01*
X0319Y0161D02*
Y0171D01*
X0329Y0161D02*
Y0171D01*
X0339Y0161D02*
Y0171D01*
X0349Y0161D02*
Y0171D01*
X0359Y0161D02*
Y0171D01*
X0369Y0161D02*
Y0171D01*
X021Y0391D02*
Y0402D01*
X022Y0391D02*
Y0402D01*
X023Y0391D02*
Y0402D01*
X024Y0391D02*
Y0402D01*
X025Y0391D02*
Y0402D01*
X0339Y0221D02*
Y0231D01*
X0349Y0221D02*
Y0231D01*
X0359Y0221D02*
Y0231D01*
X0369Y0221D02*
Y0231D01*
X0379Y0221D02*
Y0231D01*
X0225Y005D02*
Y0079D01*
X0204Y01D02*
X0225Y0079D01*
X0195Y01D02*
X0204D01*
X0235Y005D02*
Y0086D01*
X0221Y01D02*
X0235Y0086D01*
X0216Y01D02*
X0221D01*
X0245Y005D02*
Y0094D01*
X0239Y01D02*
X0245Y0094D01*
X0234Y01D02*
X0239D01*
X0255Y005D02*
Y01D01*
X0265Y005D02*
Y0091D01*
X0274Y01*
X0276*
X0275Y005D02*
Y0083D01*
X0292Y01*
X0295*
X0265Y0152D02*
X0269D01*
X0246Y0164D02*
X0253D01*
X0265Y0152*
X0379Y0192D02*
Y0212D01*
X0373Y0186D02*
X0379Y0192D01*
X0241Y0186D02*
X0373D01*
X0233Y0178D02*
X0241Y0186D01*
X0233Y0167D02*
Y0178D01*
X023Y0164D02*
X0233Y0167D01*
X0222Y0164D02*
X023D01*
X0196D02*
X0207D01*
X0211Y0168*
Y0188*
X0215Y0192*
X0362*
X0369Y0199*
Y0212*
X0359Y0206D02*
Y0212D01*
X035Y0197D02*
X0359Y0206D01*
X0221Y0197D02*
X035D01*
X0211Y0207D02*
X0221Y0197D01*
X0211Y0207D02*
Y0216D01*
X0206Y0221D02*
X0211Y0216D01*
X0197Y0221D02*
X0206D01*
X0222D02*
X0232D01*
X0234Y0219*
Y0208D02*
Y0219D01*
Y0208D02*
X0239Y0203D01*
X0345*
X0349Y0207*
Y0212*
X0292D02*
X0339D01*
X0283Y0221D02*
X0292Y0212D01*
X0246Y0221D02*
X0283D01*
X0254Y0144D02*
X0274D01*
X0207Y0114D02*
Y0127D01*
X0203Y011D02*
X0207Y0114D01*
X0195Y011D02*
X0203D01*
X0274Y0144D02*
X0279Y0149D01*
Y0152*
X0108Y0372D02*
X0216D01*
X0089Y0392D02*
X0099D01*
X0104Y0376D02*
Y0387D01*
X0099Y0392D02*
X0104Y0387D01*
Y0376D02*
X0108Y0372D01*
X0216D02*
X022Y0376D01*
X023Y037D02*
Y0382D01*
X0225Y0365D02*
X023Y037D01*
X0088Y0365D02*
X0225D01*
X0078Y0375D02*
X0088Y0365D01*
X0078Y0375D02*
Y0388D01*
X0074Y0392D02*
X0078Y0388D01*
X0067Y0392D02*
X0074D01*
X022Y0376D02*
Y0382D01*
X024Y0362D02*
Y0382D01*
X0237Y0359D02*
X024Y0362D01*
X0087Y0359D02*
X0237D01*
X0079Y0351D02*
X0087Y0359D01*
X0079Y0339D02*
Y0351D01*
X0075Y0335D02*
X0079Y0339D01*
X0067Y0335D02*
X0075D01*
X0122D02*
X0135Y0322D01*
X014*
X0115Y0335D02*
X0122D01*
X0107Y0353D02*
X0242D01*
X0104Y035D02*
X0107Y0353D01*
X0104Y034D02*
Y035D01*
X0099Y0335D02*
X0104Y034D01*
X0242Y0353D02*
X025Y0361D01*
X009Y0335D02*
X0099D01*
X025Y0361D02*
Y0382D01*
X0223Y011D02*
X0227Y0114D01*
X0216Y011D02*
X0223D01*
X0227Y0114D02*
Y0125D01*
X0234Y0132*
X0285Y0139D02*
X0289Y0143D01*
Y0152*
X0246Y0122D02*
X0252Y0128D01*
X0234Y011D02*
X0241D01*
X0246Y0115*
Y0122*
X0289Y0135D02*
X0299Y0145D01*
Y0152*
X0255Y011D02*
X0265D01*
X0268Y0113*
X0301Y0131D02*
X0309Y0139D01*
Y0152*
X0308Y0131D02*
X0314D01*
X0289Y0127D02*
X0304D01*
X0308Y0131*
X0286Y0124D02*
X0289Y0127D01*
X0286Y0113D02*
Y0124D01*
X0283Y011D02*
X0286Y0113D01*
X0276Y011D02*
X0283D01*
X0319Y0136D02*
Y0152D01*
X0314Y0131D02*
X0319Y0136D01*
X0306Y0115D02*
Y0122D01*
X0301Y011D02*
X0306Y0115D01*
X0295Y011D02*
X0301D01*
X0306Y0122D02*
X0311Y0127D01*
X0324*
X0329Y0132*
Y0152*
X0314Y011D02*
X0322D01*
X0326Y0114*
Y0123*
X0339Y0136*
Y0152*
X0334Y011D02*
X0336D01*
X0349Y0123*
Y0152*
X0359Y0142D02*
Y0152D01*
Y0142D02*
X0364Y0137D01*
Y0112D02*
Y0137D01*
X0362Y011D02*
X0364Y0112D01*
X0355Y011D02*
X0362D01*
X0372Y0109D02*
X0377D01*
X0369Y0112D02*
X0372Y0109D01*
X0369Y0112D02*
Y0153D01*
X0055Y0279D02*
X0063D01*
X0066Y0282*
Y0291*
X0072Y0297*
X0082*
X0098Y0313*
X0146*
X015Y0317*
Y0323*
X016Y0312D02*
Y0322D01*
X0075Y0279D02*
X0085D01*
X0089Y0283*
Y0293*
X0105Y0309*
X0157*
X016Y0312*
X0098Y028D02*
X0105D01*
X0108Y0283*
X0166Y0305D02*
X017Y0309D01*
Y0322*
X0119Y028D02*
X0126D01*
X013Y0284*
Y0293*
X0138Y0301*
X017*
X018Y0311*
Y0322*
X0186Y0301D02*
X019Y0305D01*
X0192Y0297D02*
X02Y0305D01*
X0173Y0292D02*
X0178Y0297D01*
X0192*
X019Y0305D02*
Y0322D01*
X0162Y028D02*
X017D01*
X0173Y0283*
Y0292*
X02Y0305D02*
Y0322D01*
X0196Y0293D02*
X02Y0297D01*
X0196Y0284D02*
Y0293D01*
X021Y0299D02*
Y0322D01*
X02Y0297D02*
X0208D01*
X021Y0299*
X0184Y028D02*
X0192D01*
X0196Y0284*
X0205Y028D02*
X0207D01*
X022Y0293*
Y0322*
X0234Y0281D02*
Y031D01*
X023Y0314D02*
X0234Y031D01*
X023Y0314D02*
Y0322D01*
X0232Y0279D02*
X0234Y0281D01*
X0226Y0279D02*
X0232D01*
X024Y0282D02*
Y0322D01*
X0243Y0279D02*
X0248D01*
X024Y0282D02*
X0243Y0279D01*
X0319Y0269D02*
X0388D01*
X0309Y0299D02*
X0388D01*
X0299Y0309D02*
X0388D01*
X0289Y0319D02*
X0388D01*
X0279Y0329D02*
X0388D01*
Y0279D02*
X0397D01*
X0402Y0274*
Y026D02*
Y0274D01*
X0392Y025D02*
X0402Y026D01*
X0333Y025D02*
X0392D01*
X0329Y0246D02*
X0333Y025D01*
X0329Y0231D02*
Y0246D01*
X02Y0402D02*
Y0409D01*
X0201Y041*
X0403*
X0388Y0289D02*
X0403D01*
X0576Y032D02*
Y0381D01*
X0536Y0364D02*
Y0381D01*
X0532Y036D02*
X0536Y0364D01*
X04752Y036D02*
X0532D01*
X0546Y0355D02*
Y0381D01*
X0541Y035D02*
X0546Y0355D01*
X04753Y035D02*
X0551D01*
X0556Y0366D02*
Y0381D01*
Y0366D02*
X0559Y0363D01*
Y034D02*
Y0363D01*
X0566Y0331D02*
Y0381D01*
Y0331D02*
X0567Y033D01*
G54D11*
X0442Y0407D02*
Y0418D01*
X0417Y0407D02*
X0432D01*
X0411Y0078D02*
Y0401D01*
X0409Y0171D02*
X0411Y0173D01*
X0393Y0393D02*
X0411Y0375D01*
X0447Y015D02*
X04606D01*
X0485Y038D02*
Y0408D01*
X0475Y0418D02*
X0485Y0408D01*
X0058Y0402D02*
X014D01*
Y0414*
X0144Y0418*
X0197Y0231D02*
X0269D01*
X026D02*
Y0286D01*
X0256Y029D02*
X026Y0286D01*
X0248Y029D02*
X0256D01*
X0052Y0396D02*
X0058Y0402D01*
X0052Y0348D02*
Y0396D01*
Y0348D02*
X0055Y0345D01*
X0067*
X046Y007D02*
X046Y007D01*
X05072*
X046Y023D02*
X05072D01*
X04599Y031D02*
X046Y031D01*
X04452Y031D02*
X04599D01*
X04752Y022D02*
X04753Y022D01*
X0485*
X04849Y038D02*
X0485Y038D01*
X04752Y038D02*
X04849D01*
X0277Y0393D02*
X0393D01*
X0261Y0377D02*
X0277Y0393D01*
X0261Y0347D02*
Y0377D01*
X0256Y0342D02*
X0261Y0347D01*
X025Y0342D02*
X0256D01*
X0379Y0171D02*
X0409D01*
X0144Y0418D02*
X0475D01*
X0411Y0401D02*
X0417Y0407D01*
X0411Y0078D02*
X0419Y007D01*
X046*
G54D12*
X0565Y0029D03*
Y0407D03*
X0437Y0029D03*
X0037D03*
Y0407D03*
G54D13*
X0118Y029D03*
Y027D03*
Y028D03*
X0222Y0221D03*
Y0211D03*
Y0231D03*
X0246Y0164D03*
Y0154D03*
Y0174D03*
X0067Y0335D03*
Y0325D03*
Y0345D03*
X0216Y012D03*
Y01D03*
Y011D03*
X0355Y012D03*
Y01D03*
Y011D03*
X0246Y0231D03*
Y0211D03*
Y0221D03*
X0334Y011D03*
Y01D03*
Y012D03*
X0222Y0174D03*
Y0154D03*
Y0164D03*
X015Y0342D03*
X016D03*
X017D03*
X018D03*
X019D03*
X02D03*
X021D03*
X022D03*
X023D03*
X024D03*
X025D03*
Y0402D03*
X024D03*
X023D03*
X022D03*
X021D03*
X02D03*
X019D03*
X018D03*
X017D03*
X016D03*
X015D03*
X014D03*
X0089Y0392D03*
Y0382D03*
Y0402D03*
X0248Y028D03*
Y027D03*
Y029D03*
X0205Y028D03*
Y027D03*
Y029D03*
X0184D03*
Y027D03*
Y028D03*
X0075D03*
Y027D03*
Y029D03*
X0055Y027D03*
Y029D03*
Y028D03*
X0098Y029D03*
Y027D03*
Y028D03*
X0269Y0231D03*
X0279D03*
X0289D03*
X0299D03*
X0309D03*
X0319D03*
X0329D03*
X0339D03*
X0349D03*
X0359D03*
X0369D03*
X0379D03*
Y0171D03*
X0369D03*
X0359D03*
X0349D03*
X0339D03*
X0329D03*
X0319D03*
X0309D03*
X0299D03*
X0289D03*
X0279D03*
X0195Y011D03*
Y012D03*
Y01D03*
X0115Y0335D03*
Y0345D03*
Y0325D03*
X04752Y038D03*
X04452Y037D03*
Y036D03*
Y035D03*
Y034D03*
Y033D03*
Y032D03*
Y031D03*
X04752D03*
Y032D03*
Y033D03*
Y034D03*
Y035D03*
Y036D03*
Y037D03*
X05072Y029D03*
Y028D03*
Y027D03*
Y026D03*
Y025D03*
Y024D03*
Y023D03*
X05372D03*
Y024D03*
Y025D03*
Y026D03*
Y027D03*
Y028D03*
Y029D03*
Y03D03*
X04452Y021D03*
Y02D03*
Y019D03*
Y018D03*
Y017D03*
Y016D03*
Y015D03*
X04752D03*
Y016D03*
Y017D03*
Y018D03*
Y019D03*
Y02D03*
Y021D03*
Y022D03*
X05072Y013D03*
Y012D03*
Y011D03*
Y01D03*
Y009D03*
Y008D03*
Y007D03*
X05372D03*
Y008D03*
Y009D03*
Y01D03*
Y011D03*
Y012D03*
Y013D03*
Y014D03*
X0138Y029D03*
Y027D03*
Y028D03*
X0162D03*
Y027D03*
Y029D03*
X0226D03*
Y027D03*
Y028D03*
X009Y0345D03*
Y0325D03*
Y0335D03*
X0067Y0402D03*
Y0382D03*
Y0392D03*
X0118Y0402D03*
Y0382D03*
Y0392D03*
X0234Y012D03*
Y01D03*
Y011D03*
X0255D03*
Y01D03*
Y012D03*
X0276D03*
Y01D03*
Y011D03*
X0295D03*
Y01D03*
Y012D03*
X0314D03*
Y01D03*
Y011D03*
X0376D03*
Y01D03*
Y012D03*
X0196Y0164D03*
Y0154D03*
Y0174D03*
X0197Y0231D03*
Y0211D03*
Y0221D03*
X0566Y0381D03*
X0556D03*
X0546D03*
X0536D03*
X0442Y0407D03*
X0551Y035D03*
X046Y007D03*
X046Y023D03*
X046Y015D03*
Y031D03*
X0537Y0145D03*
Y0305D03*
X0485Y022D03*
Y038D03*
X05759Y016D03*
Y024D03*
X05669Y025D03*
X05589Y01D03*
X0567Y009D03*
X0576Y008D03*
Y032D03*
X0567Y033D03*
Y017D03*
X05589Y018D03*
X0559Y026D03*
Y034D03*
X0551Y027D03*
Y011D03*
Y019D03*
X0289Y0319D03*
X0279Y0329D03*
X015Y0393D03*
X016Y0386D03*
X0299Y0309D03*
X017Y0392D03*
X018Y0384D03*
X0319Y0269D03*
X019Y039D03*
X0345Y0037D03*
X0355Y0026D03*
X0408Y0051D03*
X0184Y0015D03*
X0195Y0026D03*
X0205Y0036D03*
X0309Y0299D03*
X0403Y041D03*
Y0289D03*
G54D14*
X014Y0342D03*
X0269Y0171D03*
G54D15*
X04452Y038D03*
X05072Y03D03*
X04452Y022D03*
X05072Y014D03*
X0576Y0381D03*
X0432Y0407D03*
G54D16*
X0425Y039D03*
X0388Y0269D03*
G54D17*
X0425Y038D03*
Y037D03*
Y036D03*
Y035D03*
Y034D03*
Y033D03*
Y032D03*
Y031D03*
Y03D03*
Y029D03*
Y028D03*
Y027D03*
Y026D03*
Y025D03*
Y024D03*
Y023D03*
Y022D03*
Y021D03*
Y02D03*
Y019D03*
Y018D03*
Y017D03*
Y016D03*
Y015D03*
Y014D03*
Y013D03*
Y012D03*
Y011D03*
Y01D03*
Y009D03*
Y008D03*
X0388Y0329D03*
Y0319D03*
Y0309D03*
Y0299D03*
Y0289D03*
Y0279D03*
G54D18*
X0055Y005D03*
G54D19*
X0065Y005D03*
X0075D03*
X0085D03*
X0095D03*
X0105D03*
X0115D03*
X0125D03*
X0135D03*
X0145D03*
X0155D03*
X0165D03*
X0175D03*
X0185D03*
X0195D03*
X0205D03*
X0215D03*
X0225D03*
X0235D03*
X0245D03*
X0255D03*
X0265D03*
X0275D03*
X0285D03*
X0295D03*
X0305D03*
X0315D03*
X0325D03*
X0335D03*
X0345D03*
X0355D03*
X0365D03*
G54D20*
X0175Y0062D03*
X0165Y007D03*
X0335Y0065D03*
X0325Y0074D03*
G54D21*
X0359Y0161D03*
Y0152D03*
X017Y0331D03*
Y0322D03*
X016D03*
Y0331D03*
X019D03*
Y0322D03*
X023Y0331D03*
Y0322D03*
X025Y0391D03*
Y0382D03*
X0339Y0221D03*
Y0212D03*
X0349D03*
Y0221D03*
X0359D03*
Y0212D03*
X0369D03*
Y0221D03*
X0379D03*
Y0212D03*
X0369Y0152D03*
Y0161D03*
X0349Y0152D03*
Y0161D03*
X0339D03*
Y0152D03*
X0329D03*
Y0161D03*
X0319D03*
Y0152D03*
X0309D03*
Y0161D03*
X0299D03*
Y0152D03*
X0289D03*
Y0161D03*
X0279D03*
Y0152D03*
X0269D03*
Y0161D03*
X021Y0391D03*
Y0382D03*
X022D03*
Y0391D03*
X023D03*
Y0382D03*
X024D03*
Y0391D03*
Y0322D03*
Y0331D03*
X022Y0322D03*
Y0331D03*
X021D03*
Y0322D03*
X02D03*
Y0331D03*
X018Y0322D03*
Y0331D03*
X015Y0332D03*
Y0323D03*
X014Y0322D03*
Y0331D03*
M02*