%FSTAX23Y23*%
%MOIN*%
%SFA1B1*%

%IPPOS*%
%ADD10C,0.019690*%
%ADD11C,0.039370*%
%ADD12C,0.216540*%
%ADD13C,0.078740*%
%ADD14R,0.078740X0.078740*%
%ADD15R,0.078740X0.078740*%
%ADD16R,0.118110X0.055120*%
%ADD17O,0.118110X0.055120*%
%ADD18R,0.055120X0.118110*%
%ADD19O,0.055120X0.118110*%
%ADD20C,0.078740*%
%LNqudong-1*%
%LPD*%
G54D10*
X0005Y0005D02*
X0585D01*
Y043*
X0005D02*
X0585D01*
X0005Y0005D02*
Y043D01*
X0031Y0015D02*
X0184D01*
X0015Y0031D02*
X0031Y0015D01*
X0015Y0031D02*
Y0352D01*
X0059Y0026D02*
X0195D01*
X00225Y00625D02*
X0059Y0026D01*
X00225Y00625D02*
Y03485D01*
X0056Y0036D02*
X0205D01*
X003Y0062D02*
X0056Y0036D01*
X003Y0062D02*
Y0344D01*
X0043Y0138D02*
Y0297D01*
Y0138D02*
X00605Y01205D01*
X0111Y007*
X0015Y0352D02*
X0045Y0382D01*
X00225Y03485D02*
X0039Y0365D01*
X003Y0344D02*
X0043Y0357D01*
X05589Y01D02*
Y01809D01*
X0551Y027D02*
Y035D01*
Y011D02*
Y0269D01*
X0279Y0329D02*
Y0336D01*
X0264Y0351D02*
X0279Y0336D01*
X0156Y0351D02*
X0264D01*
X015Y0357D02*
X0156Y0351D01*
X015Y0357D02*
Y0393D01*
X0166Y0357D02*
X0269D01*
X016Y0363D02*
Y0383D01*
Y0363D02*
X0166Y0357D01*
X0269D02*
X0289Y0337D01*
Y0319D02*
Y0337D01*
X0299Y0309D02*
Y0341D01*
X0276Y0364D02*
X0299Y0341D01*
X0183Y0364D02*
X0276D01*
X017Y0377D02*
X0183Y0364D01*
X017Y0377D02*
Y0392D01*
X0309Y0299D02*
Y0351D01*
X0284Y0376D02*
X0309Y0351D01*
X0183Y0376D02*
X0284D01*
X018Y0379D02*
X0183Y0376D01*
X018Y0379D02*
Y0384D01*
X0319Y0269D02*
Y0356D01*
X0285Y039D02*
X0319Y0356D01*
X019Y039D02*
X0285D01*
X0197Y0197D02*
Y0211D01*
Y0197D02*
X0206Y0188D01*
X0379*
X0393Y0174*
Y0047D02*
Y0174D01*
X0383Y0037D02*
X0393Y0047D01*
X0345Y0037D02*
X0383D01*
X0382Y02D02*
X0399Y0183D01*
X0355Y0026D02*
X0393D01*
X0399Y0032*
Y0183*
X0226Y02D02*
X0382D01*
X0222Y0204D02*
X0226Y02D01*
X0222Y0204D02*
Y0211D01*
X0408Y0051D02*
Y0189D01*
X0386Y0211D02*
X0408Y0189D01*
X0246Y0211D02*
X0386D01*
X0045Y0382D02*
X0067D01*
X0089Y0372D02*
Y0382D01*
X0082Y0365D02*
X0089Y0372D01*
X0039Y0365D02*
X0082D01*
X0043Y0357D02*
X0113D01*
X0118Y0362*
Y0382*
X0089Y0323D02*
X009Y0324D01*
X0089Y0313D02*
Y0323D01*
X0082Y0306D02*
X0089Y0313D01*
X0052Y0306D02*
X0082D01*
X0043Y0297D02*
X0052Y0306D01*
X0036Y0303D02*
X0058Y0325D01*
X0036Y0088D02*
X0062Y0062D01*
X0036Y0088D02*
Y0303D01*
X0111Y007D02*
X0165D01*
X0062Y0062D02*
X0175D01*
X0058Y0325D02*
X0067D01*
X0187Y0094D02*
Y0131D01*
Y0094D02*
X0207Y0074D01*
X0182Y0086D02*
X0203Y0065D01*
X0335*
X0182Y0086D02*
Y0144D01*
X0192Y0154*
X0196*
X0187Y0131D02*
X021Y0154D01*
X0207Y0074D02*
X0325D01*
X021Y0154D02*
X0222D01*
X0403Y0289D02*
Y041D01*
X0576Y008D02*
Y032D01*
X0559Y018D02*
Y034D01*
X0567Y009D02*
Y033D01*
G54D11*
X046Y007D02*
Y031D01*
X0195Y0174D02*
X0255D01*
X0187Y0231D02*
X0197D01*
X0185Y0229D02*
X0187Y0231D01*
X0185Y0184D02*
Y0229D01*
Y0184D02*
X0195Y0174D01*
Y012D02*
X0376D01*
X0261Y0121D02*
Y0168D01*
X0255Y0174D02*
X0261Y0168D01*
X0055Y029D02*
X0248D01*
X0067Y0345D02*
X0125D01*
X013Y029D02*
Y034D01*
X0125Y0345D02*
X013Y034D01*
X0537Y0145D02*
Y0158D01*
X0485Y021D02*
X0537Y0158D01*
X0533Y0311D02*
X0537Y0307D01*
Y0305D02*
Y0307D01*
X0485Y0311D02*
X0533D01*
X0485Y021D02*
Y038D01*
G54D12*
X0565Y0029D03*
Y0407D03*
X0437Y0029D03*
X0037D03*
Y0407D03*
G54D13*
X0118Y029D03*
Y027D03*
Y028D03*
X0222Y0221D03*
Y0211D03*
Y0231D03*
X0246Y0164D03*
Y0154D03*
Y0174D03*
X0067Y0335D03*
Y0325D03*
Y0345D03*
X0216Y012D03*
Y01D03*
Y011D03*
X0355Y012D03*
Y01D03*
Y011D03*
X0246Y0231D03*
Y0211D03*
Y0221D03*
X0334Y011D03*
Y01D03*
Y012D03*
X0222Y0174D03*
Y0154D03*
Y0164D03*
X015Y0342D03*
X016D03*
X017D03*
X018D03*
X019D03*
X02D03*
X021D03*
X022D03*
X023D03*
X024D03*
X025D03*
Y0402D03*
X024D03*
X023D03*
X022D03*
X021D03*
X02D03*
X019D03*
X018D03*
X017D03*
X016D03*
X015D03*
X014D03*
X0089Y0392D03*
Y0382D03*
Y0402D03*
X0248Y028D03*
Y027D03*
Y029D03*
X0205Y028D03*
Y027D03*
Y029D03*
X0184D03*
Y027D03*
Y028D03*
X0075D03*
Y027D03*
Y029D03*
X0055Y027D03*
Y029D03*
Y028D03*
X0098Y029D03*
Y027D03*
Y028D03*
X0269Y0231D03*
X0279D03*
X0289D03*
X0299D03*
X0309D03*
X0319D03*
X0329D03*
X0339D03*
X0349D03*
X0359D03*
X0369D03*
X0379D03*
Y0171D03*
X0369D03*
X0359D03*
X0349D03*
X0339D03*
X0329D03*
X0319D03*
X0309D03*
X0299D03*
X0289D03*
X0279D03*
X0195Y011D03*
Y012D03*
Y01D03*
X0115Y0335D03*
Y0345D03*
Y0325D03*
X04752Y038D03*
X04452Y037D03*
Y036D03*
Y035D03*
Y034D03*
Y033D03*
Y032D03*
Y031D03*
X04752D03*
Y032D03*
Y033D03*
Y034D03*
Y035D03*
Y036D03*
Y037D03*
X05072Y029D03*
Y028D03*
Y027D03*
Y026D03*
Y025D03*
Y024D03*
Y023D03*
X05372D03*
Y024D03*
Y025D03*
Y026D03*
Y027D03*
Y028D03*
Y029D03*
Y03D03*
X04452Y021D03*
Y02D03*
Y019D03*
Y018D03*
Y017D03*
Y016D03*
Y015D03*
X04752D03*
Y016D03*
Y017D03*
Y018D03*
Y019D03*
Y02D03*
Y021D03*
Y022D03*
X05072Y013D03*
Y012D03*
Y011D03*
Y01D03*
Y009D03*
Y008D03*
Y007D03*
X05372D03*
Y008D03*
Y009D03*
Y01D03*
Y011D03*
Y012D03*
Y013D03*
Y014D03*
X0138Y029D03*
Y027D03*
Y028D03*
X0162D03*
Y027D03*
Y029D03*
X0226D03*
Y027D03*
Y028D03*
X009Y0345D03*
Y0325D03*
Y0335D03*
X0067Y0402D03*
Y0382D03*
Y0392D03*
X0118Y0402D03*
Y0382D03*
Y0392D03*
X0234Y012D03*
Y01D03*
Y011D03*
X0255D03*
Y01D03*
Y012D03*
X0276D03*
Y01D03*
Y011D03*
X0295D03*
Y01D03*
Y012D03*
X0314D03*
Y01D03*
Y011D03*
X0376D03*
Y01D03*
Y012D03*
X0196Y0164D03*
Y0154D03*
Y0174D03*
X0197Y0231D03*
Y0211D03*
Y0221D03*
X0566Y0381D03*
X0556D03*
X0546D03*
X0536D03*
X0442Y0407D03*
X0551Y035D03*
X046Y007D03*
X046Y023D03*
X046Y015D03*
Y031D03*
X0537Y0145D03*
Y0305D03*
X0485Y022D03*
Y038D03*
X05759Y016D03*
Y024D03*
X05669Y025D03*
X05589Y01D03*
X0567Y009D03*
X0576Y008D03*
Y032D03*
X0567Y033D03*
Y017D03*
X05589Y018D03*
X0559Y026D03*
Y034D03*
X0551Y027D03*
Y011D03*
Y019D03*
X0289Y0319D03*
X0279Y0329D03*
X015Y0393D03*
X016Y0386D03*
X0299Y0309D03*
X017Y0392D03*
X018Y0384D03*
X0319Y0269D03*
X019Y039D03*
X0345Y0037D03*
X0355Y0026D03*
X0408Y0051D03*
X0184Y0015D03*
X0195Y0026D03*
X0205Y0036D03*
X0309Y0299D03*
X0403Y041D03*
Y0289D03*
G54D14*
X014Y0342D03*
X0269Y0171D03*
G54D15*
X04452Y038D03*
X05072Y03D03*
X04452Y022D03*
X05072Y014D03*
X0576Y0381D03*
X0432Y0407D03*
G54D16*
X0425Y039D03*
X0388Y0269D03*
G54D17*
X0425Y038D03*
Y037D03*
Y036D03*
Y035D03*
Y034D03*
Y033D03*
Y032D03*
Y031D03*
Y03D03*
Y029D03*
Y028D03*
Y027D03*
Y026D03*
Y025D03*
Y024D03*
Y023D03*
Y022D03*
Y021D03*
Y02D03*
Y019D03*
Y018D03*
Y017D03*
Y016D03*
Y015D03*
Y014D03*
Y013D03*
Y012D03*
Y011D03*
Y01D03*
Y009D03*
Y008D03*
X0388Y0329D03*
Y0319D03*
Y0309D03*
Y0299D03*
Y0289D03*
Y0279D03*
G54D18*
X0055Y005D03*
G54D19*
X0065Y005D03*
X0075D03*
X0085D03*
X0095D03*
X0105D03*
X0115D03*
X0125D03*
X0135D03*
X0145D03*
X0155D03*
X0165D03*
X0175D03*
X0185D03*
X0195D03*
X0205D03*
X0215D03*
X0225D03*
X0235D03*
X0245D03*
X0255D03*
X0265D03*
X0275D03*
X0285D03*
X0295D03*
X0305D03*
X0315D03*
X0325D03*
X0335D03*
X0345D03*
X0355D03*
X0365D03*
G54D20*
X0175Y0062D03*
X0165Y007D03*
X0335Y0065D03*
X0325Y0074D03*
M02*