%FSTAX23Y23*%
%MOIN*%
%SFA1B1*%

%IPPOS*%
%ADD10C,0.019690*%
%ADD11C,0.031500*%
%ADD12C,0.031400*%
%ADD13C,0.010000*%
%ADD15C,0.019600*%
%ADD16C,0.040000*%
%ADD17C,0.062000*%
%ADD18C,0.050000*%
%ADD19R,0.050000X0.050000*%
%ADD20R,0.070000X0.070000*%
%ADD21C,0.060000*%
%ADD22C,0.080000*%
%ADD23C,0.100000*%
%ADD24C,0.055120*%
%LNradiation-1*%
%LPD*%
G54D10*
X00941Y01231D02*
X0104Y0133D01*
X00941Y00829D02*
Y01231D01*
X0103Y0094D02*
X0107Y0098D01*
X00877Y00936D02*
Y00993D01*
X0086Y0101D02*
X00877Y00993D01*
X01002Y01188D02*
X0101Y0118D01*
Y012*
X0137Y0053D02*
Y00545D01*
X0134Y00575D02*
X0137Y00545D01*
X0134Y00575D02*
Y0063D01*
X0217D02*
X0218D01*
X0211Y0069D02*
X0217Y0063D01*
X0198Y0069D02*
X0211D01*
X01Y0059D02*
X0104Y0063D01*
X01Y005D02*
Y0059D01*
X0029Y009D02*
X0034Y0085D01*
X0242Y0127D02*
Y0153D01*
X0223Y0145D02*
X0231Y0153D01*
X0242Y0127D02*
X0259Y011D01*
X0218Y0145D02*
X0223D01*
X01Y0109D02*
X0104Y0113D01*
X0101Y012D02*
X0104Y0123D01*
X0103Y0094D02*
X0104Y0093D01*
X0107Y0098D02*
X011D01*
X0112Y0096*
Y009D02*
Y0096D01*
X0134Y0073D02*
X014Y0067D01*
X0134Y0123D02*
X0143Y0132D01*
X0092Y0133D02*
X0104D01*
X0194Y0049D02*
X0204D01*
X0196D02*
X0208Y0061D01*
X0134Y0083D02*
X0142D01*
X0124Y0084D02*
X0134D01*
X0146Y0071D02*
Y0079D01*
X0142Y0083D02*
X0146Y0079D01*
X0032Y0137D02*
X004Y0145D01*
X0032Y0147D02*
X0038Y0153D01*
X0043*
X0029Y009D02*
Y0096D01*
X0016Y0092D02*
Y0101D01*
X0028Y0031D02*
X0034Y0025D01*
X0028Y0031D02*
Y0033D01*
X0034Y0039*
X0038Y0033D02*
X0044Y0039D01*
Y0064*
X0038Y007D02*
X0044Y0064D01*
X0038Y007D02*
Y0079D01*
X0064Y0044D02*
X0069D01*
Y004D02*
Y0044D01*
X0064Y0035D02*
X0069Y004D01*
X0187Y0036D02*
X0188Y0037D01*
X0198*
X0147Y0026D02*
X0152Y0031D01*
X0154*
X0114Y0113D02*
Y0165D01*
X0112Y0167D02*
X0114Y0165D01*
Y0185D02*
Y02211D01*
X0086Y0185D02*
X0088Y0183D01*
X0086Y0185D02*
Y0191D01*
X0112Y0183D02*
X0114Y0185D01*
X0224Y0197D02*
X02241Y01968D01*
X018Y0189D02*
Y0195D01*
Y0189D02*
X0182Y0187D01*
Y0163D02*
Y0187D01*
X0204Y0049D02*
X0216Y0037D01*
X0244*
X0208Y0061D02*
Y0063D01*
X0026Y0121D02*
Y0127D01*
Y0121D02*
X0042Y0105D01*
Y0083D02*
Y0105D01*
X0038Y0079D02*
X0042Y0083D01*
X0156Y0181D02*
Y0203D01*
X0204Y0177D02*
Y0187D01*
Y0177D02*
X0212Y0169D01*
Y0101D02*
Y0169D01*
X0206Y0095D02*
X0212Y0101D01*
X0192Y0095D02*
X0206D01*
X0182Y0085D02*
X0192Y0095D01*
Y0063D02*
X0198Y0069D01*
X0182Y0063D02*
X0192D01*
X0203Y0133D02*
Y0144D01*
X0204Y0145*
X0251Y0133D02*
Y0144D01*
X0256Y0149*
X0261*
X0245Y0071D02*
X0256D01*
G54D11*
X0023Y006D02*
Y0085D01*
X0016Y0092D02*
X0023Y0085D01*
X0204Y0197D02*
X0224D01*
X0202Y0195D02*
X0204Y0197D01*
X018Y0195D02*
X0202D01*
X0042Y0025D02*
X0064D01*
X0068D02*
X0072Y0029D01*
X0064Y0025D02*
X0068D01*
G54D12*
X00941Y00829D02*
X0104Y0073D01*
X02366Y01023D02*
Y01853D01*
X0236Y0102D02*
X0251Y0087D01*
X0224Y0197D02*
X0236Y0185D01*
X009Y0031D02*
X0094Y0035D01*
Y0063*
X0104Y0073*
X0248Y0185D02*
X0268Y0165D01*
Y0031D02*
Y0165D01*
X025Y0013D02*
X0268Y0031D01*
X0078Y0013D02*
X025D01*
X0072Y0019D02*
X0078Y0013D01*
X0228Y0063D02*
X0256D01*
X0251Y0087D02*
X0256Y0082D01*
Y0037D02*
Y0082D01*
G54D13*
X0004Y0005D02*
Y0241D01*
X0278*
Y0005D02*
Y0241D01*
X0064Y0005D02*
X0278D01*
X0008D02*
X0064D01*
X0004D02*
X0008D01*
G54D15*
X0126Y0191D02*
X01495Y01675D01*
Y01075D02*
Y01675D01*
Y01075D02*
X0156Y0101D01*
X004Y0165D02*
Y0171D01*
X0104Y0103D02*
X011Y0109D01*
Y0141*
X0106Y0145D02*
X011Y0141D01*
X0106Y0145D02*
Y0221D01*
X0012Y0127D02*
X003Y0109D01*
X0012Y0127D02*
Y0217D01*
X0016Y0221*
X0066*
X012Y0163D02*
X0124Y0159D01*
X012Y0163D02*
Y0209D01*
X013Y0219*
X0124Y0113D02*
Y0159D01*
X0156Y0061D02*
Y0081D01*
X0134Y0113D02*
X0154Y0093D01*
X0174*
X0182Y0085*
Y0063D02*
Y0085D01*
X01339Y02251D02*
X0156Y0203D01*
X0118Y02251D02*
X01339D01*
X0114Y02211D02*
X0118Y02251D01*
X0078Y0109D02*
X0086Y0101D01*
X0078Y0109D02*
Y0131D01*
X0094Y0147*
Y0229*
X0096Y0231*
X0134*
X017Y0195*
X0134Y0133D02*
Y0163D01*
X006Y0123D02*
X0076Y0139D01*
Y0191*
X0114Y0113D02*
X0132Y0095D01*
X0134*
Y0093D02*
Y0095D01*
X0154Y0019D02*
X0166Y0031D01*
X008Y0019D02*
X0154D01*
X0078Y0021D02*
X008Y0019D01*
X0078Y0021D02*
Y0093D01*
X0052Y0119D02*
X0078Y0093D01*
X0052Y0119D02*
Y0155D01*
X006Y0163*
X011Y0109D02*
X0118Y0101D01*
Y0065D02*
Y0101D01*
Y0065D02*
X0146Y0037D01*
X0178*
X0186Y0029*
X02*
X0208Y0037*
X0082Y0057D02*
X0086Y0061D01*
X0082Y0027D02*
Y0057D01*
Y0027D02*
X0086Y0023D01*
X0106*
X011Y0027*
Y0077*
X0104Y0083D02*
X011Y0077D01*
X015Y0049D02*
X0194D01*
X0146Y0053D02*
X015Y0049D01*
X0146Y0053D02*
Y0071D01*
X0026Y0127D02*
Y0151D01*
X0134Y0103D02*
X0156Y0081D01*
X0124Y0113D02*
X0134Y0103D01*
X0026Y0151D02*
X0032Y0157D01*
X004Y0165*
G54D16*
X0242Y0153D03*
X0231D03*
X0023Y0085D03*
X0034D03*
G54D17*
X0086Y0121D03*
Y0161D03*
X0038Y0033D03*
X0028D03*
X0124Y0159D03*
X0114D03*
X019Y0219D03*
X023D03*
X017Y0195D03*
X018D03*
X0182Y0063D03*
Y0103D03*
X006Y0123D03*
Y0163D03*
X0064Y0035D03*
X0204Y0187D03*
X006Y0101D03*
X0086Y0061D03*
Y0101D03*
X0106Y0221D03*
X0208Y0037D03*
X0066Y0221D03*
X006Y0061D03*
X013Y0031D03*
X0156Y0061D03*
X013Y0219D03*
X0156Y0101D03*
X0182Y0123D03*
X0086Y0191D03*
X0076D03*
X017Y0219D03*
X0182Y0163D03*
X009Y0031D03*
X0064Y0025D03*
X0198Y0037D03*
X0204Y0197D03*
X0156Y0123D03*
Y0163D03*
G54D18*
X0228Y0063D03*
X0218D03*
X0134Y0113D03*
X0104Y0063D03*
X0134Y0083D03*
X0104D03*
Y0093D03*
Y0103D03*
Y0113D03*
Y0123D03*
X0134Y0063D03*
Y0103D03*
Y0073D03*
Y0133D03*
Y0123D03*
Y0093D03*
X0104Y0073D03*
X00877Y00936D03*
X01002Y01188D03*
X01385Y00535D03*
X01Y005D03*
X0218Y0145D03*
X01Y0109D03*
X0112Y009D03*
X014Y0067D03*
X0143Y0132D03*
X0092Y0133D03*
X0124Y0083D03*
X004Y0145D03*
X0043Y0153D03*
X0029Y0096D03*
X0023Y006D03*
X0016Y0101D03*
X0034Y0039D03*
Y0025D03*
X0064Y0044D03*
X0187Y0036D03*
X0147Y0026D03*
X0112Y0167D03*
X0088Y0183D03*
X0112D03*
X003Y0109D03*
X0134Y0163D03*
X02241Y01968D03*
X0042Y0083D03*
Y0025D03*
X0072Y0019D03*
Y0029D03*
X0156Y0181D03*
G54D19*
X0208Y0063D03*
X0104Y0133D03*
G54D20*
X002Y0171D03*
X004D03*
X003D03*
G54D21*
X0248Y0185D03*
X0032Y0157D03*
X0244Y0037D03*
X0032Y0147D03*
X0166Y0031D03*
X0126Y0191D03*
X0032Y0137D03*
X0114Y0191D03*
X0236Y0185D03*
X0154Y0031D03*
X0256Y0037D03*
G54D22*
X0251Y0133D03*
X0203D03*
X0259Y011D03*
X0251Y0087D03*
X0203D03*
G54D23*
X027Y0233D03*
Y0013D03*
X0012D03*
Y0233D03*
G54D24*
X0204Y0145D03*
X0262Y0149D03*
X0245Y0071D03*
M02*