%FSTAX23Y23*%
%MOIN*%
%SFA1B1*%

%IPPOS*%
%ADD10C,0.010000*%
%ADD11C,0.019690*%
%ADD12C,0.031500*%
%ADD13C,0.031400*%
%ADD14C,0.019600*%
%ADD15C,0.015750*%
%ADD16C,0.062000*%
%ADD17C,0.080000*%
%ADD18C,0.060000*%
%ADD19R,0.050000X0.050000*%
%ADD20C,0.050000*%
%ADD21R,0.070000X0.070000*%
%ADD22C,0.040000*%
%ADD23C,0.055120*%
%ADD24C,0.100000*%
%LNradiation-1*%
%LPD*%
G54D10*
X0004Y0005D02*
Y0241D01*
X0278*
Y0005D02*
Y0241D01*
X0064Y0005D02*
X0278D01*
X0008D02*
X0064D01*
X0004D02*
X0008D01*
X0004D02*
Y0241D01*
X0278*
Y0005D02*
Y0241D01*
X0064Y0005D02*
X0278D01*
X0008D02*
X0064D01*
X0004D02*
X0008D01*
G54D11*
X0213Y0103D02*
X0245Y0071D01*
X0182Y0103D02*
X0213D01*
X0262Y0149D02*
X0266Y0145D01*
Y0118D02*
Y0145D01*
X0204D02*
X0218D01*
X01507Y01997D02*
X017Y0219D01*
X01412Y01997D02*
X01507D01*
X0134Y0207D02*
X01412Y01997D01*
X0096Y0207D02*
X0134D01*
X0088Y0199D02*
X0096Y0207D01*
X007Y0199D02*
X0088D01*
X0052Y0083D02*
X006Y0075D01*
X0082*
X0094Y0063*
X0156Y0163D02*
Y0181D01*
X0028Y0031D02*
Y0033D01*
X0042Y0083D02*
X0052D01*
X006Y0091*
Y0101*
X0088Y0183D02*
X0112D01*
X0082Y0153D02*
X009D01*
X0104Y0167*
X0112*
X0098Y0023D02*
X0144D01*
X0147Y0026*
X015Y0023D02*
X0154D01*
X0147Y0026D02*
X015Y0023D01*
X0054Y0033D02*
Y0039D01*
X0058Y0043*
X0063*
X0064Y0044*
X0016Y0124D02*
X002Y0128D01*
X0016Y0101D02*
Y0124D01*
X002Y0128D02*
Y0171D01*
X0029Y0096D02*
X003D01*
X0048Y0158D02*
Y0163D01*
X0043Y0153D02*
X0048Y0158D01*
X0141Y0139D02*
X0143Y0137D01*
Y0132D02*
Y0137D01*
X0118Y0139D02*
X0141D01*
X0152Y0123D02*
X0156D01*
X0143Y0132D02*
X0152Y0123D01*
X0157Y0067D02*
X0163Y0073D01*
X014Y0067D02*
X0157D01*
X0094Y0093D02*
X0099Y0088D01*
X0086Y0121D02*
X0097D01*
X01Y0118*
X0203Y0133D02*
X0206D01*
X0094Y0056D02*
Y0063D01*
Y0056D02*
X01Y005D01*
X0124Y0053D02*
Y0083D01*
X0121Y005D02*
X0124Y0053D01*
X01Y005D02*
X0121D01*
X013Y0031D02*
Y0045D01*
X0137Y0052*
Y0053*
X00218Y01032D02*
X0029Y0096D01*
X00218Y01032D02*
Y0118D01*
X00254Y01216*
X009Y0093D02*
X0094D01*
G54D12*
X0072Y0029D02*
X0076Y0025D01*
X0084*
X0034D02*
X0042D01*
X002Y0021D02*
Y0027D01*
X0174Y0049D02*
Y0061D01*
Y0049D02*
X0187Y0036D01*
X0184Y0023D02*
Y0033D01*
X0187Y0036*
X0082Y0133D02*
X0092D01*
X002Y0021D02*
X00242Y00168D01*
X00518D02*
X00698D01*
X0072Y0019*
X00518Y00168D02*
X0054Y0019D01*
Y0033*
G54D13*
X018Y0195D02*
X0182D01*
X0154Y0023D02*
X0184D01*
X002Y0057D02*
X0023Y006D01*
X002Y0027D02*
Y0057D01*
X0084Y0025D02*
X009Y0031D01*
X003Y0165D02*
Y0171D01*
X00254Y01604D02*
X003Y0165D01*
X00254Y01216D02*
Y01604D01*
Y01216D02*
X0032Y0115D01*
X0064*
X0082Y0133*
X0174Y0095D02*
X0182Y0103D01*
X0174Y0061D02*
Y0095D01*
X009Y0031D02*
X0098Y0023D01*
X00242Y00168D02*
X00518D01*
G54D14*
X022Y0229D02*
X023Y0219D01*
X0102Y0229D02*
X022D01*
X0076Y0203D02*
X0102Y0229D01*
X0052Y0203D02*
X0076D01*
X0048Y0199D02*
X0052Y0203D01*
X0048Y0163D02*
Y0199D01*
X006Y0061D02*
X0071D01*
X0101Y0031*
X013*
X0163Y0073D02*
X0169Y0079D01*
Y011*
X0182Y0123*
X0266Y0107D02*
Y0118D01*
X0262Y0103D02*
X0266Y0107D01*
X0242Y0103D02*
X0262D01*
X0222Y0123D02*
X0242Y0103D01*
X0194Y0123D02*
X0222D01*
X0172Y0145D02*
X0194Y0123D01*
X004Y0145D02*
X0172D01*
X0068Y0197D02*
X007Y0199D01*
X0068Y0167D02*
Y0197D01*
Y0167D02*
X0082Y0153D01*
X006Y0123D02*
X0076Y0139D01*
X0118*
X0134Y0163D02*
X0156D01*
X0174Y0203D02*
X019Y0219D01*
X016Y0203D02*
X0174D01*
X0132Y0175D02*
X016Y0203D01*
X01Y0175D02*
X0132D01*
X0086Y0161D02*
X01Y0175D01*
X003Y0109D02*
X01D01*
G54D15*
X0099Y0088D02*
X011D01*
G54D16*
X0156Y0163D03*
Y0123D03*
X0204Y0197D03*
X0198Y0037D03*
X0064Y0025D03*
X009Y0031D03*
X0182Y0163D03*
X017Y0219D03*
X0076Y0191D03*
X0086D03*
X0182Y0123D03*
X0156Y0101D03*
X013Y0219D03*
X0156Y0061D03*
X013Y0031D03*
X006Y0061D03*
X0066Y0221D03*
X0208Y0037D03*
X0106Y0221D03*
X0086Y0101D03*
Y0061D03*
X006Y0101D03*
X0204Y0187D03*
X0064Y0035D03*
X006Y0163D03*
Y0123D03*
X0182Y0103D03*
Y0063D03*
X018Y0195D03*
X017D03*
X023Y0219D03*
X019D03*
X0114Y0159D03*
X0124D03*
X0028Y0033D03*
X0038D03*
X0086Y0161D03*
Y0121D03*
G54D17*
X0203Y0087D03*
X0251D03*
X0259Y011D03*
X0203Y0133D03*
X0251D03*
G54D18*
X0256Y0037D03*
X0154Y0031D03*
X0236Y0185D03*
X0114Y0191D03*
X0032Y0137D03*
X0126Y0191D03*
X0166Y0031D03*
X0032Y0147D03*
X0244Y0037D03*
X0032Y0157D03*
X0248Y0185D03*
G54D19*
X0104Y0133D03*
X0208Y0063D03*
G54D20*
X0104Y0073D03*
X0134Y0093D03*
Y0123D03*
Y0133D03*
Y0073D03*
Y0103D03*
Y0063D03*
X0104Y0123D03*
Y0113D03*
Y0103D03*
Y0093D03*
Y0083D03*
X0134D03*
X0104Y0063D03*
X0134Y0113D03*
X0218Y0063D03*
X0228D03*
X0156Y0181D03*
X0072Y0029D03*
Y0019D03*
X0042Y0025D03*
Y0083D03*
X02241Y01968D03*
X0134Y0163D03*
X003Y0109D03*
X0112Y0183D03*
X0088D03*
X0112Y0167D03*
X0147Y0026D03*
X0187Y0036D03*
X0064Y0044D03*
X0034Y0025D03*
Y0039D03*
X0016Y0101D03*
X0023Y006D03*
X0029Y0096D03*
X0043Y0153D03*
X004Y0145D03*
X0124Y0083D03*
X0092Y0133D03*
X0143Y0132D03*
X014Y0067D03*
X0112Y009D03*
X01Y0109D03*
X0218Y0145D03*
X01Y005D03*
X01385Y00535D03*
X01002Y01188D03*
X00877Y00936D03*
G54D21*
X003Y0171D03*
X004D03*
X002D03*
G54D22*
X0034Y0085D03*
X0023D03*
X0231Y0153D03*
X0242D03*
G54D23*
X0245Y0071D03*
X0262Y0149D03*
X0204Y0145D03*
G54D24*
X0012Y0233D03*
Y0013D03*
X027D03*
Y0233D03*
M02*