%FSTAX23Y23*%
%MOIN*%
%SFA1B1*%

%IPPOS*%
%AMD19*
4,1,8,0.012900,-0.031000,0.031000,-0.012900,0.031000,0.012900,0.012900,0.031000,-0.012900,0.031000,-0.031000,0.012900,-0.031000,-0.012900,-0.012900,-0.031000,0.012900,-0.031000,0.0*
%
%ADD10C,0.059000*%
%ADD11C,0.031400*%
%ADD12C,0.031500*%
%ADD13C,0.059060*%
%ADD14C,0.060000*%
%ADD15C,0.050000*%
%ADD16C,0.062000*%
%ADD17C,0.080000*%
%ADD18R,0.062000X0.062000*%
G04~CAMADD=19~4~0.0~0.0~620.0~620.0~0.0~181.6~0~0.0~0.0~0.0~0.0~0~0.0~0.0~0.0~0.0~0~0.0~0.0~0.0~225.0~620.0~620.0*
%ADD19D19*%
%ADD20C,0.118110*%
%ADD21C,0.059060*%
%ADD22C,0.040000*%
%ADD23C,0.031500*%
%ADD24C,0.030000*%
%LNsystem-1*%
%LPD*%
G54D10*
X1206Y0596D02*
Y0598D01*
X1202Y06D02*
X1206Y0596D01*
X1202Y06D02*
Y06745D01*
X1204Y06765*
Y0696*
X0986Y0644D02*
X099Y064D01*
X104*
X1075Y0675*
Y069*
X108Y0695*
X1105*
X1135Y0665*
X1285Y0757D02*
X12918D01*
X127Y0735D02*
X128Y0725D01*
X131*
X1325Y071*
G54D11*
X1054Y0484D02*
X1058D01*
X1074Y05*
X1042Y0572D02*
X1068D01*
X0994Y0648D02*
X1024D01*
X1066Y0614D02*
Y0616D01*
Y0614D02*
X1076Y0604D01*
X12405Y06234D02*
D01*
X1234Y0604D02*
Y0634D01*
X1248Y059D02*
Y0632D01*
X123Y0572D02*
X1248Y059D01*
X1178Y0572D02*
X123D01*
X1178Y057D02*
Y0572D01*
X1176Y057D02*
X1178D01*
X1176Y0532D02*
Y057D01*
X1168Y0524D02*
X1176Y0532D01*
X1154Y0524D02*
X1168D01*
X1154Y0534D02*
X1166D01*
X11708Y05388*
Y05748*
X1176Y058*
X122*
X1226Y0586*
Y0654*
X1154Y0544D02*
X1164D01*
X11657Y05457*
Y05777*
X1176Y0588*
X122*
Y0664*
X11497Y05706D02*
X11506D01*
X1174Y0594*
X1188*
X1192Y0598*
Y0686*
X1144Y0702D02*
X116D01*
X1166Y0696*
Y0694D02*
Y0696D01*
X1182Y0625D02*
X1183D01*
X1182D02*
Y0626D01*
X1095Y0505D02*
Y0633D01*
Y0505D02*
X113Y047D01*
X1272*
X1145Y0485D02*
X1165Y0505D01*
X114Y0485D02*
X1145D01*
X1135Y049D02*
X114Y0485D01*
X119Y0535D02*
X12Y0524D01*
X1052Y067D02*
Y0687D01*
X10802Y07152*
X12532*
X1065Y0596D02*
X1068D01*
X1064Y0595D02*
X1065Y0596D01*
X1051Y0595D02*
X1064D01*
X10216Y05656D02*
X1051Y0595D01*
X13Y0775D02*
X13052Y07698D01*
X099Y0775D02*
X13D01*
X0975Y076D02*
X099Y0775D01*
X0975Y064D02*
Y076D01*
Y064D02*
X099Y0625D01*
X113Y0698D02*
Y0705D01*
X1102Y0606D02*
X111Y0614D01*
Y067*
X132Y0485D02*
X133Y0495D01*
Y0685*
X1305Y071D02*
X133Y0685D01*
X1185Y071D02*
X1305D01*
X1175Y07D02*
X1185Y071D01*
X11906Y07027D02*
X126D01*
X132Y0588D02*
Y062D01*
X1255Y0685D02*
X132Y062D01*
X123Y0685D02*
X1255D01*
X122Y0695D02*
X123Y0685D01*
X1074Y05D02*
Y0504D01*
X12405Y06094D02*
Y06234D01*
G54D12*
X1165Y0505D02*
X1181D01*
X1186Y051*
X1196Y0478D02*
Y048D01*
X1206Y049*
X1248Y0508D02*
Y0532D01*
X1284Y0524D02*
X1302D01*
X1306Y0532D02*
X131Y0528D01*
X1286Y0532D02*
X1306D01*
Y051D02*
Y0516D01*
X131Y052*
Y0528*
X1264Y0482D02*
X1316D01*
X1319Y0485*
X132*
X1302Y054D02*
X1304Y0542D01*
X1188Y0546D02*
X119D01*
X1204Y0532*
X1196Y055D02*
X1198D01*
X1206Y0542*
X1238Y0536D02*
X1242D01*
X1244Y0538*
X12472*
X12492Y054*
X1302*
X1226Y0532D02*
X12324Y05384D01*
Y05424*
X1238Y0548*
X1266*
X1204Y0532D02*
X1226D01*
X122Y0542D02*
X1234Y0556D01*
X1264*
X1278Y057*
X1292*
X1296Y0566*
X1206Y0542D02*
X122D01*
X1234Y051D02*
X1246Y0498D01*
X1268*
X1276Y0506*
X127Y075D02*
Y076D01*
X1278Y0768*
X1292*
X1295Y0765*
X1282Y0666D02*
Y067D01*
Y0666D02*
X1302Y0646D01*
X1304*
X12532Y07152D02*
X1256Y0718D01*
X099Y0608D02*
Y0625D01*
Y0608D02*
X0994Y0604D01*
Y0582D02*
Y0604D01*
X1145Y06945D02*
X11495D01*
X1158Y0686*
Y0668D02*
Y0686D01*
Y0668D02*
X116Y0666D01*
X1175Y0687D02*
Y07D01*
X1174Y0686D02*
X1175Y0687D01*
X1174Y0682D02*
Y0686D01*
Y0682D02*
X1176Y068D01*
X116Y0666D02*
X1172D01*
X1176Y067*
X1186Y051D02*
X1234D01*
X113Y0684D02*
Y0698D01*
Y0684D02*
X1132Y0682D01*
X1136*
X1095Y0633D02*
Y0635D01*
X1094Y0636D02*
X1095Y0635D01*
G54D13*
X112Y0766D02*
X115D01*
X1289Y0603D02*
Y0616D01*
Y0603D02*
X1292Y06D01*
X13*
X1135Y0655D02*
Y0665D01*
X1128Y0648D02*
X1135Y0655D01*
X1128Y0604D02*
Y0648D01*
Y0604D02*
X1132Y06D01*
X1286Y0616D02*
X1289D01*
X1244Y0658D02*
X1286Y0616D01*
X1244Y0658D02*
Y0672D01*
X12374Y06785D02*
X1244Y0672D01*
X12214Y06785D02*
X12374D01*
X1076Y0744D02*
X1098D01*
X106Y076D02*
X1076Y0744D01*
X1052Y076D02*
X106D01*
X108Y0734D02*
X1172D01*
G54D14*
X12918Y0757D03*
Y0746D03*
Y0735D03*
X13118Y0757D03*
Y0746D03*
Y0735D03*
X1216Y0498D03*
X1226D03*
X1216Y0558D03*
X1196D03*
X1186D03*
X1196Y0498D03*
X1186D03*
X1226Y0558D03*
X1206Y0498D03*
Y0558D03*
X1306Y0494D03*
X1316D03*
X1306Y0554D03*
X1286D03*
X1276D03*
X1286Y0494D03*
X1276D03*
X1316Y0554D03*
X1296Y0494D03*
Y0554D03*
X12958Y0692D03*
X12858D03*
X1028Y0682D03*
Y0692D03*
Y0702D03*
X1186Y0756D03*
X1206Y0726D03*
Y0756D03*
X1186Y0726D03*
X1242Y0754D03*
X098Y06D03*
X0986Y0644D03*
X1262Y0724D03*
X0986Y0656D03*
X098Y059D03*
Y058D03*
X1026Y0604D03*
Y0594D03*
Y0584D03*
X1262Y0754D03*
X1242Y0724D03*
X0986Y0744D03*
X1006D03*
X1026D03*
X1046D03*
X0996D03*
X1016D03*
X1036D03*
X1056D03*
X1234Y0604D03*
G54D15*
X1066Y0534D03*
Y0512D03*
X1256Y0694D03*
X1244D03*
X1074Y0504D03*
X1042Y0572D03*
X1068D03*
X10216Y05656D03*
X1068Y0596D03*
X1066Y0616D03*
X0994Y0648D03*
X1024D03*
X1054Y0484D03*
X12405Y06094D03*
X1192Y0686D03*
X1204Y0696D03*
X1076Y0604D03*
X1206Y0598D03*
X1248Y0532D03*
Y0508D03*
X1166Y0694D03*
X1144Y0702D03*
X12Y0524D03*
X1194Y051D03*
X1196Y0478D03*
X12056Y04896D03*
X1302Y0524D03*
X1284D03*
X1306Y051D03*
X1286Y0532D03*
X1264Y0482D03*
X1304Y0542D03*
X1188Y0546D03*
X1266Y0548D03*
X1196Y055D03*
X1238Y0536D03*
X1296Y0566D03*
X132Y0588D03*
X1276Y0506D03*
X112Y0766D03*
X115D03*
X127Y075D03*
X1295Y0765D03*
X1282Y067D03*
X1304Y0646D03*
X1256Y0718D03*
X13Y06D03*
X0994Y0582D03*
X1132Y06D03*
X12214Y06785D03*
D03*
X1224Y0734D03*
X1176Y067D03*
Y068D03*
X1136Y0682D03*
X1052Y076D03*
X108Y0734D03*
X1172D03*
X127D03*
X10945Y06354D03*
G54D16*
X098Y0542D03*
Y0532D03*
X1018Y051D03*
Y055D03*
X1144Y0594D03*
Y0564D03*
Y0554D03*
Y0544D03*
Y0534D03*
Y0524D03*
Y0514D03*
Y0504D03*
Y0494D03*
X1084Y0644D03*
Y0654D03*
Y0624D03*
X1144Y0684D03*
X1084Y0634D03*
X1052Y067D03*
X1084Y0604D03*
X1052Y063D03*
X1084Y0544D03*
X1056Y0562D03*
Y0602D03*
X1084Y0614D03*
Y0564D03*
Y0574D03*
Y0554D03*
Y0674D03*
Y0664D03*
Y0514D03*
X1042Y0532D03*
X1084Y0504D03*
Y0494D03*
X1042Y0522D03*
X1084Y0594D03*
Y0584D03*
Y0534D03*
Y0524D03*
X1144Y0574D03*
Y0584D03*
Y0604D03*
Y0614D03*
Y0624D03*
Y0634D03*
Y0644D03*
Y0654D03*
Y0664D03*
Y0674D03*
X1212Y0616D03*
Y0626D03*
Y0636D03*
Y0646D03*
Y0656D03*
Y0666D03*
Y0676D03*
Y0686D03*
Y0696D03*
X1182D03*
Y0686D03*
Y0676D03*
Y0666D03*
Y0656D03*
Y0646D03*
Y0636D03*
Y0626D03*
Y0616D03*
Y0606D03*
X1098Y0744D03*
X1138D03*
G54D17*
X13078Y0662D03*
X13158Y0639D03*
X12598Y0662D03*
X13078Y0616D03*
X12598D03*
G54D18*
X1084Y0684D03*
G54D19*
X1212Y0606D03*
G54D20*
X0974Y0474D03*
X1332D03*
X1334Y0774D03*
X097Y0772D03*
G54D21*
X12405Y06234D03*
X1234Y0634D03*
X1248Y0632D03*
X1272Y047D03*
X1135Y049D03*
X1145Y06945D03*
X119Y0535D03*
X1325Y071D03*
X13052Y07698D03*
X113Y0705D03*
X1102Y0606D03*
X111Y067D03*
X126Y07027D03*
X11906D03*
X122Y0695D03*
G54D22*
X1154Y0524D03*
Y0534D03*
Y0544D03*
G54D23*
X1226Y0654D03*
X122Y0664D03*
G54D24*
X11497Y05706D03*
M02*