%FSTAX23Y23*%
%MOIN*%
%SFA1B1*%

%IPPOS*%
%AMD19*
4,1,8,0.012900,-0.031000,0.031000,-0.012900,0.031000,0.012900,0.012900,0.031000,-0.012900,0.031000,-0.031000,0.012900,-0.031000,-0.012900,-0.012900,-0.031000,0.012900,-0.031000,0.0*
%
%ADD10C,0.059000*%
%ADD11C,0.031400*%
%ADD12C,0.031500*%
%ADD13C,0.059060*%
%ADD14C,0.060000*%
%ADD15C,0.050000*%
%ADD16C,0.062000*%
%ADD17C,0.080000*%
%ADD18R,0.062000X0.062000*%
G04~CAMADD=19~4~0.0~0.0~620.0~620.0~0.0~181.6~0~0.0~0.0~0.0~0.0~0~0.0~0.0~0.0~0.0~0~0.0~0.0~0.0~225.0~620.0~620.0*
%ADD19D19*%
%ADD20C,0.118110*%
%ADD21C,0.059060*%
%ADD22C,0.040000*%
%ADD23C,0.031500*%
%ADD24C,0.030000*%
%LNsystem-1*%
%LPD*%
G54D10*
X1204Y0696D02*
X1212D01*
Y0598D02*
Y0606D01*
X1206Y0598D02*
X1212D01*
X1026Y0744D02*
Y0748D01*
X1032Y0754D02*
X104D01*
X1046Y0744D02*
Y0748D01*
X1022Y0752D02*
X1026Y0748D01*
X10128Y0752D02*
X1022D01*
X1006Y0744D02*
Y075D01*
X0986D02*
X0992Y0756D01*
X1*
X1006Y075*
X1042Y0522D02*
X1044Y052D01*
Y0512D02*
Y052D01*
X1074Y0496D02*
X1076Y0494D01*
X1084*
X098Y052D02*
X1004Y0496D01*
X098Y052D02*
Y0532D01*
X0984*
X099Y0538*
Y05433*
X0986Y05473D02*
X099Y05433D01*
X0986Y05473D02*
Y0548D01*
X0968Y0566D02*
X0986Y0548D01*
X0968Y0566D02*
Y0686D01*
X0986Y0704*
X118Y0604D02*
X1182Y0606D01*
X1164Y0604D02*
X118D01*
X1154Y0594D02*
X1164Y0604D01*
X1144Y0594D02*
X1154D01*
X098Y0638D02*
X0986Y0644D01*
X098Y06D02*
Y0638D01*
X1056Y0736D02*
Y0744D01*
X1054Y0734D02*
X1056Y0736D01*
X1036Y0734D02*
X1054D01*
X0978Y0672D02*
X0996Y069D01*
X0978Y0648D02*
Y0672D01*
Y0648D02*
X0982Y0644D01*
X0986*
X1016Y0738D02*
Y0744D01*
X1024Y0734D02*
Y0736D01*
Y0734D02*
X1032D01*
X128Y07058D02*
Y0752D01*
Y07058D02*
X12858Y07D01*
X12858*
Y0692D02*
Y07D01*
X1325Y0621D02*
Y071D01*
X132Y0616D02*
X1325Y0621D01*
X1212Y0686D02*
Y0696D01*
X0986Y0704D02*
Y0744D01*
Y075*
X1004Y0496D02*
X1028D01*
X1074*
X1028D02*
X1044Y0512D01*
X0996Y069D02*
Y0742D01*
Y0744*
X1014Y0736D02*
X1016Y0738D01*
X0996Y0742D02*
X1002Y0736D01*
X1032Y0734D02*
X1036Y0738D01*
X1002Y0736D02*
X1024D01*
X1036Y0734D02*
Y0744D01*
X128Y0752D02*
X1285Y0757D01*
X12918*
X13078Y0616D02*
X132D01*
X104Y0754D02*
X1046Y0748D01*
G54D11*
X1074Y0504D02*
X1084D01*
X0996Y0484D02*
X1054D01*
X0968Y0512D02*
X0996Y0484D01*
X0968Y0512D02*
Y053D01*
X098Y0542*
X1028Y0682D02*
X1058D01*
X1076Y0664*
X1084*
X1028Y0692D02*
X1056D01*
X1074Y0674*
X1084*
X1028Y0702D02*
X1058D01*
X1076Y0684*
X1084*
X1026Y0584D02*
X1046D01*
X1076Y0554*
X1084*
X1026Y0594D02*
X1032D01*
X10368Y05891*
X10628*
X1078Y0574*
X1084*
X10807Y0564D02*
X1084D01*
X10727Y0572D02*
X10807Y0564D01*
X1068Y0572D02*
X10727D01*
X1024Y0604D02*
X1026D01*
X1014Y0594D02*
X1024Y0604D01*
X1014Y0582D02*
Y0594D01*
Y0582D02*
X1024Y0572D01*
X1042*
X1002Y0526D02*
X1018Y051D01*
X1002Y0526D02*
Y0586D01*
X0998Y059D02*
X1002Y0586D01*
X098Y059D02*
X0998D01*
X1076Y0614D02*
X1084D01*
X1068Y0606D02*
X1076Y0614D01*
X1068Y0596D02*
Y0606D01*
X10223Y05656D02*
Y05663D01*
X1018Y055D02*
Y0562D01*
X1056Y056D02*
Y0562D01*
Y056D02*
X1072Y0544D01*
X1084*
X0986Y0656D02*
X0994Y0648D01*
X1076Y0604D02*
X1084D01*
X1052Y063D02*
X1054D01*
X1066Y0618*
Y0616D02*
Y0618D01*
X1052Y063D02*
Y0634D01*
X1038Y0648D02*
X1052Y0634D01*
X1024Y0648D02*
X1038D01*
X1212Y0616D02*
X1244D01*
X1248Y0612*
Y0596D02*
Y0612D01*
X1228Y0576D02*
X1248Y0596D01*
X118Y0576D02*
X1228D01*
X1172Y0568D02*
X118Y0576D01*
X1172Y0506D02*
Y0568D01*
X116Y0494D02*
X1172Y0506D01*
X1144Y0494D02*
X116D01*
X1232Y0636D02*
X1234Y0634D01*
X1212Y0636D02*
X1232D01*
X1144Y0514D02*
X1158D01*
X116Y0516*
Y0574*
X1174Y0588*
X1222*
X1234Y06*
Y0604*
X1144Y0524D02*
X1154D01*
X1212Y0646D02*
X1244D01*
X1248Y0642*
Y0632D02*
Y0642D01*
X1144Y0534D02*
X1154D01*
X1224Y0656D02*
X1226Y0654D01*
X1212Y0656D02*
X1224D01*
X1144Y0544D02*
X1154D01*
X1218Y0666D02*
X122Y0664D01*
X1212Y0666D02*
X1218D01*
X1206Y0676D02*
X1212D01*
X1196Y0666D02*
X1206Y0676D01*
X1196Y0596D02*
Y0666D01*
X1194Y0594D02*
X1196Y0596D01*
X11727Y0594D02*
X1194D01*
X11548Y05588D02*
Y05768D01*
X1152Y0556D02*
X11548Y05588D01*
X1152Y0554D02*
Y0556D01*
X1144Y0554D02*
X1152D01*
X11497Y0564D02*
Y05706D01*
X1144Y0564D02*
X11497D01*
X1192Y0686D02*
Y0696D01*
X1182D02*
X1192D01*
X1166Y0636D02*
X1182D01*
X1216Y0548D02*
Y0558D01*
X121Y0542D02*
X1216Y0548D01*
X1208Y0542D02*
X121D01*
X1178Y0512D02*
X1208Y0542D01*
X1178Y0494D02*
Y0512D01*
X1166Y0482D02*
X1178Y0494D01*
X1126Y0482D02*
X1166D01*
X1122Y0486D02*
X1126Y0482D01*
X1122Y0686D02*
X1138Y0702D01*
X1144*
X1226Y0498D02*
X1234D01*
X1244Y0508*
X1248*
Y0532D02*
Y0564D01*
X1268Y0584*
Y0632*
X1248Y0652D02*
X1268Y0632D01*
X124Y0652D02*
X1248D01*
X1228Y0664D02*
X124Y0652D01*
X1228Y0664D02*
Y0702D01*
X122Y071D02*
X1228Y0702D01*
X117Y071D02*
X122D01*
X1158Y0698D02*
X117Y071D01*
X1158Y0626D02*
Y0698D01*
Y0626D02*
X1159Y0625D01*
X1183*
Y0626*
X1182D02*
X1183D01*
X1156Y0616D02*
X1182D01*
X1152Y062D02*
X1156Y0616D01*
X1152Y062D02*
Y07D01*
X1168Y0716*
X1224*
X1234Y0706*
Y0668D02*
Y0706D01*
Y0668D02*
X1242Y066D01*
X125*
X128Y063*
Y0584D02*
Y063D01*
X1258Y0562D02*
X128Y0584D01*
X1258Y0532D02*
Y0562D01*
X1234Y0508D02*
X1258Y0532D01*
X122Y0508D02*
X1234D01*
X1216Y0504D02*
X122Y0508D01*
X1216Y0498D02*
Y0504D01*
X1238Y0626D02*
X12405Y06234D01*
X1212Y0626D02*
X1238D01*
X1216Y0558D02*
X1234Y054D01*
X1272Y047D02*
X1295Y0493D01*
Y0553D02*
X1296Y0554D01*
X1115Y048D02*
X112Y0475D01*
X1183*
X1206Y0551D02*
Y0558D01*
X119Y0535D02*
X1206Y0551D01*
X12598Y0662D02*
Y067D01*
X12599*
X126Y06701*
Y0675*
X1244Y0691D02*
X126Y0675D01*
X1244Y0691D02*
Y0694D01*
X1075Y0523D02*
X1084Y0514D01*
X1075Y0523D02*
Y0525D01*
X1066Y0534D02*
X1075Y0525D01*
X13078Y0662D02*
Y067D01*
X13078D02*
X13078D01*
X13052Y06726D02*
X13078Y067D01*
X13052Y06726D02*
Y07698D01*
X101Y0648D02*
X1056Y0602D01*
X101Y0648D02*
Y071D01*
X102Y072*
X109*
X115Y078*
X131*
X132Y077*
Y07246D02*
Y077D01*
X13175Y07221D02*
X132Y07246D01*
X13175Y066D02*
Y07221D01*
X131Y06525D02*
X13175Y066D01*
X1305Y06525D02*
X131D01*
X13Y06575D02*
X1305Y06525D01*
X12958Y0692D02*
X13D01*
X102Y0652D02*
X1024Y0648D01*
X102Y0652D02*
Y0705D01*
X1025Y071*
X1104*
X1138Y0744*
X12918Y0746D02*
X1295D01*
X13Y0751*
Y076*
X1295Y0765D02*
X13Y076D01*
X1265Y0745D02*
X127Y075D01*
X117Y0745D02*
X1265D01*
X113Y0705D02*
X117Y0745D01*
X1084Y0624D02*
X1102Y0606D01*
X111Y067D02*
Y07D01*
X1166Y0756*
X1186*
X12405Y06094D02*
X12425Y06075D01*
Y06012D02*
Y06075D01*
X12233Y0582D02*
X12425Y06012D01*
X11753Y0582D02*
X12233D01*
X1166Y05727D02*
X11753Y0582D01*
X1166Y051D02*
Y05727D01*
X116Y0504D02*
X1166Y051D01*
X1144Y0504D02*
X116D01*
X1276Y0554D02*
X129Y0568D01*
Y06727*
X126Y07027D02*
X129Y06727D01*
X122Y0695D02*
Y06977D01*
X1215Y07027D02*
X122Y06977D01*
X12Y07027D02*
X1215D01*
X11975Y07002D02*
X12Y07027D01*
X11975Y06925D02*
Y07002D01*
Y06925D02*
X12Y069D01*
Y0685D02*
Y069D01*
X119Y0675D02*
X12Y0685D01*
X119Y0654D02*
Y0675D01*
X1182Y0646D02*
X119Y0654D01*
X1018Y0562D02*
X10216Y05656D01*
X10223Y05663*
X10216Y05656D02*
X10223D01*
X13Y06575D02*
Y0692D01*
X1295Y0493D02*
Y0495D01*
Y0553*
Y0495D02*
X1296Y0494D01*
G54D12*
X11548Y05768D02*
X1172Y0594D01*
X11727*
X12Y0524D02*
X1206Y0518D01*
X1194Y051D02*
X1196Y0508D01*
Y0498D02*
Y0508D01*
X1186Y049D02*
Y0498D01*
X1276Y0492D02*
Y0494D01*
X1193Y0475D02*
X1196Y0478D01*
X1183Y0475D02*
X1193D01*
X1206Y049D02*
Y0518D01*
X1186Y049D02*
X1194D01*
X1202Y0482*
X1264*
X1276Y0494*
X1316D02*
Y051D01*
X1302Y0524D02*
X1316Y051D01*
X1262Y0524D02*
X1284D01*
X1248Y051D02*
X1262Y0524D01*
X1248Y0508D02*
Y051D01*
X1306Y0494D02*
Y051D01*
X1258Y0532D02*
X1286D01*
X1304Y0542D02*
Y0552D01*
X1306Y0554*
X1186Y0548D02*
Y0558D01*
Y0548D02*
X1188Y0546D01*
X1266Y0548D02*
X127D01*
X1276Y0554*
X1196Y055D02*
Y0558D01*
X1234Y054D02*
X1238Y0536D01*
X1286Y0554D02*
Y0556D01*
X1296Y0566*
X1298*
X132Y0588*
X1276Y0506D02*
X1282D01*
X1284Y0504*
Y0496D02*
Y0504D01*
Y0496D02*
X1286Y0494D01*
X1256Y0694D02*
X1258D01*
X1282Y067*
X1304Y0646D02*
X13088D01*
X13158Y0639*
X1256Y0718D02*
X1262Y0724D01*
X0992Y0582D02*
X0994D01*
X099Y058D02*
X0992Y0582D01*
X098Y058D02*
X099D01*
X1042Y0532D02*
X1064D01*
X1066Y0534*
Y0512D02*
X1074Y0504D01*
X1084Y0654D02*
X1092D01*
X11037Y06122D02*
X11057D01*
X111Y0608*
Y06D02*
Y0608D01*
X1104Y0594D02*
X111Y06D01*
X1104Y0488D02*
Y0594D01*
Y0488D02*
X1112Y048D01*
X1115*
X1122Y0682D02*
Y0686D01*
X1118Y0678D02*
X1122Y0682D01*
X1118Y066D02*
Y0678D01*
X1116Y0658D02*
X1118Y066D01*
X1116Y0594D02*
Y0658D01*
X111Y0588D02*
X1116Y0594D01*
X111Y0496D02*
Y0588D01*
Y0496D02*
X112Y0486D01*
X1122*
X11211Y06491D02*
X11231Y06511D01*
X11211Y05911D02*
Y06491D01*
X1116Y0502D02*
Y0586D01*
Y0502D02*
X1128Y049D01*
X1136*
X1116Y0586D02*
X11211Y05911D01*
X11631Y06911D02*
X1166Y0694D01*
X11631Y06391D02*
Y06911D01*
Y06391D02*
X1166Y06362D01*
Y0636D02*
Y06362D01*
X1176Y068D02*
X118Y0676D01*
X1182*
X1174Y06976D02*
X11775Y07011D01*
X1174Y0688D02*
Y06976D01*
X11682Y06822D02*
X1174Y0688D01*
X1176Y067D02*
X11791D01*
X1182Y06671*
Y0666D02*
Y06671D01*
X11682Y06617D02*
X1174Y0656D01*
X1182*
X11682Y06617D02*
Y06822D01*
X11775Y07011D02*
X11777D01*
X11793Y07027*
X11906*
X1128Y06807D02*
Y06847D01*
X11377Y06945*
X1145*
X11231Y06511D02*
Y06758D01*
X1128Y06807*
X1136Y0682D02*
X1142D01*
X1144Y0684*
X1102Y06168D02*
Y0644D01*
X11005Y06154D02*
X1102Y06168D01*
X11Y0616D02*
X11037Y06122D01*
X1092Y0654D02*
X1102Y0644D01*
X1084D02*
X109D01*
X10945Y06394*
Y06354D02*
Y06394D01*
G54D13*
X1024Y0754D02*
X1032D01*
X1022Y0752D02*
X1024Y0754D01*
X1006Y075D02*
X1008D01*
X101Y0752*
X10128*
X1076Y0764D02*
X1078D01*
X1056Y0744D02*
X1076Y0764D01*
X1078Y0766D02*
X112D01*
X115D02*
X123D01*
X1242Y0754*
X1248*
X1256Y0762*
X128*
X1286Y0756*
X13Y06D02*
X1308Y0608D01*
Y0618*
X1132Y06D02*
X1138Y0594D01*
X1144*
X12196Y06785D02*
D01*
X1216Y0686D02*
X12196Y06823D01*
X1212Y0686D02*
X1216D01*
X12196Y06785D02*
Y06823D01*
Y06785D02*
X12214D01*
X1218Y0726D02*
Y0728D01*
X1224Y0734*
X1048Y076D02*
X1052D01*
X104Y0752D02*
X1048Y076D01*
X108Y0734D02*
Y074D01*
X1076Y0744D02*
X108Y074D01*
X1172Y0734D02*
X1196D01*
X1204Y0726*
X1218*
X1224Y0734D02*
X127D01*
G54D14*
X12918Y0757D03*
Y0746D03*
Y0735D03*
X13118Y0757D03*
Y0746D03*
Y0735D03*
X1216Y0498D03*
X1226D03*
X1216Y0558D03*
X1196D03*
X1186D03*
X1196Y0498D03*
X1186D03*
X1226Y0558D03*
X1206Y0498D03*
Y0558D03*
X1306Y0494D03*
X1316D03*
X1306Y0554D03*
X1286D03*
X1276D03*
X1286Y0494D03*
X1276D03*
X1316Y0554D03*
X1296Y0494D03*
Y0554D03*
X12958Y0692D03*
X12858D03*
X1028Y0682D03*
Y0692D03*
Y0702D03*
X1186Y0756D03*
X1206Y0726D03*
Y0756D03*
X1186Y0726D03*
X1242Y0754D03*
X098Y06D03*
X0986Y0644D03*
X1262Y0724D03*
X0986Y0656D03*
X098Y059D03*
Y058D03*
X1026Y0604D03*
Y0594D03*
Y0584D03*
X1262Y0754D03*
X1242Y0724D03*
X0986Y0744D03*
X1006D03*
X1026D03*
X1046D03*
X0996D03*
X1016D03*
X1036D03*
X1056D03*
X1234Y0604D03*
G54D15*
X1066Y0534D03*
Y0512D03*
X1256Y0694D03*
X1244D03*
X1074Y0504D03*
X1042Y0572D03*
X1068D03*
X10216Y05656D03*
X1068Y0596D03*
X1066Y0616D03*
X0994Y0648D03*
X1024D03*
X1054Y0484D03*
X12405Y06094D03*
X1192Y0686D03*
X1204Y0696D03*
X1076Y0604D03*
X1206Y0598D03*
X1248Y0532D03*
Y0508D03*
X1166Y0694D03*
X1144Y0702D03*
X12Y0524D03*
X1194Y051D03*
X1196Y0478D03*
X12056Y04896D03*
X1302Y0524D03*
X1284D03*
X1306Y051D03*
X1286Y0532D03*
X1264Y0482D03*
X1304Y0542D03*
X1188Y0546D03*
X1266Y0548D03*
X1196Y055D03*
X1238Y0536D03*
X1296Y0566D03*
X132Y0588D03*
X1276Y0506D03*
X112Y0766D03*
X115D03*
X127Y075D03*
X1295Y0765D03*
X1282Y067D03*
X1304Y0646D03*
X1256Y0718D03*
X13Y06D03*
X0994Y0582D03*
X1132Y06D03*
X12214Y06785D03*
D03*
X1224Y0734D03*
X1176Y067D03*
Y068D03*
X1136Y0682D03*
X1052Y076D03*
X108Y0734D03*
X1172D03*
X127D03*
X10945Y06354D03*
G54D16*
X098Y0542D03*
Y0532D03*
X1018Y051D03*
Y055D03*
X1144Y0594D03*
Y0564D03*
Y0554D03*
Y0544D03*
Y0534D03*
Y0524D03*
Y0514D03*
Y0504D03*
Y0494D03*
X1084Y0644D03*
Y0654D03*
Y0624D03*
X1144Y0684D03*
X1084Y0634D03*
X1052Y067D03*
X1084Y0604D03*
X1052Y063D03*
X1084Y0544D03*
X1056Y0562D03*
Y0602D03*
X1084Y0614D03*
Y0564D03*
Y0574D03*
Y0554D03*
Y0674D03*
Y0664D03*
Y0514D03*
X1042Y0532D03*
X1084Y0504D03*
Y0494D03*
X1042Y0522D03*
X1084Y0594D03*
Y0584D03*
Y0534D03*
Y0524D03*
X1144Y0574D03*
Y0584D03*
Y0604D03*
Y0614D03*
Y0624D03*
Y0634D03*
Y0644D03*
Y0654D03*
Y0664D03*
Y0674D03*
X1212Y0616D03*
Y0626D03*
Y0636D03*
Y0646D03*
Y0656D03*
Y0666D03*
Y0676D03*
Y0686D03*
Y0696D03*
X1182D03*
Y0686D03*
Y0676D03*
Y0666D03*
Y0656D03*
Y0646D03*
Y0636D03*
Y0626D03*
Y0616D03*
Y0606D03*
X1098Y0744D03*
X1138D03*
G54D17*
X13078Y0662D03*
X13158Y0639D03*
X12598Y0662D03*
X13078Y0616D03*
X12598D03*
G54D18*
X1084Y0684D03*
G54D19*
X1212Y0606D03*
G54D20*
X0974Y0474D03*
X1332D03*
X1334Y0774D03*
X097Y0772D03*
G54D21*
X12405Y06234D03*
X1234Y0634D03*
X1248Y0632D03*
X1272Y047D03*
X1135Y049D03*
X1145Y06945D03*
X119Y0535D03*
X1325Y071D03*
X13052Y07698D03*
X113Y0705D03*
X1102Y0606D03*
X111Y067D03*
X126Y07027D03*
X11906D03*
X122Y0695D03*
G54D22*
X1154Y0524D03*
Y0534D03*
Y0544D03*
G54D23*
X1226Y0654D03*
X122Y0664D03*
G54D24*
X11497Y05706D03*
M02*