%FSTAX23Y23*%
%MOIN*%
%SFA1B1*%

%IPPOS*%
%AMD49*
4,1,8,0.049200,-0.015300,0.049200,0.015300,0.034000,0.030500,-0.034000,0.030500,-0.049200,0.015300,-0.049200,-0.015300,-0.034000,-0.030500,0.034000,-0.030500,0.049200,-0.015300,0.0*
%
%ADD10C,0.010000*%
%ADD11R,0.059060X0.039370*%
%ADD25C,0.019690*%
%ADD26C,0.078740*%
%ADD27C,0.039370*%
%ADD28C,0.031500*%
%ADD29C,0.059060*%
%ADD30C,0.003940*%
%ADD32O,0.078740X0.051180*%
%ADD33O,0.062990X0.078740*%
%ADD34C,0.216540*%
%ADD35R,0.078740X0.078740*%
%ADD36C,0.078740*%
%ADD37R,0.078740X0.078740*%
%ADD38O,0.062990X0.078740*%
%ADD39R,0.157480X0.098430*%
%ADD40O,0.157480X0.098430*%
%ADD41C,0.059060*%
%ADD42R,0.059060X0.059060*%
%ADD43R,0.070870X0.070870*%
%ADD44C,0.070870*%
%ADD45C,0.236220*%
%ADD46C,0.212600*%
%ADD47C,0.062990*%
%ADD48R,0.098430X0.061020*%
G04~CAMADD=49~4~0.0~0.0~610.2~984.3~0.0~152.6~0~0.0~0.0~0.0~0.0~0~0.0~0.0~0.0~0.0~0~0.0~0.0~0.0~270.0~984.0~610.0*
%ADD49D49*%
%ADD50C,0.011810*%
%ADD51C,0.100000*%
%ADD52C,0.098430*%
%LNÃÅ½ûÏµÍ³-1*%
%LPD*%
G54D10*
X0552Y02769D02*
D01*
X05518Y02829*
X05511Y02889*
X05501Y02949*
X05486Y03008*
X05468Y03065*
X05445Y03121*
X05419Y03175*
X05388Y03228*
X05354Y03278*
X05317Y03326*
X05277Y03371*
X05233Y03413*
X05187Y03451*
X05138Y03487*
X05087Y03519*
X05033Y03547*
X04978Y03572*
X04921Y03593*
X04863Y03609*
X04804Y03622*
X04744Y0363*
X04684Y03634*
X04624*
X04563Y0363*
X04503Y03622*
X04444Y03609*
X04386Y03593*
X04329Y03572*
X04274Y03547*
X04221Y03519*
X04169Y03487*
X04121Y03451*
X04074Y03413*
X04031Y03371*
X0399Y03326*
X03953Y03278*
X03919Y03228*
X03889Y03175*
X03862Y03121*
X0384Y03065*
X03821Y03008*
X03807Y02949*
X03796Y02889*
X0379Y02829*
X03788Y02769*
Y01233D02*
D01*
X0379Y01173*
X03796Y01113*
X03807Y01053*
X03821Y00995*
X0384Y00937*
X03862Y00881*
X03889Y00827*
X03919Y00774*
X03953Y00724*
X0399Y00677*
X04031Y00632*
X04074Y0059*
X04121Y00551*
X04169Y00515*
X04221Y00483*
X04274Y00455*
X04329Y0043*
X04386Y0041*
X04444Y00393*
X04503Y0038*
X04563Y00372*
X04624Y00368*
X04684*
X04744Y00372*
X04804Y0038*
X04863Y00393*
X04921Y0041*
X04978Y0043*
X05033Y00455*
X05087Y00483*
X05138Y00515*
X05187Y00551*
X05233Y0059*
X05277Y00632*
X05317Y00677*
X05354Y00724*
X05388Y00774*
X05419Y00827*
X05445Y00881*
X05468Y00937*
X05486Y00995*
X05501Y01053*
X05511Y01113*
X05518Y01173*
X0552Y01233*
X0395Y036D02*
D01*
X03949Y03606*
X03949Y03613*
X03947Y0362*
X03946Y03627*
X03944Y03633*
X03941Y0364*
X03938Y03646*
X03935Y03652*
X03931Y03657*
X03926Y03663*
X03922Y03668*
X03917Y03673*
X03912Y03677*
X03906Y03681*
X039Y03685*
X03894Y03688*
X03888Y03691*
X03881Y03693*
X03875Y03695*
X03868Y03696*
X03861Y03697*
X03855Y03698*
X03848*
X03841Y03697*
X03834Y03696*
X03827Y03695*
X03821Y03693*
X03814Y03691*
X03808Y03688*
X03802Y03685*
X03796Y03681*
X0379Y03677*
X03785Y03673*
X0378Y03668*
X03776Y03663*
X03771Y03657*
X03768Y03652*
X03764Y03646*
X03761Y0364*
X03759Y03633*
X03756Y03627*
X03755Y0362*
X03754Y03613*
X03753Y03606*
X03753Y036*
X03753Y03593*
X03754Y03586*
X03755Y03579*
X03756Y03572*
X03759Y03566*
X03761Y03559*
X03764Y03553*
X03768Y03547*
X03771Y03542*
X03776Y03536*
X0378Y03531*
X03785Y03526*
X0379Y03522*
X03796Y03518*
X03802Y03514*
X03808Y03511*
X03814Y03508*
X03821Y03506*
X03827Y03504*
X03834Y03503*
X03841Y03502*
X03848Y03501*
X03855*
X03861Y03502*
X03868Y03503*
X03875Y03504*
X03881Y03506*
X03888Y03508*
X03894Y03511*
X039Y03514*
X03906Y03518*
X03912Y03522*
X03917Y03526*
X03922Y03531*
X03926Y03536*
X03931Y03542*
X03935Y03547*
X03938Y03553*
X03941Y03559*
X03944Y03566*
X03946Y03572*
X03947Y03579*
X03949Y03586*
X03949Y03593*
X0395Y036*
Y00404D02*
D01*
X03949Y00411*
X03949Y00418*
X03947Y00424*
X03946Y00431*
X03944Y00437*
X03941Y00444*
X03938Y0045*
X03935Y00456*
X03931Y00462*
X03926Y00467*
X03922Y00472*
X03917Y00477*
X03912Y00481*
X03906Y00485*
X039Y00489*
X03894Y00492*
X03888Y00495*
X03881Y00497*
X03875Y00499*
X03868Y00501*
X03861Y00502*
X03855Y00502*
X03848*
X03841Y00502*
X03834Y00501*
X03827Y00499*
X03821Y00497*
X03814Y00495*
X03808Y00492*
X03802Y00489*
X03796Y00485*
X0379Y00481*
X03785Y00477*
X0378Y00472*
X03776Y00467*
X03771Y00462*
X03768Y00456*
X03764Y0045*
X03761Y00444*
X03759Y00437*
X03756Y00431*
X03755Y00424*
X03754Y00418*
X03753Y00411*
X03753Y00404*
X03753Y00397*
X03754Y0039*
X03755Y00383*
X03756Y00377*
X03759Y0037*
X03761Y00364*
X03764Y00358*
X03768Y00352*
X03771Y00346*
X03776Y00341*
X0378Y00335*
X03785Y00331*
X0379Y00326*
X03796Y00322*
X03802Y00319*
X03808Y00315*
X03814Y00313*
X03821Y0031*
X03827Y00308*
X03834Y00307*
X03841Y00306*
X03848Y00305*
X03855*
X03861Y00306*
X03868Y00307*
X03875Y00308*
X03881Y0031*
X03888Y00313*
X03894Y00315*
X039Y00319*
X03906Y00322*
X03912Y00326*
X03917Y00331*
X03922Y00335*
X03926Y00341*
X03931Y00346*
X03935Y00352*
X03938Y00358*
X03941Y00364*
X03944Y0037*
X03946Y00377*
X03947Y00383*
X03949Y0039*
X03949Y00397*
X0395Y00404*
X055D02*
D01*
X05499Y00411*
X05499Y00418*
X05497Y00424*
X05496Y00431*
X05494Y00437*
X05491Y00444*
X05488Y0045*
X05485Y00456*
X05481Y00462*
X05476Y00467*
X05472Y00472*
X05467Y00477*
X05462Y00481*
X05456Y00485*
X0545Y00489*
X05444Y00492*
X05438Y00495*
X05431Y00497*
X05425Y00499*
X05418Y00501*
X05411Y00502*
X05405Y00502*
X05398*
X05391Y00502*
X05384Y00501*
X05377Y00499*
X05371Y00497*
X05364Y00495*
X05358Y00492*
X05352Y00489*
X05346Y00485*
X0534Y00481*
X05335Y00477*
X0533Y00472*
X05326Y00467*
X05321Y00462*
X05318Y00456*
X05314Y0045*
X05311Y00444*
X05309Y00437*
X05306Y00431*
X05305Y00424*
X05304Y00418*
X05303Y00411*
X05303Y00404*
X05303Y00397*
X05304Y0039*
X05305Y00383*
X05306Y00377*
X05309Y0037*
X05311Y00364*
X05314Y00358*
X05318Y00352*
X05321Y00346*
X05326Y00341*
X0533Y00335*
X05335Y00331*
X0534Y00326*
X05346Y00322*
X05352Y00319*
X05358Y00315*
X05364Y00313*
X05371Y0031*
X05377Y00308*
X05384Y00307*
X05391Y00306*
X05398Y00305*
X05405*
X05411Y00306*
X05418Y00307*
X05425Y00308*
X05431Y0031*
X05438Y00313*
X05444Y00315*
X0545Y00319*
X05456Y00322*
X05462Y00326*
X05467Y00331*
X05472Y00335*
X05476Y00341*
X05481Y00346*
X05485Y00352*
X05488Y00358*
X05491Y00364*
X05494Y0037*
X05496Y00377*
X05497Y00383*
X05499Y0039*
X05499Y00397*
X055Y00404*
Y036D02*
D01*
X05499Y03606*
X05499Y03613*
X05497Y0362*
X05496Y03627*
X05494Y03633*
X05491Y0364*
X05488Y03646*
X05485Y03652*
X05481Y03657*
X05476Y03663*
X05472Y03668*
X05467Y03673*
X05462Y03677*
X05456Y03681*
X0545Y03685*
X05444Y03688*
X05438Y03691*
X05431Y03693*
X05425Y03695*
X05418Y03696*
X05411Y03697*
X05405Y03698*
X05398*
X05391Y03697*
X05384Y03696*
X05377Y03695*
X05371Y03693*
X05364Y03691*
X05358Y03688*
X05352Y03685*
X05346Y03681*
X0534Y03677*
X05335Y03673*
X0533Y03668*
X05326Y03663*
X05321Y03657*
X05318Y03652*
X05314Y03646*
X05311Y0364*
X05309Y03633*
X05306Y03627*
X05305Y0362*
X05304Y03613*
X05303Y03606*
X05303Y036*
X05303Y03593*
X05304Y03586*
X05305Y03579*
X05306Y03572*
X05309Y03566*
X05311Y03559*
X05314Y03553*
X05318Y03547*
X05321Y03542*
X05326Y03536*
X0533Y03531*
X05335Y03526*
X0534Y03522*
X05346Y03518*
X05352Y03514*
X05358Y03511*
X05364Y03508*
X05371Y03506*
X05377Y03504*
X05384Y03503*
X05391Y03502*
X05398Y03501*
X05405*
X05411Y03502*
X05418Y03503*
X05425Y03504*
X05431Y03506*
X05438Y03508*
X05444Y03511*
X0545Y03514*
X05456Y03518*
X05462Y03522*
X05467Y03526*
X05472Y03531*
X05476Y03536*
X05481Y03542*
X05485Y03547*
X05488Y03553*
X05491Y03559*
X05494Y03566*
X05496Y03572*
X05497Y03579*
X05499Y03586*
X05499Y03593*
X055Y036*
X03788Y01233D02*
Y02769D01*
X0552Y01233D02*
Y02769D01*
G54D11*
X00179Y0252D03*
X0026D03*
G54D25*
X0077Y0335D02*
Y0347D01*
X0099Y0335D02*
Y0346D01*
X0015Y0285D02*
Y0285D01*
X00936Y02784D02*
Y0285D01*
X0015D02*
X00936D01*
X00463Y02303D02*
Y024D01*
X00264D02*
X00463D01*
Y0245D02*
X0063D01*
X00463Y024D02*
Y0245D01*
X0077D02*
X00936D01*
Y02303D02*
Y02325D01*
Y0245*
X00175Y024D02*
Y0252D01*
X0026D02*
X01D01*
Y0257*
X0102*
X0132Y0049D02*
Y0068D01*
X0211Y0047D02*
Y0101D01*
X0343*
X0142Y0059D02*
Y007D01*
X0044Y0325D02*
X0073D01*
X0102Y03125D02*
X011D01*
X0102Y0261D02*
Y03125D01*
X0053Y0261D02*
X0102D01*
X0071Y0098D02*
X0122D01*
X02379Y02081D02*
Y02625D01*
X017D02*
X02379D01*
X017Y02725D02*
X02479D01*
Y02081D02*
Y02725D01*
X02579Y02081D02*
Y02825D01*
X017D02*
X02579D01*
X02679Y02081D02*
Y02925D01*
X017D02*
X02679D01*
X0122Y0096D02*
Y0098D01*
X011Y0302D02*
Y03025D01*
Y0302D02*
X0121D01*
X0142Y02125D02*
X017D01*
X0117Y02574D02*
X0125D01*
X0135Y02025D02*
X017D01*
X0154Y0257D02*
Y03025D01*
X017*
X0158Y0233D02*
X017D01*
X00936Y02325D02*
X011D01*
X0025Y0297D02*
Y03025D01*
Y0297D02*
X0069D01*
X0015Y0293D02*
Y03025D01*
Y03075*
Y0293D02*
X008D01*
X0135Y02025D02*
Y0365D01*
X0142Y02125D02*
Y0369D01*
X0025Y03325D02*
Y0344D01*
X0096Y0346D02*
X0099D01*
X0096D02*
Y0354D01*
X00925Y03575D02*
X0096Y0354D01*
X0075Y0347D02*
X0077D01*
X0075D02*
Y0355D01*
X00725Y03575D02*
X0075Y0355D01*
X0056Y0335D02*
X0068D01*
X0056D02*
Y0354D01*
X0036Y0335D02*
X0045D01*
X0036D02*
Y0354D01*
X0034Y0356D02*
X0036Y0354D01*
X0032Y0365D02*
X0135D01*
X0025Y0344D02*
X0029Y0348D01*
Y0362*
X0032Y0365*
X0015Y03325D02*
Y0342D01*
X00252Y03522D02*
Y03642D01*
X0015Y0342D02*
X00252Y03522D01*
Y03642D02*
X003Y0369D01*
X0142*
X01479Y0185D02*
X0175D01*
X01479Y0117D02*
Y0118D01*
Y0185*
X017Y02525D02*
X01715D01*
X0181*
X0175Y0185D02*
Y0197D01*
X0181*
Y02525*
G54D26*
X0007Y0202D02*
X0015D01*
X0007Y02012D02*
Y0202D01*
X00165Y0036D02*
Y0054D01*
Y0074D02*
Y0085D01*
X0045*
X00165Y0036D02*
X0042D01*
X0049*
X0122Y0037D02*
Y0059D01*
Y006*
X0007Y0265D02*
X0015D01*
X0007D02*
Y027D01*
X0006Y0054D02*
X00165D01*
X0006D02*
Y01125D01*
X00155*
X0007Y0202D02*
Y0265D01*
X0045Y0037D02*
X0122D01*
X00047Y01125D02*
X0006D01*
X00047D02*
Y02012D01*
X0007*
G54D27*
X0122Y0186D02*
X0126D01*
X0122Y0165D02*
Y0186D01*
G54D28*
X0015Y0192D02*
X0022D01*
X011Y03325D02*
X0122D01*
X0153Y0353D02*
X0156Y035D01*
X02779*
Y02081D02*
Y035D01*
G54D29*
X009Y0212D02*
Y02267D01*
X00936Y02303*
X0007Y0265D02*
Y0275D01*
X0005Y0277D02*
X0007Y0275D01*
X0005Y0315D02*
X0072D01*
X0122Y0194D02*
X0165D01*
X0122D02*
Y02325D01*
X0005Y0277D02*
Y0315D01*
X02979Y0177D02*
Y02081D01*
X0157Y0107D02*
Y0177D01*
X0122Y0107D02*
Y0108D01*
Y0107D02*
X0157D01*
X0186Y019D02*
Y0191D01*
X01115Y02325D02*
X0122D01*
X0157Y0177D02*
X02979D01*
X02879Y0187D02*
Y02081D01*
X0186Y0187D02*
Y01886D01*
Y0187D02*
X02879D01*
G54D30*
X0Y037D02*
X001Y038D01*
X056*
X0Y00096D02*
Y037D01*
X001Y0D02*
X056D01*
X0Y001D02*
X001Y0D01*
X056D02*
X0565Y0005D01*
Y0375*
X056Y038D02*
X0565Y0375D01*
G54D32*
X01115Y02025D03*
Y02125D03*
Y02225D03*
Y02325D03*
Y02425D03*
Y02525D03*
Y02625D03*
Y02725D03*
Y02825D03*
Y02925D03*
Y03025D03*
Y03125D03*
Y03225D03*
Y03325D03*
Y03425D03*
X01715D03*
Y03325D03*
Y03225D03*
Y03125D03*
Y03025D03*
Y02925D03*
Y02825D03*
Y02725D03*
Y02625D03*
Y02525D03*
Y02425D03*
Y02325D03*
Y02225D03*
Y02125D03*
Y02025D03*
G54D33*
X02979Y02081D03*
X02879D03*
X02779D03*
X02679D03*
X02579D03*
X02479D03*
X02379D03*
X02279D03*
X00264Y024D03*
X00175D03*
G54D34*
X01965Y02042D03*
X03322D03*
X01965Y03651D03*
X03322D03*
X055Y001D03*
X035Y034D03*
G54D35*
X00155Y01325D03*
X0015Y0285D03*
X00165Y0074D03*
G54D36*
X00155Y01125D03*
X0036Y0358D03*
X00755D03*
X0132Y0049D03*
X0142Y0059D03*
X0122D03*
X0015Y0265D03*
X00165Y0054D03*
X00936Y02303D03*
X00463D03*
X00936Y02784D03*
X00463D03*
X007Y02225D03*
G54D37*
X0056Y0358D03*
X00955D03*
G54D38*
X00085Y024D03*
G54D39*
X0053Y01425D03*
D03*
G54D40*
X0053Y0107D03*
Y01247D03*
G54D41*
X0025Y03325D03*
X0015D03*
X0025Y03025D03*
G54D42*
X0015Y03025D03*
G54D43*
X0015Y0192D03*
G54D44*
X0015Y0202D03*
G54D45*
X0015Y0015D03*
G54D46*
X0012Y0367D03*
G54D47*
X0045Y0335D03*
X0068D03*
X0077D03*
X0099D03*
X0074Y0118D03*
Y0112D03*
X0041Y0085D03*
X0036D03*
X0042Y0036D03*
X0049D03*
X0132Y0068D03*
X0211Y0047D03*
X0343Y0101D03*
X0142Y007D03*
X0102Y0165D03*
X009Y0212D03*
Y0206D03*
X0022Y0192D03*
X0072Y0315D03*
X0073Y0325D03*
X0044D03*
X0052Y0261D03*
X0071Y0098D03*
X0074Y01065D03*
X0121Y0302D03*
X0127Y0257D03*
X0154D03*
X0122Y03325D03*
X0153Y0353D03*
X0158Y0233D03*
X0165Y0194D03*
X0127Y0185D03*
X008Y0296D03*
X007Y03D03*
X01479Y0118D03*
X0122Y0099D03*
X0005Y0169D03*
X0186Y0191D03*
G54D48*
X0063Y0245D03*
G54D49*
X0077Y0245D03*
G54D50*
X0102Y0257D02*
Y02574D01*
X0117*
G54D51*
X0053Y01247D02*
X00612D01*
X00695Y01165*
X0074Y0112*
X00695Y01165D02*
Y02225D01*
X00155Y01325D02*
Y0133D01*
X0028Y01425D02*
X0029D01*
X00155Y0133D02*
X0028D01*
X0029Y01425D02*
X0053D01*
X0028Y0133D02*
Y01425D01*
G54D52*
X0122Y0059D02*
Y0096D01*
X0102Y0165D02*
X0122D01*
Y0098D02*
Y0107D01*
Y0108D02*
Y0165D01*
M02*